<?xml version="1.0" encoding="UTF-8" standalone="no"?>
<!DOCTYPE svg PUBLIC "-//W3C//DTD SVG 1.1//EN" "http://www.w3.org/Graphics/SVG/1.1/DTD/svg11.dtd">
<svg width="100%" height="100%" viewBox="0 0 2080 1287" version="1.1" xmlns="http://www.w3.org/2000/svg" xmlns:xlink="http://www.w3.org/1999/xlink" xml:space="preserve" xmlns:serif="http://www.serif.com/" style="fill-rule:evenodd;clip-rule:evenodd;stroke-miterlimit:8;">
    <g transform="matrix(1,0,0,1,0,4)">
        <path d="M252.5,736.2C252.5,724.768 261.768,715.5 273.2,715.5L645.8,715.5C657.232,715.5 666.5,724.768 666.5,736.2L666.5,901.8C666.5,913.232 657.232,922.5 645.8,922.5L273.2,922.5C261.768,922.5 252.5,913.232 252.5,901.8L252.5,736.2Z" style="fill:rgb(101,156,63);stroke:white;stroke-width:4.58px;"/>
        <g transform="matrix(1,0,0,1,310.922,831)">
            <text x="0px" y="0px" style="font-family:'Calibri', sans-serif;font-size:46px;fill:white;">Arbeitsber<tspan x="196.151px 219.039px " y="0px 0px ">ei</tspan>che</text>
        </g>
        <path d="M665.905,818.632L831.641,461.263" style="fill:none;stroke:rgb(115,174,76);stroke-width:4.58px;"/>
        <path d="M832.5,379.2C832.5,367.768 841.768,358.5 853.2,358.5L1225.8,358.5C1237.23,358.5 1246.5,367.768 1246.5,379.2L1246.5,544.8C1246.5,556.232 1237.23,565.5 1225.8,565.5L853.2,565.5C841.768,565.5 832.5,556.232 832.5,544.8L832.5,379.2Z" style="fill:rgb(115,174,76);stroke:white;stroke-width:4.58px;"/>
        <g transform="matrix(1,0,0,1,949.712,449)">
            <text x="0px" y="0px" style="font-family:'Calibri', sans-serif;font-size:46px;fill:white;">Ne<tspan x="52.334px 67.742px 85.419px 117.897px 140.785px " y="0px 0px 0px 0px 0px ">tzwer</tspan>k</text>
            <g transform="matrix(1,0,0,1,-23.6959,50)">
                <text x="0px" y="0px" style="font-family:'Calibri', sans-serif;font-size:46px;fill:white;">En<tspan x="46.202px 61.61px " y="0px 0px ">tw</tspan>icklung</text>
            </g>
        </g>
        <path d="M1245.98,461.263L1411.72,103.893" style="fill:none;stroke:rgb(155,193,137);stroke-width:4.58px;"/>
        <path d="M1412.5,21.2C1412.5,9.768 1421.77,0.5 1433.2,0.5L1805.8,0.5C1817.23,0.5 1826.5,9.768 1826.5,21.2L1826.5,186.8C1826.5,198.232 1817.23,207.5 1805.8,207.5L1433.2,207.5C1421.77,207.5 1412.5,198.232 1412.5,186.8L1412.5,21.2Z" style="fill:rgb(155,193,137);stroke:white;stroke-width:4.58px;"/>
        <g transform="matrix(1,0,0,1,1506.45,117)">
            <text x="0px" y="0px" style="font-family:'Calibri', sans-serif;font-size:46px;fill:white;">Go<tspan x="53.075px 73.402px 96.29px " y="0px 0px 0px ">ver</tspan>nance</text>
        </g>
        <path d="M1245.98,461.263L1411.72,342.14" style="fill:none;stroke:rgb(155,193,137);stroke-width:4.58px;"/>
        <path d="M1412.5,260.2C1412.5,248.768 1421.77,239.5 1433.2,239.5L1805.8,239.5C1817.23,239.5 1826.5,248.768 1826.5,260.2L1826.5,425.8C1826.5,437.232 1817.23,446.5 1805.8,446.5L1433.2,446.5C1421.77,446.5 1412.5,437.232 1412.5,425.8L1412.5,260.2Z" style="fill:rgb(155,193,137);stroke:white;stroke-width:4.58px;"/>
        <g transform="matrix(1,0,0,1,1500.33,355)">
            <text x="0px" y="0px" style="font-family:'Calibri', sans-serif;font-size:46px;fill:white;">In<tspan x="35.488px 49.526px 64.62px 86.654px 104.129px 119.537px " y="0px 0px 0px 0px 0px 0px ">frastr</tspan>uk<tspan x="180.429px 195.837px " y="0px 0px ">tu</tspan>r</text>
        </g>
        <path d="M1245.98,461.263L1411.72,580.386" style="fill:none;stroke:rgb(155,193,137);stroke-width:4.58px;"/>
        <path d="M1412.5,498.2C1412.5,486.768 1421.77,477.5 1433.2,477.5L1805.8,477.5C1817.23,477.5 1826.5,486.768 1826.5,498.2L1826.5,663.8C1826.5,675.232 1817.23,684.5 1805.8,684.5L1433.2,684.5C1421.77,684.5 1412.5,675.232 1412.5,663.8L1412.5,498.2Z" style="fill:rgb(155,193,137);stroke:white;stroke-width:4.58px;"/>
        <g transform="matrix(1,0,0,1,1496.69,568)">
            <text x="0px" y="0px" style="font-family:'Calibri', sans-serif;font-size:46px;fill:white;">Me<tspan x="61.97px 77.378px " y="0px 0px ">th</tspan>odische</text>
            <g transform="matrix(1,0,0,1,9.39587,50)">
                <text x="0px" y="0px" style="font-family:'Calibri', sans-serif;font-size:46px;fill:white;">En<tspan x="46.202px 61.61px " y="0px 0px ">tw</tspan>icklung</text>
            </g>
        </g>
        <path d="M1245.98,461.263L1411.72,818.632" style="fill:none;stroke:rgb(155,193,137);stroke-width:4.58px;"/>
        <path d="M1412.5,736.2C1412.5,724.768 1421.77,715.5 1433.2,715.5L1805.8,715.5C1817.23,715.5 1826.5,724.768 1826.5,736.2L1826.5,901.8C1826.5,913.232 1817.23,922.5 1805.8,922.5L1433.2,922.5C1421.77,922.5 1412.5,913.232 1412.5,901.8L1412.5,736.2Z" style="fill:rgb(155,193,137);stroke:white;stroke-width:4.58px;"/>
        <g transform="matrix(1,0,0,1,1499.95,806)">
            <g transform="matrix(46,0,0,46,127.825,0)">
                <path d="M0.457,-0.464C0.467,-0.464 0.473,-0.462 0.477,-0.458C0.481,-0.453 0.482,-0.447 0.482,-0.438L0.482,-0.012C0.482,-0.01 0.482,-0.007 0.48,-0.006C0.479,-0.004 0.477,-0.002 0.474,-0.001C0.471,0 0.467,0.001 0.461,0.002C0.456,0.003 0.45,0.003 0.442,0.003C0.434,0.003 0.428,0.003 0.422,0.002C0.417,0.001 0.413,0 0.41,-0.001C0.407,-0.002 0.405,-0.004 0.403,-0.006C0.402,-0.007 0.401,-0.01 0.401,-0.012L0.401,-0.397L0.174,-0.397L0.174,-0.152C0.174,-0.122 0.179,-0.099 0.188,-0.084C0.197,-0.068 0.213,-0.061 0.236,-0.061C0.243,-0.061 0.25,-0.061 0.256,-0.063C0.262,-0.064 0.267,-0.066 0.271,-0.067C0.276,-0.069 0.28,-0.071 0.283,-0.072C0.286,-0.073 0.289,-0.074 0.292,-0.074C0.294,-0.074 0.295,-0.074 0.297,-0.073C0.298,-0.072 0.299,-0.071 0.3,-0.068C0.301,-0.066 0.302,-0.063 0.302,-0.059C0.303,-0.055 0.303,-0.05 0.303,-0.044C0.303,-0.035 0.303,-0.028 0.301,-0.022C0.3,-0.017 0.298,-0.013 0.295,-0.01C0.293,-0.007 0.289,-0.005 0.284,-0.002C0.278,-0 0.273,0.002 0.266,0.003C0.259,0.005 0.252,0.006 0.245,0.007C0.237,0.008 0.23,0.008 0.222,0.008C0.199,0.008 0.18,0.005 0.164,-0.001C0.147,-0.007 0.134,-0.016 0.124,-0.028C0.113,-0.04 0.106,-0.056 0.101,-0.074C0.096,-0.093 0.094,-0.115 0.094,-0.141L0.094,-0.397L0.032,-0.397C0.027,-0.397 0.023,-0.4 0.021,-0.405C0.018,-0.41 0.016,-0.419 0.016,-0.431C0.016,-0.437 0.017,-0.442 0.017,-0.446C0.018,-0.451 0.019,-0.454 0.021,-0.457C0.022,-0.46 0.024,-0.462 0.026,-0.463C0.028,-0.464 0.03,-0.464 0.033,-0.464L0.094,-0.464L0.094,-0.569C0.094,-0.571 0.094,-0.573 0.095,-0.575C0.097,-0.577 0.099,-0.579 0.102,-0.58C0.105,-0.582 0.109,-0.583 0.114,-0.583C0.119,-0.584 0.126,-0.584 0.134,-0.584C0.142,-0.584 0.149,-0.584 0.154,-0.583C0.159,-0.583 0.163,-0.582 0.166,-0.58C0.169,-0.579 0.171,-0.577 0.172,-0.575C0.174,-0.573 0.174,-0.571 0.174,-0.569L0.174,-0.464L0.457,-0.464ZM0.492,-0.6C0.492,-0.581 0.488,-0.568 0.481,-0.562C0.474,-0.555 0.461,-0.551 0.441,-0.551C0.423,-0.551 0.41,-0.555 0.403,-0.561C0.396,-0.568 0.392,-0.581 0.392,-0.599C0.392,-0.618 0.396,-0.631 0.403,-0.638C0.41,-0.645 0.423,-0.648 0.442,-0.648C0.461,-0.648 0.474,-0.645 0.481,-0.638C0.488,-0.631 0.492,-0.619 0.492,-0.6ZM0.327,-0.464" style="fill:white;fill-rule:nonzero;"/>
            </g>
            <text x="0px" y="0px" style="font-family:'Calibri', sans-serif;font-size:46px;fill:white;">Thema<tspan x="153.453px " y="0px ">s</tspan>che</text>
            <g transform="matrix(1,0,0,1,6.1416,50)">
                <text x="0px" y="0px" style="font-family:'Calibri', sans-serif;font-size:46px;fill:white;">En<tspan x="46.202px 61.61px " y="0px 0px ">tw</tspan>icklung</text>
            </g>
        </g>
        <path d="M665.905,818.632L831.641,699.509" style="fill:none;stroke:rgb(115,174,76);stroke-width:4.58px;"/>
        <path d="M832.5,617.2C832.5,605.768 841.768,596.5 853.2,596.5L1225.8,596.5C1237.23,596.5 1246.5,605.768 1246.5,617.2L1246.5,782.8C1246.5,794.232 1237.23,803.5 1225.8,803.5L853.2,803.5C841.768,803.5 832.5,794.232 832.5,782.8L832.5,617.2Z" style="fill:rgb(115,174,76);stroke:white;stroke-width:4.58px;"/>
        <g transform="matrix(1,0,0,1,882.234,662)">
            <g transform="matrix(1,0,0,1,71.4356,2.7144)">
                <text x="0px" y="0px" style="font-family:'Calibri', sans-serif;font-size:46px;fill:white;">Inklusion</text>
            </g>
            <g transform="matrix(1,0,0,1,79.2229,50)">
                <text x="0px" y="0px" style="font-family:'Calibri', sans-serif;font-size:46px;fill:white;">über die</text>
            </g>
            <g transform="matrix(1,0,0,1,23.6271,101)">
                <text x="0px" y="0px" style="font-family:'Calibri', sans-serif;font-size:46px;fill:white;">Lebensspanne</text>
            </g>
        </g>
        <path d="M665.905,818.632L831.642,937.755" style="fill:none;stroke:rgb(115,174,76);stroke-width:4.58px;"/>
        <path d="M832.5,855.2C832.5,843.768 841.768,834.5 853.2,834.5L1225.8,834.5C1237.23,834.5 1246.5,843.768 1246.5,855.2L1246.5,1020.8C1246.5,1032.23 1237.23,1041.5 1225.8,1041.5L853.2,1041.5C841.768,1041.5 832.5,1032.23 832.5,1020.8L832.5,855.2Z" style="fill:rgb(115,174,76);stroke:white;stroke-width:4.58px;"/>
        <g transform="matrix(1,0,0,1,851.228,925)">
            <text x="0px" y="0px" style="font-family:'Calibri', sans-serif;font-size:46px;fill:white;">Pr<tspan x="39.06px 63.317px 76.21px 99.098px " y="0px 0px 0px 0px ">ofes</tspan>sionalisierung</text>
            <g transform="matrix(1,0,0,1,71.5,50)">
                <text x="0px" y="0px" style="font-family:'Calibri', sans-serif;font-size:46px;fill:white;">für Inklusion</text>
            </g>
        </g>
        <path d="M665.905,818.632L831.642,1176" style="fill:none;stroke:rgb(115,174,76);stroke-width:4.58px;"/>
        <path d="M832.5,1093.3C832.5,1081.81 841.813,1072.5 853.3,1072.5L1225.7,1072.5C1237.19,1072.5 1246.5,1081.81 1246.5,1093.3L1246.5,1259.7C1246.5,1271.19 1237.19,1280.5 1225.7,1280.5L853.3,1280.5C841.813,1280.5 832.5,1271.19 832.5,1259.7L832.5,1093.3Z" style="fill:rgb(115,174,76);stroke:white;stroke-width:4.58px;"/>
        <g transform="matrix(1,0,0,1,864.462,1164)">
            <text x="0px" y="0px" style="font-family:'Calibri', sans-serif;font-size:46px;fill:white;">Digit<tspan x="85.913px 107.947px " y="0px 0px ">al</tspan>isierung und</text>
            <g transform="matrix(1,0,0,1,90.475,50)">
                <text x="0px" y="0px" style="font-family:'Calibri', sans-serif;font-size:46px;fill:white;">Inklusion</text>
            </g>
        </g>
    </g>
</svg>
