<svg width="2080" height="1287" xmlns="http://www.w3.org/2000/svg" xmlns:xlink="http://www.w3.org/1999/xlink" overflow="hidden"><defs><clipPath id="clip0"><rect x="0" y="-4" width="2080" height="1287"/></clipPath></defs><g clip-path="url(#clip0)" transform="matrix(1 0 0 1 0 4)"><path d="M252.5 736.2C252.5 724.768 261.768 715.5 273.2 715.5L645.8 715.5C657.232 715.5 666.5 724.768 666.5 736.2L666.5 901.8C666.5 913.232 657.232 922.5 645.8 922.5L273.2 922.5C261.768 922.5 252.5 913.232 252.5 901.8Z" stroke="#FFFFFF" stroke-width="4.58333" stroke-linecap="butt" stroke-linejoin="miter" stroke-miterlimit="8" stroke-opacity="1" fill="#659C3F" fill-rule="evenodd" fill-opacity="1"/><text fill="#FFFFFF" fill-opacity="1" font-family="Calibri,Calibri_MSFontService,sans-serif" font-style="normal" font-variant="normal" font-weight="400" font-stretch="normal" font-size="46" text-anchor="start" direction="ltr" writing-mode="lr-tb" unicode-bidi="normal" text-decoration="none" transform="matrix(1 0 0 1 310.922 831)">Arbeitsbereiche</text><path d="M665.905 818.632 831.641 461.263" stroke="#73AE4C" stroke-width="4.58333" stroke-linecap="butt" stroke-linejoin="miter" stroke-miterlimit="8" stroke-opacity="1" fill="none" fill-rule="evenodd"/><path d="M832.5 379.2C832.5 367.768 841.768 358.5 853.2 358.5L1225.8 358.5C1237.23 358.5 1246.5 367.768 1246.5 379.2L1246.5 544.8C1246.5 556.232 1237.23 565.5 1225.8 565.5L853.2 565.5C841.768 565.5 832.5 556.232 832.5 544.8Z" stroke="#FFFFFF" stroke-width="4.58333" stroke-linecap="butt" stroke-linejoin="miter" stroke-miterlimit="8" stroke-opacity="1" fill="#73AE4C" fill-rule="evenodd" fill-opacity="1"/><text fill="#FFFFFF" fill-opacity="1" font-family="Calibri,Calibri_MSFontService,sans-serif" font-style="normal" font-variant="normal" font-weight="400" font-stretch="normal" font-size="46" text-anchor="start" direction="ltr" writing-mode="lr-tb" unicode-bidi="normal" text-decoration="none" transform="matrix(1 0 0 1 949.712 449)">Netzwerk <tspan fill="#FFFFFF" fill-opacity="1" font-family="Calibri,Calibri_MSFontService,sans-serif" font-style="normal" font-variant="normal" font-weight="400" font-stretch="normal" font-size="46" text-anchor="start" direction="ltr" writing-mode="lr-tb" unicode-bidi="normal" text-decoration="none" x="-23.6959" y="50">Entwicklung </tspan></text><path d="M1245.98 461.263 1411.72 103.893" stroke="#9BC189" stroke-width="4.58333" stroke-linecap="butt" stroke-linejoin="miter" stroke-miterlimit="8" stroke-opacity="1" fill="none" fill-rule="evenodd"/><path d="M1412.5 21.1999C1412.5 9.76756 1421.77 0.499836 1433.2 0.499836L1805.8 0.499836C1817.23 0.499836 1826.5 9.76756 1826.5 21.1999L1826.5 186.8C1826.5 198.232 1817.23 207.5 1805.8 207.5L1433.2 207.5C1421.77 207.5 1412.5 198.232 1412.5 186.8Z" stroke="#FFFFFF" stroke-width="4.58333" stroke-linecap="butt" stroke-linejoin="miter" stroke-miterlimit="8" stroke-opacity="1" fill="#9BC189" fill-rule="evenodd" fill-opacity="1"/><text fill="#FFFFFF" fill-opacity="1" font-family="Calibri,Calibri_MSFontService,sans-serif" font-style="normal" font-variant="normal" font-weight="400" font-stretch="normal" font-size="46" text-anchor="start" direction="ltr" writing-mode="lr-tb" unicode-bidi="normal" text-decoration="none" transform="matrix(1 0 0 1 1506.45 117)">Governance</text><path d="M1245.98 461.263 1411.72 342.14" stroke="#9BC189" stroke-width="4.58333" stroke-linecap="butt" stroke-linejoin="miter" stroke-miterlimit="8" stroke-opacity="1" fill="none" fill-rule="evenodd"/><path d="M1412.5 260.2C1412.5 248.768 1421.77 239.5 1433.2 239.5L1805.8 239.5C1817.23 239.5 1826.5 248.768 1826.5 260.2L1826.5 425.8C1826.5 437.232 1817.23 446.5 1805.8 446.5L1433.2 446.5C1421.77 446.5 1412.5 437.232 1412.5 425.8Z" stroke="#FFFFFF" stroke-width="4.58333" stroke-linecap="butt" stroke-linejoin="miter" stroke-miterlimit="8" stroke-opacity="1" fill="#9BC189" fill-rule="evenodd" fill-opacity="1"/><text fill="#FFFFFF" fill-opacity="1" font-family="Calibri,Calibri_MSFontService,sans-serif" font-style="normal" font-variant="normal" font-weight="400" font-stretch="normal" font-size="46" text-anchor="start" direction="ltr" writing-mode="lr-tb" unicode-bidi="normal" text-decoration="none" transform="matrix(1 0 0 1 1500.33 355)">Infrastruktur</text><path d="M1245.98 461.263 1411.72 580.386" stroke="#9BC189" stroke-width="4.58333" stroke-linecap="butt" stroke-linejoin="miter" stroke-miterlimit="8" stroke-opacity="1" fill="none" fill-rule="evenodd"/><path d="M1412.5 498.2C1412.5 486.768 1421.77 477.5 1433.2 477.5L1805.8 477.5C1817.23 477.5 1826.5 486.768 1826.5 498.2L1826.5 663.8C1826.5 675.232 1817.23 684.5 1805.8 684.5L1433.2 684.5C1421.77 684.5 1412.5 675.232 1412.5 663.8Z" stroke="#FFFFFF" stroke-width="4.58333" stroke-linecap="butt" stroke-linejoin="miter" stroke-miterlimit="8" stroke-opacity="1" fill="#9BC189" fill-rule="evenodd" fill-opacity="1"/><text fill="#FFFFFF" fill-opacity="1" font-family="Calibri,Calibri_MSFontService,sans-serif" font-style="normal" font-variant="normal" font-weight="400" font-stretch="normal" font-size="46" text-anchor="start" direction="ltr" writing-mode="lr-tb" unicode-bidi="normal" text-decoration="none" transform="matrix(1 0 0 1 1496.69 568)">Methodische <tspan fill="#FFFFFF" fill-opacity="1" font-family="Calibri,Calibri_MSFontService,sans-serif" font-style="normal" font-variant="normal" font-weight="400" font-stretch="normal" font-size="46" text-anchor="start" direction="ltr" writing-mode="lr-tb" unicode-bidi="normal" text-decoration="none" x="9.39587" y="50">Entwicklung</tspan></text><path d="M1245.98 461.263 1411.72 818.632" stroke="#9BC189" stroke-width="4.58333" stroke-linecap="butt" stroke-linejoin="miter" stroke-miterlimit="8" stroke-opacity="1" fill="none" fill-rule="evenodd"/><path d="M1412.5 736.2C1412.5 724.768 1421.77 715.5 1433.2 715.5L1805.8 715.5C1817.23 715.5 1826.5 724.768 1826.5 736.2L1826.5 901.8C1826.5 913.232 1817.23 922.5 1805.8 922.5L1433.2 922.5C1421.77 922.5 1412.5 913.232 1412.5 901.8Z" stroke="#FFFFFF" stroke-width="4.58333" stroke-linecap="butt" stroke-linejoin="miter" stroke-miterlimit="8" stroke-opacity="1" fill="#9BC189" fill-rule="evenodd" fill-opacity="1"/><text fill="#FFFFFF" fill-opacity="1" font-family="Calibri,Calibri_MSFontService,sans-serif" font-style="normal" font-variant="normal" font-weight="400" font-stretch="normal" font-size="46" text-anchor="start" direction="ltr" writing-mode="lr-tb" unicode-bidi="normal" text-decoration="none" transform="matrix(1 0 0 1 1499.95 806)">Thematische <tspan fill="#FFFFFF" fill-opacity="1" font-family="Calibri,Calibri_MSFontService,sans-serif" font-style="normal" font-variant="normal" font-weight="400" font-stretch="normal" font-size="46" text-anchor="start" direction="ltr" writing-mode="lr-tb" unicode-bidi="normal" text-decoration="none" x="6.1416" y="50">Entwicklung</tspan></text><path d="M665.905 818.632 831.641 699.509" stroke="#73AE4C" stroke-width="4.58333" stroke-linecap="butt" stroke-linejoin="miter" stroke-miterlimit="8" stroke-opacity="1" fill="none" fill-rule="evenodd"/><path d="M832.5 617.2C832.5 605.768 841.768 596.5 853.2 596.5L1225.8 596.5C1237.23 596.5 1246.5 605.768 1246.5 617.2L1246.5 782.8C1246.5 794.232 1237.23 803.5 1225.8 803.5L853.2 803.5C841.768 803.5 832.5 794.232 832.5 782.8Z" stroke="#FFFFFF" stroke-width="4.58333" stroke-linecap="butt" stroke-linejoin="miter" stroke-miterlimit="8" stroke-opacity="1" fill="#73AE4C" fill-rule="evenodd" fill-opacity="1"/><text fill="#FFFFFF" fill-opacity="1" font-family="Calibri,Calibri_MSFontService,sans-serif" font-style="normal" font-variant="normal" font-weight="400" font-stretch="normal" font-size="46" text-anchor="start" direction="ltr" writing-mode="lr-tb" unicode-bidi="normal" text-decoration="none" transform="matrix(1 0 0 1 882.234 662)">Inklusive Bildung <tspan fill="#FFFFFF" fill-opacity="1" font-family="Calibri,Calibri_MSFontService,sans-serif" font-style="normal" font-variant="normal" font-weight="400" font-stretch="normal" font-size="46" text-anchor="start" direction="ltr" writing-mode="lr-tb" unicode-bidi="normal" text-decoration="none" x="79.2229" y="50">über die </tspan><tspan fill="#FFFFFF" fill-opacity="1" font-family="Calibri,Calibri_MSFontService,sans-serif" font-style="normal" font-variant="normal" font-weight="400" font-stretch="normal" font-size="46" text-anchor="start" direction="ltr" writing-mode="lr-tb" unicode-bidi="normal" text-decoration="none" x="23.6271" y="101">Lebensspanne</tspan></text><path d="M665.905 818.632 831.642 937.755" stroke="#73AE4C" stroke-width="4.58333" stroke-linecap="butt" stroke-linejoin="miter" stroke-miterlimit="8" stroke-opacity="1" fill="none" fill-rule="evenodd"/><path d="M832.5 855.2C832.5 843.768 841.768 834.5 853.2 834.5L1225.8 834.5C1237.23 834.5 1246.5 843.768 1246.5 855.2L1246.5 1020.8C1246.5 1032.23 1237.23 1041.5 1225.8 1041.5L853.2 1041.5C841.768 1041.5 832.5 1032.23 832.5 1020.8Z" stroke="#FFFFFF" stroke-width="4.58333" stroke-linecap="butt" stroke-linejoin="miter" stroke-miterlimit="8" stroke-opacity="1" fill="#73AE4C" fill-rule="evenodd" fill-opacity="1"/><text fill="#FFFFFF" fill-opacity="1" font-family="Calibri,Calibri_MSFontService,sans-serif" font-style="normal" font-variant="normal" font-weight="400" font-stretch="normal" font-size="46" text-anchor="start" direction="ltr" writing-mode="lr-tb" unicode-bidi="normal" text-decoration="none" transform="matrix(1 0 0 1 851.228 925)">Professionalisierung <tspan fill="#FFFFFF" fill-opacity="1" font-family="Calibri,Calibri_MSFontService,sans-serif" font-style="normal" font-variant="normal" font-weight="400" font-stretch="normal" font-size="46" text-anchor="start" direction="ltr" writing-mode="lr-tb" unicode-bidi="normal" text-decoration="none" x="71.5" y="50">für Inklusion</tspan></text><path d="M665.905 818.632 831.642 1176" stroke="#73AE4C" stroke-width="4.58333" stroke-linecap="butt" stroke-linejoin="miter" stroke-miterlimit="8" stroke-opacity="1" fill="none" fill-rule="evenodd"/><path d="M832.5 1093.3C832.5 1081.81 841.813 1072.5 853.3 1072.5L1225.7 1072.5C1237.19 1072.5 1246.5 1081.81 1246.5 1093.3L1246.5 1259.7C1246.5 1271.19 1237.19 1280.5 1225.7 1280.5L853.3 1280.5C841.813 1280.5 832.5 1271.19 832.5 1259.7Z" stroke="#FFFFFF" stroke-width="4.58333" stroke-linecap="butt" stroke-linejoin="miter" stroke-miterlimit="8" stroke-opacity="1" fill="#73AE4C" fill-rule="evenodd" fill-opacity="1"/><text fill="#FFFFFF" fill-opacity="1" font-family="Calibri,Calibri_MSFontService,sans-serif" font-style="normal" font-variant="normal" font-weight="400" font-stretch="normal" font-size="46" text-anchor="start" direction="ltr" writing-mode="lr-tb" unicode-bidi="normal" text-decoration="none" transform="matrix(1 0 0 1 864.462 1164)">Digitalisierung und <tspan fill="#FFFFFF" fill-opacity="1" font-family="Calibri,Calibri_MSFontService,sans-serif" font-style="normal" font-variant="normal" font-weight="400" font-stretch="normal" font-size="46" text-anchor="start" direction="ltr" writing-mode="lr-tb" unicode-bidi="normal" text-decoration="none" x="90.475" y="50">Inklusion</tspan></text></g></svg>