<svg width="2925" height="1059" xmlns="http://www.w3.org/2000/svg" xmlns:xlink="http://www.w3.org/1999/xlink" overflow="auto"><defs><clipPath id="clip0"><rect x="242" y="586" width="2925" height="1059"/></clipPath><clipPath id="clip1"><rect x="567" y="1479" width="648" height="166"/></clipPath><clipPath id="clip2"><rect x="567" y="1479" width="616" height="166"/></clipPath><clipPath id="clip3"><rect x="555" y="1464" width="628" height="184"/></clipPath></defs><g clip-path="url(#clip0)" transform="translate(-242 -586)"><path d="M431.048 751C423.095 751 415.18 751.663 407.312 753.357 398.829 755.137 390.347 756.617 382.26 760.073 377.725 761.95 373.089 763.925 368.651 766.098 359.674 770.347 350.6 774.691 342.02 779.828 336.302 783.186 330.974 786.94 326.341 791.876 322.494 795.927 318.352 799.779 314.307 803.83 312.533 805.704 310.857 807.682 309.375 809.852 305.629 815.188 302.965 821.015 300.106 826.744 297.738 831.384 295.964 836.225 293.398 840.67 289.947 846.497 287.777 852.523 287.384 859.238 287.283 860.029 287.085 860.819 286.89 861.61 286.594 862.3 286.396 863.09 286.396 863.881 286.299 867.141 286.101 870.398 286.003 873.658 286.003 874.546 286.299 876.719 286.789 877.51 287.975 879.882 289.749 881.759 292.215 882.843 294.288 883.832 296.357 884.72 298.725 884.72 300.106 884.821 301.387 885.214 302.767 885.413 307.82 886.162 312.87 887 317.923 887 318.198 887 318.47 886.997 318.745 886.991 324.859 886.796 330.974 886.203 337.091 886.203 340.601 886.233 344.113 886.245 347.626 886.245 355.559 886.245 363.491 886.189 371.424 886.189 381.48 886.189 391.535 886.28 401.591 886.695 403.643 886.802 405.698 886.858 407.747 886.858 411.404 886.858 415.05 886.68 418.654 886.301 424.375 885.608 430.093 884.821 435.912 884.821 443.803 885.016 451.695 884.918 459.583 885.117 460.1 885.123 460.621 885.126 461.138 885.126 468.879 885.126 476.625 884.516 484.443 884.516 484.966 884.516 485.492 884.519 486.016 884.525 496.666 884.72 507.319 885.117 517.871 885.413L517.871 885.511C519.054 885.511 520.239 885.555 521.392 885.555 521.969 885.555 522.539 885.543 523.098 885.511 530.694 884.821 538.384 884.918 545.98 884.622 555.843 884.128 565.704 884.225 575.567 883.438 578.823 883.24 581.977 882.943 585.035 881.46 589.573 879.091 593.222 875.633 596.773 872.077 597.461 871.387 597.955 870.694 598.251 869.906 599.534 866.646 600.519 863.289 601.409 859.931 602 857.559 601.704 855.483 601.012 853.313 600.028 850.349 598.842 847.584 598.056 844.62 597.757 843.237 597.266 841.756 595.983 840.868 595.687 840.67 595.392 840.273 595.489 839.977 595.687 837.312 593.42 836.027 592.234 834.25 592.039 833.854 591.448 833.854 591.448 833.261 591.448 830.594 589.573 829.015 588.192 827.138 586.909 825.362 584.937 824.174 583.852 822.297 579.414 814.397 573.101 808.173 566.493 802.151 559.589 795.927 552.192 790.298 544.697 784.865 536.61 778.839 527.932 773.802 518.462 770.149 509.489 766.69 500.512 763.134 491.438 759.679 483.943 756.715 476.152 754.838 468.163 753.653 459.979 752.566 451.695 752.072 443.41 751.48 439.277 751.178 435.158 751 431.048 751Z" fill="#72A51B" fill-rule="evenodd" fill-opacity="1"/><path d="M415.743 901C404.07 901 392.4 901.193 380.7 901.758 379.379 901.817 378.057 901.832 376.736 901.832 375.338 901.832 373.936 901.814 372.535 901.814 370.811 901.814 369.083 901.841 367.359 901.954 360.343 902.352 353.325 902.747 346.407 903.146 345 903.256 343.604 903.312 342.218 903.312 339.91 903.312 337.625 903.158 335.338 902.849 334.749 902.771 334.159 902.739 333.572 902.739 331.125 902.739 328.72 903.3 326.246 903.541 322.196 903.838 318.045 903.838 314.09 905.03 313.927 905.063 313.761 905.072 313.592 905.072 313.257 905.072 312.905 905.03 312.511 905.03 309.05 905.128 305.492 905.425 302.034 905.922 300.737 906.014 300.135 907.327 299.007 907.327 298.929 907.327 298.852 907.321 298.772 907.31 298.692 907.301 298.615 907.298 298.538 907.298 297.596 907.298 297.042 907.856 296.399 908.498 296.103 908.796 295.709 909.093 295.413 909.292 293.238 910.085 292.053 911.97 290.373 913.257 289.781 913.753 289.481 914.546 289.384 915.141 288.889 916.924 288.296 918.71 288.296 920.493 288 926.937 288.098 933.282 289.087 939.627 290.077 946.469 291.855 953.01 293.14 959.754 294.228 965.603 296.598 970.955 300.254 975.615 301.637 977.5 303.122 979.381 303.616 981.761 304.011 983.149 305.196 984.142 306.185 985.034 306.458 984.757 306.677 984.653 306.864 984.653 307.284 984.653 307.554 985.185 307.963 985.53 308.588 986.065 308.647 987.569 309.379 987.569 309.459 987.569 309.545 987.551 309.643 987.512 309.844 987.444 310.019 987.414 310.173 987.414 311.168 987.414 311.358 988.603 312.214 988.603 313.894 988.799 315.672 989.197 317.352 989.197 321.206 989.197 324.963 989.495 328.817 990.288 337.314 992.172 346.013 991.774 354.708 992.172 356.412 992.282 358.124 992.321 359.84 992.321 364.299 992.321 368.793 992.044 373.288 991.973 381.21 991.845 389.129 991.753 397.043 991.753 407.593 991.753 418.128 991.917 428.631 992.368 439.306 992.865 449.977 993.459 460.652 993.756 463.289 993.822 465.934 993.846 468.583 993.846 473.883 993.846 479.198 993.756 484.469 993.756 484.469 993.857 484.469 993.956 484.469 993.956 493.692 993.956 502.918 994 512.111 994 516.709 994 521.298 993.988 525.879 993.956 530.821 993.956 535.759 993.956 540.506 992.767 543.468 992.071 546.532 991.676 549.497 991.18 554.537 990.288 559.775 990.187 564.619 988.603 566.498 988.107 568.275 987.708 569.955 986.621 570.945 985.925 572.13 984.834 573.315 984.736 575.095 984.537 575.984 983.446 576.971 982.258 577.465 981.663 578.058 981.066 578.651 980.573 582.902 977.101 586.063 972.738 588.534 967.784 591.103 962.529 593.574 957.174 596.045 951.821 596.836 950.136 597.627 948.353 597.923 946.469 599.209 939.627 600 932.789 599.505 925.849 599.404 923.766 599.209 921.783 598.616 919.801 598.121 918.116 597.627 916.232 596.341 914.844 595.156 913.456 595.058 911.372 593.277 910.383 592.981 910.282 592.786 909.788 592.786 909.491 591.995 905.425 588.336 904.534 585.373 903.838 582.209 903.146 578.751 902.849 575.291 902.849 567.881 902.798 560.492 902.7 553.106 902.7 545.717 902.7 538.331 902.798 530.918 903.146 525.784 903.354 520.653 903.44 515.518 903.44 505.925 903.44 496.335 903.137 486.741 902.747 483.482 902.649 480.12 902.649 476.76 902.551 467.371 902.153 457.885 901.559 448.496 901.36 437.563 901.169 426.655 901 415.743 901Z" fill="#D9A817" fill-rule="evenodd" fill-opacity="1"/><path d="M348.264 1007C346.828 1007 345.396 1007.12 343.978 1007.46 341.28 1008.16 338.663 1008.78 335.983 1008.78 335.626 1008.78 335.271 1008.77 334.911 1008.75 334.701 1008.72 334.488 1008.7 334.278 1008.7 333.702 1008.7 333.123 1008.8 332.547 1008.94 328.012 1009.93 324.86 1012.5 323.578 1017.05 323.087 1018.63 322.789 1020.31 322.594 1021.9 322.298 1025.56 322.003 1029.12 323.282 1032.58 324.269 1035.45 325.451 1038.12 326.928 1040.69 329.687 1045.53 332.94 1049.98 335.206 1055.03 337.475 1059.87 339.839 1064.62 342.796 1069.07 343.387 1069.96 343.88 1070.95 343.978 1072.04 344.175 1073.92 345.357 1074.9 346.935 1075.69 350.188 1077.38 353.736 1078.56 357.281 1079.16 362.504 1080.05 367.926 1080.05 373.246 1080.14 373.92 1080.16 374.596 1080.17 375.276 1080.17 376.632 1080.17 377.994 1080.14 379.356 1080.14 381.403 1080.14 383.448 1080.19 385.469 1080.44 389.507 1080.84 393.549 1081.13 397.49 1081.23 403.975 1081.32 410.459 1081.89 416.944 1081.89 418.147 1081.89 419.349 1081.87 420.551 1081.83 423.21 1081.73 425.97 1081.53 428.632 1081.43 432.502 1081.32 436.337 1081.2 440.16 1081.2 442.957 1081.2 445.749 1081.26 448.538 1081.43 450.978 1081.51 453.422 1082 455.918 1082 456.444 1082 456.973 1081.98 457.507 1081.93 466.574 1081.13 475.836 1081.43 485.001 1080.94 493.574 1080.44 502.148 1080.54 510.724 1080.05 515.649 1079.85 520.677 1080.05 525.602 1079.25 532.699 1078.17 539.5 1076.49 544.23 1070.35 544.723 1069.66 545.411 1069.17 546.002 1068.48 546.596 1067.68 547.284 1066.99 547.677 1066.1 549.157 1062.05 551.031 1057.99 552.014 1053.84 553.099 1049.49 554.676 1045.43 556.549 1041.48 558.322 1037.72 559.406 1033.67 559.702 1029.41 559.997 1026.15 559.604 1022.99 559.604 1019.82 559.604 1019.03 559.9 1017.65 558.322 1017.35 557.929 1017.25 558.224 1016.75 558.52 1016.56 558.715 1016.36 559.013 1016.16 558.715 1015.96 557.238 1014.78 556.449 1012.5 554.183 1012.5 552.641 1012.5 551.618 1011.01 550.147 1011.01 549.929 1011.01 549.698 1011.04 549.453 1011.12 549.355 1011.12 549.057 1010.52 548.762 1010.43 548.508 1010.26 548.106 1010.01 547.937 1010.01 547.911 1010.01 547.89 1010.02 547.875 1010.03 547.172 1010.57 546.437 1010.73 545.686 1010.73 544.646 1010.73 543.586 1010.43 542.555 1010.43 540.862 1010.41 539.166 1010.4 537.47 1010.4 528.202 1010.4 518.884 1010.65 509.64 1011.32 508.721 1011.42 507.799 1011.5 506.898 1011.5 506.154 1011.5 505.424 1011.45 504.712 1011.32 502.124 1010.87 499.592 1010.82 497.034 1010.82 496.18 1010.82 495.323 1010.82 494.464 1010.82 489.592 1010.78 484.72 1010.77 479.845 1010.77 471.071 1010.77 462.294 1010.81 453.51 1010.81 442.012 1010.81 430.505 1010.74 418.974 1010.43 411.877 1010.23 404.684 1010.33 397.49 1010.03 395.983 1009.94 394.456 1009.87 392.925 1009.87 391.156 1009.87 389.38 1009.96 387.634 1010.23 386.166 1010.42 384.697 1010.54 383.247 1010.54 380.999 1010.54 378.792 1010.26 376.697 1009.53 373.837 1008.55 370.883 1008.35 367.926 1008.35 363.293 1008.25 358.761 1008.05 354.129 1007.46 352.194 1007.23 350.226 1007 348.264 1007Z" fill="#BF403C" fill-rule="evenodd" fill-opacity="1"/><path d="M519.376 1100C519.205 1100 519.034 1100.01 518.859 1100.03 516.888 1100.42 514.917 1100.72 512.946 1100.72 510.481 1100.82 508.117 1101.41 505.653 1101.51 498.259 1101.7 490.963 1103.27 483.669 1104.46 477.653 1105.39 471.728 1106.33 465.637 1106.33 465.339 1106.33 465.04 1106.33 464.742 1106.32 462.115 1106.29 459.484 1106.28 456.857 1106.28 451.6 1106.28 446.343 1106.32 441.086 1106.32 440.394 1106.32 439.706 1106.42 439.014 1106.42 434.28 1106.65 429.608 1107.13 424.85 1107.13 423.565 1107.13 422.276 1107.09 420.976 1107.01 411.118 1106.32 401.36 1106.13 391.501 1105.83 389.598 1105.77 387.704 1105.73 385.816 1105.73 381.744 1105.73 377.701 1105.89 373.658 1106.22 370.801 1106.42 368.138 1106.22 365.183 1107.21 361.929 1108.29 359.858 1110.35 357.887 1112.71 357.296 1113.49 357 1114.48 358.182 1115.17 359.072 1115.76 358.676 1116.54 358.478 1117.23 357.692 1120.28 357.494 1123.32 358.182 1126.47 359.958 1133.74 361.338 1141.12 363.014 1148.39 363.9 1152.32 364.689 1156.25 366.463 1159.89 369.518 1166.28 372.772 1172.47 377.308 1177.97 378.292 1179.15 379.376 1180.04 380.757 1180.62 385.981 1182.69 391.501 1183.77 397.022 1184.16 401.162 1184.46 405.204 1185.15 409.244 1185.54 413.473 1186.01 417.61 1186.92 421.827 1186.92 422.037 1186.92 422.247 1186.92 422.454 1186.92 423.476 1186.87 424.496 1186.85 425.515 1186.85 426.96 1186.85 428.402 1186.9 429.847 1187.02 435.072 1187.41 440.297 1188 445.521 1188 449.662 1187.9 453.802 1187.02 457.942 1187.02 464.547 1186.92 471.051 1185.93 477.558 1185.64 480.318 1185.54 483.176 1185.74 485.838 1184.75 488.599 1183.77 491.557 1183.18 494.317 1182.3 495.596 1181.81 496.879 1182.2 498.158 1181.81 500.327 1181.02 502.299 1179.84 503.977 1178.47 509.199 1174.14 514.228 1169.72 516.791 1163.23 517.973 1160.28 519.255 1157.33 519.353 1154.09 519.453 1151.73 519.944 1149.37 520.833 1147.21 521.129 1146.52 521.324 1145.74 521.522 1144.95 522.606 1141.41 522.902 1137.58 524.282 1134.14 526.058 1129.62 527.24 1124.9 528.62 1120.18 529.309 1117.62 530 1115.17 529.409 1112.42 529.211 1111.53 528.52 1111.53 528.324 1111.14 527.831 1110.45 529.604 1110.45 529.309 1109.47 529.211 1108.88 529.409 1108.29 529.114 1107.8 528.422 1108.09 528.52 1108.88 527.929 1108.97 527.438 1107.21 527.042 1105.54 526.548 1103.77 526.371 1103.14 526.114 1102.36 525.337 1102.36 525.254 1102.36 525.165 1102.37 525.071 1102.39 524.858 1102.43 524.657 1102.45 524.462 1102.45 523.206 1102.45 522.278 1101.68 521.424 1100.92 520.789 1100.2 520.089 1100 519.376 1100Z" fill="#404040" fill-rule="evenodd" fill-opacity="1"/><path d="M496.38 1198C495.101 1198 493.82 1198.06 492.535 1198.16 487.095 1198.76 481.752 1199.55 476.407 1200.15 475.695 1200.23 474.983 1200.29 474.274 1200.29 473.402 1200.29 472.53 1200.21 471.657 1200.05 467.205 1199.16 462.85 1198.66 458.3 1198.66 453.55 1198.56 448.7 1198.56 443.853 1198.56 438.41 1198.66 433.067 1199.25 427.624 1200.15 425.583 1200.45 423.581 1200.67 421.546 1200.67 420.225 1200.67 418.894 1200.58 417.532 1200.34 413.871 1199.75 410.309 1198.86 406.645 1198.46 406.236 1198.42 405.832 1198.39 405.444 1198.39 402.448 1198.39 400.015 1199.68 397.74 1201.44 397.147 1201.93 396.553 1202.72 396.752 1203.22 397.74 1205.7 396.553 1207.38 395.168 1209.17 394.871 1209.46 394.871 1209.96 394.673 1210.36 393.584 1213.83 393.092 1217.39 393.486 1220.96 393.881 1223.94 394.477 1227.01 397.841 1228.2 399.027 1228.6 398.929 1229.29 398.235 1229.98 395.862 1232.26 394.773 1235.24 393.783 1238.21 392.003 1243.56 393.981 1247.43 398.532 1249.51 399.523 1249.91 400.611 1250.3 401.798 1250.4 403.382 1250.6 403.48 1250.8 402.985 1252.49 402.489 1254.17 401.7 1255.66 400.413 1256.95 396.553 1260.51 394.871 1264.98 396.355 1270.23 396.651 1271.42 396.355 1272.51 395.761 1273.1 393.584 1275.48 393.685 1278.26 393.584 1281.13 393.584 1281.73 393.783 1282.02 393.981 1282.62 394.969 1285 396.651 1286.78 398.633 1288.47 399.125 1288.86 399.523 1289.26 399.819 1290.05 402.193 1298.88 407.933 1304.52 416.74 1307 422.771 1308.64 428.905 1309 435.066 1309 437.499 1309 439.934 1308.94 442.367 1308.89 442.764 1308.89 443.061 1308.69 443.456 1308.69 447.217 1308 450.975 1307.3 454.639 1306.11 455.034 1305.98 455.387 1305.91 455.713 1305.91 456.365 1305.91 456.914 1306.18 457.508 1306.71 459.092 1308.09 460.972 1308.49 462.951 1308.49 464.74 1308.49 466.442 1307.59 468.139 1307.59 468.222 1307.59 468.308 1307.59 468.391 1307.6 468.733 1307.62 469.074 1307.64 469.412 1307.64 471.405 1307.64 473.396 1307.26 475.386 1307.26 475.727 1307.26 476.069 1307.28 476.407 1307.3 476.561 1307.32 476.712 1307.33 476.866 1307.33 477.599 1307.33 478.323 1307.13 478.982 1306.81 487.688 1302.94 494.615 1297.39 497.584 1287.97 498.177 1286.09 499.165 1285 501.046 1284.7 502.431 1284.5 503.816 1284.01 505.104 1283.51 507.083 1282.82 508.765 1281.73 509.951 1280.04 511.141 1278.16 512.229 1276.18 511.437 1273.9 510.446 1271.12 509.061 1268.54 505.896 1267.65 505.003 1267.45 504.113 1267.06 503.223 1266.66 502.431 1266.36 501.245 1266.46 501.046 1265.47 500.749 1264.28 500.55 1262.89 501.443 1261.7 501.639 1261.41 501.838 1261.21 502.135 1260.91 505.202 1256.65 505.795 1251.49 501.838 1246.04 499.859 1243.17 496.991 1241.09 494.416 1238.51 496.297 1237.02 498.177 1235.34 497.979 1233.06 497.881 1231.27 498.474 1229.98 498.868 1228.5 499.364 1227.21 499.859 1225.82 499.761 1224.43 499.661 1222.94 500.355 1222.35 501.541 1221.95 502.232 1221.76 502.927 1221.56 503.52 1221.26 505.697 1220.27 507.972 1219.68 510.052 1218.39 511.734 1217.29 513.514 1215.71 513.911 1214.02 514.602 1210.56 515 1206.89 512.425 1203.81 510.844 1201.83 509.159 1199.95 506.587 1199.35 503.265 1198.41 499.839 1198 496.38 1198Z" fill="#262A31" fill-rule="evenodd" fill-opacity="1"/><path d="M348 891C348 891.399 348 891.595 348 891.994L378 891.994 378 891Z" fill="#F7EB84" fill-rule="evenodd" fill-opacity="1"/><path d="M246.392 788.003C244.551 788.196 243.389 789.075 243.195 790.443 243.003 791.618 243.584 792.301 245.326 793.28 246.973 794.255 248.428 795.43 249.88 796.602 252.012 798.46 253.853 800.707 256.081 802.465 259.473 805.202 263.153 807.645 266.736 810.188 267.126 810.481 267.611 810.675 268.093 810.871 268.409 810.956 268.697 811 268.958 811 269.899 811 270.483 810.434 270.709 809.21 271 807.645 270.03 806.669 268.967 805.691 265.479 802.758 262.087 799.728 258.503 796.798 255.596 794.452 252.497 792.301 249.494 789.957 248.913 789.564 248.524 788.882 247.847 788.003Z" fill="#000000" fill-rule="evenodd" fill-opacity="1"/><path d="M318.541 709.003C318.251 709.003 317.949 709.039 317.648 709.11 316.484 709.308 316.194 710.196 316.099 711.184 316.003 712.664 316.484 713.848 317.259 715.035 319.873 718.983 322.484 722.931 325.002 726.883 327.322 730.535 329.452 734.285 331.775 738.038 332.451 739.124 333.321 740.012 334 741 336.515 740.012 337 738.925 336.13 736.951 335.645 735.767 335.065 734.581 334.386 733.397 330.711 727.276 327.032 721.253 323.357 715.133 322.388 713.552 320.937 712.17 320.453 710.196 320.232 709.373 319.452 709.003 318.541 709.003Z" fill="#000000" fill-rule="evenodd" fill-opacity="1"/><path d="M441.104 681.003C439.036 682.069 438.31 682.847 438.102 684.791 438 686.347 438 687.999 438.102 689.651 438.208 692.568 438.518 695.484 438.518 698.398 438.62 702.48 438.62 706.562 438.62 710.548 438.726 711.714 438.828 712.783 439.036 713.853 439.33 714.971 439.817 715.997 441.222 715.997 441.284 715.997 441.349 715.997 441.414 715.991 442.654 715.991 443.482 714.922 443.585 713.465 443.69 712.687 443.69 712.005 443.69 711.131 444 702.384 443.38 693.637 442.757 684.89 442.654 683.529 442.552 682.069 441.104 681.003Z" fill="#000000" fill-rule="evenodd" fill-opacity="1"/><path d="M599.11 738.003C598.948 738.003 598.773 738.015 598.587 738.044 597.182 738.24 595.677 738.921 594.573 739.8 590.658 743.114 586.945 746.525 583.13 749.938 581.526 751.399 579.92 752.96 578.114 754.129 576.607 755.105 575.605 756.178 575 757.931 576.231 759.343 576.965 760 577.771 760 578.412 760 579.098 759.585 580.121 758.808 580.723 758.419 581.325 758.027 581.827 757.542 586.846 753.056 591.964 748.67 596.983 744.187 598.187 743.114 599.192 741.846 600.094 740.581 601 739.172 600.597 738.003 599.11 738.003Z" fill="#000000" fill-rule="evenodd" fill-opacity="1"/><path d="M626.826 985C625.609 985 625 985.926 625.443 987.177 625.927 988.447 626.698 989.132 627.956 989.719 631.631 991.38 635.593 992.652 639.653 993.435 642.07 994.021 644.583 994.411 647 994.901 648.258 994.804 649.417 994.997 649.806 993.435 649.997 992.163 649.612 991.38 648.163 990.598 647.583 990.208 646.905 989.915 646.325 989.719 643.812 988.839 641.297 987.86 638.784 987.274 634.918 986.395 631.049 985.709 627.182 985.026 627.058 985.009 626.939 985 626.826 985Z" fill="#000000" fill-rule="evenodd" fill-opacity="1"/><path d="M575.937 1121C575.074 1121 574.223 1121.17 573.389 1121.64 573.003 1122.87 573.584 1123.69 574.359 1124.2 574.844 1124.52 575.521 1124.62 575.716 1124.93 577.072 1127.19 579.396 1127.5 581.528 1128.01 583.079 1128.42 584.63 1129.04 586.082 1129.65 588.45 1130.6 590.875 1131 593.359 1131 594.125 1131 594.898 1130.96 595.674 1130.89 596.838 1130.78 597.611 1130.27 597.806 1128.94 598 1127.5 597.225 1126.67 596.254 1126.06 595.964 1125.75 595.482 1125.85 594.997 1125.75 589.766 1124.31 584.436 1122.87 579.106 1121.53 578.045 1121.25 576.982 1121 575.937 1121Z" fill="#000000" fill-rule="evenodd" fill-opacity="1"/><path d="M643.552 864.003C642.646 864.003 641.637 864.316 640.731 864.732 639.722 865.152 638.716 865.881 637.909 866.613 637.003 867.552 637.202 868.804 638.311 869.43 638.918 869.85 639.824 869.85 640.528 869.953 640.797 869.987 641.066 870 641.335 870 641.872 870 642.41 869.953 642.948 869.953 645.265 869.85 647.582 869.743 649.899 869.64 653.025 869.43 656.149 869.224 659.17 868.911 660.381 868.804 661.589 868.598 662.9 868.282 663 865.152 662.496 864.213 659.877 864.106 654.436 864.003 648.993 864.003 643.552 864.003Z" fill="#000000" fill-rule="evenodd" fill-opacity="1"/><path d="M298.622 1086C298.481 1086 298.344 1086.01 298.216 1086.03 297.519 1086.03 296.723 1086.5 296.127 1086.98 292.35 1089.67 288.669 1092.35 284.991 1095.23 284.195 1095.8 283.599 1096.66 283.003 1097.34 283.852 1099.17 284.66 1100 285.823 1100 286.428 1100 287.125 1099.77 287.975 1099.35 288.472 1099.06 288.967 1098.77 289.465 1098.39 292.747 1095.9 296.028 1093.5 299.209 1090.91 299.906 1090.43 300.601 1089.76 300.8 1089 301 1088.32 301 1087.18 300.502 1086.7 300.169 1086.21 299.346 1086 298.622 1086Z" fill="#000000" fill-rule="evenodd" fill-opacity="1"/><path d="M261.012 975.003C260.309 975.003 259.593 975.401 258.725 976.14 257.631 977.037 256.54 977.935 255.445 978.832 252.66 981.229 249.974 983.523 247.287 985.92 246.491 986.617 245.996 987.416 245.596 988.313 245.098 989.112 245 990.21 245.895 990.71 246.169 990.928 246.598 990.997 247.043 990.997 247.4 990.997 247.773 990.952 248.083 990.907 248.68 990.71 249.276 990.21 249.774 989.711 253.653 986.518 257.533 983.323 261.313 980.029 262.306 979.132 263.102 978.135 263.997 977.136 262.819 975.67 261.925 975.003 261.012 975.003Z" fill="#000000" fill-rule="evenodd" fill-opacity="1"/><path d="M564.897 1174C563.994 1174 563.053 1174.45 562 1175.6 562.472 1177.45 563.508 1178.88 564.827 1180.11 566.145 1181.34 567.464 1182.58 568.782 1183.81 569.819 1184.83 570.666 1185.86 571.798 1186.58 572.224 1186.86 572.594 1187 572.922 1187 573.535 1187 574.006 1186.52 574.435 1185.65 575 1184.73 574.811 1183.81 574.435 1182.88 573.021 1179.7 570.762 1177.55 568.218 1175.6 567.071 1174.69 566.012 1174 564.897 1174Z" fill="#000000" fill-rule="evenodd" fill-opacity="1"/><path d="M355.255 1193C354.764 1193.29 353.589 1193.76 352.998 1194.52 351.626 1196.51 350.354 1198.6 349.175 1200.78 348.688 1201.64 348.394 1202.59 348.197 1203.54 348 1204.39 348.1 1205.34 349.078 1205.72 349.51 1205.89 349.96 1206 350.398 1206 350.95 1206 351.482 1205.82 351.92 1205.34 352.314 1204.96 352.608 1204.58 352.901 1204.1 354.177 1201.92 355.549 1199.83 356.821 1197.65 357.312 1196.8 357.606 1195.94 357.803 1195.09 358 1193.76 357.215 1193 355.255 1193Z" fill="#000000" fill-rule="evenodd" fill-opacity="1"/><path d="M609.5 892C607.534 892 606.003 893.132 606.003 894.487 606.003 896.069 607.97 897.878 609.72 897.99 609.805 897.997 609.89 898 609.972 898 611.696 898 612.895 896.902 613 895.391 613 893.809 611.142 892 609.5 892Z" fill="#000000" fill-rule="evenodd" fill-opacity="1"/><path d="M303.553 861.003C302.987 861.003 302.309 861.211 301.95 861.534 301.066 862.426 300.476 863.652 299.887 864.877 299 866.661 299.787 867.997 302.047 867.997 302.345 867.663 303.129 867.219 303.621 866.437 304.113 865.545 304.31 864.433 304.605 863.428 304.997 862.426 304.9 861.424 304.113 861.09 303.954 861.03 303.762 861.003 303.553 861.003Z" fill="#000000" fill-rule="evenodd" fill-opacity="1"/><path d="M539.667 1088C538.335 1088 537.113 1088.33 537 1089.64 537 1090.51 537.779 1091.72 538.445 1092.16 539.364 1092.67 540.36 1093 541.366 1093 542.062 1093 542.761 1092.84 543.444 1092.49 544 1089.64 542.665 1088 539.667 1088Z" fill="#000000" fill-rule="evenodd" fill-opacity="1"/><path d="M583.571 999.003C582.616 999.003 581.902 999.766 581 1001.43 581.358 1001.95 581.805 1002.47 582.073 1003 584.66 1002.65 584.66 1002.65 585.997 1000.03 584.986 999.358 584.221 999.003 583.571 999.003Z" fill="#000000" fill-rule="evenodd" fill-opacity="1"/><path d="M389.473 737C388.692 737 387.911 737.234 387 737.466 387.805 737.823 388.486 738 389.096 738 389.788 738 390.394 737.776 391 737.338 390.466 737.093 389.969 737 389.473 737Z" fill="#000000" fill-rule="evenodd" fill-opacity="1"/><path d="M504.32 1196.03C506.487 1196.03 508.251 1196.83 509.87 1198.36 513.031 1201.12 514.118 1204.88 514.511 1208.92 514.71 1211.68 513.526 1213.76 510.859 1214.64 507.698 1215.63 504.341 1216.52 500.984 1216.82 495.852 1217.21 490.814 1217.11 485.681 1217.21L485.681 1217.41C480.051 1217.11 474.326 1216.91 468.696 1216.52 459.713 1215.83 450.726 1215.04 441.742 1214.25 431.572 1213.16 421.401 1212.18 411.234 1210.89 407.776 1210.4 404.42 1209.12 400.962 1208.62 397.606 1208.13 394.347 1207.04 391.188 1205.96 389.904 1205.47 389.016 1204.77 388.521 1203.59 387.337 1200.83 388.521 1198.36 391.387 1197.37 392.822 1196.9 394.219 1196.64 395.649 1196.64 396.579 1196.64 397.523 1196.75 398.494 1196.98 401.513 1197.66 404.571 1197.91 407.616 1197.91 409.455 1197.91 411.287 1197.82 413.107 1197.67 417.55 1197.37 421.896 1197.37 426.241 1197.27 437.693 1197.18 449.048 1197.18 460.402 1197.08 471.067 1196.98 481.83 1196.98 492.492 1196.78 496.047 1196.78 499.703 1196.59 503.255 1196.09 503.622 1196.05 503.977 1196.03 504.32 1196.03ZM392.177 1210.5C397.706 1211.39 403.236 1212.37 408.765 1213.26 414.786 1214.15 420.712 1214.94 426.735 1215.63 434.535 1216.52 442.334 1217.41 450.235 1218.1 460.503 1218.99 470.771 1219.78 481.137 1220.47 487.655 1220.86 494.173 1220.76 500.786 1220.96 501.775 1220.96 502.861 1221.06 503.85 1221.16 504.243 1223.03 504.738 1224.81 504.933 1226.68 505.131 1227.47 505.131 1228.46 504.738 1229.25 503.332 1232.81 499.972 1236.19 495.245 1236.19 494.99 1236.19 494.73 1236.18 494.469 1236.16 488.94 1235.57 483.31 1235.57 477.683 1235.27 476.398 1235.17 475.117 1234.78 473.832 1234.68 470.079 1234.18 466.426 1233.69 462.676 1233.2 459.121 1232.7 455.566 1232.11 452.011 1231.62 446.579 1230.93 441.15 1230.24 435.719 1229.45 431.868 1228.95 428.118 1228.16 424.267 1227.67 416.07 1226.58 407.776 1225.7 399.58 1224.71 396.62 1224.41 393.657 1224.02 390.694 1223.62 388.817 1223.43 388.424 1223.03 388.326 1221.16 388.326 1220.07 388.225 1218.89 388.326 1217.8 388.424 1214.84 389.608 1212.37 392.177 1210.5ZM404.186 1228.52C404.337 1228.52 404.485 1228.53 404.618 1228.56 413.107 1229.74 421.6 1230.83 430.092 1232.11 440.36 1233.69 450.531 1235.37 460.698 1236.95 463.463 1237.44 466.228 1237.54 469.093 1237.84 473.536 1238.33 478.077 1239.02 482.62 1239.61 486.075 1240.1 489.727 1240.3 493.185 1240.99 497.036 1241.68 500.887 1242.67 504.738 1243.66 506.81 1244.25 508.094 1246.03 509.574 1247.51 511.155 1248.99 511.649 1250.76 511.945 1252.83 512.439 1255.8 511.548 1258.07 509.477 1259.84 508.589 1260.63 507.402 1261.12 506.218 1261.52 504.933 1261.82 503.453 1261.91 502.071 1262.01 499.999 1262.21 497.924 1262.31 495.852 1262.51 495.852 1262.51 495.852 1262.51 495.751 1262.61 492.593 1262.61 489.39 1262.52 486.169 1262.52 484.562 1262.52 482.949 1262.54 481.336 1262.61 480.394 1262.64 479.453 1262.65 478.518 1262.65 470.606 1262.65 462.83 1261.6 454.974 1260.63 440.656 1258.95 426.833 1255.1 413.01 1251.45 407.184 1249.87 401.258 1248.69 395.335 1247.41 392.867 1246.81 391.188 1245.24 389.51 1243.66 388.622 1242.77 388.424 1241.68 388.622 1240.5 389.116 1236.95 391.091 1234.58 394.249 1233.1 397.111 1231.62 399.977 1230.14 402.94 1228.76 403.301 1228.61 403.766 1228.52 404.186 1228.52ZM406.879 1254.59C408.614 1254.59 410.319 1254.92 412.021 1255.4 421.798 1257.87 431.572 1260.33 441.346 1262.61 449.74 1264.58 458.233 1265.47 466.823 1266.16 472.843 1266.55 478.867 1266.55 484.891 1266.65 490.026 1266.75 495.061 1266.75 500.096 1267.34 503.947 1267.93 507.996 1267.83 511.845 1268.03 512.339 1268.03 512.735 1268.13 513.227 1268.23 514.118 1272.08 512.735 1275.14 510.166 1277.8 509.574 1278.4 508.589 1278.69 507.798 1278.89 501.381 1280.27 494.961 1281.45 488.345 1281.55 483.115 1281.55 477.781 1281.85 472.547 1282.05 466.92 1282.24 461.391 1282.44 455.764 1282.54 452.999 1282.57 450.223 1282.59 447.441 1282.59 441.873 1282.59 436.278 1282.54 430.684 1282.54 422.784 1282.64 414.984 1282.93 407.087 1282.93 402.445 1282.84 397.804 1282.44 393.163 1281.95 391.286 1281.75 389.412 1280.76 387.139 1279.97 390.629 1276.22 394.365 1274.08 399 1274.08 399.479 1274.08 399.971 1274.11 400.471 1274.15 405.308 1274.55 410.147 1275.04 415.082 1275.63 418.637 1276.03 422.192 1276.62 425.747 1277.11 427.523 1277.31 429.399 1277.41 431.178 1277.51 442.083 1278.23 452.991 1278.89 463.842 1278.89 466.251 1278.89 468.661 1278.86 471.067 1278.79 477.189 1278.59 483.212 1278.2 489.236 1277.8 490.618 1277.7 492.098 1277.31 493.679 1277.01 493.185 1275.34 492.297 1274.55 490.814 1274.55 487.297 1274.47 483.781 1274.16 480.264 1274.16 479.24 1274.16 478.213 1274.18 477.189 1274.25 472.681 1274.58 468.175 1274.71 463.661 1274.71 457.493 1274.71 451.312 1274.48 445.099 1274.25 439.768 1274.05 434.434 1273.76 429.103 1273.36 426.14 1273.17 423.08 1272.38 420.019 1272.08 415.478 1271.68 410.837 1271.39 406.196 1270.99 399.876 1270.4 393.657 1268.82 387.435 1267.44 387.536 1266.65 387.734 1266.06 387.536 1265.57 386.745 1263.1 387.337 1261.32 389.214 1259.65 392.177 1257.18 395.83 1256.49 399.385 1255.6 401.063 1255.2 402.839 1255.1 404.517 1254.81 405.314 1254.66 406.098 1254.59 406.879 1254.59ZM501.775 1284.41C501.576 1286.58 501.576 1286.58 499.108 1287.97 498.912 1286.98 498.714 1286.19 498.616 1285.2 499.703 1284.91 500.688 1284.71 501.775 1284.41ZM400.175 1287.87C400.569 1289.94 401.063 1291.92 401.557 1293.99 401.359 1294.09 401.161 1294.19 400.962 1294.28 398.594 1292.31 396.126 1290.34 393.163 1287.87ZM495.653 1285.4C496.837 1289.35 496.444 1290.83 493.383 1293.1 491.705 1294.38 489.926 1295.57 488.247 1296.75 488.15 1296.85 487.951 1296.95 487.655 1296.95 488.345 1293.3 489.135 1289.64 489.926 1285.8 491.9 1285.6 493.777 1285.5 495.653 1285.4ZM406.888 1287.18C410.837 1292.9 414.688 1298.33 418.441 1303.86 418.237 1303.86 418.039 1303.87 417.84 1303.87 415.256 1303.87 413.152 1303.26 411.133 1301.88 407.383 1299.42 404.221 1296.75 403.828 1291.82 403.727 1290.43 403.037 1289.15 402.641 1287.87 402.641 1287.77 402.741 1287.67 402.741 1287.48 404.124 1287.37 405.604 1287.28 406.888 1287.18ZM421.798 1287.18C424.563 1293.1 427.327 1299.12 430.19 1305.44 429.488 1305.56 428.816 1305.61 428.171 1305.61 426.27 1305.61 424.577 1305.19 422.884 1305.04 422.588 1305.04 422.192 1304.55 421.896 1304.25 417.947 1298.92 413.998 1293.59 410.047 1288.26 409.851 1287.97 409.851 1287.67 409.653 1287.18ZM487.457 1285.8C487.063 1287.57 486.767 1289.15 486.371 1290.63 485.681 1293.1 484.692 1295.57 484.003 1298.13 483.31 1300.6 481.83 1302.47 479.459 1303.56 477.434 1304.53 475.567 1306.2 473.154 1306.2 472.861 1306.2 472.562 1306.18 472.251 1306.13 472.056 1306.13 471.757 1306.03 471.363 1305.93 474.226 1299.51 477.881 1293.49 478.373 1286.19 481.433 1285.99 484.198 1285.9 487.457 1285.8ZM430.486 1286.71C432.102 1286.71 433.747 1286.79 435.127 1286.98 437.199 1293.3 438.78 1299.71 438.78 1306.62 438.016 1306.53 437.471 1306.3 436.956 1306.3 436.873 1306.3 436.79 1306.31 436.707 1306.32 436.382 1306.37 436.08 1306.39 435.799 1306.39 433.158 1306.39 432.259 1304.4 431.276 1302.08 429.399 1297.74 427.129 1293.49 424.956 1289.15 424.66 1288.56 424.364 1287.97 424.068 1287.37 425.234 1286.95 427.819 1286.71 430.486 1286.71ZM451.715 1286.88C451.617 1293.69 452.307 1300.21 450.726 1306.62L441.84 1306.62C441.447 1299.81 440.36 1293.2 437.498 1286.88ZM476.499 1286.49C474.72 1293.49 471.562 1300.01 467.909 1306.82L461.785 1306.82C464.549 1300.3 467.512 1293.89 467.711 1286.49ZM465.44 1286.78C465.44 1287.48 465.44 1288.16 465.34 1288.76 464.156 1294.48 462.081 1299.81 459.615 1305.04 459.07 1306.31 458.36 1306.83 457.176 1306.83 457.069 1306.83 456.963 1306.82 456.85 1306.82 456.306 1306.72 455.737 1306.69 455.169 1306.69 454.604 1306.69 454.035 1306.72 453.491 1306.72 453.689 1300.11 453.787 1293.69 453.985 1286.78ZM436.805 1317.57C439.472 1317.77 442.136 1318.07 445.099 1318.26 444.803 1319.84 444.507 1321.12 444.211 1322.8 441.645 1321.91 439.472 1321.03 437.299 1319.84 436.903 1319.55 436.707 1318.76 436.411 1318.17 436.509 1317.97 436.707 1317.77 436.805 1317.57ZM486.075 735.003C485.681 735.003 485.284 735.127 484.891 735.127 485.284 736.707 485.284 736.805 486.273 737.1 488.049 737.594 489.828 737.89 491.705 738.186 492.986 738.482 494.469 738.583 495.653 739.077 502.269 741.938 508.884 744.798 515.302 747.958 520.535 750.721 525.668 753.878 530.706 756.839 533.174 758.319 535.445 759.898 537.813 761.378 543.836 765.327 548.972 770.161 554.007 775.096 561.807 782.693 569.805 789.998 577.705 797.4 582.74 802.136 586.984 807.465 590.936 813.089 597.353 822.269 602.291 832.431 607.622 842.203 613.151 852.368 616.013 863.421 617.396 874.77 618.384 882.861 618.976 891.151 619.272 899.343 619.471 905.854 619.37 912.466 618.879 918.981 618.482 924.605 617.298 930.229 616.309 935.856 614.533 945.625 612.361 955.494 608.116 964.574 600.908 980.266 593.402 995.954 584.32 1010.76 580.961 1016.09 577.604 1021.42 573.262 1026.05 570.003 1029.61 567.437 1033.65 565.362 1038.09 563.683 1041.65 561.907 1045.1 560.327 1048.75 557.858 1054.58 555.292 1060.3 553.314 1066.22 550.156 1075.5 549.167 1085.17 547.391 1094.74 546.601 1099.08 546.601 1103.62 545.911 1108.06 545.319 1112.21 544.428 1116.25 543.739 1120.4 542.555 1127.01 541.566 1133.72 540.086 1140.24 538.603 1147.04 536.827 1153.66 534.654 1160.27 532.088 1168.06 527.941 1174.78 522.607 1180.99 521.917 1181.78 521.127 1182.47 520.337 1183.16 516.782 1186.32 512.439 1188.1 507.896 1189.78 501.973 1191.95 495.949 1193.43 489.532 1193.43 487.777 1193.41 486.024 1193.4 484.269 1193.4 476.842 1193.4 469.413 1193.54 461.983 1193.62 449.64 1193.72 437.299 1193.62 424.956 1193.82 424.344 1193.83 423.731 1193.83 423.118 1193.83 415.241 1193.83 407.368 1193.25 399.58 1192.24 390.398 1191.06 382.006 1188.3 374.106 1183.85 371.836 1182.57 369.565 1181.09 367.195 1180.01 365.318 1179.12 363.838 1177.73 362.654 1176.16 360.283 1172.7 357.814 1169.35 355.941 1165.6 352.779 1159.08 350.411 1152.47 349.224 1145.47 348.535 1140.92 348.138 1136.39 347.647 1131.95 347.348 1128.39 346.954 1124.94 346.56 1121.48 345.868 1115.27 345.276 1109.15 344.388 1103.03 343.796 1099.68 342.709 1096.42 341.818 1093.06 339.054 1082.21 335.007 1071.75 330.564 1061.48 326.219 1051.61 321.083 1042.04 315.951 1032.47 314.272 1029.21 312.594 1025.96 310.916 1022.7 306.57 1014.21 302.03 1005.82 297.486 997.436 293.538 990.034 290.181 982.336 287.218 974.44 284.948 968.52 282.577 962.601 280.209 956.678 280.01 956.086 279.913 955.494 279.812 954.903 279.418 952.929 279.122 950.953 278.628 948.98 276.849 942.663 274.777 936.448 273.395 930.034 272.11 924.803 271.716 919.277 270.728 914.046 268.753 903.387 269.15 892.73 271.222 882.172 273.593 869.933 277.343 858.19 281.786 846.546 289.192 826.709 299.067 808.453 312.298 791.971 316.149 787.235 320.098 782.498 324.443 778.253 336.588 766.312 350.903 757.233 365.617 748.846 369.565 746.576 373.612 744.304 377.759 742.035 378.747 741.541 379.736 741.148 380.822 740.754 382.501 740.159 383.587 739.077 383.685 737.201 381.61 738.287 379.635 739.47 377.563 740.358 366.999 745.39 356.728 750.917 346.856 757.038 336.588 763.451 326.912 770.753 318.517 779.439 308.346 789.998 299.955 801.841 292.65 814.47 281.591 834.011 273.593 854.735 268.36 876.642 266.285 884.935 265.003 893.42 265.397 902.106 265.595 906.742 266.187 911.481 266.877 916.117 268.064 925.691 269.544 935.164 272.604 944.441 273.987 948.489 275.467 952.435 275.567 956.876 275.567 957.468 276.062 958.16 276.358 958.752 277.148 960.725 278.134 962.601 278.826 964.574 282.873 975.922 287.02 987.271 292.747 998.028 296.598 1005.33 300.547 1012.63 304.398 1020.04 306.076 1022.99 307.855 1025.96 308.642 1029.31 308.743 1029.9 309.237 1030.49 309.631 1031.09 310.815 1033.06 312.197 1034.84 313.186 1036.91 316.247 1042.73 319.21 1048.56 322.17 1054.38 328.392 1066.52 332.835 1079.34 336.884 1092.27 337.772 1095.23 338.462 1098.19 338.858 1101.25 339.548 1106.29 339.945 1111.32 340.436 1116.35 340.735 1119.71 341.226 1123.06 341.425 1126.52 341.721 1131.85 341.818 1137.18 342.117 1142.5 342.215 1144.58 342.313 1146.75 342.709 1148.72 344.485 1157.31 348.239 1165.1 352.779 1172.6 353.768 1174.18 354.754 1175.86 356.136 1177.14 359.593 1180.4 363.246 1183.46 366.899 1186.42 368.382 1187.7 370.255 1188.49 372.034 1189.48 373.911 1190.46 375.784 1191.35 377.661 1192.34 374.896 1200.04 378.65 1204.97 384.277 1209.02 382.894 1210.99 381.512 1212.67 380.227 1214.45 377.957 1218 378.253 1221.85 381.118 1225.11 382.205 1226.39 383.389 1227.67 384.573 1228.95 382.894 1231.42 381.216 1233.89 379.538 1236.55 378.058 1238.82 378.058 1241.39 379.538 1243.66 380.523 1245.14 382.104 1246.22 383.486 1247.41 384.078 1248 384.869 1248.3 385.757 1248.79 385.461 1249.28 385.265 1249.58 385.067 1249.87 383.587 1251.55 382.006 1253.23 380.624 1255.01 377.167 1259.45 377.463 1263.69 381.314 1267.74 382.006 1268.53 382.894 1269.02 383.587 1269.61 383.19 1270.99 382.894 1271.88 382.598 1272.87 382.302 1273.76 381.906 1274.64 381.808 1275.63 381.414 1278.2 380.426 1280.76 382.696 1283.33 384.078 1285.01 385.659 1286.39 387.337 1287.87 391.683 1291.82 395.729 1295.96 400.175 1299.81 405.21 1304.15 410.541 1308.1 417.453 1309.09 418.341 1309.18 419.033 1309.68 419.329 1309.78 419.921 1311.45 420.217 1312.74 420.809 1313.82 424.068 1319.84 427.523 1325.86 431.178 1331.69 433.25 1335.14 435.917 1337.7 439.372 1339.58 440.952 1340.48 442.598 1341 444.288 1341 445.555 1341 446.849 1340.71 448.16 1340.07 448.654 1339.88 449.048 1339.48 449.542 1339.48 453.591 1338.99 456.454 1336.52 459.02 1333.66 464.549 1327.44 470.079 1321.23 472.352 1312.94 472.547 1312.34 473.139 1311.65 473.634 1311.45 476.597 1310.47 479.459 1309.58 482.422 1308.69 483.014 1308.5 483.707 1308.3 484.299 1307.9 487.655 1305.53 491.21 1303.36 494.369 1300.8 501.28 1295.07 507.896 1289.15 514.609 1283.23 516.486 1281.55 518.164 1279.58 519.842 1277.7 521.325 1276.12 521.82 1274.15 521.719 1271.88 521.423 1268.62 520.633 1265.57 518.954 1263 519.842 1261.32 520.733 1259.94 521.225 1258.36 522.412 1254.51 521.325 1251.06 519.25 1247.9 517.673 1245.24 515.796 1242.67 514.017 1240.2 517.572 1238.03 518.658 1235.96 517.868 1232.41 517.474 1230.83 516.782 1229.25 516.19 1227.77 515.103 1225.3 514.017 1222.84 513.031 1220.66 515.399 1219.38 517.673 1218.2 519.842 1216.91 521.719 1215.93 523.004 1214.45 523.596 1212.37 524.188 1209.81 524.484 1207.14 523.892 1204.58 523.202 1201.42 522.412 1198.26 520.733 1195.4 520.337 1194.81 520.138 1194.02 519.943 1193.33 520.831 1192.64 521.621 1191.95 522.412 1191.45 524.682 1189.97 526.36 1188 527.743 1185.83 529.717 1182.77 531.691 1179.71 533.766 1176.85 538.011 1170.93 540.873 1164.51 542.256 1157.31 543.638 1150 545.417 1142.8 546.897 1135.5 548.182 1129.38 549.268 1123.16 550.254 1116.94 550.849 1113.69 551.044 1110.33 551.538 1107.08 552.426 1101.25 553.415 1095.53 554.401 1089.71 554.996 1086.55 555.487 1083.39 556.378 1080.23 560.424 1065.43 565.755 1051.12 572.371 1037.3 574.15 1033.55 575.828 1029.81 578.889 1026.94 581.949 1023.98 584.418 1020.53 586.688 1017.07 595.971 1002.86 603.078 987.567 610.484 972.369 611.866 969.606 613.151 966.645 614.335 963.784 618.088 954.21 620.261 944.243 622.135 934.078 623.618 925.197 625 916.315 624.704 907.236 624.506 903.091 624.408 898.849 624.307 894.704 624.112 886.71 623.517 878.716 622.037 870.921 620.063 859.868 617.2 849.01 611.671 839.144 608.607 833.813 605.843 828.387 602.684 823.059 595.773 811.314 587.973 800.261 577.604 791.181 570.595 785.063 563.882 778.549 556.97 772.235 553.415 769.076 550.156 765.623 546.403 762.759 538.011 756.345 528.731 751.313 519.449 746.576 515.5 744.503 511.353 742.825 507.206 740.949 500.591 737.991 493.578 736.313 486.371 735.03 486.273 735.009 486.175 735.003 486.075 735.003Z" fill="#000000" fill-rule="evenodd" fill-opacity="1"/><path d="M496.698 997.003C489.194 997.101 481.687 997.397 474.183 997.694 472.703 997.694 471.247 997.67 469.802 997.67 468.358 997.67 466.925 997.694 465.495 997.794 454.516 998.521 443.593 998.767 432.643 998.767 428.721 998.767 424.796 998.734 420.862 998.684 415.895 998.627 410.928 998.613 405.96 998.613 397.924 998.613 389.887 998.657 381.85 998.657 376.883 998.657 371.916 998.639 366.949 998.583 353.421 998.485 339.896 998.091 326.267 997.794 321.824 997.694 317.381 997.299 312.938 997.198 312.769 997.19 312.6 997.184 312.434 997.184 311.037 997.184 309.675 997.528 308 997.794 308.888 999.967 310.371 1000.07 311.653 1000.17 313.826 1000.46 316.096 1000.56 318.269 1000.86 331.797 1002.54 345.425 1003.13 359.149 1003.33 379.588 1003.63 400.126 1003.73 420.566 1003.82 424.902 1003.87 429.221 1003.89 433.537 1003.89 439.638 1003.89 445.736 1003.84 451.869 1003.73 466.877 1003.43 481.983 1002.84 496.994 1002.44 497.571 1002.43 498.149 1002.42 498.723 1002.42 503.48 1002.42 508.234 1002.76 512.991 1002.93 515.161 1002.93 517.236 1002.93 519.308 1003.13 522.863 1003.33 526.418 1003.73 530.071 1003.92 536.391 1004.32 542.613 1004.42 548.933 1004.91 554.238 1005.37 559.486 1006 564.764 1006 566.362 1006 567.964 1005.94 569.568 1005.8 570.755 1005.7 572.138 1005.41 573.026 1004.81 575 1003.53 574.603 1001.45 572.434 1000.66 571.741 1000.36 571.051 1000.26 570.359 1000.26L565.915 1000.26C564.435 1000.26 562.929 1000.31 561.422 1000.31 559.918 1000.31 558.411 1000.26 556.931 1000.07 550.019 999.277 543.107 998.583 535.997 998.583 534.023 998.583 532.048 998.485 529.973 998.387 524.02 997.966 517.996 997.332 511.961 997.332 510.889 997.332 509.817 997.353 508.743 997.397 508.181 997.427 507.612 997.439 507.044 997.439 503.637 997.439 500.167 997.003 496.698 997.003Z" fill="#000000" fill-rule="evenodd" fill-opacity="1"/><path d="M437.165 890.003C434.894 890.003 432.626 890.04 430.357 890.141 419.914 890.654 409.47 890.755 398.928 891.369 387.105 892.087 375.185 892.188 363.362 892.394 354.395 892.599 345.333 892.802 336.366 892.906 329.865 892.906 323.264 893.007 316.76 893.007 310.555 892.906 304.346 892.7 298.141 892.599 296.859 892.599 295.577 892.906 294.003 893.109 294.889 894.953 295.973 895.155 297.154 895.26 299.124 895.361 301.195 895.26 303.165 895.465 315.774 896.794 328.486 896.589 341.095 896.693 359.026 896.693 376.957 896.18 394.888 895.772 401.392 895.668 407.993 894.849 414.494 894.747 419.406 894.655 424.314 894.618 429.223 894.618 440.47 894.618 451.721 894.809 462.968 894.953 476.838 895.251 490.657 895.659 504.501 895.659 509.634 895.659 514.77 895.604 519.913 895.465 526.641 895.294 533.369 895.208 540.094 895.208 557.399 895.208 574.692 895.763 591.935 896.794 594.298 896.899 596.564 896.899 598.832 897 600.013 897 600.899 896.693 600.997 895.26 598.436 892.087 598.436 892.188 594.594 892.087 590.851 891.982 587.106 891.675 583.361 891.574 570.259 891.166 557.154 890.755 544.052 890.549 543.122 890.54 542.188 890.537 541.255 890.537 531.925 890.537 522.529 890.96 513.214 890.96 494.789 890.856 476.466 890.549 458.142 890.448 451.148 890.371 444.156 890.003 437.165 890.003Z" fill="#000000" fill-rule="evenodd" fill-opacity="1"/><path d="M528.251 1088C520.37 1088.19 512.485 1088.57 504.603 1088.57 487.161 1088.57 469.619 1088.76 452.178 1089.41 441.634 1089.88 431.088 1089.98 420.447 1090.26 412.069 1090.45 403.694 1090.64 395.319 1090.73 390.261 1090.84 385.242 1091.23 380.217 1091.23 376.914 1091.23 373.608 1091.06 370.288 1090.54 369.54 1090.45 368.778 1090.41 368.01 1090.41 365.644 1090.41 363.21 1090.75 360.828 1090.82 360.335 1090.85 359.842 1090.87 359.348 1090.87 358.365 1090.87 357.378 1090.82 356.394 1090.82 354.619 1090.73 352.944 1090.64 351.171 1090.64 351.094 1090.63 351.024 1090.63 350.953 1090.63 349.928 1090.63 349.481 1091.27 349.298 1092.24 349.003 1093.93 349.987 1095.43 352.155 1095.72 353.83 1095.9 355.605 1095.9 357.378 1096 361.715 1096.19 366.051 1096.47 370.486 1096.66 374.229 1096.84 377.975 1096.94 381.718 1097.13 383.493 1097.22 385.366 1097.5 387.138 1097.6 392.066 1097.69 396.994 1097.69 401.821 1097.79 405.011 1097.86 408.199 1098 411.389 1098 412.14 1098 412.893 1097.99 413.646 1097.97 421.038 1097.69 428.429 1097.31 435.818 1097.03 443.209 1096.75 450.503 1096.66 457.891 1096.19 467.747 1095.43 477.504 1094.49 487.457 1094.49 487.941 1094.5 488.426 1094.51 488.907 1094.51 492.958 1094.51 497.005 1094.18 501.055 1093.93 505.291 1093.74 509.531 1093.46 513.864 1093.27 513.864 1093.36 513.864 1093.46 513.864 1093.55 515.442 1093.55 517.019 1093.58 518.594 1093.58 520.172 1093.58 521.749 1093.55 523.327 1093.46 525.69 1093.36 528.154 1092.89 530.42 1092.33 531.309 1092.24 531.997 1091.58 531.997 1090.54 531.9 1089.51 531.406 1088.76 530.52 1088.38 529.829 1088.1 528.943 1088 528.251 1088Z" fill="#000000" fill-rule="evenodd" fill-opacity="1"/><path d="M338.912 801.003C338.529 801.003 338.099 801.2 337.471 801.55 336.867 801.95 336.262 802.348 335.758 802.847 332.332 806.334 328.803 809.825 325.476 813.513 323.159 816.104 321.243 818.996 318.926 821.587 311.671 829.662 307.033 839.132 303.507 849.2 303.103 850.297 303.003 851.493 303.103 852.589 303.103 853.088 303.81 853.985 304.211 853.985 304.275 853.994 304.335 853.997 304.399 853.997 305.057 853.997 305.777 853.552 306.329 853.187 306.731 852.79 306.731 851.992 307.033 851.493 308.142 848.701 309.151 845.812 310.662 843.319 315.197 835.642 319.43 827.968 324.672 820.789 329.005 814.908 333.54 809.424 339.184 804.939 339.891 804.341 340.393 803.444 340.997 802.647 340.015 801.49 339.517 801.003 338.912 801.003Z" fill="#000000" fill-rule="evenodd" fill-opacity="1"/><path d="M444.966 728C438.234 728 431.508 728.585 424.853 729.241 417.673 729.935 410.591 731.429 403.411 732.622 401.936 732.921 400.462 733.517 399.085 734.215 398.492 734.513 398.298 735.408 398.003 736.102 398.69 736.404 399.28 736.702 399.97 737 400.265 737 400.559 736.899 400.854 736.8 402.821 736.502 404.888 736.102 406.952 735.706 413.74 734.611 420.33 733.317 427.115 732.324 430.459 731.826 433.903 732.124 437.246 731.826 440.404 731.45 443.562 731.254 446.72 731.254 450.25 731.254 453.782 731.501 457.312 732.026 461.148 732.524 464.984 733.317 468.82 734.015 470.392 734.313 471.966 734.71 473.444 734.91 473.7 734.969 473.948 735.002 474.181 735.002 475.092 735.002 475.764 734.507 476 733.317 475.213 731.429 473.444 731.328 471.869 731.03 467.443 730.234 462.917 729.539 458.491 728.942 453.994 728.263 449.477 728 444.966 728Z" fill="#000000" fill-rule="evenodd" fill-opacity="1"/><path d="M304.054 922.003C302.821 922.694 302.105 923.684 302.003 924.971 302.003 927.741 302.003 930.409 302.206 933.081 302.513 935.453 303.233 937.73 303.642 940.102 304.564 945.84 305.898 951.578 307.641 957.215 309.384 962.555 310.616 967.996 312.153 973.437 312.562 974.822 313.177 976.207 313.795 977.592 314.198 978.448 314.794 979 315.682 979 315.919 979 316.177 978.958 316.46 978.875 317.588 978.38 317.997 977.393 317.588 976.008 316.869 973.239 316.153 970.368 315.332 967.599 311.333 954.247 308.563 940.598 306.205 926.848 305.898 925.167 305.489 923.388 304.054 922.003Z" fill="#000000" fill-rule="evenodd" fill-opacity="1"/><path d="M365.788 1117C365.197 1117.69 365.003 1118.29 365.003 1118.88 365.1 1120.37 365.197 1121.86 365.591 1123.24 366.178 1126.41 366.963 1129.39 367.647 1132.56 367.941 1133.94 368.041 1135.43 368.432 1136.92 369.216 1139.99 370.198 1142.96 370.979 1146.03 372.451 1151.58 373.724 1157.23 375.096 1162.88 375.728 1165.11 376.55 1166 378.437 1166 378.892 1166 379.406 1165.95 379.997 1165.85 379.9 1164.86 379.803 1163.77 379.606 1162.88 378.822 1160.01 378.037 1157.23 377.253 1154.46 375.686 1149.01 374.117 1143.56 372.648 1138.01 372.255 1136.82 371.764 1135.53 371.373 1134.34 369.904 1129.29 368.432 1124.23 366.863 1119.18 366.669 1118.49 366.178 1117.69 365.788 1117Z" fill="#000000" fill-rule="evenodd" fill-opacity="1"/><path d="M333.353 1023C333.286 1023 333.219 1023.01 333.146 1023.01 332.119 1023.21 331 1024.2 331 1025.29 331 1025.98 331.28 1026.87 331.56 1027.56 332.307 1029.34 333.333 1031.02 334.08 1032.9 336.319 1038.73 338.467 1044.57 340.706 1050.5 341.08 1051.39 341.36 1052.28 341.92 1052.97 342.323 1053.49 343.078 1054 343.514 1054 343.582 1054 343.643 1053.99 343.694 1053.96 344.345 1053.66 344.625 1052.78 345 1052.18 344.72 1051.19 344.533 1050.6 344.345 1049.91 341.825 1041.21 338.652 1032.7 335.012 1024.49 334.662 1023.66 334.315 1023 333.353 1023Z" fill="#000000" fill-rule="evenodd" fill-opacity="1"/><path d="M319.101 981C317.8 981.38 317 982.136 317 983.459 317 984.592 317.8 985.252 318.7 985.725 319.032 985.915 319.332 985.997 319.605 985.997 320.145 985.997 320.567 985.663 320.9 985.159 322 983.459 321.601 982.419 319.101 981Z" fill="#000000" fill-rule="evenodd" fill-opacity="1"/><path d="M349.166 1061C349.11 1061 349.056 1061 349 1061.01 347.888 1061.11 347 1062.23 347 1063.65 347 1065.1 347.602 1066 348.614 1066 348.667 1066 348.72 1066 348.777 1065.99 350.108 1065.89 350.997 1064.77 350.887 1063.25 350.887 1061.89 350.185 1061 349.166 1061Z" fill="#000000" fill-rule="evenodd" fill-opacity="1"/><path d="M381.979 1171C381.77 1171 381.564 1171.1 381.457 1171.2 380.939 1171.8 380 1172.6 380.106 1172.9 380.418 1173.7 381.354 1174.2 382.085 1175 383.227 1174.3 384.167 1173.9 384.685 1173.1 385 1172.7 384.791 1171.5 384.479 1171.3 383.992 1171.04 383.414 1171.04 382.834 1171.04 382.547 1171.04 382.256 1171.04 381.979 1171Z" fill="#000000" fill-rule="evenodd" fill-opacity="1"/><path d="M439.776 1251C439.282 1251 438.691 1251.09 438.198 1251.18L438 1251.71C438.987 1252.16 439.873 1252.87 440.957 1253.05 443.519 1253.67 446.181 1254.21 448.843 1254.47 456.333 1255.36 463.92 1256.07 471.51 1256.79 472.662 1256.92 473.871 1257 475.091 1257 475.54 1257 475.989 1256.99 476.438 1256.97 477.916 1256.97 478.899 1256.25 479 1254.38 478.113 1254.12 477.224 1253.67 476.338 1253.58 474.169 1253.32 472.001 1253.32 469.835 1253.14 459.781 1252.42 449.827 1251.71 439.776 1251Z" fill="#000000" fill-rule="evenodd" fill-opacity="1"/><path d="M482.776 1254C481.695 1254 481 1254.51 481.095 1255.33 481.095 1256.29 482.118 1257 483.648 1257 483.765 1257 483.887 1257 484.013 1257 484.769 1257 485.617 1256.93 485.795 1256.03 485.997 1255.07 484.567 1254.01 483.036 1254.01 482.947 1254.01 482.862 1254 482.776 1254Z" fill="#000000" fill-rule="evenodd" fill-opacity="1"/><path d="M422.061 1206C420.974 1206 419.989 1206.2 419 1206.3 419.296 1207.09 419.693 1207.69 420.184 1207.79 421.27 1208.18 422.457 1208.58 423.739 1208.68 429.07 1209.28 434.502 1209.77 439.934 1210.27 446.845 1210.86 453.855 1211.36 460.864 1211.96 461.163 1211.99 461.459 1212 461.749 1212 462.336 1212 462.907 1211.96 463.434 1211.96 464.618 1211.96 465.506 1211.46 466 1210.17 465.011 1208.68 463.73 1208.18 462.149 1208.09 454.349 1207.59 446.549 1206.99 438.747 1206.6 433.217 1206.3 427.59 1206.2 422.061 1206Z" fill="#000000" fill-rule="evenodd" fill-opacity="1"/><path d="M471.489 1209C471.018 1209 470.547 1209.11 470.047 1209.39 469.571 1209.69 469.38 1210.49 469 1210.99 469.571 1211.3 470.047 1212 470.524 1212 472.046 1211.8 473.476 1211.4 475 1209.89 473.616 1209.54 472.551 1209 471.489 1209Z" fill="#000000" fill-rule="evenodd" fill-opacity="1"/><path d="M404.689 1264C403.392 1264 402.099 1264.29 401.003 1265.25 401.699 1266.97 403.294 1266.77 404.59 1266.97 411.564 1267.63 418.636 1268.3 425.61 1268.97 425.837 1268.99 426.064 1269 426.282 1269 427.411 1269 428.415 1268.72 428.997 1267.44 428.498 1265.25 426.706 1264.67 424.813 1264.67 418.138 1264.29 411.364 1264.19 404.689 1264Z" fill="#000000" fill-rule="evenodd" fill-opacity="1"/><path d="M434.881 1266C434.182 1266 433.477 1266.3 432.885 1266.92 432 1267.92 432.198 1269.14 433.474 1269.69 434.002 1269.9 434.509 1270 434.999 1270 436.066 1270 437.056 1269.53 438 1268.7 437.428 1266.98 436.16 1266 434.881 1266Z" fill="#000000" fill-rule="evenodd" fill-opacity="1"/><path d="M427.793 1223C426.512 1223 425.457 1223.33 425.299 1224.03 425.003 1225.1 426.287 1226.16 428.167 1226.46 430.542 1226.84 432.817 1227.14 435.189 1227.33 442.511 1227.91 449.931 1228.49 457.249 1228.98 457.457 1228.99 457.664 1229 457.875 1229 459.174 1229 460.538 1228.77 461.899 1228.69 461.899 1228.49 461.899 1228.2 461.997 1228.01 460.811 1227.04 459.426 1226.65 457.943 1226.46 453.293 1225.87 448.546 1225.49 443.795 1224.9 438.751 1224.32 433.804 1223.74 428.76 1223.06 428.431 1223.02 428.105 1223 427.793 1223Z" fill="#000000" fill-rule="evenodd" fill-opacity="1"/><path d="M468.933 1227C468.598 1227 468.238 1227.13 467.817 1227.4 467.492 1227.68 467.003 1228.32 467.083 1228.59 467.247 1229.14 467.653 1229.78 468.145 1229.87 468.39 1229.96 468.629 1230 468.864 1230 469.65 1230 470.374 1229.55 471 1228.77 470.224 1227.59 469.637 1227 468.933 1227Z" fill="#000000" fill-rule="evenodd" fill-opacity="1"/><path d="M281.133 894.003C281.032 894.003 280.935 894.009 280.837 894.027 279.819 894.127 279.003 895.441 279.309 896.754 279.41 897.36 279.715 898.065 279.92 898.976 280.278 898.976 280.635 899 280.99 899 281.347 899 281.705 898.976 282.062 898.873 283.386 898.673 283.997 897.562 283.59 896.046 283.312 894.941 282.182 894.003 281.133 894.003Z" fill="#000000" fill-rule="evenodd" fill-opacity="1"/><path d="M866.057 624C864.698 624 863.877 625.112 863.952 627.118 863.952 627.908 864.292 628.929 864.749 629.607 866.564 631.756 868.499 633.789 870.431 635.823 872.362 637.972 874.406 640.01 876.454 642.043 876.338 642.382 876.226 642.61 876.11 642.837L874.406 642.837C870.09 642.271 865.883 641.816 861.567 641.138 852.362 639.867 843.222 639.04 834.001 639.04 830.928 639.04 827.845 639.132 824.748 639.332 811.452 640.349 798.156 641.477 785.089 644.982 770.546 648.942 756.793 654.141 744.635 663.189 743.385 664.094 741.91 664.999 740.66 665.9 722.363 678.226 706.57 693.154 694.637 711.696 689.07 720.289 684.182 729.109 681.569 739.061 681.341 739.851 681.341 740.644 681 742 683.16 740.529 683.729 738.722 684.522 737.139 692.477 719.838 703.047 704.347 716.909 691.117 719.75 688.517 722.591 685.917 725.32 683.317 736 673.704 748.158 666.016 760.772 659.345 772.59 653.013 785.773 649.958 798.954 647.47 805.998 646.226 813.271 645.664 820.545 645.321 825.099 645.084 829.688 644.942 834.273 644.942 838.382 644.942 842.487 645.057 846.568 645.321 856.794 646.003 866.908 647.698 877.135 648.942 877.36 648.942 877.588 649.169 878.045 649.508 877.247 650.413 876.566 651.203 875.769 651.996 872.587 654.935 869.406 657.874 866.34 660.812 865.318 661.718 864.408 662.623 863.727 663.755 863.042 664.772 862.248 666.128 863.27 667.372 864.023 668.368 865.021 668.755 866.128 668.755 866.527 668.755 866.939 668.707 867.362 668.616 868.155 668.504 868.952 667.826 869.634 667.26 876.11 661.606 882.473 655.84 888.953 650.07 890.997 648.264 890.997 646.453 888.953 644.42 887.59 643.06 885.883 642.043 884.749 640.572 880.542 634.583 874.066 630.851 869.293 625.424 868.952 625.085 868.612 624.969 868.271 624.742 867.44 624.241 866.69 624 866.057 624Z" fill="#000000" fill-rule="evenodd" fill-opacity="1"/><path d="M728.381 951.033C729.203 951.435 730.075 951.67 730.923 951.836 735.443 952.712 739.967 953.587 744.588 953.975 750.721 954.57 756.511 953.389 762.295 950.87 776.748 944.565 787.728 934.424 796.374 921.401 803.003 911.131 809.362 900.601 815.07 889.753 821.837 876.744 830.927 865.542 841.969 856.101 849.382 849.695 857.889 845.429 867.72 845.292 872.396 845.306 877.134 846.285 882.082 846.833 880.058 849.324 877.545 850.632 875.142 852.267 873.914 853.138 872.633 854.115 871.46 855.145 870.66 855.96 870.186 857.2 871.108 858.052 871.361 858.264 871.654 858.452 871.971 858.607 872.602 858.916 873.319 859.09 873.964 859.049 874.824 858.932 875.677 858.279 876.479 857.737 878.512 856.59 880.596 855.337 882.465 853.977 885.402 851.802 888.391 849.519 891.164 847.131 894.257 844.366 894.456 842.859 892.438 839.33 892.059 838.744 891.731 838.046 891.242 837.406 888.365 833.993 885.167 830.957 882.932 827.052 882.669 826.598 882.237 826.251 881.739 826.007 880.594 825.447 879.065 825.433 878.246 825.966 877.283 826.566 876.928 828.93 877.803 830.429 878.403 831.661 879.328 832.779 880.141 833.846 881.446 835.824 882.593 837.857 883.588 840.749 880.144 840.404 877.136 840.267 874.284 839.81 864.758 838.225 855.802 840.13 847.838 844.926 833.083 853.758 822.394 866.852 813.277 881.117 808.982 887.977 805.609 895.421 801.531 902.387 797.452 909.085 793.156 915.676 788.752 922.218 782.971 931.026 775.184 937.649 766.039 942.939 758.127 947.628 749.603 949.741 740.409 948.855 737.073 948.562 733.581 948.321 730.192 948.134 728.741 948.094 727.181 947.732 725.847 948.819 726.548 949.88 727.43 950.568 728.381 951.033Z" fill="#000000" fill-rule="evenodd" fill-opacity="1"/><path d="M819.436 1057C818.221 1057 817.145 1057.53 816.592 1058.47 815.647 1059.89 816.121 1062.26 817.892 1063.44 819.783 1064.86 821.908 1066.04 824.036 1067.22 825.216 1067.93 826.516 1068.64 828.169 1069.59 826.87 1069.82 826.278 1070.06 825.69 1070.18 817.357 1070.74 809.028 1071.84 800.698 1071.84 800.287 1071.84 799.873 1071.84 799.462 1071.83 789.893 1071.72 780.324 1070.65 770.992 1069.23 762.368 1068.05 753.982 1065.92 745.475 1064.03 737.677 1062.25 729.964 1060.64 721.988 1060.64 720.416 1060.64 718.836 1060.7 717.243 1060.84 713.227 1061.19 709.561 1062.02 706.02 1063.56 704.366 1064.15 702.712 1064.98 702.003 1066.99 702.545 1067.53 703.041 1067.7 703.519 1067.7 704.079 1067.7 704.617 1067.47 705.191 1067.34 707.082 1066.75 709.207 1065.92 711.215 1065.81 714.122 1065.67 717.069 1065.61 720.008 1065.61 722.087 1065.61 724.166 1065.64 726.22 1065.68 728.228 1065.68 730.236 1065.92 732.128 1066.4 738.389 1067.81 744.53 1069.35 750.791 1070.77 755.753 1071.95 760.714 1073.25 765.793 1073.96 772.883 1075.15 779.97 1075.85 786.939 1076.8 791.423 1077.4 795.885 1077.62 800.33 1077.62 805.607 1077.62 810.862 1077.3 816.121 1076.92 820.846 1076.56 825.453 1075.97 830.532 1075.5 829.586 1076.56 828.998 1077.16 828.407 1077.86 825.924 1081.17 823.208 1084.49 820.962 1088.03 819.192 1090.75 820.608 1093 823.916 1093 824.979 1093 826.161 1092.53 826.87 1091.7 831.24 1087.2 835.493 1082.48 839.63 1077.86 840.338 1077.16 840.575 1076.09 841.284 1075.38 844 1072.31 843.408 1069.71 839.63 1068.17 837.501 1067.22 835.376 1066.4 833.368 1065.21 830.532 1063.32 827.815 1061.19 824.979 1059.3 823.799 1058.59 822.616 1057.88 821.317 1057.41 820.686 1057.13 820.045 1057 819.436 1057Z" fill="#000000" fill-rule="evenodd" fill-opacity="1"/><text fill="#000000" fill-opacity="1" font-family="Arial,Arial_MSFontService,sans-serif" font-style="normal" font-variant="normal" font-weight="700" font-stretch="normal" font-size="55" text-anchor="start" direction="ltr" writing-mode="lr-tb" unicode-bidi="normal" text-decoration="none" transform="matrix(1 0 0 1 977.61 1073)">Untersttzung<tspan fill="#000000" fill-opacity="1" font-family="Arial,Arial_MSFontService,sans-serif" font-style="normal" font-variant="normal" font-weight="700" font-stretch="normal" font-size="55" text-anchor="start" direction="ltr" writing-mode="lr-tb" unicode-bidi="normal" text-decoration="none" x="388.438" y="0">von </tspan>Forschung<tspan fill="#000000" fill-opacity="1" font-family="Arial,Arial_MSFontService,sans-serif" font-style="normal" font-variant="normal" font-weight="700" font-stretch="normal" font-size="55" text-anchor="start" direction="ltr" writing-mode="lr-tb" unicode-bidi="normal" text-decoration="none" x="0" y="-215">Untersttzung</tspan><tspan fill="#000000" fill-opacity="1" font-family="Arial,Arial_MSFontService,sans-serif" font-style="normal" font-variant="normal" font-weight="700" font-stretch="normal" font-size="55" text-anchor="start" direction="ltr" writing-mode="lr-tb" unicode-bidi="normal" text-decoration="none" x="388.438" y="-215">von </tspan>Bildung<tspan fill="#000000" fill-opacity="1" font-family="Arial,Arial_MSFontService,sans-serif" font-style="normal" font-variant="normal" font-weight="700" font-stretch="normal" font-size="55" text-anchor="start" direction="ltr" writing-mode="lr-tb" unicode-bidi="normal" text-decoration="none" x="-5.64581" y="-412">Untersttzung</tspan><tspan fill="#000000" fill-opacity="1" font-family="Arial,Arial_MSFontService,sans-serif" font-style="normal" font-variant="normal" font-weight="700" font-stretch="normal" font-size="55" text-anchor="start" direction="ltr" writing-mode="lr-tb" unicode-bidi="normal" text-decoration="none" x="382.792" y="-412">von Transfer </tspan>zwischen<tspan fill="#000000" fill-opacity="1" font-family="Arial,Arial_MSFontService,sans-serif" font-style="normal" font-variant="normal" font-weight="700" font-stretch="normal" font-size="55" text-anchor="start" direction="ltr" writing-mode="lr-tb" unicode-bidi="normal" text-decoration="none" x="988.204" y="-412">Forschung</tspan><tspan fill="#000000" fill-opacity="1" font-family="Arial,Arial_MSFontService,sans-serif" font-style="normal" font-variant="normal" font-weight="700" font-stretch="normal" font-size="55" text-anchor="start" direction="ltr" writing-mode="lr-tb" unicode-bidi="normal" text-decoration="none" x="1288.41" y="-412">und Praxis</tspan></text><path d="M712.53 1242.71C720.981 1250.36 730.302 1256.98 740.395 1262.54 749.365 1267.49 758.777 1271.42 768.912 1273.16 781.811 1275.35 794.73 1276.29 807.797 1275.14 808.457 1275.11 809.051 1275.33 810.055 1275.44 809.25 1275.98 808.856 1276.42 808.456 1276.69 802.993 1280.45 797.801 1284.61 793.313 1289.56 792.289 1290.69 791.525 1292.06 791.016 1293.5 790.698 1294.27 790.906 1294.99 791.422 1295.46 791.748 1295.75 792.198 1295.95 792.718 1295.99 793.711 1295.94 794.941 1295.63 795.824 1295 797.109 1294.11 798.134 1292.98 799.322 1291.84 804.892 1286.91 810.375 1281.91 816.907 1278.01 818.437 1277.02 819.595 1275.22 820.759 1273.58 821.145 1272.98 821.173 1271.91 820.977 1271.25 820.504 1269.81 819.826 1268.49 818.698 1267.47 818.416 1267.21 818.106 1266.97 817.761 1266.76 811.479 1262.33 805.198 1257.91 798.918 1253.49 797.288 1252.49 795.67 1251.66 793.97 1250.91 792.613 1250.31 791.287 1250.38 790.445 1251.83 789.762 1253.11 789.783 1255.19 790.747 1256.22 790.875 1256.38 791.019 1256.53 791.176 1256.67 791.548 1257.01 791.991 1257.3 792.478 1257.63 795.313 1259.57 798.397 1261.4 801.239 1263.5 802.799 1264.52 804.327 1265.57 805.774 1266.88 806.639 1267.66 807.472 1268.54 808.267 1269.55 806.033 1269.75 804.376 1269.83 802.642 1270 791.792 1270.62 780.957 1269.83 770.306 1267.78 766.203 1267.07 762.169 1266.11 758.274 1264.64 743.746 1259.71 730.89 1251.71 719.107 1241.83 716.849 1239.93 714.612 1238 712.428 1236.02 707.23 1231.32 702.321 1226.31 698.122 1220.61 691.269 1211.4 686.209 1201.43 682.92 1190.39 681.921 1186.95 680.674 1183.6 679.395 1179.6 677.784 1182.25 678.385 1184.38 678.824 1186.52 681.672 1202.07 688.422 1215.94 698.491 1228.07 702.852 1233.31 707.538 1238.19 712.53 1242.71Z" fill="#000000" fill-rule="evenodd" fill-opacity="1"/><text fill="#000000" fill-opacity="1" font-family="Arial,Arial_MSFontService,sans-serif" font-style="normal" font-variant="normal" font-weight="700" font-stretch="normal" font-size="55" text-anchor="start" direction="ltr" writing-mode="lr-tb" unicode-bidi="normal" text-decoration="none" transform="matrix(1 0 0 1 983.131 1281)">Untersttzung<tspan fill="#000000" fill-opacity="1" font-family="Arial,Arial_MSFontService,sans-serif" font-style="normal" font-variant="normal" font-weight="700" font-stretch="normal" font-size="55" text-anchor="start" direction="ltr" writing-mode="lr-tb" unicode-bidi="normal" text-decoration="none" x="388.438" y="0">eines</tspan><tspan fill="#000000" fill-opacity="1" font-family="Arial,Arial_MSFontService,sans-serif" font-style="normal" font-variant="normal" font-weight="700" font-stretch="normal" font-size="55" text-anchor="start" direction="ltr" writing-mode="lr-tb" unicode-bidi="normal" text-decoration="none" x="544.271" y="0">inklusiven</tspan><tspan fill="#000000" fill-opacity="1" font-family="Arial,Arial_MSFontService,sans-serif" font-style="normal" font-variant="normal" font-weight="700" font-stretch="normal" font-size="55" text-anchor="start" direction="ltr" writing-mode="lr-tb" unicode-bidi="normal" text-decoration="none" x="829.01" y="0">Innovation</tspan><tspan fill="#000000" fill-opacity="1" font-family="Arial,Arial_MSFontService,sans-serif" font-style="normal" font-variant="normal" font-weight="700" font-stretch="normal" font-size="55" text-anchor="start" direction="ltr" writing-mode="lr-tb" unicode-bidi="normal" text-decoration="none" x="1108.02" y="0">-</tspan><tspan fill="#000000" fill-opacity="1" font-family="Arial,Arial_MSFontService,sans-serif" font-style="normal" font-variant="normal" font-weight="700" font-stretch="normal" font-size="55" text-anchor="start" direction="ltr" writing-mode="lr-tb" unicode-bidi="normal" text-decoration="none" x="1126.35" y="0">Netzwerks</tspan><tspan fill="#000000" fill-opacity="1" font-family="Arial,Arial_MSFontService,sans-serif" font-style="normal" font-variant="normal" font-weight="400" font-stretch="normal" font-size="55" text-anchor="start" direction="ltr" writing-mode="lr-tb" unicode-bidi="normal" text-decoration="none" x="0" y="82">Schafft</tspan><tspan fill="#000000" fill-opacity="1" font-family="Arial,Arial_MSFontService,sans-serif" font-style="normal" font-variant="normal" font-weight="400" font-stretch="normal" font-size="55" text-anchor="start" direction="ltr" writing-mode="lr-tb" unicode-bidi="normal" text-decoration="none" x="185.785" y="82">Rume</tspan><tspan fill="#000000" fill-opacity="1" font-family="Arial,Arial_MSFontService,sans-serif" font-style="normal" font-variant="normal" font-weight="400" font-stretch="normal" font-size="55" text-anchor="start" direction="ltr" writing-mode="lr-tb" unicode-bidi="normal" text-decoration="none" x="377.713" y="82">fr</tspan><tspan fill="#000000" fill-opacity="1" font-family="Arial,Arial_MSFontService,sans-serif" font-style="normal" font-variant="normal" font-weight="400" font-stretch="normal" font-size="55" text-anchor="start" direction="ltr" writing-mode="lr-tb" unicode-bidi="normal" text-decoration="none" x="457.348" y="82">lokale</tspan><tspan fill="#000000" fill-opacity="1" font-family="Arial,Arial_MSFontService,sans-serif" font-style="normal" font-variant="normal" font-weight="400" font-stretch="normal" font-size="55" text-anchor="start" direction="ltr" writing-mode="lr-tb" unicode-bidi="normal" text-decoration="none" x="600.004" y="82">, </tspan><tspan fill="#000000" fill-opacity="1" font-family="Arial,Arial_MSFontService,sans-serif" font-style="normal" font-variant="normal" font-weight="400" font-stretch="normal" font-size="55" text-anchor="start" direction="ltr" writing-mode="lr-tb" unicode-bidi="normal" text-decoration="none" x="630.942" y="82">regionale</tspan><tspan fill="#000000" fill-opacity="1" font-family="Arial,Arial_MSFontService,sans-serif" font-style="normal" font-variant="normal" font-weight="400" font-stretch="normal" font-size="55" text-anchor="start" direction="ltr" writing-mode="lr-tb" unicode-bidi="normal" text-decoration="none" x="870.994" y="82">und </tspan><tspan fill="#000000" fill-opacity="1" font-family="Arial,Arial_MSFontService,sans-serif" font-style="normal" font-variant="normal" font-weight="400" font-stretch="normal" font-size="55" text-anchor="start" direction="ltr" writing-mode="lr-tb" unicode-bidi="normal" text-decoration="none" x="977.556" y="82">nationale</tspan><tspan fill="#000000" fill-opacity="1" font-family="Arial,Arial_MSFontService,sans-serif" font-style="normal" font-variant="normal" font-weight="400" font-stretch="normal" font-size="55" text-anchor="start" direction="ltr" writing-mode="lr-tb" unicode-bidi="normal" text-decoration="none" x="1214.74" y="82">Zusammenarbeit</tspan><tspan fill="#000000" fill-opacity="1" font-family="Arial,Arial_MSFontService,sans-serif" font-style="normal" font-variant="normal" font-weight="400" font-stretch="normal" font-size="55" text-anchor="start" direction="ltr" writing-mode="lr-tb" unicode-bidi="normal" text-decoration="none" x="0" y="-124">Schafft</tspan><tspan fill="#000000" fill-opacity="1" font-family="Arial,Arial_MSFontService,sans-serif" font-style="normal" font-variant="normal" font-weight="400" font-stretch="normal" font-size="55" text-anchor="start" direction="ltr" writing-mode="lr-tb" unicode-bidi="normal" text-decoration="none" x="185.785" y="-124">Rume</tspan><tspan fill="#000000" fill-opacity="1" font-family="Arial,Arial_MSFontService,sans-serif" font-style="normal" font-variant="normal" font-weight="400" font-stretch="normal" font-size="55" text-anchor="start" direction="ltr" writing-mode="lr-tb" unicode-bidi="normal" text-decoration="none" x="377.713" y="-124">fr</tspan><tspan fill="#000000" fill-opacity="1" font-family="Arial,Arial_MSFontService,sans-serif" font-style="normal" font-variant="normal" font-weight="400" font-stretch="normal" font-size="55" text-anchor="start" direction="ltr" writing-mode="lr-tb" unicode-bidi="normal" text-decoration="none" x="457.348" y="-124">eine</tspan><tspan fill="#000000" fill-opacity="1" font-family="Arial,Arial_MSFontService,sans-serif" font-style="normal" font-variant="normal" font-weight="400" font-stretch="normal" font-size="55" text-anchor="start" direction="ltr" writing-mode="lr-tb" unicode-bidi="normal" text-decoration="none" x="575.942" y="-124">koordinierte</tspan><tspan fill="#000000" fill-opacity="1" font-family="Arial,Arial_MSFontService,sans-serif" font-style="normal" font-variant="normal" font-weight="400" font-stretch="normal" font-size="55" text-anchor="start" direction="ltr" writing-mode="lr-tb" unicode-bidi="normal" text-decoration="none" x="877.296" y="-124">Problembearbeitung</tspan><tspan fill="#000000" fill-opacity="1" font-family="Arial,Arial_MSFontService,sans-serif" font-style="normal" font-variant="normal" font-weight="400" font-stretch="normal" font-size="46" text-anchor="start" direction="ltr" writing-mode="lr-tb" unicode-bidi="normal" text-decoration="none" x="1385.47" y="-124">(</tspan><tspan fill="#000000" fill-opacity="1" font-family="Arial,Arial_MSFontService,sans-serif" font-style="normal" font-variant="normal" font-weight="400" font-stretch="normal" font-size="46" text-anchor="start" direction="ltr" writing-mode="lr-tb" unicode-bidi="normal" text-decoration="none" x="1400.94" y="-124">z.B.</tspan><tspan fill="#000000" fill-opacity="1" font-family="Arial,Arial_MSFontService,sans-serif" font-style="normal" font-variant="normal" font-weight="400" font-stretch="normal" font-size="46" text-anchor="start" direction="ltr" writing-mode="lr-tb" unicode-bidi="normal" text-decoration="none" x="1479.43" y="-124">, </tspan><tspan fill="#000000" fill-opacity="1" font-family="Arial,Arial_MSFontService,sans-serif" font-style="normal" font-variant="normal" font-weight="400" font-stretch="normal" font-size="46" text-anchor="start" direction="ltr" writing-mode="lr-tb" unicode-bidi="normal" text-decoration="none" x="1504.64" y="-124">gemeinsame</tspan><tspan fill="#000000" fill-opacity="1" font-family="Arial,Arial_MSFontService,sans-serif" font-style="normal" font-variant="normal" font-weight="400" font-stretch="normal" font-size="46" text-anchor="start" direction="ltr" writing-mode="lr-tb" unicode-bidi="normal" text-decoration="none" x="1778.49" y="-124">Antragsstellung</tspan><tspan fill="#000000" fill-opacity="1" font-family="Arial,Arial_MSFontService,sans-serif" font-style="normal" font-variant="normal" font-weight="400" font-stretch="normal" font-size="46" text-anchor="start" direction="ltr" writing-mode="lr-tb" unicode-bidi="normal" text-decoration="none" x="2092.45" y="-124">)</tspan><tspan fill="#000000" fill-opacity="1" font-family="Arial,Arial_MSFontService,sans-serif" font-style="normal" font-variant="normal" font-weight="400" font-stretch="normal" font-size="55" text-anchor="start" direction="ltr" writing-mode="lr-tb" unicode-bidi="normal" text-decoration="none" x="-5.52057" y="-338">Schafft</tspan><tspan fill="#000000" fill-opacity="1" font-family="Arial,Arial_MSFontService,sans-serif" font-style="normal" font-variant="normal" font-weight="400" font-stretch="normal" font-size="55" text-anchor="start" direction="ltr" writing-mode="lr-tb" unicode-bidi="normal" text-decoration="none" x="180.265" y="-338">Rume</tspan><tspan fill="#000000" fill-opacity="1" font-family="Arial,Arial_MSFontService,sans-serif" font-style="normal" font-variant="normal" font-weight="400" font-stretch="normal" font-size="55" text-anchor="start" direction="ltr" writing-mode="lr-tb" unicode-bidi="normal" text-decoration="none" x="372.192" y="-338">fr</tspan><tspan fill="#000000" fill-opacity="1" font-family="Arial,Arial_MSFontService,sans-serif" font-style="normal" font-variant="normal" font-weight="400" font-stretch="normal" font-size="55" text-anchor="start" direction="ltr" writing-mode="lr-tb" unicode-bidi="normal" text-decoration="none" x="451.827" y="-338">die </tspan><tspan fill="#000000" fill-opacity="1" font-family="Arial,Arial_MSFontService,sans-serif" font-style="normal" font-variant="normal" font-weight="400" font-stretch="normal" font-size="55" text-anchor="start" direction="ltr" writing-mode="lr-tb" unicode-bidi="normal" text-decoration="none" x="540.057" y="-338">Entwicklung</tspan><tspan fill="#000000" fill-opacity="1" font-family="Arial,Arial_MSFontService,sans-serif" font-style="normal" font-variant="normal" font-weight="400" font-stretch="normal" font-size="55" text-anchor="start" direction="ltr" writing-mode="lr-tb" unicode-bidi="normal" text-decoration="none" x="847.713" y="-338">von </tspan><tspan fill="#000000" fill-opacity="1" font-family="Arial,Arial_MSFontService,sans-serif" font-style="normal" font-variant="normal" font-weight="400" font-stretch="normal" font-size="55" text-anchor="start" direction="ltr" writing-mode="lr-tb" unicode-bidi="normal" text-decoration="none" x="951.411" y="-338">innovativen</tspan><tspan fill="#000000" fill-opacity="1" font-family="Arial,Arial_MSFontService,sans-serif" font-style="normal" font-variant="normal" font-weight="400" font-stretch="normal" font-size="55" text-anchor="start" direction="ltr" writing-mode="lr-tb" unicode-bidi="normal" text-decoration="none" x="1243.6" y="-338">Bildungsprojekten</tspan><tspan fill="#000000" fill-opacity="1" font-family="Arial,Arial_MSFontService,sans-serif" font-style="normal" font-variant="normal" font-weight="400" font-stretch="normal" font-size="55" text-anchor="start" direction="ltr" writing-mode="lr-tb" unicode-bidi="normal" text-decoration="none" x="-5.52057" y="-537">Schafft</tspan><tspan fill="#000000" fill-opacity="1" font-family="Arial,Arial_MSFontService,sans-serif" font-style="normal" font-variant="normal" font-weight="400" font-stretch="normal" font-size="55" text-anchor="start" direction="ltr" writing-mode="lr-tb" unicode-bidi="normal" text-decoration="none" x="180.265" y="-537">Rume</tspan><tspan fill="#000000" fill-opacity="1" font-family="Arial,Arial_MSFontService,sans-serif" font-style="normal" font-variant="normal" font-weight="400" font-stretch="normal" font-size="55" text-anchor="start" direction="ltr" writing-mode="lr-tb" unicode-bidi="normal" text-decoration="none" x="372.192" y="-537">fr</tspan><tspan fill="#000000" fill-opacity="1" font-family="Arial,Arial_MSFontService,sans-serif" font-style="normal" font-variant="normal" font-weight="400" font-stretch="normal" font-size="55" text-anchor="start" direction="ltr" writing-mode="lr-tb" unicode-bidi="normal" text-decoration="none" x="451.827" y="-537">praxisnahen</tspan><tspan fill="#000000" fill-opacity="1" font-family="Arial,Arial_MSFontService,sans-serif" font-style="normal" font-variant="normal" font-weight="400" font-stretch="normal" font-size="55" text-anchor="start" direction="ltr" writing-mode="lr-tb" unicode-bidi="normal" text-decoration="none" x="762.188" y="-537">Austausch</tspan><tspan fill="#000000" fill-opacity="1" font-family="Arial,Arial_MSFontService,sans-serif" font-style="normal" font-variant="normal" font-weight="400" font-stretch="normal" font-size="55" text-anchor="start" direction="ltr" writing-mode="lr-tb" unicode-bidi="normal" text-decoration="none" x="1033.75" y="-537">und </tspan><tspan fill="#000000" fill-opacity="1" font-family="Arial,Arial_MSFontService,sans-serif" font-style="normal" font-variant="normal" font-weight="400" font-stretch="normal" font-size="55" text-anchor="start" direction="ltr" writing-mode="lr-tb" unicode-bidi="normal" text-decoration="none" x="1140.31" y="-537">Kollaboration</tspan></text><g clip-path="url(#clip1)"><g clip-path="url(#clip2)"><g clip-path="url(#clip3)"><path d="M147.099 79.8539C147.099 99.7495 130.97 115.878 111.075 115.878 91.1791 115.878 75.0504 99.7495 75.0504 79.8538 75.0504 59.9582 91.1791 43.8295 111.075 43.8295 130.97 43.8295 147.099 59.9582 147.099 79.8539Z" stroke="#404040" stroke-width="4.23619" stroke-linecap="round" stroke-linejoin="round" stroke-miterlimit="4" stroke-opacity="1" fill="none" fill-rule="evenodd" transform="matrix(1.00393 0 0 1 555.864 1464.47)"/><path d="M127.393 92.2822 94.7572 92.2822C93.8214 92.2822 93.0627 93.0409 93.0627 93.9767L93.0627 126.612C93.0627 127.548 93.8214 128.307 94.7572 128.307L127.393 128.307C128.328 128.307 129.087 127.548 129.087 126.612L129.087 93.9767C129.087 93.0409 128.328 92.2822 127.393 92.2822Z" stroke="#404040" stroke-width="0.211809" stroke-linecap="butt" stroke-linejoin="round" stroke-miterlimit="2" stroke-opacity="1" fill="#BF403C" fill-rule="nonzero" fill-opacity="1" transform="matrix(1.00393 0 0 1 555.864 1464.47)"/><path d="M127.393 92.2822 94.7572 92.2822C93.8214 92.2822 93.0627 93.0409 93.0627 93.9767L93.0627 126.612C93.0627 127.548 93.8214 128.307 94.7572 128.307L127.393 128.307C128.328 128.307 129.087 127.548 129.087 126.612L129.087 93.9767C129.087 93.0409 128.328 92.2822 127.393 92.2822Z" stroke="#404040" stroke-width="4.23619" stroke-linecap="round" stroke-linejoin="round" stroke-miterlimit="4" stroke-opacity="1" fill="none" fill-rule="nonzero" transform="matrix(1.00393 0 0 1 555.864 1464.47)"/><path d="M94.8385 73.7991 79.5681 43.2583C79.1496 42.4212 78.1318 42.0819 77.2948 42.5004 76.9669 42.6646 76.7011 42.9304 76.5371 43.2583L61.2665 73.7991C60.848 74.6361 61.1873 75.6541 62.0244 76.0724 62.2597 76.1902 62.5192 76.2514 62.7822 76.2514L93.323 76.2514C94.2588 76.2514 95.0175 75.4927 95.0175 74.5569 95.0175 74.2939 94.9563 74.0344 94.8385 73.7991Z" stroke="#404040" stroke-width="0.211809" stroke-linecap="butt" stroke-linejoin="round" stroke-miterlimit="2" stroke-opacity="1" fill="#72A41B" fill-rule="nonzero" fill-opacity="1" transform="matrix(1.00393 0 0 1 555.864 1464.47)"/><path d="M94.8385 73.7991 79.5681 43.2583C79.1496 42.4212 78.1318 42.0819 77.2948 42.5004 76.9669 42.6646 76.7011 42.9304 76.5371 43.2583L61.2665 73.7991C60.848 74.6361 61.1873 75.6541 62.0244 76.0724 62.2597 76.1902 62.5192 76.2514 62.7822 76.2514L93.323 76.2514C94.2588 76.2514 95.0175 75.4927 95.0175 74.5569 95.0175 74.2939 94.9563 74.0344 94.8385 73.7991Z" stroke="#404040" stroke-width="4.23619" stroke-linecap="round" stroke-linejoin="round" stroke-miterlimit="4" stroke-opacity="1" fill="none" fill-rule="nonzero" transform="matrix(1.00393 0 0 1 555.864 1464.47)"/><path d="M162.109 58.2393C162.109 68.1872 154.045 76.2516 144.097 76.2516 134.149 76.2516 126.085 68.1872 126.085 58.2393 126.085 48.2914 134.149 40.2271 144.097 40.2271 154.045 40.2271 162.109 48.2914 162.109 58.2393Z" stroke="#404040" stroke-width="0.211809" stroke-linecap="butt" stroke-linejoin="round" stroke-miterlimit="2" stroke-opacity="1" fill="#D8A818" fill-rule="evenodd" fill-opacity="1" transform="matrix(1.00393 0 0 1 555.864 1464.47)"/><path d="M162.109 58.2393C162.109 68.1872 154.045 76.2516 144.097 76.2516 134.149 76.2516 126.085 68.1872 126.085 58.2393 126.085 48.2914 134.149 40.2271 144.097 40.2271 154.045 40.2271 162.109 48.2914 162.109 58.2393Z" stroke="#404040" stroke-width="4.23619" stroke-linecap="round" stroke-linejoin="round" stroke-miterlimit="4" stroke-opacity="1" fill="none" fill-rule="evenodd" transform="matrix(1.00393 0 0 1 555.864 1464.47)"/><path d="M199.476 23.4157 21.4728 23.4157C20.888 23.4157 20.4138 23.89 20.4138 24.4748L20.4138 172.458C20.4138 173.043 20.888 173.517 21.4728 173.517L199.476 173.517C200.061 173.517 200.535 173.043 200.535 172.458L200.535 24.4748C200.535 23.89 200.061 23.4157 199.476 23.4157Z" stroke="#404040" stroke-width="4.23619" stroke-linecap="round" stroke-linejoin="round" stroke-miterlimit="4" stroke-opacity="1" fill="none" fill-rule="nonzero" transform="matrix(1.00393 0 0 1 555.864 1464.47)"/><path d="M183.13 87.659C183.13 87.659 186.465 99.0669 185.264 109.274 184.063 119.481 183.463 120.081 181.662 124.284 179.861 128.487 177.459 135.691 173.857 139.294 170.254 142.896 167.853 145.298 158.246 155.505 148.64 165.712 150.441 171.716 150.441 171.716L128.226 171.716C128.226 171.716 126.691 166.913 128.826 158.507 130.961 150.101 134.497 144.698 136.898 141.695 139.3 138.693 141.435 135.091 146.238 128.487 151.041 121.882 154.644 111.675 155.244 109.274 155.845 106.872 157.045 100.268 157.045 100.268 157.045 100.268 161.848 97.2657 163.049 103.87 164.25 110.475 163.049 111.675 162.449 114.077 161.848 116.478 160.047 120.681 160.047 120.681L156.445 130.288C156.445 130.288 171.455 120.681 175.057 112.276 178.66 103.87 177.392 99.0669 178.326 92.4622 179.26 85.8578 183.13 87.659 183.13 87.659Z" fill="#404040" fill-rule="nonzero" fill-opacity="1" transform="matrix(1.00393 0 0 1 555.864 1464.47)"/><path d="M183.13 87.659C183.13 87.659 186.465 99.0669 185.264 109.274 184.063 119.481 183.463 120.081 181.662 124.284 179.861 128.487 177.459 135.691 173.857 139.294 170.254 142.896 167.853 145.298 158.246 155.505 148.64 165.712 150.441 171.716 150.441 171.716L128.226 171.716C128.226 171.716 126.691 166.913 128.826 158.507 130.961 150.101 134.497 144.698 136.898 141.695 139.3 138.693 141.435 135.091 146.238 128.487 151.041 121.882 154.644 111.675 155.244 109.274 155.845 106.872 157.045 100.268 157.045 100.268 157.045 100.268 161.848 97.2657 163.049 103.87 164.25 110.475 163.049 111.675 162.449 114.077 161.848 116.478 160.047 120.681 160.047 120.681L156.445 130.288C156.445 130.288 171.455 120.681 175.057 112.276 178.66 103.87 177.392 99.0669 178.326 92.4622 179.26 85.8578 183.13 87.659 183.13 87.659Z" stroke="#356680" stroke-width="0.211809" stroke-linecap="round" stroke-linejoin="round" stroke-miterlimit="4" stroke-opacity="1" fill="#404040" fill-rule="nonzero" fill-opacity="1" transform="matrix(1.00393 0 0 1 555.864 1464.47)"/><path d="M39.4266 87.659C39.4266 87.659 36.0911 99.0669 37.2918 109.274 38.4926 119.481 39.093 120.081 40.8943 124.284 42.6955 128.487 45.0972 135.691 48.6994 139.294 52.3019 142.896 54.7036 145.298 64.31 155.505 73.9166 165.712 72.1154 171.716 72.1154 171.716L94.3304 171.716C94.3304 171.716 95.8647 166.913 93.7299 158.507 91.5951 150.101 88.0593 144.698 85.6579 141.695 83.2561 138.693 81.1213 135.091 76.3181 128.487 71.5149 121.882 67.9125 111.675 67.312 109.274 66.7117 106.872 65.511 100.268 65.511 100.268 65.511 100.268 60.7076 97.2657 59.5068 103.87 58.3061 110.475 59.5068 111.675 60.1073 114.077 60.7076 116.478 62.5088 120.681 62.5088 120.681L66.1112 130.288C66.1112 130.288 51.1011 120.681 47.4987 112.276 43.8962 103.87 45.1639 99.0669 44.2298 92.4622 43.296 85.8578 39.4266 87.659 39.4266 87.659Z" fill="#404040" fill-rule="nonzero" fill-opacity="1" transform="matrix(1.00393 0 0 1 555.864 1464.47)"/><path d="M39.4266 87.659C39.4266 87.659 36.0911 99.0669 37.2918 109.274 38.4926 119.481 39.093 120.081 40.8943 124.284 42.6955 128.487 45.0972 135.691 48.6994 139.294 52.3019 142.896 54.7036 145.298 64.31 155.505 73.9166 165.712 72.1154 171.716 72.1154 171.716L94.3304 171.716C94.3304 171.716 95.8647 166.913 93.7299 158.507 91.5951 150.101 88.0593 144.698 85.6579 141.695 83.2561 138.693 81.1213 135.091 76.3181 128.487 71.5149 121.882 67.9125 111.675 67.312 109.274 66.7117 106.872 65.511 100.268 65.511 100.268 65.511 100.268 60.7076 97.2657 59.5068 103.87 58.3061 110.475 59.5068 111.675 60.1073 114.077 60.7076 116.478 62.5088 120.681 62.5088 120.681L66.1112 130.288C66.1112 130.288 51.1011 120.681 47.4987 112.276 43.8962 103.87 45.1639 99.0669 44.2298 92.4622 43.296 85.8578 39.4266 87.659 39.4266 87.659Z" stroke="#356680" stroke-width="0.211809" stroke-linecap="round" stroke-linejoin="round" stroke-miterlimit="4" stroke-opacity="1" fill="#404040" fill-rule="nonzero" fill-opacity="1" transform="matrix(1.00393 0 0 1 555.864 1464.47)"/><text fill="#404040" fill-opacity="1" font-family="Helvetica Neue,Helvetica Neue_MSFontService,sans-serif" font-style="normal" font-variant="normal" font-weight="300" font-stretch="normal" font-size="290" text-anchor="start" direction="ltr" writing-mode="lr-tb" unicode-bidi="normal" text-decoration="none" transform="matrix(0.212642 0 0 0.211809 772.937 1548)">Innovation Hub<tspan fill="#404040" fill-opacity="1" font-family="Helvetica Neue,Helvetica Neue_MSFontService,sans-serif" font-style="normal" font-variant="normal" font-weight="700" font-stretch="normal" font-size="340" text-anchor="start" direction="ltr" writing-mode="lr-tb" unicode-bidi="normal" text-decoration="none" x="1.13005" y="349.371">INKLUSION</tspan></text></g></g></g><path d="M407 1415.12C407 1416.16 408.112 1416.79 410.119 1416.74 410.909 1416.74 411.929 1416.48 412.607 1416.13 414.756 1414.73 416.79 1413.25 418.824 1411.77 420.973 1410.29 423.01 1408.72 425.044 1407.15 425.383 1407.24 425.61 1407.33 425.837 1407.42L425.837 1408.72C425.271 1412.03 424.817 1415.26 424.139 1418.57 422.868 1425.62 422.04 1432.63 422.04 1439.7 422.04 1442.05 422.132 1444.42 422.332 1446.79 423.349 1456.99 424.478 1467.18 427.983 1477.2 431.942 1488.35 437.142 1498.89 446.189 1508.21 447.094 1509.17 447.999 1510.3 448.901 1511.26 461.226 1525.29 476.154 1537.4 494.696 1546.54 503.289 1550.81 512.109 1554.56 522.061 1556.56 522.851 1556.74 523.644 1556.74 525 1557 523.529 1555.34 521.722 1554.91 520.139 1554.3 502.838 1548.2 487.347 1540.1 474.117 1529.47 471.517 1527.29 468.917 1525.11 466.317 1523.02 456.704 1514.83 449.016 1505.51 442.345 1495.84 436.013 1486.78 432.959 1476.67 430.471 1466.57 429.227 1461.17 428.664 1455.59 428.322 1450.02 428.084 1446.52 427.942 1443.01 427.942 1439.49 427.942 1436.34 428.057 1433.19 428.322 1430.06 429.003 1422.22 430.698 1414.47 431.942 1406.63 431.942 1406.46 432.169 1406.28 432.508 1405.93 433.413 1406.54 434.203 1407.07 434.996 1407.68 437.935 1410.12 440.874 1412.56 443.813 1414.91 444.718 1415.69 445.623 1416.39 446.755 1416.91 447.772 1417.43 449.128 1418.04 450.372 1417.26 451.368 1416.68 451.755 1415.92 451.755 1415.07 451.755 1414.76 451.707 1414.45 451.616 1414.12 451.504 1413.51 450.826 1412.9 450.26 1412.38 444.606 1407.42 438.84 1402.54 433.071 1397.57 431.264 1396 429.454 1396 427.42 1397.57 426.061 1398.61 425.044 1399.92 423.573 1400.79 417.583 1404.02 413.851 1408.98 408.424 1412.64 408.085 1412.9 407.97 1413.16 407.743 1413.43 407.241 1414.06 407 1414.64 407 1415.12Z" fill="#000000" fill-rule="evenodd" fill-opacity="1"/></g></svg>