<svg width="2080" height="838" xmlns="http://www.w3.org/2000/svg" xmlns:xlink="http://www.w3.org/1999/xlink" overflow="hidden"><defs><clipPath id="clip0"><rect x="0" y="-4" width="2080" height="838"/></clipPath></defs><g clip-path="url(#clip0)" transform="matrix(1 0 0 1 0 4)"><path d="M132.5 449.1C132.5 438.827 140.827 430.5 151.1 430.5L579.9 430.5C590.173 430.5 598.5 438.827 598.5 449.1L598.5 597.9C598.5 608.172 590.173 616.5 579.9 616.5L151.1 616.5C140.827 616.5 132.5 608.172 132.5 597.9Z" stroke="#E7AE00" stroke-width="4.58333" stroke-linecap="butt" stroke-linejoin="miter" stroke-miterlimit="8" stroke-opacity="1" fill="#FFFFFF" fill-rule="evenodd" fill-opacity="1"/><text fill="#000000" fill-opacity="1" font-family="Helvetica,Helvetica_MSFontService,sans-serif" font-style="normal" font-variant="normal" font-weight="400" font-stretch="normal" font-size="37" text-anchor="start" direction="ltr" writing-mode="lr-tb" unicode-bidi="normal" text-decoration="none" transform="matrix(1 0 0 1 207.398 531)">Herausforderungen</text><path d="M598.401 523.086 747.796 415.708" stroke="#CB9900" stroke-width="4.58333" stroke-linecap="butt" stroke-linejoin="miter" stroke-miterlimit="8" stroke-opacity="1" fill="none" fill-rule="evenodd"/><path d="M748.5 341.2C748.5 330.872 756.872 322.5 767.2 322.5L1224.8 322.5C1235.13 322.5 1243.5 330.872 1243.5 341.2L1243.5 490.8C1243.5 501.128 1235.13 509.5 1224.8 509.5L767.2 509.5C756.872 509.5 748.5 501.128 748.5 490.8Z" stroke="#E7AE00" stroke-width="4.58333" stroke-linecap="butt" stroke-linejoin="miter" stroke-miterlimit="8" stroke-opacity="1" fill="#FFFFFF" fill-rule="evenodd" fill-opacity="1"/><text fill="#000000" fill-opacity="1" font-family="Helvetica,Helvetica_MSFontService,sans-serif" font-style="normal" font-variant="normal" font-weight="400" font-stretch="normal" font-size="37" text-anchor="start" direction="ltr" writing-mode="lr-tb" unicode-bidi="normal" text-decoration="none" transform="matrix(1 0 0 1 767.22 408)">Zusammenarbeit erfolgreich <tspan fill="#000000" fill-opacity="1" font-family="Helvetica,Helvetica_MSFontService,sans-serif" font-style="normal" font-variant="normal" font-weight="400" font-stretch="normal" font-size="37" text-anchor="start" direction="ltr" writing-mode="lr-tb" unicode-bidi="normal" text-decoration="none" x="153.84" y="33">gestalten</tspan></text><path d="M1243.19 415.708 1392.59 93.5749" stroke="#E7AE00" stroke-width="4.58333" stroke-linecap="butt" stroke-linejoin="miter" stroke-miterlimit="8" stroke-opacity="1" fill="none" fill-rule="evenodd"/><path d="M1393.5 19.1999C1393.5 8.87214 1401.87 0.499836 1412.2 0.499836L1926.8 0.499836C1937.13 0.499836 1945.5 8.87214 1945.5 19.1999L1945.5 168.8C1945.5 179.128 1937.13 187.5 1926.8 187.5L1412.2 187.5C1401.87 187.5 1393.5 179.128 1393.5 168.8Z" stroke="#E7AE00" stroke-width="4.58333" stroke-linecap="butt" stroke-linejoin="miter" stroke-miterlimit="8" stroke-opacity="1" fill="#FFFFFF" fill-rule="evenodd" fill-opacity="1"/><text fill="#000000" fill-opacity="1" font-family="Helvetica,Helvetica_MSFontService,sans-serif" font-style="normal" font-variant="normal" font-weight="400" font-stretch="normal" font-size="37" text-anchor="start" direction="ltr" writing-mode="lr-tb" unicode-bidi="normal" text-decoration="none" transform="matrix(1 0 0 1 1443.66 85)">Transparenz über Ziele und <tspan fill="#000000" fill-opacity="1" font-family="Helvetica,Helvetica_MSFontService,sans-serif" font-style="normal" font-variant="normal" font-weight="400" font-stretch="normal" font-size="37" text-anchor="start" direction="ltr" writing-mode="lr-tb" unicode-bidi="normal" text-decoration="none" x="140.662" y="33">Aktivitäten</tspan></text><path d="M1243.19 415.708 1392.59 308.33" stroke="#E7AE00" stroke-width="4.58333" stroke-linecap="butt" stroke-linejoin="miter" stroke-miterlimit="8" stroke-opacity="1" fill="none" fill-rule="evenodd"/><path d="M1393.5 234.2C1393.5 223.872 1401.87 215.5 1412.2 215.5L1926.8 215.5C1937.13 215.5 1945.5 223.872 1945.5 234.2L1945.5 383.8C1945.5 394.128 1937.13 402.5 1926.8 402.5L1412.2 402.5C1401.87 402.5 1393.5 394.128 1393.5 383.8Z" stroke="#E7AE00" stroke-width="4.58333" stroke-linecap="butt" stroke-linejoin="miter" stroke-miterlimit="8" stroke-opacity="1" fill="#FFFFFF" fill-rule="evenodd" fill-opacity="1"/><text fill="#000000" fill-opacity="1" font-family="Helvetica,Helvetica_MSFontService,sans-serif" font-style="normal" font-variant="normal" font-weight="400" font-stretch="normal" font-size="37" text-anchor="start" direction="ltr" writing-mode="lr-tb" unicode-bidi="normal" text-decoration="none" transform="matrix(1 0 0 1 1406.95 300)">Faire Verteilung von Kosten und <tspan fill="#000000" fill-opacity="1" font-family="Helvetica,Helvetica_MSFontService,sans-serif" font-style="normal" font-variant="normal" font-weight="400" font-stretch="normal" font-size="37" text-anchor="start" direction="ltr" writing-mode="lr-tb" unicode-bidi="normal" text-decoration="none" x="203.867" y="33">Nutzen</tspan></text><path d="M1243.19 415.708 1392.59 523.086" stroke="#E7AE00" stroke-width="4.58333" stroke-linecap="butt" stroke-linejoin="miter" stroke-miterlimit="8" stroke-opacity="1" fill="none" fill-rule="evenodd"/><path d="M1393.5 449.1C1393.5 438.827 1401.83 430.5 1412.1 430.5L1926.9 430.5C1937.17 430.5 1945.5 438.827 1945.5 449.1L1945.5 597.9C1945.5 608.172 1937.17 616.5 1926.9 616.5L1412.1 616.5C1401.83 616.5 1393.5 608.172 1393.5 597.9Z" stroke="#E7AE00" stroke-width="4.58333" stroke-linecap="butt" stroke-linejoin="miter" stroke-miterlimit="8" stroke-opacity="1" fill="#FFFFFF" fill-rule="evenodd" fill-opacity="1"/><text fill="#000000" fill-opacity="1" font-family="Helvetica,Helvetica_MSFontService,sans-serif" font-style="normal" font-variant="normal" font-weight="400" font-stretch="normal" font-size="37" text-anchor="start" direction="ltr" writing-mode="lr-tb" unicode-bidi="normal" text-decoration="none" transform="matrix(1 0 0 1 1419.22 531)">Verlässliche interne Strukturen</text><path d="M1243.19 415.708 1392.59 737.841" stroke="#E7AE00" stroke-width="4.58333" stroke-linecap="butt" stroke-linejoin="miter" stroke-miterlimit="8" stroke-opacity="1" fill="none" fill-rule="evenodd"/><path d="M1393.5 663.2C1393.5 652.872 1401.87 644.5 1412.2 644.5L1926.8 644.5C1937.13 644.5 1945.5 652.872 1945.5 663.2L1945.5 812.8C1945.5 823.128 1937.13 831.5 1926.8 831.5L1412.2 831.5C1401.87 831.5 1393.5 823.128 1393.5 812.8Z" stroke="#E7AE00" stroke-width="4.58333" stroke-linecap="butt" stroke-linejoin="miter" stroke-miterlimit="8" stroke-opacity="1" fill="#FFFFFF" fill-rule="evenodd" fill-opacity="1"/><text fill="#000000" fill-opacity="1" font-family="Helvetica,Helvetica_MSFontService,sans-serif" font-style="normal" font-variant="normal" font-weight="400" font-stretch="normal" font-size="37" text-anchor="start" direction="ltr" writing-mode="lr-tb" unicode-bidi="normal" text-decoration="none" transform="matrix(1 0 0 1 1467.08 730)">Effektive Einbindung von <tspan fill="#000000" fill-opacity="1" font-family="Helvetica,Helvetica_MSFontService,sans-serif" font-style="normal" font-variant="normal" font-weight="400" font-stretch="normal" font-size="37" text-anchor="start" direction="ltr" writing-mode="lr-tb" unicode-bidi="normal" text-decoration="none" x="47.8959" y="33">Anspruchsgruppen</tspan></text><path d="M598.401 523.086 747.796 630.463" stroke="#CB9900" stroke-width="4.58333" stroke-linecap="butt" stroke-linejoin="miter" stroke-miterlimit="8" stroke-opacity="1" fill="none" fill-rule="evenodd"/><path d="M748.5 556.2C748.5 545.872 756.872 537.5 767.2 537.5L1224.8 537.5C1235.13 537.5 1243.5 545.872 1243.5 556.2L1243.5 705.8C1243.5 716.128 1235.13 724.5 1224.8 724.5L767.2 724.5C756.872 724.5 748.5 716.128 748.5 705.8Z" stroke="#E7AE00" stroke-width="4.58333" stroke-linecap="butt" stroke-linejoin="miter" stroke-miterlimit="8" stroke-opacity="1" fill="#FFFFFF" fill-rule="evenodd" fill-opacity="1"/><text fill="#000000" fill-opacity="1" font-family="Helvetica,Helvetica_MSFontService,sans-serif" font-style="normal" font-variant="normal" font-weight="400" font-stretch="normal" font-size="37" text-anchor="start" direction="ltr" writing-mode="lr-tb" unicode-bidi="normal" text-decoration="none" transform="matrix(1 0 0 1 842.604 622)">Externe Strukturen <tspan fill="#000000" fill-opacity="1" font-family="Helvetica,Helvetica_MSFontService,sans-serif" font-style="normal" font-variant="normal" font-weight="400" font-stretch="normal" font-size="37" text-anchor="start" direction="ltr" writing-mode="lr-tb" unicode-bidi="normal" text-decoration="none" x="-22.4125" y="33">erfolgreich navigieren</tspan></text></g></svg>