<svg width="3181" height="1055" xmlns="http://www.w3.org/2000/svg" xmlns:xlink="http://www.w3.org/1999/xlink" overflow="hidden"><defs><clipPath id="clip0"><rect x="64" y="595" width="3181" height="1055"/></clipPath><clipPath id="clip1"><rect x="1659" y="1056" width="859" height="222"/></clipPath><clipPath id="clip2"><rect x="1659" y="1056" width="817" height="222"/></clipPath><clipPath id="clip3"><rect x="1643" y="1036" width="833" height="244"/></clipPath><clipPath id="clip4"><rect x="1778" y="1419" width="182" height="181"/></clipPath><clipPath id="clip5"><rect x="1778" y="1419" width="182" height="181"/></clipPath><clipPath id="clip6"><rect x="1778" y="1419" width="182" height="181"/></clipPath><clipPath id="clip7"><rect x="1064" y="665" width="230" height="230"/></clipPath><clipPath id="clip8"><rect x="1064" y="665" width="230" height="230"/></clipPath><clipPath id="clip9"><rect x="1064" y="665" width="230" height="230"/></clipPath><clipPath id="clip10"><rect x="401" y="653" width="231" height="218"/></clipPath><clipPath id="clip11"><rect x="401" y="653" width="231" height="218"/></clipPath><clipPath id="clip12"><rect x="401" y="653" width="231" height="281"/></clipPath><clipPath id="clip13"><rect x="696" y="669" width="341" height="205"/></clipPath><clipPath id="clip14"><rect x="696" y="669" width="341" height="205"/></clipPath><clipPath id="clip15"><rect x="696" y="669" width="341" height="232"/></clipPath></defs><g clip-path="url(#clip0)" transform="translate(-64 -595)"><g clip-path="url(#clip1)"><g clip-path="url(#clip2)"><g clip-path="url(#clip3)"><path d="M195.837 106.312C195.837 132.799 174.365 154.272 147.877 154.272 121.389 154.272 99.9168 132.799 99.9168 106.312 99.9168 79.824 121.389 58.3515 147.877 58.3515 174.365 58.3515 195.837 79.824 195.837 106.312Z" stroke="#404040" stroke-width="5.63976" stroke-linecap="round" stroke-linejoin="round" stroke-miterlimit="4" stroke-opacity="1" fill="none" fill-rule="evenodd" transform="matrix(1.00155 0 0 1 1643.88 1036.65)"/><path d="M169.601 122.858 126.153 122.858C124.907 122.858 123.897 123.868 123.897 125.114L123.897 168.562C123.897 169.808 124.907 170.818 126.153 170.818L169.601 170.818C170.847 170.818 171.857 169.808 171.857 168.562L171.857 125.114C171.857 123.868 170.847 122.858 169.601 122.858Z" stroke="#404040" stroke-width="0.281988" stroke-linecap="butt" stroke-linejoin="round" stroke-miterlimit="2" stroke-opacity="1" fill="#BF403C" fill-rule="nonzero" fill-opacity="1" transform="matrix(1.00155 0 0 1 1643.88 1036.65)"/><path d="M169.601 122.858 126.153 122.858C124.907 122.858 123.897 123.868 123.897 125.114L123.897 168.562C123.897 169.808 124.907 170.818 126.153 170.818L169.601 170.818C170.847 170.818 171.857 169.808 171.857 168.562L171.857 125.114C171.857 123.868 170.847 122.858 169.601 122.858Z" stroke="#404040" stroke-width="5.63976" stroke-linecap="round" stroke-linejoin="round" stroke-miterlimit="4" stroke-opacity="1" fill="none" fill-rule="nonzero" transform="matrix(1.00155 0 0 1 1643.88 1036.65)"/><path d="M126.261 98.2508 105.931 57.5909C105.374 56.4765 104.019 56.0248 102.905 56.582 102.468 56.8005 102.114 57.1544 101.896 57.5909L81.5658 98.2508C81.0086 99.3652 81.4604 100.72 82.5748 101.277 82.8881 101.434 83.2335 101.516 83.5837 101.516L124.244 101.516C125.489 101.516 126.499 100.506 126.499 99.2597 126.499 98.9095 126.418 98.5641 126.261 98.2508Z" stroke="#404040" stroke-width="0.281988" stroke-linecap="butt" stroke-linejoin="round" stroke-miterlimit="2" stroke-opacity="1" fill="#72A41B" fill-rule="nonzero" fill-opacity="1" transform="matrix(1.00155 0 0 1 1643.88 1036.65)"/><path d="M126.261 98.2508 105.931 57.5909C105.374 56.4765 104.019 56.0248 102.905 56.582 102.468 56.8005 102.114 57.1544 101.896 57.5909L81.5658 98.2508C81.0086 99.3652 81.4604 100.72 82.5748 101.277 82.8881 101.434 83.2335 101.516 83.5837 101.516L124.244 101.516C125.489 101.516 126.499 100.506 126.499 99.2597 126.499 98.9095 126.418 98.5641 126.261 98.2508Z" stroke="#404040" stroke-width="5.63976" stroke-linecap="round" stroke-linejoin="round" stroke-miterlimit="4" stroke-opacity="1" fill="none" fill-rule="nonzero" transform="matrix(1.00155 0 0 1 1643.88 1036.65)"/><path d="M215.821 77.5357C215.821 90.7796 205.084 101.516 191.841 101.516 178.597 101.516 167.86 90.7796 167.86 77.5357 167.86 64.2917 178.597 53.5554 191.841 53.5554 205.085 53.5554 215.821 64.2917 215.821 77.5357Z" stroke="#404040" stroke-width="0.281988" stroke-linecap="butt" stroke-linejoin="round" stroke-miterlimit="2" stroke-opacity="1" fill="#D8A818" fill-rule="evenodd" fill-opacity="1" transform="matrix(1.00155 0 0 1 1643.88 1036.65)"/><path d="M215.821 77.5357C215.821 90.7796 205.084 101.516 191.841 101.516 178.597 101.516 167.86 90.7796 167.86 77.5357 167.86 64.2917 178.597 53.5554 191.841 53.5554 205.085 53.5554 215.821 64.2917 215.821 77.5357Z" stroke="#404040" stroke-width="5.63976" stroke-linecap="round" stroke-linejoin="round" stroke-miterlimit="4" stroke-opacity="1" fill="none" fill-rule="evenodd" transform="matrix(1.00155 0 0 1 1643.88 1036.65)"/><path d="M265.568 31.174 28.5874 31.174C27.8088 31.174 27.1774 31.8054 27.1774 32.584L27.1774 229.598C27.1774 230.377 27.8088 231.008 28.5874 231.008L265.568 231.008C266.347 231.008 266.978 230.377 266.978 229.598L266.978 32.584C266.978 31.8054 266.347 31.174 265.568 31.174Z" stroke="#404040" stroke-width="5.63976" stroke-linecap="round" stroke-linejoin="round" stroke-miterlimit="4" stroke-opacity="1" fill="none" fill-rule="nonzero" transform="matrix(1.00155 0 0 1 1643.88 1036.65)"/><path d="M243.806 116.703C243.806 116.703 248.246 131.891 246.647 145.479 245.049 159.068 244.249 159.867 241.851 165.463 239.453 171.058 236.256 180.65 231.46 185.446 226.664 190.242 223.467 193.439 210.677 207.028 197.888 220.617 200.286 228.61 200.286 228.61L170.711 228.61C170.711 228.61 168.668 222.215 171.51 211.025 174.352 199.834 179.059 192.64 182.257 188.643 185.454 184.646 188.296 179.85 194.691 171.058 201.085 162.265 205.881 148.676 206.681 145.479 207.48 142.282 209.079 133.489 209.079 133.489 209.079 133.489 215.473 129.493 217.072 138.285 218.671 147.078 217.072 148.676 216.273 151.874 215.473 155.071 213.075 160.667 213.075 160.667L208.279 173.456C208.279 173.456 228.263 160.667 233.059 149.476 237.855 138.285 236.167 131.891 237.411 123.098 238.654 114.305 243.806 116.703 243.806 116.703Z" fill="#404040" fill-rule="nonzero" fill-opacity="1" transform="matrix(1.00155 0 0 1 1643.88 1036.65)"/><path d="M243.806 116.703C243.806 116.703 248.246 131.891 246.647 145.479 245.049 159.068 244.249 159.867 241.851 165.463 239.453 171.058 236.256 180.65 231.46 185.446 226.664 190.242 223.467 193.439 210.677 207.028 197.888 220.617 200.286 228.61 200.286 228.61L170.711 228.61C170.711 228.61 168.668 222.215 171.51 211.025 174.352 199.834 179.059 192.64 182.257 188.643 185.454 184.646 188.296 179.85 194.691 171.058 201.085 162.265 205.881 148.676 206.681 145.479 207.48 142.282 209.079 133.489 209.079 133.489 209.079 133.489 215.473 129.493 217.072 138.285 218.671 147.078 217.072 148.676 216.273 151.874 215.473 155.071 213.075 160.667 213.075 160.667L208.279 173.456C208.279 173.456 228.263 160.667 233.059 149.476 237.855 138.285 236.167 131.891 237.411 123.098 238.654 114.305 243.806 116.703 243.806 116.703Z" stroke="#356680" stroke-width="0.281988" stroke-linecap="round" stroke-linejoin="round" stroke-miterlimit="4" stroke-opacity="1" fill="#404040" fill-rule="nonzero" fill-opacity="1" transform="matrix(1.00155 0 0 1 1643.88 1036.65)"/><path d="M52.4898 116.703C52.4898 116.703 48.049 131.891 49.6476 145.479 51.2462 159.068 52.0457 159.867 54.4437 165.463 56.8417 171.058 60.0392 180.65 64.8349 185.446 69.631 190.242 72.8284 193.439 85.6177 207.028 98.4073 220.617 96.0093 228.61 96.0093 228.61L125.585 228.61C125.585 228.61 127.627 222.215 124.785 211.025 121.943 199.834 117.236 192.64 114.039 188.643 110.841 184.646 107.999 179.85 101.604 171.058 95.2098 162.265 90.4138 148.676 89.6143 145.479 88.8152 142.282 87.2166 133.489 87.2166 133.489 87.2166 133.489 80.8217 129.493 79.2231 138.285 77.6245 147.078 79.2231 148.676 80.0225 151.874 80.8217 155.071 83.2197 160.667 83.2197 160.667L88.0157 173.456C88.0157 173.456 68.0324 160.667 63.2363 149.476 58.4403 138.285 60.128 131.891 58.8844 123.098 57.6411 114.305 52.4898 116.703 52.4898 116.703Z" fill="#404040" fill-rule="nonzero" fill-opacity="1" transform="matrix(1.00155 0 0 1 1643.88 1036.65)"/><path d="M52.4898 116.703C52.4898 116.703 48.049 131.891 49.6476 145.479 51.2462 159.068 52.0457 159.867 54.4437 165.463 56.8417 171.058 60.0392 180.65 64.8349 185.446 69.631 190.242 72.8284 193.439 85.6177 207.028 98.4073 220.617 96.0093 228.61 96.0093 228.61L125.585 228.61C125.585 228.61 127.627 222.215 124.785 211.025 121.943 199.834 117.236 192.64 114.039 188.643 110.841 184.646 107.999 179.85 101.604 171.058 95.2098 162.265 90.4138 148.676 89.6143 145.479 88.8152 142.282 87.2166 133.489 87.2166 133.489 87.2166 133.489 80.8217 129.493 79.2231 138.285 77.6245 147.078 79.2231 148.676 80.0225 151.874 80.8217 155.071 83.2197 160.667 83.2197 160.667L88.0157 173.456C88.0157 173.456 68.0324 160.667 63.2363 149.476 58.4403 138.285 60.128 131.891 58.8844 123.098 57.6411 114.305 52.4898 116.703 52.4898 116.703Z" stroke="#356680" stroke-width="0.281988" stroke-linecap="round" stroke-linejoin="round" stroke-miterlimit="4" stroke-opacity="1" fill="#404040" fill-rule="nonzero" fill-opacity="1" transform="matrix(1.00155 0 0 1 1643.88 1036.65)"/><text fill="#404040" fill-opacity="1" font-family="Helvetica Neue,Helvetica Neue_MSFontService,sans-serif" font-style="normal" font-variant="normal" font-weight="300" font-stretch="normal" font-size="290" text-anchor="start" direction="ltr" writing-mode="lr-tb" unicode-bidi="normal" text-decoration="none" transform="matrix(0.282425 0 0 0.281988 1932.19 1148)">Innovation Hub<tspan fill="#404040" fill-opacity="1" font-family="Helvetica Neue,Helvetica Neue_MSFontService,sans-serif" font-style="normal" font-variant="normal" font-weight="700" font-stretch="normal" font-size="340" text-anchor="start" direction="ltr" writing-mode="lr-tb" unicode-bidi="normal" text-decoration="none" x="1.12983" y="347.533">INKLUSION</tspan></text></g></g></g><g clip-path="url(#clip4)"><g clip-path="url(#clip5)"><g clip-path="url(#clip6)"><path d="M1814.62 1465.88C1814.62 1471.05 1810.43 1475.25 1805.25 1475.25 1800.07 1475.25 1795.87 1471.05 1795.87 1465.88 1795.87 1460.7 1800.07 1456.5 1805.25 1456.5 1810.43 1456.5 1814.62 1460.7 1814.62 1465.88Z" fill="#404040" fill-rule="nonzero" fill-opacity="1"/><path d="M1827.62 1513.56C1827.72 1513 1827.72 1512.44 1827.62 1511.89L1824.94 1500.17 1824 1495.35 1821.6 1484.48C1821.4 1483.64 1820.93 1482.9 1820.25 1482.38 1818 1480.62 1815.46 1479.27 1812.75 1478.38 1807.85 1476.71 1802.54 1476.71 1797.64 1478.38 1794.96 1479.28 1792.46 1480.63 1790.25 1482.38 1789.6 1482.91 1789.15 1483.65 1788.97 1484.48L1782.86 1511.7C1782.33 1513.8 1783.6 1515.93 1785.69 1516.46 1785.74 1516.48 1785.79 1516.49 1785.84 1516.5 1786.06 1516.52 1786.28 1516.52 1786.5 1516.5 1788.29 1516.54 1789.86 1515.31 1790.25 1513.56L1795.87 1488.38 1795.87 1501.69 1790.25 1529.63 1795.87 1529.63 1795.87 1561.5 1803.37 1561.5 1803.37 1529.63 1807.12 1529.63 1807.12 1561.5 1814.62 1561.5 1814.62 1529.63 1820.25 1529.63 1814.62 1501.71 1814.62 1488.38 1820.25 1513.56C1820.64 1515.31 1822.21 1516.54 1824 1516.5 1825.73 1516.44 1827.21 1515.24 1827.62 1513.56Z" fill="#404040" fill-rule="nonzero" fill-opacity="1"/><path d="M1863.37 1465.88C1863.37 1471.05 1859.18 1475.25 1854 1475.25 1848.82 1475.25 1844.62 1471.05 1844.62 1465.88 1844.62 1460.7 1848.82 1456.5 1854 1456.5 1859.18 1456.5 1863.37 1460.7 1863.37 1465.88Z" fill="#404040" fill-rule="nonzero" fill-opacity="1"/><path d="M1872.75 1495.35 1872.75 1495.46 1870.31 1484.48C1870.14 1483.65 1869.69 1482.91 1869.04 1482.38 1860.22 1475.49 1847.85 1475.49 1839.04 1482.38 1838.38 1482.9 1837.93 1483.65 1837.76 1484.48L1831.63 1511.89C1831.21 1513.97 1832.55 1516 1834.63 1516.42 1834.88 1516.47 1835.13 1516.5 1835.38 1516.5 1837.13 1516.48 1838.63 1515.26 1839 1513.56L1844.62 1488.38 1844.62 1561.5 1852.12 1561.5 1852.12 1518.38 1855.87 1518.38 1855.87 1561.5 1863.37 1561.5 1863.37 1488.38 1869.17 1513.56C1869.54 1515.25 1871.02 1516.46 1872.75 1516.5 1874.54 1516.54 1876.11 1515.31 1876.5 1513.56Z" fill="#404040" fill-rule="nonzero" fill-opacity="1"/><path d="M1936.69 1537.37C1932.58 1551.63 1917.69 1559.86 1903.43 1555.75 1891.9 1552.43 1883.97 1541.87 1884 1529.87 1884 1529.63 1884 1529.38 1884 1529.12L1881.09 1519.39C1874.64 1535.58 1882.54 1553.94 1898.74 1560.39 1914.93 1566.85 1933.29 1558.95 1939.74 1542.75Z" fill="#404040" fill-rule="nonzero" fill-opacity="1"/><path d="M1954.72 1540.52 1940.7 1516.05C1939.86 1514.61 1938.32 1513.71 1936.65 1513.71L1917.9 1513.71C1917.92 1513.5 1917.92 1513.29 1917.9 1513.09L1915.18 1492.12C1914.54 1487.35 1910.15 1483.99 1905.38 1484.62 1904.52 1484.75 1903.69 1485 1902.9 1485.36 1902.5 1485.46 1902.12 1485.61 1901.76 1485.81L1883.01 1496.78C1881.14 1497.87 1880.27 1500.1 1880.89 1502.18L1886.51 1521.02C1887.1 1523 1888.93 1524.36 1890.99 1524.36 1891.45 1524.36 1891.9 1524.3 1892.34 1524.17 1894.82 1523.41 1896.22 1520.8 1895.49 1518.32L1890.88 1503.02 1897.5 1499.16 1900.56 1516.03C1901.32 1520.2 1904.95 1523.23 1909.18 1523.23 1909.71 1523.23 1910.24 1523.18 1910.76 1523.08L1910.92 1523.08 1933.89 1523.19 1946.59 1545.32C1947.42 1546.78 1948.97 1547.68 1950.66 1547.68 1953.25 1547.69 1955.35 1545.59 1955.35 1543 1955.35 1542.18 1955.14 1541.37 1954.72 1540.65Z" fill="#404040" fill-rule="nonzero" fill-opacity="1"/><path d="M1915.01 1472.7C1915.01 1477.88 1910.82 1482.08 1905.64 1482.08 1900.46 1482.08 1896.26 1477.88 1896.26 1472.7 1896.26 1467.52 1900.46 1463.33 1905.64 1463.33 1910.82 1463.33 1915.01 1467.52 1915.01 1472.7Z" fill="#404040" fill-rule="nonzero" fill-opacity="1"/></g></g></g><text fill="#000000" fill-opacity="1" font-family="Arial,Arial_MSFontService,sans-serif" font-style="normal" font-variant="normal" font-weight="400" font-stretch="normal" font-size="64" text-anchor="start" direction="ltr" writing-mode="lr-tb" unicode-bidi="normal" text-decoration="none" transform="matrix(1 0 0 1 2077.25 1515)">Anspruchsgruppen und Orte mit <tspan fill="#000000" fill-opacity="1" font-family="Arial,Arial_MSFontService,sans-serif" font-style="normal" font-variant="normal" font-weight="400" font-stretch="normal" font-size="64" text-anchor="start" direction="ltr" writing-mode="lr-tb" unicode-bidi="normal" text-decoration="none" x="0" y="77">Inklusionsbedarfen</tspan></text><path d="M1650.5 1518C1605.42 1429.21 1964.08 1414.73 2394 1407.5 2810.36 1408.71 3130.31 1457.2 3137.5 1518 3074.18 1640.77 2802.03 1642.79 2394 1628.5 1971.62 1622.08 1654.17 1580.78 1650.5 1518Z" stroke="#404040" stroke-width="4.58333" stroke-linecap="butt" stroke-linejoin="round" stroke-miterlimit="10" stroke-opacity="1" fill="none" fill-rule="evenodd"/><path d="M1411.39 1152.52C1420.72 1160.97 1431.33 1167.93 1443.08 1173.4 1453.52 1178.28 1464.69 1181.76 1477.14 1182.29 1492.99 1182.92 1509.08 1181.95 1525.71 1178.25 1526.55 1178.09 1527.26 1178.28 1528.5 1178.26 1527.4 1179.09 1526.83 1179.72 1526.28 1180.13 1518.77 1185.91 1511.53 1192.17 1505.05 1199.33 1503.57 1200.96 1502.38 1202.86 1501.49 1204.8 1500.96 1205.85 1501.1 1206.75 1501.67 1207.26 1502.03 1207.59 1502.56 1207.76 1503.21 1207.73 1504.47 1207.49 1506.07 1206.89 1507.28 1205.93 1509.05 1204.56 1510.53 1202.92 1512.22 1201.25 1520.06 1193.94 1527.81 1186.55 1536.68 1180.41 1538.77 1178.87 1540.54 1176.35 1542.28 1174.04 1542.86 1173.2 1543.08 1171.8 1542.95 1170.99 1542.6 1169.21 1541.97 1167.62 1540.72 1166.49 1540.41 1166.21 1540.06 1165.95 1539.66 1165.73 1532.51 1161.08 1525.36 1156.44 1518.22 1151.79 1516.33 1150.78 1514.44 1149.98 1512.43 1149.3 1510.82 1148.76 1509.15 1149.07 1507.84 1151.09 1506.76 1152.86 1506.44 1155.54 1507.48 1156.7 1507.61 1156.89 1507.77 1157.06 1507.94 1157.22 1508.35 1157.59 1508.86 1157.89 1509.41 1158.23 1512.65 1160.25 1516.22 1162.1 1519.44 1164.33 1521.22 1165.38 1522.97 1166.48 1524.57 1167.92 1525.52 1168.79 1526.42 1169.77 1527.25 1170.95 1524.41 1171.58 1522.31 1171.97 1520.1 1172.48 1506.35 1175.12 1492.85 1175.94 1479.81 1175.1 1474.77 1174.88 1469.86 1174.32 1465.21 1173.09 1447.77 1169.18 1432.96 1161.04 1419.81 1150.27 1417.3 1148.2 1414.81 1146.09 1412.4 1143.9 1406.66 1138.71 1401.33 1133.08 1397.02 1126.43 1389.96 1115.7 1385.29 1103.68 1383.03 1089.97 1382.35 1085.7 1381.35 1081.59 1380.42 1076.64 1377.95 1080.34 1378.34 1082.99 1378.53 1085.68 1379.47 1105.28 1385.61 1122.05 1396.22 1135.99 1400.82 1142.03 1405.88 1147.53 1411.39 1152.52Z" fill="#000000" fill-rule="evenodd" fill-opacity="1"/><text fill="#000000" fill-opacity="1" font-family="Arial,Arial_MSFontService,sans-serif" font-style="normal" font-variant="normal" font-weight="400" font-stretch="normal" font-size="55" text-anchor="start" direction="ltr" writing-mode="lr-tb" unicode-bidi="normal" text-decoration="none" transform="matrix(1 0 0 1 463.636 1226)">Forschungs<tspan fill="#000000" fill-opacity="1" font-family="Arial,Arial_MSFontService,sans-serif" font-style="normal" font-variant="normal" font-weight="400" font-stretch="normal" font-size="55" text-anchor="start" direction="ltr" writing-mode="lr-tb" unicode-bidi="normal" text-decoration="none" x="286.458" y="0">-</tspan><tspan fill="#000000" fill-opacity="1" font-family="Arial,Arial_MSFontService,sans-serif" font-style="normal" font-variant="normal" font-weight="400" font-stretch="normal" font-size="55" text-anchor="start" direction="ltr" writing-mode="lr-tb" unicode-bidi="normal" text-decoration="none" x="320.26" y="0">und Entwicklungsdrang, </tspan><tspan fill="#000000" fill-opacity="1" font-family="Arial,Arial_MSFontService,sans-serif" font-style="normal" font-variant="normal" font-weight="400" font-stretch="normal" font-size="55" text-anchor="start" direction="ltr" writing-mode="lr-tb" unicode-bidi="normal" text-decoration="none" x="27.5" y="66">Globale Expertise und Ressourcen</tspan></text><path d="M126.733 0.00599984C112.502 0.00599984 98.3367 2.31594 84.3426 6.84581 71.8935 10.8537 59.8879 16.6555 49.0542 26.0633 35.2883 38.069 22.5496 51.6766 11.4218 68.0921 10.838 68.8901 10.105 69.2921 9.07778 70.2941 9.37188 68.6921 9.37188 67.6901 9.51674 66.8922 11.4218 55.8825 12.7387 44.6748 12.7387 33.2691 12.7387 30.6652 12.2998 28.0612 11.5667 25.6613 11.2111 24.3173 10.4166 23.6454 9.54747 23.6454 8.99876 23.6454 8.41933 23.9153 7.90574 24.4613 7.02781 25.6613 6.14989 27.4612 5.85578 29.2612 5.41682 31.8651 5.41682 34.4691 5.27196 37.271 4.24478 49.8766 3.36685 62.4883 0.588212 74.896 0 77.8959 0.438964 81.5018 0.73307 84.9037 0.877928 86.1036 1.75586 87.5016 2.48893 88.1076 4.13065 89.3856 5.86456 90.2795 7.76527 90.2795 8.23936 90.2795 8.72661 90.2255 9.22702 90.1055 18.7438 88.5036 28.2605 86.9016 37.7772 85.3057 40.1213 84.6997 42.3161 83.9017 44.5153 82.8997 46.2712 82.1018 47.4432 80.4998 47.0043 77.6979 46.5653 75.2979 44.8051 72.694 43.0492 72.496 42.7946 72.436 42.5356 72.412 42.2722 72.412 41.6445 72.412 40.9905 72.55 40.2662 72.694 36.0214 73.492 31.6274 74.698 27.2377 75.2979 24.9419 75.7959 22.6505 76.2219 20.2143 76.2219 18.7569 76.2219 17.2557 76.0719 15.6666 75.6939 17.5717 72.892 19.0379 70.8941 20.4996 68.6921 30.0164 55.4805 40.7051 44.0748 52.2762 34.4691 56.6659 30.6652 61.2048 27.2633 66.0378 24.6593 83.6095 14.2556 102.204 9.64774 121.387 8.65176 125.07 8.47177 128.753 8.34577 132.431 8.34577 141.184 8.34577 149.919 9.05375 158.58 11.4537 172.636 15.2516 185.669 22.0614 197.968 32.2671 201.774 35.471 205.729 38.273 210.268 41.8729 209.535 36.671 207.195 34.6671 204.996 32.4651 189.33 16.0556 171.464 6.24583 151.991 2.44793 143.563 0.809978 135.139 0.00599984 126.733 0.00599984Z" fill="#000000" fill-rule="evenodd" fill-opacity="1" transform="matrix(0.286086 0.958204 0.958204 -0.286086 1525.88 1303)"/><text fill="#000000" fill-opacity="1" font-family="Arial,Arial_MSFontService,sans-serif" font-style="normal" font-variant="normal" font-weight="400" font-stretch="normal" font-size="55" text-anchor="start" direction="ltr" writing-mode="lr-tb" unicode-bidi="normal" text-decoration="none" transform="matrix(1 0 0 1 1033.67 1534)">Herausforderungen,<tspan fill="#000000" fill-opacity="1" font-family="Arial,Arial_MSFontService,sans-serif" font-style="normal" font-variant="normal" font-weight="400" font-stretch="normal" font-size="55" text-anchor="start" direction="ltr" writing-mode="lr-tb" unicode-bidi="normal" text-decoration="none" x="-140.067" y="66">Lokale Expertise und Lösungen</tspan></text><path d="M1731.18 875.615C1717.25 862.037 1701.78 850.175 1684.92 840.067 1669.94 831.058 1654.14 823.758 1636.97 820.157 1615.11 815.619 1593.15 813.208 1570.8 814.345 1569.67 814.36 1568.67 813.948 1566.97 813.685 1568.37 812.819 1569.07 812.102 1569.77 811.668 1579.32 805.603 1588.43 798.834 1596.4 790.667 1598.21 788.803 1599.6 786.519 1600.56 784.102 1601.15 782.8 1600.84 781.561 1599.99 780.731 1599.45 780.208 1598.7 779.848 1597.81 779.749 1596.12 779.771 1594 780.222 1592.46 781.23 1590.21 782.676 1588.39 784.54 1586.3 786.409 1576.49 794.454 1566.83 802.647 1555.45 808.88 1552.78 810.467 1550.69 813.468 1548.6 816.184 1547.91 817.182 1547.79 819.02 1548.08 820.154 1548.8 822.635 1549.87 824.93 1551.73 826.743 1552.2 827.196 1552.71 827.622 1553.28 828.013 1563.72 835.947 1574.15 843.88 1584.58 851.817 1587.29 853.62 1590 855.143 1592.85 856.523 1595.13 857.627 1597.39 857.599 1598.92 855.173 1600.16 853.036 1600.26 849.492 1598.68 847.675 1598.47 847.389 1598.23 847.125 1597.98 846.874 1597.36 846.275 1596.63 845.75 1595.82 845.162 1591.1 841.683 1585.96 838.354 1581.25 834.595 1578.65 832.761 1576.11 830.88 1573.73 828.556 1572.3 827.165 1570.94 825.625 1569.65 823.838 1573.47 823.65 1576.3 823.618 1579.26 823.436 1597.8 823.056 1616.22 825.088 1634.25 829.25 1641.21 830.715 1648.02 832.61 1654.57 835.357 1679.03 844.673 1700.44 859.115 1719.91 876.705 1723.64 880.09 1727.34 883.513 1730.94 887.023 1739.5 895.375 1747.56 904.216 1754.36 914.198 1765.46 930.328 1773.46 947.64 1778.38 966.683 1779.87 972.608 1781.78 978.388 1783.71 985.296 1786.62 980.872 1785.73 977.205 1785.12 973.53 1781.24 946.832 1770.6 922.762 1754.2 901.463 1747.09 892.249 1739.41 883.636 1731.18 875.615Z" fill="#000000" fill-rule="evenodd" fill-opacity="1"/><text fill="#000000" fill-opacity="1" font-family="Arial,Arial_MSFontService,sans-serif" font-style="normal" font-variant="normal" font-weight="400" font-stretch="normal" font-size="55" text-anchor="start" direction="ltr" writing-mode="lr-tb" unicode-bidi="normal" text-decoration="none" transform="matrix(1 0 0 1 1733.35 726)">Generelle Erkenntnisse,<tspan fill="#000000" fill-opacity="1" font-family="Arial,Arial_MSFontService,sans-serif" font-style="normal" font-variant="normal" font-weight="400" font-stretch="normal" font-size="55" text-anchor="start" direction="ltr" writing-mode="lr-tb" unicode-bidi="normal" text-decoration="none" x="41.25" y="80">Erreichen von Zielen</tspan></text><path d="M70.5 854C45.649 698.682 311.569 632.322 798.5 600.5 1225.95 605.839 1516.28 714.321 1526.5 854 1505.36 1014.63 1191.4 1158.11 798.5 1107.5 370.066 1093.09 75.4175 996.352 70.5 854Z" stroke="#404040" stroke-width="4.58333" stroke-linecap="butt" stroke-linejoin="round" stroke-miterlimit="10" stroke-opacity="1" fill="none" fill-rule="evenodd"/><text fill="#000000" fill-opacity="1" font-family="Arial,Arial_MSFontService,sans-serif" font-style="normal" font-variant="normal" font-weight="400" font-stretch="normal" font-size="64" text-anchor="start" direction="ltr" writing-mode="lr-tb" unicode-bidi="normal" text-decoration="none" transform="matrix(1 0 0 1 380.698 978)">Unterstützende und Fördernde <tspan fill="#000000" fill-opacity="1" font-family="Arial,Arial_MSFontService,sans-serif" font-style="normal" font-variant="normal" font-weight="400" font-stretch="normal" font-size="64" text-anchor="start" direction="ltr" writing-mode="lr-tb" unicode-bidi="normal" text-decoration="none" x="248.348" y="93">von Inklusion</tspan></text><path d="M143.95 0.00681491C127.786 0.00681491 111.696 2.63056 95.8007 7.77582 81.6604 12.3282 68.0238 18.9182 55.7183 29.604 40.0823 43.2406 25.613 58.6968 12.9735 77.3425 12.3104 78.2488 11.4777 78.7054 10.311 79.8435 10.6451 78.0239 10.6451 76.8859 10.8096 75.9795 12.9735 63.4741 14.4693 50.7439 14.4693 37.7887 14.4693 34.831 13.9707 31.8734 13.1381 29.1474 12.7342 27.6208 11.8317 26.8576 10.8445 26.8576 10.2213 26.8576 9.56311 27.1642 8.97975 27.7844 7.98256 29.1474 6.98536 31.1919 6.6513 33.2363 6.1527 36.194 6.1527 39.1517 5.98816 42.3342 4.82144 56.6524 3.82425 70.9773 0.668122 85.0706 0 88.478 0.498598 92.5738 0.832659 96.4378 0.997196 97.8008 1.99439 99.3887 2.82705 100.077 4.69181 101.529 6.66127 102.544 8.8202 102.544 9.35869 102.544 9.91213 102.483 10.4805 102.346 21.2901 100.527 32.0998 98.7072 42.9094 96.8944 45.5719 96.2061 48.0649 95.2997 50.5628 94.1617 52.5572 93.2553 53.8885 91.4357 53.3899 88.2531 52.8913 85.5272 50.8919 82.5695 48.8975 82.3446 48.6083 82.2765 48.3142 82.2492 48.015 82.2492 47.302 82.2492 46.5591 82.4059 45.7364 82.5695 40.915 83.4759 35.924 84.8457 30.938 85.5272 28.3304 86.0928 25.7277 86.5767 22.9604 86.5767 21.3051 86.5767 19.5999 86.4063 17.795 85.977 19.9589 82.7944 21.6242 80.525 23.2845 78.0239 34.0941 63.0175 46.235 50.0624 59.3781 39.1517 64.364 34.831 69.5195 30.967 75.0091 28.0093 94.968 16.1922 116.089 10.9584 137.877 9.82711 142.061 9.62266 146.244 9.47954 150.422 9.47954 160.364 9.47954 170.286 10.2837 180.124 13.0097 196.089 17.3235 210.892 25.0584 224.863 36.6506 229.186 40.2898 233.678 43.4723 238.834 47.5613 238.001 41.6528 235.343 39.3766 232.845 36.8755 215.05 18.2367 194.757 7.09433 172.64 2.78048 163.067 0.920013 153.498 0.00681491 143.95 0.00681491Z" fill="#000000" fill-rule="evenodd" fill-opacity="1" transform="matrix(-0.721465 -0.69245 -0.69245 0.721465 2792.7 1316.83)"/><text fill="#000000" fill-opacity="1" font-family="Arial,Arial_MSFontService,sans-serif" font-style="normal" font-variant="normal" font-weight="400" font-stretch="normal" font-size="55" text-anchor="start" direction="ltr" writing-mode="lr-tb" unicode-bidi="normal" text-decoration="none" transform="matrix(1 0 0 1 2764.2 1144)">Anerkennung, <tspan fill="#000000" fill-opacity="1" font-family="Arial,Arial_MSFontService,sans-serif" font-style="normal" font-variant="normal" font-weight="400" font-stretch="normal" font-size="55" text-anchor="start" direction="ltr" writing-mode="lr-tb" unicode-bidi="normal" text-decoration="none" x="34.6731" y="66">Austausch,</tspan><tspan fill="#000000" fill-opacity="1" font-family="Arial,Arial_MSFontService,sans-serif" font-style="normal" font-variant="normal" font-weight="400" font-stretch="normal" font-size="55" text-anchor="start" direction="ltr" writing-mode="lr-tb" unicode-bidi="normal" text-decoration="none" x="-0.274902" y="132">Unterstützung</tspan></text><path d="M1568.5 1170C1511.97 1030.45 1780.81 985.761 2074 980.5 2368.53 983.734 2555.02 1066.12 2579.5 1170 2542.22 1311.1 2342.85 1416.62 2074 1359.5 1777.42 1349.97 1572.38 1276.51 1568.5 1170Z" stroke="#404040" stroke-width="4.58333" stroke-linecap="butt" stroke-linejoin="round" stroke-miterlimit="10" stroke-dasharray="36.6667 13.75" stroke-opacity="1" fill="none" fill-rule="evenodd"/><text fill="#000000" fill-opacity="1" font-family="Segoe Print,Segoe Print_MSFontService,sans-serif" font-style="normal" font-variant="normal" font-weight="700" font-stretch="normal" font-size="64" text-anchor="start" direction="ltr" writing-mode="lr-tb" unicode-bidi="normal" text-decoration="none" transform="matrix(1 0 0 1 2599.86 762)">Systematische <tspan fill="#000000" fill-opacity="1" font-family="Segoe Print,Segoe Print_MSFontService,sans-serif" font-style="normal" font-variant="normal" font-weight="700" font-stretch="normal" font-size="64" text-anchor="start" direction="ltr" writing-mode="lr-tb" unicode-bidi="normal" text-decoration="none" x="-20.9001" y="77">Umsetzung von </tspan><tspan fill="#000000" fill-opacity="1" font-family="Segoe Print,Segoe Print_MSFontService,sans-serif" font-style="normal" font-variant="normal" font-weight="700" font-stretch="normal" font-size="64" text-anchor="start" direction="ltr" writing-mode="lr-tb" unicode-bidi="normal" text-decoration="none" x="85.0896" y="154">Inklusion</tspan></text><path d="M2457.5 805C2452.71 721.685 2574.19 677.662 2826 659.5 3038.01 661.292 3172.85 725.333 3194.5 805 3162.2 916.962 3020.12 1002.52 2826 950.5 2609.04 943.131 2472.13 892.362 2457.5 805Z" stroke="#404040" stroke-width="4.58333" stroke-linecap="butt" stroke-linejoin="round" stroke-miterlimit="10" stroke-opacity="1" fill="none" fill-rule="evenodd"/><path d="M2518.32 931.891C2517.42 932.706 2516.98 933.821 2517.2 934.893 2517.45 936.579 2519.39 938.014 2521.5 937.703 2523.85 937.485 2526.22 936.934 2528.59 936.384 2529.94 936.118 2531.38 935.771 2533.25 935.363 2532.44 936.411 2532.16 936.984 2531.8 937.466 2526 943.477 2520.55 949.882 2514.37 955.472 2514.06 955.748 2513.76 956.026 2513.45 956.297 2506.27 962.632 2498.45 968.264 2490.57 973.475 2483.38 978.388 2475.73 982.437 2468.15 986.743 2461.17 990.66 2454.36 994.641 2448.44 999.994 2447.28 1001.05 2446.14 1002.15 2445.05 1003.33 2442.31 1006.28 2440.15 1009.36 2438.55 1012.87 2437.72 1014.42 2437.04 1016.15 2437.87 1018.11 2438.63 1018.15 2439.11 1017.94 2439.47 1017.62 2439.88 1017.25 2440.13 1016.71 2440.47 1016.24 2441.48 1014.53 2442.5 1012.49 2443.91 1011.05 2445.98 1009 2448.12 1006.98 2450.3 1005 2451.85 1003.61 2453.41 1002.24 2454.97 1000.89 2456.46 999.546 2458.11 998.374 2459.83 997.457 2465.43 994.306 2471.01 991.323 2476.61 988.174 2481.09 985.719 2485.64 983.354 2489.89 980.471 2495.94 976.59 2501.68 972.36 2507.48 968.384 2511.21 965.816 2514.67 962.987 2517.97 960.004 2521.89 956.462 2525.58 952.701 2529.22 948.885 2532.49 945.451 2535.51 941.92 2538.96 938.162 2538.98 939.585 2538.94 940.418 2538.97 941.341 2539.35 945.462 2539.55 949.74 2540.27 953.878 2540.78 957.082 2543.33 957.798 2545.79 955.578 2546.58 954.865 2547.14 953.719 2547.11 952.631 2547.34 946.365 2547.32 940.004 2547.3 933.808 2547.35 932.807 2546.82 931.86 2546.87 930.859 2546.82 926.754 2544.64 925.224 2540.8 926.62 2538.59 927.347 2536.46 928.16 2534.17 928.63 2530.8 929.131 2527.35 929.377 2523.98 929.877 2522.63 930.143 2521.28 930.411 2519.99 930.931 2519.34 931.152 2518.78 931.482 2518.32 931.891Z" fill="#000000" fill-rule="evenodd" fill-opacity="1"/><g clip-path="url(#clip7)"><g clip-path="url(#clip8)"><g clip-path="url(#clip9)"><path d="M1205.64 737.994 1208.04 731.792 1222.07 697.833C1222.7 696.34 1222.52 694.63 1221.59 693.301 1220.29 691.566 1217.92 691.037 1216.01 692.056L1198.55 700.781 1181.6 692.306C1180.26 691.634 1178.68 691.634 1177.34 692.306L1160.39 700.781 1142.88 692.039C1141.21 691.131 1139.14 691.421 1137.78 692.755 1136.51 694.118 1136.15 696.099 1136.87 697.821L1150.9 731.792 1153.18 738.108C1127.79 762.611 1098.4 784.068 1098.4 817.667 1098.4 841.03 1108.74 856.251 1130.74 864.004 1133.31 864.91 1136.02 865.374 1138.75 865.375L1220.25 865.375C1222.98 865.374 1225.69 864.91 1228.26 864.004 1250.26 856.251 1260.6 841.03 1260.6 817.667 1260.6 784.068 1231.04 762.497 1205.64 737.994ZM1141.57 696.772C1141.57 696.76 1141.57 696.745 1141.58 696.74 1141.59 696.736 1141.6 696.737 1141.61 696.741L1158.24 705.049 1160.38 706.115 1162.51 705.049 1179.45 696.574 1196.4 705.049 1198.53 706.115 1200.66 705.049 1217.32 696.726C1217.33 696.72 1217.34 696.724 1217.35 696.735 1217.35 696.742 1217.35 696.75 1217.35 696.757L1203.59 730.072 1201.41 735.725 1157.39 735.725 1155.39 730.17 1155.35 730.07 1155.31 729.972ZM1226.79 859.457C1224.69 860.209 1222.47 860.596 1220.24 860.602L1138.75 860.602C1136.52 860.596 1134.3 860.209 1132.2 859.457 1112.39 852.437 1103.17 839.155 1103.17 817.667 1103.17 791.072 1123.55 772.201 1145.12 752.223 1148.87 748.752 1152.75 745.164 1156.5 741.543L1157.58 740.496 1201.36 740.496 1202.33 741.429C1206.1 745.067 1210 748.676 1213.78 752.163 1235.4 772.186 1255.83 791.096 1255.83 817.667 1255.83 839.152 1246.61 852.437 1226.8 859.459Z" fill="#000000" fill-rule="nonzero" fill-opacity="1"/><path d="M1159.56 800.54C1165.93 802.309 1172.53 798.58 1174.3 792.21 1174.88 790.114 1174.88 787.898 1174.3 785.802 1173.2 781.782 1170.06 778.641 1166.04 777.544 1159.67 775.775 1153.07 779.504 1151.3 785.873 1150.72 787.97 1150.72 790.185 1151.3 792.281 1152.4 796.302 1155.54 799.443 1159.56 800.54ZM1161.4 782.019C1165.28 781.247 1169.04 783.763 1169.82 787.639 1170.59 791.515 1168.07 795.284 1164.2 796.056 1160.32 796.828 1156.55 794.312 1155.78 790.436 1155.6 789.513 1155.6 788.562 1155.78 787.639 1156.35 784.804 1158.56 782.589 1161.4 782.019Z" fill="#000000" fill-rule="nonzero" fill-opacity="1"/><path d="M1199.44 810.94C1193.07 809.17 1186.47 812.9 1184.7 819.269 1184.12 821.366 1184.12 823.581 1184.7 825.677 1185.8 829.698 1188.94 832.839 1192.96 833.935 1199.33 835.705 1205.93 831.975 1207.7 825.606 1208.28 823.51 1208.28 821.294 1207.7 819.198 1206.6 815.177 1203.46 812.036 1199.44 810.94ZM1197.6 829.46C1193.72 830.232 1189.96 827.716 1189.18 823.84 1188.41 819.964 1190.93 816.196 1194.8 815.424 1198.68 814.651 1202.45 817.168 1203.22 821.044 1203.4 821.967 1203.4 822.917 1203.22 823.84 1202.65 826.675 1200.44 828.891 1197.6 829.46Z" fill="#000000" fill-rule="nonzero" fill-opacity="1"/><path d="M1153.96 827.907 1201.67 780.199 1205.04 783.573 1157.33 831.281Z" fill="#000000" fill-rule="nonzero" fill-opacity="1"/></g></g></g><g clip-path="url(#clip10)"><g clip-path="url(#clip11)"><g clip-path="url(#clip12)"><path d="M79.5147 132.031C79.5147 144.065 93.9011 153.49 112.269 153.49 130.638 153.49 145.024 144.065 145.024 132.031L145.024 111.122 158.58 105.097 158.58 126.384C158.59 128.878 160.619 130.893 163.114 130.884 165.596 130.875 167.605 128.865 167.614 126.384L167.614 98.1457C167.604 97.6075 167.497 97.0755 167.297 96.5755 167.24 96.4313 167.175 96.2904 167.102 96.1533 166.929 95.8058 166.711 95.4825 166.453 95.1915 166.358 95.0833 166.279 94.9706 166.174 94.872 165.811 94.5187 165.391 94.2297 164.931 94.0175L164.859 93.9855 164.853 93.9827 114.103 71.4274C112.936 70.909 111.603 70.909 110.436 71.4274L59.6077 94.0175C57.3278 95.0305 56.3007 97.6998 57.3137 99.9797 57.7679 101.002 58.5853 101.82 59.6077 102.274L79.5147 111.122ZM135.99 132.031C135.99 137.907 126.248 144.457 112.269 144.457 98.2911 144.457 88.5486 137.908 88.5486 132.031L88.5486 115.137 110.436 124.864C111.603 125.382 112.936 125.382 114.103 124.864L135.99 115.137ZM112.269 80.4998 151.973 98.1457 112.269 115.791 72.5656 98.1457Z" fill="#000000" fill-rule="nonzero" fill-opacity="1" transform="matrix(1.01987 0 0 1 402 653)"/><path d="M112.269 31.2272C118.371 31.2489 124.451 31.9593 130.394 33.3447L125.189 36.0309C122.971 37.1747 122.101 39.8995 123.245 42.1169 124.388 44.3343 127.113 45.2047 129.331 44.061L144.536 36.2157C144.742 36.0779 144.936 35.9224 145.116 35.751 145.366 35.5896 145.598 35.4032 145.81 35.1947 146.035 34.9179 146.225 34.6148 146.376 34.2921 146.493 34.131 146.599 33.962 146.692 33.7862L146.709 33.6835C146.805 33.347 146.862 33.0004 146.877 32.6508 146.924 32.415 146.952 32.1758 146.961 31.9355 146.925 31.7042 146.871 31.4761 146.8 31.2531 146.744 30.9011 146.646 30.557 146.508 30.2283L146.48 30.1297 138.635 14.9216C137.499 12.6999 134.778 11.8194 132.556 12.9549 130.334 14.0904 129.454 16.812 130.589 19.0337 130.594 19.0436 130.599 19.0536 130.605 19.0635L133.57 24.8117C85.2352 13.0484 36.516 42.6955 24.7527 91.0304 20.4703 108.627 21.5915 127.105 27.9699 144.054 28.8529 146.388 31.4606 147.564 33.7943 146.681 36.1241 145.799 37.3008 143.198 36.4247 140.866 20.6564 98.9504 41.8533 52.1881 83.7692 36.4199 92.8805 32.9923 102.535 31.2333 112.269 31.2272Z" fill="#000000" fill-rule="nonzero" fill-opacity="1" transform="matrix(1.01987 0 0 1 402 653)"/><path d="M196.569 80.475C195.686 78.1413 193.078 76.9653 190.745 77.8483 188.415 78.7299 187.238 81.3309 188.114 83.6628 204 125.408 183.037 172.128 141.291 188.014 126.246 193.74 109.835 194.845 94.1575 191.189L99.3501 188.509C101.576 187.381 102.465 184.663 101.337 182.437 100.209 180.212 97.4909 179.322 95.2653 180.45 95.2462 180.46 95.2272 180.469 95.2082 180.479L80.0029 188.325C79.8125 188.454 79.6328 188.597 79.4655 188.755 78.8924 189.077 78.4447 189.583 78.1949 190.191 78.0645 190.366 77.948 190.552 77.8464 190.746 77.8323 190.784 77.8409 190.823 77.8277 190.861 77.7357 191.187 77.681 191.524 77.6647 191.863 77.52 192.343 77.5497 192.859 77.7484 193.32 77.8037 193.656 77.8973 193.986 78.0277 194.301 78.0449 194.336 78.0401 194.375 78.0589 194.411L85.9042 209.616C87.054 211.83 89.7812 212.693 91.9955 211.543 94.2013 210.398 95.0676 207.686 93.9343 205.474L90.9633 199.717C139.298 211.483 188.019 181.839 199.785 133.504 204.069 115.906 202.948 97.4261 196.569 80.475Z" fill="#000000" fill-rule="nonzero" fill-opacity="1" transform="matrix(1.01987 0 0 1 402 653)"/><text fill="#000000" fill-opacity="1" font-family="Helvetica Neue,Helvetica Neue_MSFontService,sans-serif" font-style="normal" font-variant="normal" font-weight="700" font-stretch="normal" font-size="5" text-anchor="start" direction="ltr" writing-mode="lr-tb" unicode-bidi="normal" text-decoration="none" transform="matrix(6.36112 0 0 6.23719 402 971)">Created by Chintuza<tspan fill="#000000" fill-opacity="1" font-family="Helvetica Neue,Helvetica Neue_MSFontService,sans-serif" font-style="normal" font-variant="normal" font-weight="700" font-stretch="normal" font-size="5" text-anchor="start" direction="ltr" writing-mode="lr-tb" unicode-bidi="normal" text-decoration="none" x="0" y="4.97019">from the Noun Project</tspan></text></g></g></g><g clip-path="url(#clip13)"><g clip-path="url(#clip14)"><g clip-path="url(#clip15)"><path d="M234.614 64.3687 258.775 33.6144 218.281 38.4473 214.046 34.3318C193.798 15.2358 164.563 6.53298 135.569 13.7834 118.962 17.9379 104.762 26.7538 93.9767 38.4746L53.4843 33.6455 77.6433 64.396C71.2663 80.3122 69.6501 98.293 74.1243 116.192 85.4318 161.432 131.282 188.934 176.527 177.623 219.821 166.797 247.043 124.458 239.389 81.1817 238.373 75.3974 236.012 68.6616 234.614 64.3687ZM174.597 169.891C133.683 180.122 92.0837 155.166 81.8563 114.264 77.9357 98.5796 79.0353 82.3671 85.0419 67.3632 85.6716 65.7802 85.7691 64.0724 85.3713 62.4718 85.1062 61.3995 84.611 60.3799 83.9092 59.4851L71.6211 43.8398 93.037 46.3918C95.5773 46.694 98.1117 45.7601 99.839 43.8749 109.957 32.8872 122.982 25.1552 137.503 21.5251 164.582 14.7484 191.94 23.4279 210.325 41.9136 212.766 44.337 215.514 46.7953 219.219 46.3567L240.633 43.8047 228.344 59.4461C226.6 61.6627 226.171 64.7079 227.21 67.3242 228.237 70.5878 229.407 73.8241 230.241 77.1461 240.475 118.06 215.499 159.659 174.597 169.891Z" fill="#000000" fill-rule="nonzero" fill-opacity="1" transform="matrix(1.00123 0 0 1 707.811 670)"/><path d="M297.915 24.198C297.915 31.37 292.101 37.184 284.929 37.184 277.757 37.184 271.943 31.37 271.943 24.198 271.943 17.026 277.757 11.2119 284.929 11.2119 292.101 11.2119 297.915 17.026 297.915 24.198Z" fill="#000000" fill-rule="nonzero" fill-opacity="1" transform="matrix(1.00123 0 0 1 707.811 670)"/><path d="M309.078 58.6994C302.518 47.8325 293.848 41.9 284.677 41.9799 275.549 42.0638 267.051 48.1074 260.746 58.9879 254.357 70.0107 250.339 85.7418 249.137 104.473 248.965 107.128 250.979 109.427 253.642 109.601 256.307 109.776 258.596 107.754 258.767 105.093 259.879 87.8434 263.446 73.5745 269.098 63.8287 269.738 62.7272 270.397 61.6939 271.075 60.7328L260.809 120.438 270.198 120.438 270.198 173.932C270.198 177.371 272.982 180.153 276.415 180.153 279.858 180.153 282.644 177.365 282.644 173.932L282.644 120.434 287.221 120.434 287.221 173.971C287.221 177.41 290.013 180.196 293.45 180.196 296.885 180.196 299.675 177.406 299.675 173.971L299.675 120.434 309.054 120.434 298.77 60.6061C299.466 61.5613 300.153 62.5888 300.816 63.6864 306.703 73.4381 310.583 87.7868 312.022 105.177 312.23 107.698 314.34 109.604 316.827 109.604 316.956 109.604 317.094 109.597 317.231 109.587 319.88 109.369 321.857 107.033 321.637 104.38 320.071 85.5137 315.726 69.7164 309.078 58.6994Z" fill="#000000" fill-rule="nonzero" fill-opacity="1" transform="matrix(1.00123 0 0 1 707.811 670)"/><path d="M39.3929 24.198C39.3929 31.37 33.5788 37.184 26.4068 37.184 19.2348 37.184 13.4208 31.37 13.4208 24.198 13.4208 17.026 19.2348 11.2119 26.4068 11.2119 33.5788 11.2119 39.3929 17.026 39.3929 24.198Z" fill="#000000" fill-rule="nonzero" fill-opacity="1" transform="matrix(1.00123 0 0 1 707.811 670)"/><path d="M26.1553 41.9799C17.0294 42.0638 8.52934 48.1074 2.2264 58.9879-4.16427 70.0107-8.17842 85.7418-9.38324 104.473-9.55481 107.128-7.54091 109.427-4.87781 109.601-2.21275 109.776 0.0760329 107.754 0.243695 105.093 1.35495 87.8434 4.92459 73.5745 10.5764 63.8287 11.2139 62.7272 11.8748 61.6939 12.5532 60.7328L2.28684 120.434 11.674 120.434 11.674 173.928C11.674 177.367 14.4599 180.149 17.8931 180.149 21.336 180.149 24.1219 177.361 24.1219 173.928L24.1219 120.434 28.6995 120.434 28.6995 173.971C28.6995 177.41 31.4913 180.196 34.9264 180.196 38.3615 180.196 41.1514 177.406 41.1514 173.971L41.1514 120.434 50.5327 120.434 40.2487 60.6061C40.9447 61.5613 41.631 62.5888 42.2938 63.6864 48.1815 73.4381 52.0592 87.7868 53.4999 105.177 53.7085 107.698 55.8179 109.604 58.3017 109.604 58.4323 109.604 58.5707 109.597 58.7052 109.587 61.3566 109.369 63.3335 107.033 63.1132 104.38 61.5477 85.5117 57.2041 69.7144 50.5561 58.6974 43.9919 47.8325 35.3261 41.9 26.1553 41.9799Z" fill="#000000" fill-rule="nonzero" fill-opacity="1" transform="matrix(1.00123 0 0 1 707.811 670)"/><path d="M179.668 78.9358C179.531 78.9358 161.586 78.9358 161.586 78.7974L161.586 58.6643C161.722 52.9092 152.407 52.9092 152.544 58.6643L152.544 78.7974C152.544 78.9358 135.557 78.7974 134.461 78.9358L116.243 122.635C120.079 131.812 126.105 136.331 134.188 136.331 142.269 136.331 148.297 131.812 151.996 122.772L139.119 86.3344 175.281 86.3344 162.133 122.774C165.832 131.814 171.862 136.333 179.941 136.333 188.024 136.333 194.05 131.814 197.884 122.635L179.668 78.9358ZM144.188 122.774C144.049 122.774 124.051 122.774 124.187 122.637 124.462 122.36 133.914 97.018 133.914 97.018 134.459 95.3765 134.871 95.3765 135.419 97.018L144.188 122.774ZM189.804 122.084 170.078 122.084C169.667 122.084 172.817 112.771 178.709 96.7431 179.256 95.3745 179.668 95.3745 180.216 96.7431 189.667 121.401 189.804 121.947 189.804 122.084Z" fill="#000000" fill-rule="nonzero" fill-opacity="1" transform="matrix(1.00123 0 0 1 707.811 670)"/><text fill="#000000" fill-opacity="1" font-family="Helvetica Neue,Helvetica Neue_MSFontService,sans-serif" font-style="normal" font-variant="normal" font-weight="700" font-stretch="normal" font-size="5" text-anchor="start" direction="ltr" writing-mode="lr-tb" unicode-bidi="normal" text-decoration="none" transform="matrix(1.95196 0 0 1.94956 696.505 883)">Created by corpus delicti<tspan fill="#000000" fill-opacity="1" font-family="Helvetica Neue,Helvetica Neue_MSFontService,sans-serif" font-style="normal" font-variant="normal" font-weight="700" font-stretch="normal" font-size="5" text-anchor="start" direction="ltr" writing-mode="lr-tb" unicode-bidi="normal" text-decoration="none" x="0" y="5.12936">from the Noun Project</tspan></text></g></g></g></g></svg>