<svg height="1311" overflow="hidden" width="3227" xmlns="http://www.w3.org/2000/svg" xmlns:xlink="http://www.w3.org/1999/xlink"><clipPath id="a"><path d="m50 64h3227v1311h-3227z"/></clipPath><clipPath id="b"><path d="m1272 436h799v207h-799z"/></clipPath><clipPath id="c"><path d="m1272 436h759v207h-759z"/></clipPath><clipPath id="d"><path d="m1258 419h773v226h-773z"/></clipPath><clipPath id="e"><path d="m324 398h284v283h-284z"/></clipPath><clipPath id="f"><path d="m324 398h284v283h-284z"/></clipPath><clipPath id="g"><path d="m324 398h284v283h-284z"/></clipPath><clipPath id="h"><path d="m2671 430h360v215h-360z"/></clipPath><clipPath id="i"><path d="m2671 430h360v215h-360z"/></clipPath><clipPath id="j"><path d="m2671 430h360v244h-360z"/></clipPath><g clip-path="url(#a)" transform="translate(-50 -64)"><g clip-path="url(#b)"><g clip-path="url(#c)"><g clip-path="url(#d)"><g stroke="#404040" stroke-linejoin="round"><path d="m181.659 98.615c0 24.57-19.918 44.488-44.488 44.488s-44.4879-19.918-44.4879-44.488c0-24.5701 19.9179-44.488 44.4879-44.488s44.488 19.9179 44.488 44.488z" fill="none" stroke-linecap="round" stroke-width="5.23145" transform="matrix(1.00296 0 0 1 1258.03 419.054)"/><path d="m157.323 113.963h-40.303c-1.156 0-2.093.937-2.093 2.093v40.303c0 1.155.937 2.092 2.093 2.092h40.303c1.155 0 2.092-.937 2.092-2.092v-40.303c0-1.156-.937-2.093-2.092-2.093z" fill="#bf403c" stroke-miterlimit="2" stroke-width=".261573" transform="matrix(1.00296 0 0 1 1258.03 419.054)"/><path d="m157.323 113.963h-40.303c-1.156 0-2.093.937-2.093 2.093v40.303c0 1.155.937 2.092 2.093 2.092h40.303c1.155 0 2.092-.937 2.092-2.092v-40.303c0-1.156-.937-2.093-2.092-2.093z" fill="none" stroke-linecap="round" stroke-width="5.23145" transform="matrix(1.00296 0 0 1 1258.03 419.054)"/><path d="m117.12 91.1377-18.8579-37.7162c-.5168-1.0337-1.7737-1.4528-2.8074-.9359-.4049.2027-.7332.531-.9357.9359l-18.8583 37.7162c-.5169 1.0337-.0978 2.2908.9359 2.8075.2906.1454.611.221.9359.221h37.7165c1.155 0 2.092-.937 2.092-2.0926 0-.3249-.075-.6453-.221-.9359z" fill="#72a41b" stroke-miterlimit="2" stroke-width=".261573" transform="matrix(1.00296 0 0 1 1258.03 419.054)"/><path d="m117.12 91.1377-18.8579-37.7162c-.5168-1.0337-1.7737-1.4528-2.8074-.9359-.4049.2027-.7332.531-.9357.9359l-18.8583 37.7162c-.5169 1.0337-.0978 2.2908.9359 2.8075.2906.1454.611.221.9359.221h37.7165c1.155 0 2.092-.937 2.092-2.0926 0-.3249-.075-.6453-.221-.9359z" fill="none" stroke-linecap="round" stroke-width="5.23145" transform="matrix(1.00296 0 0 1 1258.03 419.054)"/><path d="m200.196 71.9223c0 12.2851-9.959 22.2441-22.244 22.2441s-22.244-9.959-22.244-22.2441 9.959-22.2441 22.244-22.2441 22.244 9.959 22.244 22.2441z" fill="#d8a818" fill-rule="evenodd" stroke-miterlimit="2" stroke-width=".261573" transform="matrix(1.00296 0 0 1 1258.03 419.054)"/><path d="m200.196 71.9223c0 12.2851-9.959 22.2441-22.244 22.2441s-22.244-9.959-22.244-22.2441 9.959-22.2441 22.244-22.2441 22.244 9.959 22.244 22.2441z" fill="none" stroke-linecap="round" stroke-width="5.23145" transform="matrix(1.00296 0 0 1 1258.03 419.054)"/><path d="m246.342 28.9171h-219.8243c-.7222 0-1.3078.5857-1.3078 1.3079v182.751c0 .722.5856 1.308 1.3078 1.308h219.8243c.722 0 1.308-.586 1.308-1.308v-182.751c0-.7222-.586-1.3079-1.308-1.3079z" fill="none" stroke-linecap="round" stroke-width="5.23145" transform="matrix(1.00296 0 0 1 1258.03 419.054)"/></g><path d="m226.155 108.254s4.119 14.088 2.636 26.693-2.225 13.346-4.449 18.537c-2.224 5.19-5.19 14.087-9.639 18.536s-7.414 7.415-19.278 20.02c-11.863 12.605-9.639 20.019-9.639 20.019h-27.434s-1.895-5.931.741-16.312 7.003-17.054 9.969-20.761c2.965-3.707 5.602-8.156 11.534-16.312 5.931-8.156 10.38-20.761 11.122-23.727.741-2.966 2.224-11.122 2.224-11.122s5.932-3.707 7.415 4.449 0 9.639-.742 12.605c-.741 2.965-2.966 8.156-2.966 8.156l-4.448 11.863s18.536-11.863 22.985-22.244c4.449-10.38 2.884-16.312 4.037-24.468s5.932-5.932 5.932-5.932z" fill="#404040" transform="matrix(1.00296 0 0 1 1258.03 419.054)"/><path d="m226.155 108.254s4.119 14.088 2.636 26.693-2.225 13.346-4.449 18.537c-2.224 5.19-5.19 14.087-9.639 18.536s-7.414 7.415-19.278 20.02c-11.863 12.605-9.639 20.019-9.639 20.019h-27.434s-1.895-5.931.741-16.312 7.003-17.054 9.969-20.761c2.965-3.707 5.602-8.156 11.534-16.312 5.931-8.156 10.38-20.761 11.122-23.727.741-2.966 2.224-11.122 2.224-11.122s5.932-3.707 7.415 4.449 0 9.639-.742 12.605c-.741 2.965-2.966 8.156-2.966 8.156l-4.448 11.863s18.536-11.863 22.985-22.244c4.449-10.38 2.884-16.312 4.037-24.468s5.932-5.932 5.932-5.932z" fill="#404040" stroke="#356680" stroke-linecap="round" stroke-linejoin="round" stroke-width=".261573" transform="matrix(1.00296 0 0 1 1258.03 419.054)"/><path d="m48.6897 108.254s-4.1193 14.088-2.6364 26.693c1.4828 12.605 2.2244 13.346 4.4488 18.537 2.2244 5.19 5.1904 14.087 9.639 18.536 4.4488 4.449 7.4148 7.415 19.2781 20.02 11.8637 12.605 9.6392 20.019 9.6392 20.019h27.4346s1.895-5.931-.742-16.312c-2.636-10.381-7.003-17.054-9.968-20.761-2.966-3.707-5.603-8.156-11.5344-16.312-5.9317-8.156-10.3805-20.761-11.1221-23.727-.7413-2.966-2.2242-11.122-2.2242-11.122s-5.9319-3.707-7.4148 4.449c-1.4828 8.156 0 9.639.7416 12.605.7413 2.965 2.9657 8.156 2.9657 8.156l4.4488 11.863s-18.5366-11.863-22.9854-22.244c-4.4488-10.38-2.8833-16.312-4.0368-24.468-1.1533-8.156-5.9317-5.932-5.9317-5.932z" fill="#404040" transform="matrix(1.00296 0 0 1 1258.03 419.054)"/><path d="m48.6897 108.254s-4.1193 14.088-2.6364 26.693c1.4828 12.605 2.2244 13.346 4.4488 18.537 2.2244 5.19 5.1904 14.087 9.639 18.536 4.4488 4.449 7.4148 7.415 19.2781 20.02 11.8637 12.605 9.6392 20.019 9.6392 20.019h27.4346s1.895-5.931-.742-16.312c-2.636-10.381-7.003-17.054-9.968-20.761-2.966-3.707-5.603-8.156-11.5344-16.312-5.9317-8.156-10.3805-20.761-11.1221-23.727-.7413-2.966-2.2242-11.122-2.2242-11.122s-5.9319-3.707-7.4148 4.449c-1.4828 8.156 0 9.639.7416 12.605.7413 2.965 2.9657 8.156 2.9657 8.156l4.4488 11.863s-18.5366-11.863-22.9854-22.244c-4.4488-10.38-2.8833-16.312-4.0368-24.468-1.1533-8.156-5.9317-5.932-5.9317-5.932z" fill="#404040" stroke="#356680" stroke-linecap="round" stroke-linejoin="round" stroke-width=".261573" transform="matrix(1.00296 0 0 1 1258.03 419.054)"/><text fill="#404040" font-family="Helvetica Neue,Helvetica Neue_MSFontService,sans-serif" font-size="290" font-weight="300" transform="matrix(.262346 0 0 .261573 1525.84 523)">Innovation Hub<tspan fill="#404040" font-family="Helvetica Neue,Helvetica Neue_MSFontService,sans-serif" font-size="340" font-weight="700" x="1.13022" y="347.896">INKLUSION</tspan></text></g></g></g><g clip-path="url(#e)"><g clip-path="url(#f)"><g clip-path="url(#g)" fill="#404040"><path d="m380.011 471.698c0 8.14-6.6 14.74-14.74 14.74s-14.74-6.6-14.74-14.74c0-8.141 6.6-14.74 14.74-14.74s14.74 6.599 14.74 14.74z"/><path d="m400.44 546.663c.162-.867.162-1.756 0-2.623l-4.216-18.425-1.474-7.576-3.773-17.098c-.31-1.31-1.059-2.476-2.123-3.301-3.536-2.762-7.526-4.887-11.791-6.279-7.702-2.633-16.059-2.633-23.761 0-4.205 1.405-8.135 3.529-11.614 6.279-1.02.844-1.726 2.007-2.005 3.301l-9.61 42.804c-.84 3.298 1.152 6.651 4.45 7.491.078.02.158.039.237.056.343.03.689.03 1.032 0 2.819.065 5.29-1.874 5.896-4.629l8.843-39.59v20.93l-8.843 43.924h8.843v50.115h11.792v-50.115h5.896v50.115h11.792v-50.115h8.843l-8.843-43.894v-20.96l8.843 39.59c.606 2.755 3.077 4.694 5.896 4.629 2.719-.094 5.044-1.985 5.69-4.629z"/><path d="m456.656 471.698c0 8.14-6.599 14.74-14.739 14.74-8.141 0-14.74-6.6-14.74-14.74 0-8.141 6.599-14.74 14.74-14.74 8.14 0 14.739 6.599 14.739 14.74z"/><path d="m471.396 518.039v.177l-3.832-17.275c-.279-1.294-.985-2.457-2.005-3.301-13.86-10.821-33.306-10.821-47.167 0-1.032.833-1.742 2.001-2.004 3.301l-9.64 43.099c-.667 3.27 1.443 6.462 4.713 7.13.389.079.786.12 1.183.122 2.742-.032 5.1-1.95 5.689-4.629l8.844-39.59v114.969h11.792v-67.802h5.896v67.802h11.791v-114.969l9.109 39.59c.585 2.657 2.911 4.57 5.631 4.629 2.819.065 5.29-1.874 5.896-4.629z"/><path d="m571.92 584.102c-6.458 22.419-29.868 35.358-52.287 28.899-18.126-5.221-30.594-21.828-30.55-40.691 0-.383 0-.766 0-1.179l-4.569-15.3c-10.143 25.464 2.277 54.328 27.74 64.471s54.328-2.276 64.471-27.74z"/><path d="m600.279 589.054-22.051-38.47c-1.318-2.271-3.741-3.674-6.367-3.685h-29.479c.029-.323.029-.649 0-.973l-4.275-32.957c-1.007-7.51-7.906-12.786-15.417-11.792-1.346.195-2.656.582-3.892 1.15-.624.166-1.227.403-1.798.707l-29.479 17.246c-2.93 1.728-4.304 5.23-3.331 8.49l8.844 29.626c.927 3.117 3.794 5.252 7.045 5.247.718.004 1.433-.095 2.123-.294 3.891-1.192 6.099-5.293 4.952-9.198l-7.252-24.055 10.406-6.073 4.806 26.532c1.195 6.551 6.9 11.314 13.56 11.32.831-.006 1.659-.085 2.476-.236h.265l36.112.177 19.958 34.785c1.307 2.301 3.751 3.72 6.397 3.714 4.07.008 7.376-3.284 7.384-7.355.003-1.298-.338-2.575-.987-3.699z"/><path d="m537.842 482.428c0 8.141-6.599 14.74-14.74 14.74-8.14 0-14.739-6.599-14.739-14.74 0-8.14 6.599-14.739 14.739-14.739 8.141 0 14.74 6.599 14.74 14.739z"/></g></g></g><text font-family="Segoe Print,Segoe Print_MSFontService,sans-serif" font-size="64" font-weight="700" transform="translate(178.241 740)">Anspruchsgruppen <tspan font-family="Segoe Print,Segoe Print_MSFontService,sans-serif" font-size="64" font-weight="700" x="81.6521" y="77">und Orte mit </tspan><tspan font-family="Segoe Print,Segoe Print_MSFontService,sans-serif" font-size="64" font-weight="700" x="3.4375" y="154">Inklusionsbedarfen</tspan></text><path d="m56.4999 702.5c-7.1958-226.461 142.2861-384.814 420.0001-402 275.698 9.216 368.175 181.631 420 402-19.338 240.919-192.095 424.43-420 402-247.923-8.74-395.3467-168.192-420.0001-402z" fill="none" stroke="#404040" stroke-linejoin="round" stroke-miterlimit="10" stroke-width="4.58333"/><path d="m199.913.00599984c-22.448 0-44.793 2.30994016-66.868 6.83981016-19.638 4.00789-38.5759 9.80969-55.6652 19.21749-21.7148 12.0057-41.8093 25.6133-59.3626 42.0288-.9209.798-2.0773 1.2-3.6976 2.202.4639-1.602.4639-2.604.6924-3.4019 3.0052-11.0097 5.0825-22.2174 5.0825-33.6231 0-2.6039-.6924-5.2079-1.8488-7.6078-.5609-1.344-1.8142-2.0159-3.1852-2.0159-.8656 0-1.7796.2699-2.5897.8159-1.3849 1.2-2.76977 2.9999-3.2337 4.7999-.69244 2.6039-.69244 5.2079-.92094 8.0098-1.6203 12.6056-3.00517 25.2173-7.388295 37.625-.927865 2.9999-.235429 6.6058.228505 10.0077.2285 1.1999 1.61338 2.5979 2.76974 3.2039 2.58972 1.278 5.32484 2.1719 8.32309 2.1719.7478 0 1.5164-.054 2.3058-.174 15.012-1.6019 30.0241-3.2039 45.0361-4.7998 3.6976-.606 7.1598-1.404 10.6289-2.406 2.7697-.7979 4.6185-2.3999 3.9261-5.2018-.6925-2.4-3.4691-5.0039-6.2389-5.2019-.4016-.06-.8101-.084-1.2256-.084-.9902 0-2.0219.138-3.1644.282-6.6959.798-13.6272 2.004-20.5515 2.6039-3.6215.498-7.236.924-11.079.924-2.2989 0-4.667-.15-7.1736-.528 3.0051-2.8019 5.3179-4.7998 7.6237-7.0018 15.012-13.2116 31.8728-24.6173 50.1254-34.223 6.9244-3.8039 14.0842-7.2058 21.7078-9.8098 27.718-10.4037 57.05-15.01156 87.309-16.00754 5.81-.17999 11.62-.30599 17.422-.30599 13.807 0 27.587.70798 41.249 3.10793 22.171 3.7979 42.73 10.6077 62.132 20.8134 6.003 3.2039 12.242 6.0059 19.402 9.6058-1.156-5.2019-4.847-7.2058-8.316-9.4078-24.713-16.4095-52.895-26.21927-83.612-30.01717-13.295-1.637952-26.583-2.44193016-39.843-2.44193016z" fill-rule="evenodd" transform="matrix(-.985051 .172264 .172264 .985051 1157.99 294.969)"/><text font-family="Segoe Print,Segoe Print_MSFontService,sans-serif" font-size="55" font-weight="700" transform="translate(731.971 147)">Expertise, Ressourcen, <tspan font-family="Segoe Print,Segoe Print_MSFontService,sans-serif" font-size="55" font-weight="700" x="-158.996" y="66">Herausforderungen </tspan><tspan font-family="Segoe Print,Segoe Print_MSFontService,sans-serif" font-size="55" font-weight="700" x="390.431" y="66">und </tspan>Lösungen <tspan font-family="Segoe Print,Segoe Print_MSFontService,sans-serif" font-size="55" font-weight="700" x="3.4375" y="132">aus lokalen Kontexten</tspan></text><path d="m221.105.00681491c-24.829 0-49.542 2.62374509-73.957 7.76900509-21.719 4.55238-42.665 11.14238-61.5658 21.82818-24.0166 13.6366-46.2412 29.0928-65.6551 47.7385-1.0186.9063-2.2976 1.3629-4.0896 2.501.5131-1.8196.5131-2.9576.7658-3.864 3.3238-12.5054 5.6213-25.2356 5.6213-38.1908 0-2.9577-.7659-5.9153-2.0448-8.6413-.6203-1.5266-2.0065-2.2898-3.5229-2.2898-.9573 0-1.9682.3066-2.8642.9268-1.5317 1.363-3.0633 3.4075-3.5764 5.4519-.76588 2.9577-.76588 5.9154-1.01861 9.0979-1.79205 14.3182-3.32373 28.6431-8.17147 42.7364-1.02622 3.4074-.260384 7.5032.25273 11.3672.25272 1.363 1.78439 2.9509 3.06334 3.6392 2.86423 1.452 5.88931 2.467 9.20531 2.467.8271 0 1.6772-.061 2.5503-.198 16.6033-1.819 33.2066-3.6388 49.81-5.4516 4.0895-.6883 7.9187-1.5947 11.7555-2.7327 3.0634-.9064 5.1082-2.726 4.3423-5.9086-.7658-2.7259-3.8368-5.6836-6.9002-5.9085-.4441-.0681-.896-.0954-1.3555-.0954-1.0951 0-2.2362.1567-3.4999.3203-7.4056.9064-15.0716 2.2762-22.73 2.9577-4.0053.5656-8.003 1.0495-12.2533 1.0495-2.5426 0-5.1618-.1704-7.9341-.5997 3.3237-3.1826 5.8816-5.452 8.4318-7.9531 16.6034-15.0064 35.2515-27.9615 55.4389-38.8722 7.6584-4.3207 15.5776-8.1847 24.0086-11.1424 30.657-11.8171 63.098-17.0509 96.565-18.18219 6.425-.20445 12.85-.34757 19.268-.34757 15.271 0 30.511.80416 45.621 3.53016 24.522 4.3138 47.26 12.0487 68.718 23.6409 6.64 3.6392 13.54 6.8217 21.459 10.9107-1.279-5.9085-5.361-8.1847-9.198-10.6858-27.332-18.6388-58.502-29.78117-92.474-34.09502-14.704-1.860467-29.401-2.77366509-44.066-2.77366509z" fill-rule="evenodd" transform="matrix(.993887 -.110401 -.110401 -.993887 842.584 1113.91)"/><text font-family="Segoe Print,Segoe Print_MSFontService,sans-serif" font-size="55" font-weight="700" transform="translate(655.982 1187)">Inspiration, Anerkennung<tspan font-family="Segoe Print,Segoe Print_MSFontService,sans-serif" font-size="55" font-weight="700" x="707.552" y="0">, </tspan><tspan font-family="Segoe Print,Segoe Print_MSFontService,sans-serif" font-size="55" font-weight="700" x="-50.1188" y="66">Austausch, Arbeitsteilung und</tspan><tspan font-family="Segoe Print,Segoe Print_MSFontService,sans-serif" font-size="55" font-weight="700" x="151.548" y="132">Kokonstruktion</tspan><tspan font-family="Segoe Print,Segoe Print_MSFontService,sans-serif" font-size="64" font-weight="700" x="542.966" y="-447">Anregung und </tspan><tspan font-family="Segoe Print,Segoe Print_MSFontService,sans-serif" font-size="64" font-weight="700" x="1031.09" y="-447">Begleitung von </tspan><tspan font-family="Segoe Print,Segoe Print_MSFontService,sans-serif" font-size="64" font-weight="700" x="552.431" y="-370">sozialen Innovationsprozessen </tspan><tspan font-family="Segoe Print,Segoe Print_MSFontService,sans-serif" font-size="64" font-weight="700" x="559.008" y="-293">zur Umsetzung von Inklusion</tspan></text><path d="m1096.5 702.5c-80.42-271.629 194.5-375.605 591.5-402 370.45 9.216 539.64 181.631 591.5 402-57.18 277.86-269.89 430.01-591.5 402-342.65-8.74-566.83-168.192-591.5-402z" fill="none" stroke="#404040" stroke-linejoin="round" stroke-miterlimit="10" stroke-width="4.58333"/><path d="m2276.95 1091.29c25.25 2.29 50.62 1.9 75.93-1.07 22.5-2.63 44.41-7.39 64.62-16.5 25.67-11.63 49.7-25.28 71.16-42.43 1.12-.82 2.46-1.17 4.39-2.16-.69 1.8-.8 2.96-1.14 3.85-4.53 12.4-8.04 25.11-9.23 38.27-.27 3 .24 6.08 1.29 8.96.49 1.61 1.83 2.51 3.37 2.65.97.09 2.03-.13 3-.67 1.68-1.25 3.43-3.18 4.14-5.21 1.05-2.93 1.32-5.94 1.87-9.15 3.14-14.37 6.01-28.78 12.24-42.64 1.36-3.37.96-7.6.79-11.57-.13-1.41-1.54-3.16-2.78-3.98-2.78-1.74-5.76-3.05-9.13-3.35-.85-.08-1.72-.1-2.62-.04-17.05.32-34.1.64-51.15.95-4.23.32-8.2.89-12.21 1.69-3.2.64-5.45 2.3-4.96 5.6.53 2.84 3.38 6.13 6.47 6.64.45.11.91.18 1.37.22 1.12.1 2.29.05 3.59 0 7.62-.24 15.54-.93 23.39-.91 4.13-.21 8.24-.33 12.56.06 2.58.23 5.23.65 8.01 1.34-3.67 2.93-6.48 5-9.31 7.3-18.26 13.71-38.42 25.15-59.95 34.37-8.19 3.68-16.6 6.87-25.45 9.1-32.26 9.18-65.73 11.5-99.87 9.57-6.56-.39-13.1-.83-19.63-1.42-15.53-1.41-30.96-3.63-46.07-7.79-24.54-6.64-46.96-16.6-67.71-30.35-6.42-4.3-13.15-8.17-20.82-13.05.75 6.12 4.7 8.8 8.37 11.7 26.08 21.44 56.75 35.63 90.91 43.14 14.78 3.25 29.64 5.53 44.56 6.88z" fill-rule="evenodd"/><text font-family="Segoe Print,Segoe Print_MSFontService,sans-serif" font-size="55" font-weight="700" transform="translate(2034.91 132)">Expertise, Ressourcen, <tspan font-family="Segoe Print,Segoe Print_MSFontService,sans-serif" font-size="55" font-weight="700" x="-158.996" y="66">Herausforderungen und Lösungen </tspan><tspan font-family="Segoe Print,Segoe Print_MSFontService,sans-serif" font-size="55" font-weight="700" x="-38.6834" y="132">aus Domänen</tspan><tspan font-family="Segoe Print,Segoe Print_MSFontService,sans-serif" font-size="55" font-weight="700" x="334.285" y="132">-</tspan><tspan font-family="Segoe Print,Segoe Print_MSFontService,sans-serif" font-size="55" font-weight="700" x="369.233" y="132">Kontexten</tspan></text><path d="m2382.03 308.628c-25.22-1.311-50.45-.31-75.48 2.924-22.27 2.855-43.85 7.543-63.54 15.94-25.02 10.72-48.3 23.136-68.87 38.504-1.08.743-2.4 1.077-4.27 1.982.61-1.572.66-2.573.96-3.356 3.94-10.82 6.86-21.891 7.45-33.281.14-2.601-.51-5.241-1.68-7.706-.56-1.375-1.93-2.119-3.47-2.199-.98-.051-2.02.166-2.96.664-1.61 1.117-3.26 2.834-3.88 4.604-.91 2.56-1.05 5.16-1.45 7.945-2.47 12.494-4.68 25.008-10.25 37.143-1.2 2.941-.61 6.583-.27 10.007.2 1.212 1.68 2.689 2.95 3.362 2.84 1.427 5.87 2.48 9.24 2.655.84.044 1.7.035 2.6-.039 16.95-.723 33.89-1.446 50.84-2.162 4.19-.389 8.12-.984 12.07-1.782 3.15-.635 5.31-2.127 4.68-4.965-.65-2.438-3.64-5.2-6.74-5.56-.45-.083-.91-.131-1.37-.155-1.11-.058-2.28.019-3.57.096-7.57.406-15.42 1.206-23.23 1.4-4.09.286-8.17.5-12.49.276-2.58-.135-5.24-.423-8.03-.947 3.52-2.622 6.22-4.482 8.93-6.547 17.55-12.316 37.08-22.722 58.09-31.248 7.97-3.394 16.19-6.373 24.89-8.528 31.69-8.771 64.88-11.659 98.92-10.885 6.54.159 13.07.373 19.59.712 15.51.807 30.96 2.319 46.18 5.514 24.71 5.088 47.46 13.089 68.72 24.415 6.58 3.55 13.45 6.713 21.3 10.726-1.03-5.262-5.07-7.479-8.85-9.881-26.91-17.831-58.07-29.274-92.38-34.861-14.85-2.413-29.73-3.992-44.63-4.767z" fill-rule="evenodd"/><text font-family="Segoe Print,Segoe Print_MSFontService,sans-serif" font-size="64" font-weight="700" transform="translate(2533.78 740)">Unterstützende von <tspan font-family="Segoe Print,Segoe Print_MSFontService,sans-serif" font-size="64" font-weight="700" x="16.0415" y="77">und </tspan><tspan font-family="Segoe Print,Segoe Print_MSFontService,sans-serif" font-size="64" font-weight="700" x="165.573" y="77">Forschende zu </tspan><tspan font-family="Segoe Print,Segoe Print_MSFontService,sans-serif" font-size="64" font-weight="700" x="177.329" y="154">Inklusion</tspan></text><g clip-path="url(#h)"><g clip-path="url(#i)"><g clip-path="url(#j)"><path d="m248.029 68.0492 25.542-32.5128-42.809 5.1093-4.477-4.3509c-21.406-20.1878-52.313-29.38827-82.965-21.7233-17.556 4.3921-32.568 13.7121-43.9699 26.103l-42.8077-5.1052 25.5404 32.5087c-6.7417 16.8263-8.4503 35.835-3.7202 54.758 11.954 47.826 60.4254 76.901 108.2574 64.943 45.77-11.445 74.548-56.205 66.456-101.9555-1.073-6.1151-3.569-13.2359-5.047-17.7743zm-63.449 111.5558c-43.253 10.816-87.2312-15.567-98.0433-58.808-4.1448-16.581-2.9824-33.7204 3.3677-49.5821.6657-1.6735.7687-3.479.3483-5.1711-.2803-1.1336-.8038-2.2115-1.5458-3.1575l-12.9907-16.5398 22.6405 2.6979c2.6853.3194 5.3653-.6678 7.1913-2.6608 10.696-11.616 24.466-19.7901 39.817-23.6277 28.628-7.1642 57.55 2.0116 76.986 21.5543 2.58 2.5618 5.486 5.1608 9.402 4.6971l22.638-2.6979-12.99 16.5357c-1.845 2.3434-2.298 5.5627-1.2 8.3286 1.086 3.4502 2.323 6.8715 3.205 10.3835 10.818 43.2528-15.585 87.2308-58.826 98.0478z" transform="matrix(1 0 0 1.00183 2684.47 430)"/><path d="m314.949 25.5816c0 7.582-6.147 13.7285-13.729 13.7285s-13.728-6.1465-13.728-13.7285c0-7.5821 6.146-13.7286 13.728-13.7286s13.729 6.1465 13.729 13.7286z" transform="matrix(1 0 0 1.00183 2684.47 430)"/><path d="m326.75 62.0557c-6.935-11.4882-16.101-17.7599-25.796-17.6754-9.649.0886-18.634 6.4778-25.299 17.9804-6.754 11.6531-11.002 28.2836-12.273 48.0863-.182 2.807 1.947 5.237 4.763 5.42 2.817.186 5.237-1.952 5.418-4.765 1.175-18.2359 4.947-33.3206 10.922-43.6237.676-1.1645 1.372-2.2569 2.089-3.273l-10.853 63.1197h9.926v56.552c0 3.636 2.943 6.577 6.573 6.577 3.639 0 6.585-2.947 6.585-6.577v-56.557h4.839v56.598c0 3.636 2.951 6.581 6.585 6.581 3.632 0 6.581-2.949 6.581-6.581v-56.598h9.915l-10.871-63.2486c.735 1.0099 1.461 2.096 2.162 3.2564 6.224 10.3093 10.325 25.4785 11.846 43.8632.221 2.665 2.451 4.68 5.081 4.68.136 0 .282-.008.426-.018 2.801-.231 4.891-2.7 4.658-5.505-1.655-19.9448-6.249-36.6454-13.277-48.2923z" transform="matrix(1 0 0 1.00183 2684.47 430)"/><path d="m41.6453 25.5816c0 7.582-6.1465 13.7285-13.7286 13.7285s-13.7285-6.1465-13.7285-13.7285c0-7.5821 6.1464-13.7286 13.7285-13.7286s13.7286 6.1465 13.7286 13.7286z" transform="matrix(1 0 0 1.00183 2684.47 430)"/><path d="m27.6508 44.3803c-9.6477.0886-18.63377 6.4778-25.2971 17.9804-6.75607 11.6531-10.99974 28.2836-12.27346 48.0863-.18134 2.807 1.94768 5.237 4.76305 5.42 2.81744.186 5.2370903-1.952 5.414339-4.765 1.174791-18.2359 4.948541-33.3206 10.923471-43.6237.674-1.1645 1.3727-2.2569 2.0899-3.273l-10.85341 63.1147h9.92391v56.553c0 3.636 2.9452 6.577 6.5747 6.577 3.6398 0 6.585-2.947 6.585-6.577v-56.553h4.8393v56.598c0 3.636 2.9514 6.581 6.5829 6.581 3.6316 0 6.5809-2.949 6.5809-6.581v-56.598h9.9177l-10.8719-63.2486c.7357 1.0099 1.4612 2.096 2.162 3.2564 6.2243 10.3093 10.3237 25.4785 11.8468 43.8632.2205 2.665 2.4506 4.68 5.0763 4.68.1381 0 .2845-.008.4267-.018 2.803-.231 4.8929-2.7 4.66-5.505-1.655-19.9469-6.247-36.6475-13.2752-48.2944-6.9395-11.4861-16.1008-17.7578-25.7959-17.6733z" transform="matrix(1 0 0 1.00183 2684.47 430)"/><path d="m189.941 83.4492c-.144 0-19.116 0-19.116-.1463v-21.2843c.144-6.0842-9.704-6.0842-9.559 0v21.2843c0 .1463-17.958 0-19.116.1463l-19.261 46.1978c4.056 9.702 10.427 14.479 18.972 14.479 8.543 0 14.916-4.777 18.825-14.334l-13.613-38.5211h38.23l-13.899 38.5231c3.91 9.557 10.284 14.334 18.825 14.334 8.545 0 14.916-4.777 18.97-14.481zm-37.509 46.3448c-.146 0-21.288 0-21.144-.145.291-.292 10.282-27.084 10.282-27.084.577-1.735 1.012-1.735 1.592 0zm48.224-.73h-20.853c-.435 0 2.895-9.846 9.124-26.789.579-1.447 1.014-1.447 1.593 0 9.992 26.068 10.136 26.645 10.136 26.789z" transform="matrix(1 0 0 1.00183 2684.47 430)"/><text font-family="Helvetica Neue,Helvetica Neue_MSFontService,sans-serif" font-size="5" font-weight="700" transform="matrix(2.06103 0 0 2.0648 2672.53 656)">Created by corpus delicti<tspan font-family="Helvetica Neue,Helvetica Neue_MSFontService,sans-serif" font-size="5" font-weight="700" x="0" y="4.84307">from the Noun Project</tspan></text></g></g></g><path d="m2432.5 714.5c-7.2-226.461 142.29-384.813 420-402 275.7 9.216 368.18 181.631 420 402-19.34 240.919-192.1 424.43-420 402-247.92-8.74-395.35-168.192-420-402z" fill="none" stroke="#404040" stroke-linejoin="round" stroke-miterlimit="10" stroke-width="4.58333"/><text font-family="Segoe Print,Segoe Print_MSFontService,sans-serif" font-size="55" font-weight="700" transform="translate(1956.75 1187)">Inspiration, Anerkennung<tspan font-family="Segoe Print,Segoe Print_MSFontService,sans-serif" font-size="55" font-weight="700" x="707.552" y="0">, </tspan><tspan font-family="Segoe Print,Segoe Print_MSFontService,sans-serif" font-size="55" font-weight="700" x="-50.1187" y="66">Austausch, Arbeitsteilung und</tspan><tspan font-family="Segoe Print,Segoe Print_MSFontService,sans-serif" font-size="55" font-weight="700" x="151.548" y="132">Kokonstruktion</tspan></text></g></svg>