<svg width="3227" height="1311" xmlns="http://www.w3.org/2000/svg" xmlns:xlink="http://www.w3.org/1999/xlink" overflow="hidden"><defs><clipPath id="clip0"><rect x="50" y="64" width="3227" height="1311"/></clipPath><clipPath id="clip1"><rect x="1272" y="436" width="799" height="207"/></clipPath><clipPath id="clip2"><rect x="1272" y="436" width="759" height="207"/></clipPath><clipPath id="clip3"><rect x="1258" y="419" width="773" height="226"/></clipPath><clipPath id="clip4"><rect x="324" y="398" width="284" height="283"/></clipPath><clipPath id="clip5"><rect x="324" y="398" width="284" height="283"/></clipPath><clipPath id="clip6"><rect x="324" y="398" width="284" height="283"/></clipPath><clipPath id="clip7"><rect x="2671" y="430" width="360" height="215"/></clipPath><clipPath id="clip8"><rect x="2671" y="430" width="360" height="215"/></clipPath><clipPath id="clip9"><rect x="2671" y="430" width="360" height="244"/></clipPath></defs><g clip-path="url(#clip0)" transform="translate(-50 -64)"><g clip-path="url(#clip1)"><g clip-path="url(#clip2)"><g clip-path="url(#clip3)"><path d="M181.659 98.615C181.659 123.185 161.741 143.103 137.171 143.103 112.601 143.103 92.6831 123.185 92.6831 98.615 92.6831 74.0449 112.601 54.127 137.171 54.127 161.741 54.127 181.659 74.0449 181.659 98.615Z" stroke="#404040" stroke-width="5.23145" stroke-linecap="round" stroke-linejoin="round" stroke-miterlimit="4" stroke-opacity="1" fill="none" fill-rule="evenodd" transform="matrix(1.00296 0 0 1 1258.03 419.054)"/><path d="M157.323 113.963 117.02 113.963C115.864 113.963 114.927 114.9 114.927 116.056L114.927 156.359C114.927 157.514 115.864 158.451 117.02 158.451L157.323 158.451C158.478 158.451 159.415 157.514 159.415 156.359L159.415 116.056C159.415 114.9 158.478 113.963 157.323 113.963Z" stroke="#404040" stroke-width="0.261573" stroke-linecap="butt" stroke-linejoin="round" stroke-miterlimit="2" stroke-opacity="1" fill="#BF403C" fill-rule="nonzero" fill-opacity="1" transform="matrix(1.00296 0 0 1 1258.03 419.054)"/><path d="M157.323 113.963 117.02 113.963C115.864 113.963 114.927 114.9 114.927 116.056L114.927 156.359C114.927 157.514 115.864 158.451 117.02 158.451L157.323 158.451C158.478 158.451 159.415 157.514 159.415 156.359L159.415 116.056C159.415 114.9 158.478 113.963 157.323 113.963Z" stroke="#404040" stroke-width="5.23145" stroke-linecap="round" stroke-linejoin="round" stroke-miterlimit="4" stroke-opacity="1" fill="none" fill-rule="nonzero" transform="matrix(1.00296 0 0 1 1258.03 419.054)"/><path d="M117.12 91.1377 98.2621 53.4215C97.7453 52.3878 96.4884 51.9687 95.4547 52.4856 95.0498 52.6883 94.7215 53.0166 94.519 53.4215L75.6607 91.1377C75.1438 92.1714 75.5629 93.4285 76.5966 93.9452 76.8872 94.0906 77.2076 94.1662 77.5325 94.1662L115.249 94.1662C116.404 94.1662 117.341 93.2292 117.341 92.0736 117.341 91.7487 117.266 91.4283 117.12 91.1377Z" stroke="#404040" stroke-width="0.261573" stroke-linecap="butt" stroke-linejoin="round" stroke-miterlimit="2" stroke-opacity="1" fill="#72A41B" fill-rule="nonzero" fill-opacity="1" transform="matrix(1.00296 0 0 1 1258.03 419.054)"/><path d="M117.12 91.1377 98.2621 53.4215C97.7453 52.3878 96.4884 51.9687 95.4547 52.4856 95.0498 52.6883 94.7215 53.0166 94.519 53.4215L75.6607 91.1377C75.1438 92.1714 75.5629 93.4285 76.5966 93.9452 76.8872 94.0906 77.2076 94.1662 77.5325 94.1662L115.249 94.1662C116.404 94.1662 117.341 93.2292 117.341 92.0736 117.341 91.7487 117.266 91.4283 117.12 91.1377Z" stroke="#404040" stroke-width="5.23145" stroke-linecap="round" stroke-linejoin="round" stroke-miterlimit="4" stroke-opacity="1" fill="none" fill-rule="nonzero" transform="matrix(1.00296 0 0 1 1258.03 419.054)"/><path d="M200.196 71.9223C200.196 84.2074 190.237 94.1664 177.952 94.1664 165.667 94.1664 155.708 84.2074 155.708 71.9223 155.708 59.6372 165.667 49.6782 177.952 49.6782 190.237 49.6782 200.196 59.6372 200.196 71.9223Z" stroke="#404040" stroke-width="0.261573" stroke-linecap="butt" stroke-linejoin="round" stroke-miterlimit="2" stroke-opacity="1" fill="#D8A818" fill-rule="evenodd" fill-opacity="1" transform="matrix(1.00296 0 0 1 1258.03 419.054)"/><path d="M200.196 71.9223C200.196 84.2074 190.237 94.1664 177.952 94.1664 165.667 94.1664 155.708 84.2074 155.708 71.9223 155.708 59.6372 165.667 49.6782 177.952 49.6782 190.237 49.6782 200.196 59.6372 200.196 71.9223Z" stroke="#404040" stroke-width="5.23145" stroke-linecap="round" stroke-linejoin="round" stroke-miterlimit="4" stroke-opacity="1" fill="none" fill-rule="evenodd" transform="matrix(1.00296 0 0 1 1258.03 419.054)"/><path d="M246.342 28.9171 26.5177 28.9171C25.7955 28.9171 25.2099 29.5028 25.2099 30.225L25.2099 212.976C25.2099 213.698 25.7955 214.284 26.5177 214.284L246.342 214.284C247.064 214.284 247.65 213.698 247.65 212.976L247.65 30.225C247.65 29.5028 247.064 28.9171 246.342 28.9171Z" stroke="#404040" stroke-width="5.23145" stroke-linecap="round" stroke-linejoin="round" stroke-miterlimit="4" stroke-opacity="1" fill="none" fill-rule="nonzero" transform="matrix(1.00296 0 0 1 1258.03 419.054)"/><path d="M226.155 108.254C226.155 108.254 230.274 122.342 228.791 134.947 227.308 147.552 226.566 148.293 224.342 153.484 222.118 158.674 219.152 167.571 214.703 172.02 210.254 176.469 207.289 179.435 195.425 192.04 183.562 204.645 185.786 212.059 185.786 212.059L158.352 212.059C158.352 212.059 156.457 206.128 159.093 195.747 161.729 185.366 166.096 178.693 169.062 174.986 172.027 171.279 174.664 166.83 180.596 158.674 186.527 150.518 190.976 137.913 191.718 134.947 192.459 131.981 193.942 123.825 193.942 123.825 193.942 123.825 199.874 120.118 201.357 128.274 202.84 136.43 201.357 137.913 200.615 140.879 199.874 143.844 197.649 149.035 197.649 149.035L193.201 160.898C193.201 160.898 211.737 149.035 216.186 138.654 220.635 128.274 219.07 122.342 220.223 114.186 221.376 106.03 226.155 108.254 226.155 108.254Z" fill="#404040" fill-rule="nonzero" fill-opacity="1" transform="matrix(1.00296 0 0 1 1258.03 419.054)"/><path d="M226.155 108.254C226.155 108.254 230.274 122.342 228.791 134.947 227.308 147.552 226.566 148.293 224.342 153.484 222.118 158.674 219.152 167.571 214.703 172.02 210.254 176.469 207.289 179.435 195.425 192.04 183.562 204.645 185.786 212.059 185.786 212.059L158.352 212.059C158.352 212.059 156.457 206.128 159.093 195.747 161.729 185.366 166.096 178.693 169.062 174.986 172.027 171.279 174.664 166.83 180.596 158.674 186.527 150.518 190.976 137.913 191.718 134.947 192.459 131.981 193.942 123.825 193.942 123.825 193.942 123.825 199.874 120.118 201.357 128.274 202.84 136.43 201.357 137.913 200.615 140.879 199.874 143.844 197.649 149.035 197.649 149.035L193.201 160.898C193.201 160.898 211.737 149.035 216.186 138.654 220.635 128.274 219.07 122.342 220.223 114.186 221.376 106.03 226.155 108.254 226.155 108.254Z" stroke="#356680" stroke-width="0.261573" stroke-linecap="round" stroke-linejoin="round" stroke-miterlimit="4" stroke-opacity="1" fill="#404040" fill-rule="nonzero" fill-opacity="1" transform="matrix(1.00296 0 0 1 1258.03 419.054)"/><path d="M48.6897 108.254C48.6897 108.254 44.5704 122.342 46.0533 134.947 47.5361 147.552 48.2777 148.293 50.5021 153.484 52.7265 158.674 55.6925 167.571 60.1411 172.02 64.5899 176.469 67.5559 179.435 79.4192 192.04 91.2829 204.645 89.0584 212.059 89.0584 212.059L116.493 212.059C116.493 212.059 118.388 206.128 115.751 195.747 113.115 185.366 108.748 178.693 105.783 174.986 102.817 171.279 100.18 166.83 94.2486 158.674 88.3169 150.518 83.8681 137.913 83.1265 134.947 82.3852 131.981 80.9023 123.825 80.9023 123.825 80.9023 123.825 74.9704 120.118 73.4875 128.274 72.0047 136.43 73.4875 137.913 74.2291 140.879 74.9704 143.844 77.1948 149.035 77.1948 149.035L81.6436 160.898C81.6436 160.898 63.107 149.035 58.6582 138.654 54.2094 128.274 55.7749 122.342 54.6214 114.186 53.4681 106.03 48.6897 108.254 48.6897 108.254Z" fill="#404040" fill-rule="nonzero" fill-opacity="1" transform="matrix(1.00296 0 0 1 1258.03 419.054)"/><path d="M48.6897 108.254C48.6897 108.254 44.5704 122.342 46.0533 134.947 47.5361 147.552 48.2777 148.293 50.5021 153.484 52.7265 158.674 55.6925 167.571 60.1411 172.02 64.5899 176.469 67.5559 179.435 79.4192 192.04 91.2829 204.645 89.0584 212.059 89.0584 212.059L116.493 212.059C116.493 212.059 118.388 206.128 115.751 195.747 113.115 185.366 108.748 178.693 105.783 174.986 102.817 171.279 100.18 166.83 94.2486 158.674 88.3169 150.518 83.8681 137.913 83.1265 134.947 82.3852 131.981 80.9023 123.825 80.9023 123.825 80.9023 123.825 74.9704 120.118 73.4875 128.274 72.0047 136.43 73.4875 137.913 74.2291 140.879 74.9704 143.844 77.1948 149.035 77.1948 149.035L81.6436 160.898C81.6436 160.898 63.107 149.035 58.6582 138.654 54.2094 128.274 55.7749 122.342 54.6214 114.186 53.4681 106.03 48.6897 108.254 48.6897 108.254Z" stroke="#356680" stroke-width="0.261573" stroke-linecap="round" stroke-linejoin="round" stroke-miterlimit="4" stroke-opacity="1" fill="#404040" fill-rule="nonzero" fill-opacity="1" transform="matrix(1.00296 0 0 1 1258.03 419.054)"/><text fill="#404040" fill-opacity="1" font-family="Helvetica Neue,Helvetica Neue_MSFontService,sans-serif" font-style="normal" font-variant="normal" font-weight="300" font-stretch="normal" font-size="290" text-anchor="start" direction="ltr" writing-mode="lr-tb" unicode-bidi="normal" text-decoration="none" transform="matrix(0.262346 0 0 0.261573 1525.84 523)">Innovation Hub<tspan fill="#404040" fill-opacity="1" font-family="Helvetica Neue,Helvetica Neue_MSFontService,sans-serif" font-style="normal" font-variant="normal" font-weight="700" font-stretch="normal" font-size="340" text-anchor="start" direction="ltr" writing-mode="lr-tb" unicode-bidi="normal" text-decoration="none" x="1.13022" y="347.896">INKLUSION</tspan></text></g></g></g><g clip-path="url(#clip4)"><g clip-path="url(#clip5)"><g clip-path="url(#clip6)"><path d="M380.011 471.698C380.011 479.838 373.411 486.438 365.271 486.438 357.131 486.438 350.531 479.838 350.531 471.698 350.531 463.557 357.131 456.958 365.271 456.958 373.411 456.958 380.011 463.557 380.011 471.698Z" fill="#000000" fill-rule="nonzero" fill-opacity="1"/><path d="M400.44 546.663C400.602 545.796 400.602 544.907 400.44 544.04L396.224 525.615 394.75 518.039 390.977 500.941C390.667 499.631 389.918 498.465 388.854 497.64 385.318 494.878 381.328 492.753 377.063 491.361 369.361 488.728 361.004 488.728 353.302 491.361 349.097 492.766 345.167 494.89 341.688 497.64 340.668 498.484 339.962 499.647 339.683 500.941L330.073 543.745C329.233 547.043 331.225 550.396 334.523 551.236 334.601 551.256 334.681 551.275 334.76 551.292 335.103 551.322 335.449 551.322 335.792 551.292 338.611 551.357 341.082 549.418 341.688 546.663L350.531 507.073 350.531 528.003 341.688 571.927 350.531 571.927 350.531 622.042 362.323 622.042 362.323 571.927 368.219 571.927 368.219 622.042 380.011 622.042 380.011 571.927 388.854 571.927 380.011 528.033 380.011 507.073 388.854 546.663C389.46 549.418 391.931 551.357 394.75 551.292 397.469 551.198 399.794 549.307 400.44 546.663Z" fill="#000000" fill-rule="nonzero" fill-opacity="1"/><path d="M456.656 471.698C456.656 479.838 450.057 486.438 441.917 486.438 433.776 486.438 427.177 479.838 427.177 471.698 427.177 463.557 433.776 456.958 441.917 456.958 450.057 456.958 456.656 463.557 456.656 471.698Z" fill="#000000" fill-rule="nonzero" fill-opacity="1"/><path d="M471.396 518.039 471.396 518.216 467.564 500.941C467.285 499.647 466.579 498.484 465.559 497.64 451.699 486.819 432.253 486.819 418.392 497.64 417.36 498.473 416.65 499.641 416.388 500.941L406.748 544.04C406.081 547.31 408.191 550.502 411.461 551.17 411.85 551.249 412.247 551.29 412.644 551.292 415.386 551.26 417.744 549.342 418.333 546.663L427.177 507.073 427.177 622.042 438.969 622.042 438.969 554.24 444.865 554.24 444.865 622.042 456.656 622.042 456.656 507.073 465.765 546.663C466.35 549.32 468.676 551.233 471.396 551.292 474.215 551.357 476.686 549.418 477.292 546.663Z" fill="#000000" fill-rule="nonzero" fill-opacity="1"/><path d="M571.92 584.102C565.462 606.521 542.052 619.46 519.633 613.001 501.507 607.78 489.039 591.173 489.083 572.31 489.083 571.927 489.083 571.544 489.083 571.131L484.514 555.831C474.371 581.295 486.791 610.159 512.254 620.302 537.717 630.445 566.582 618.026 576.725 592.562Z" fill="#000000" fill-rule="nonzero" fill-opacity="1"/><path d="M600.279 589.054 578.228 550.584C576.91 548.313 574.487 546.91 571.861 546.899L542.382 546.899C542.411 546.576 542.411 546.25 542.382 545.926L538.107 512.969C537.1 505.459 530.201 500.183 522.69 501.177 521.344 501.372 520.034 501.759 518.798 502.327 518.174 502.493 517.571 502.73 517 503.034L487.521 520.28C484.591 522.008 483.217 525.51 484.19 528.77L493.034 558.396C493.961 561.513 496.828 563.648 500.079 563.643 500.797 563.647 501.512 563.548 502.202 563.349 506.093 562.157 508.301 558.056 507.154 554.151L499.902 530.096 510.308 524.023 515.114 550.555C516.309 557.106 522.014 561.869 528.674 561.875 529.505 561.869 530.333 561.79 531.15 561.639L531.415 561.639 567.527 561.816 587.485 596.601C588.792 598.902 591.236 600.321 593.882 600.315 597.952 600.323 601.258 597.031 601.266 592.96 601.269 591.662 600.928 590.385 600.279 589.261Z" fill="#000000" fill-rule="nonzero" fill-opacity="1"/><path d="M537.842 482.428C537.842 490.569 531.243 497.168 523.102 497.168 514.962 497.168 508.363 490.569 508.363 482.428 508.363 474.288 514.962 467.689 523.102 467.689 531.243 467.689 537.842 474.288 537.842 482.428Z" fill="#000000" fill-rule="nonzero" fill-opacity="1"/></g></g></g><text fill="#000000" fill-opacity="1" font-family="Segoe Print,Segoe Print_MSFontService,sans-serif" font-style="normal" font-variant="normal" font-weight="700" font-stretch="normal" font-size="64" text-anchor="start" direction="ltr" writing-mode="lr-tb" unicode-bidi="normal" text-decoration="none" transform="matrix(1 0 0 1 374.52 723)">Lokale <tspan fill="#000000" fill-opacity="1" font-family="Segoe Print,Segoe Print_MSFontService,sans-serif" font-style="normal" font-variant="normal" font-weight="700" font-stretch="normal" font-size="64" text-anchor="start" direction="ltr" writing-mode="lr-tb" unicode-bidi="normal" text-decoration="none" x="-254.375" y="77">Innovationsräume mit </tspan><tspan fill="#000000" fill-opacity="1" font-family="Segoe Print,Segoe Print_MSFontService,sans-serif" font-style="normal" font-variant="normal" font-weight="700" font-stretch="normal" font-size="64" text-anchor="start" direction="ltr" writing-mode="lr-tb" unicode-bidi="normal" text-decoration="none" x="-233.75" y="154">Inklusionspotentialen</tspan></text><path d="M56.4999 702.5C49.3041 476.039 198.786 317.686 476.5 300.5 752.198 309.716 844.675 482.131 896.5 702.5 877.162 943.419 704.405 1126.93 476.5 1104.5 228.577 1095.76 81.1533 936.308 56.4999 702.5Z" stroke="#404040" stroke-width="4.58333" stroke-linecap="butt" stroke-linejoin="round" stroke-miterlimit="10" stroke-opacity="1" fill="none" fill-rule="evenodd"/><path d="M199.913 0.00599984C177.465 0.00599984 155.12 2.31594 133.045 6.84581 113.407 10.8537 94.4691 16.6555 77.3798 26.0633 55.665 38.069 35.5705 51.6766 18.0172 68.0921 17.0963 68.8901 15.9399 69.2921 14.3196 70.2941 14.7835 68.6921 14.7835 67.6901 15.012 66.8922 18.0172 55.8825 20.0945 44.6748 20.0945 33.2691 20.0945 30.6652 19.4021 28.0612 18.2457 25.6613 17.6848 24.3173 16.4315 23.6454 15.0605 23.6454 14.1949 23.6454 13.2809 23.9153 12.4708 24.4613 11.0859 25.6613 9.70103 27.4612 9.2371 29.2612 8.54466 31.8651 8.54466 34.4691 8.31616 37.271 6.69586 49.8766 5.31099 62.4883 0.927865 74.896 0 77.8959 0.692436 81.5018 1.15637 84.9037 1.38487 86.1036 2.76975 87.5016 3.92611 88.1076 6.51583 89.3856 9.25095 90.2795 12.2492 90.2795 12.997 90.2795 13.7656 90.2255 14.555 90.1055 29.567 88.5036 44.5791 86.9016 59.5911 85.3057 63.2887 84.6997 66.7509 83.9017 70.22 82.8997 72.9897 82.1018 74.8385 80.4998 74.1461 77.6979 73.4536 75.2979 70.677 72.694 67.9072 72.496 67.5056 72.436 67.0971 72.412 66.6816 72.412 65.6914 72.412 64.6597 72.55 63.5172 72.694 56.8213 73.492 49.89 74.698 42.9657 75.2979 39.3442 75.7959 35.7297 76.2219 31.8867 76.2219 29.5878 76.2219 27.2197 76.0719 24.7131 75.6939 27.7182 72.892 30.031 70.8941 32.3368 68.6921 47.3488 55.4805 64.2096 44.0748 82.4622 34.4691 89.3866 30.6652 96.5464 27.2633 104.17 24.6593 131.888 14.2556 161.22 9.64774 191.479 8.65176 197.289 8.47177 203.099 8.34577 208.901 8.34577 222.708 8.34577 236.488 9.05375 250.15 11.4537 272.321 15.2516 292.88 22.0614 312.282 32.2671 318.285 35.471 324.524 38.273 331.684 41.8729 330.528 36.671 326.837 34.6671 323.368 32.4651 298.655 16.0556 270.473 6.24583 239.756 2.44793 226.461 0.809978 213.173 0.00599984 199.913 0.00599984Z" fill="#000000" fill-rule="evenodd" fill-opacity="1" transform="matrix(-0.985051 0.172264 0.172264 0.985051 1157.99 294.969)"/><text fill="#000000" fill-opacity="1" font-family="Segoe Print,Segoe Print_MSFontService,sans-serif" font-style="normal" font-variant="normal" font-weight="700" font-stretch="normal" font-size="55" text-anchor="start" direction="ltr" writing-mode="lr-tb" unicode-bidi="normal" text-decoration="none" transform="matrix(1 0 0 1 731.971 147)">Expertise, Ressourcen, <tspan fill="#000000" fill-opacity="1" font-family="Segoe Print,Segoe Print_MSFontService,sans-serif" font-style="normal" font-variant="normal" font-weight="700" font-stretch="normal" font-size="55" text-anchor="start" direction="ltr" writing-mode="lr-tb" unicode-bidi="normal" text-decoration="none" x="-158.996" y="66">Herausforderungen und Lösungen </tspan><tspan fill="#000000" fill-opacity="1" font-family="Segoe Print,Segoe Print_MSFontService,sans-serif" font-style="normal" font-variant="normal" font-weight="700" font-stretch="normal" font-size="55" text-anchor="start" direction="ltr" writing-mode="lr-tb" unicode-bidi="normal" text-decoration="none" x="3.4375" y="132">aus lokalen Kontexten</tspan></text><path d="M221.105 0.00681491C196.276 0.00681491 171.563 2.63056 147.148 7.77582 125.429 12.3282 104.483 18.9182 85.5822 29.604 61.5656 43.2406 39.341 58.6968 19.9271 77.3425 18.9085 78.2488 17.6295 78.7054 15.8375 79.8435 16.3506 78.0239 16.3506 76.8859 16.6033 75.9795 19.9271 63.4741 22.2246 50.7439 22.2246 37.7887 22.2246 34.831 21.4587 31.8734 20.1798 29.1474 19.5595 27.6208 18.1733 26.8576 16.6569 26.8576 15.6996 26.8576 14.6887 27.1642 13.7927 27.7844 12.261 29.1474 10.7294 31.1919 10.2163 33.2363 9.45042 36.194 9.45042 39.1517 9.19769 42.3342 7.40564 56.6524 5.87396 70.9773 1.02622 85.0706 0 88.478 0.765836 92.5738 1.27895 96.4378 1.53167 97.8008 3.06334 99.3887 4.34229 100.077 7.20652 101.529 10.2316 102.544 13.5476 102.544 14.3747 102.544 15.2248 102.483 16.0979 102.346 32.7012 100.527 49.3045 98.7072 65.9079 96.8944 69.9974 96.2061 73.8266 95.2997 77.6634 94.1617 80.7268 93.2553 82.7716 91.4357 82.0057 88.2531 81.2399 85.5272 78.1689 82.5695 75.1055 82.3446 74.6614 82.2765 74.2095 82.2492 73.75 82.2492 72.6549 82.2492 71.5138 82.4059 70.2501 82.5695 62.8445 83.4759 55.1785 84.8457 47.5201 85.5272 43.5148 86.0928 39.5171 86.5767 35.2668 86.5767 32.7242 86.5767 30.105 86.4063 27.3327 85.977 30.6564 82.7944 33.2143 80.525 35.7645 78.0239 52.3679 63.0175 71.016 50.0624 91.2034 39.1517 98.8618 34.831 106.781 30.967 115.212 28.0093 145.869 16.1922 178.31 10.9584 211.777 9.82711 218.202 9.62266 224.627 9.47954 231.045 9.47954 246.316 9.47954 261.556 10.2837 276.666 13.0097 301.188 17.3235 323.926 25.0584 345.384 36.6506 352.024 40.2898 358.924 43.4723 366.843 47.5613 365.564 41.6528 361.482 39.3766 357.645 36.8755 330.313 18.2367 299.143 7.09433 265.171 2.78048 250.467 0.920013 235.77 0.00681491 221.105 0.00681491Z" fill="#000000" fill-rule="evenodd" fill-opacity="1" transform="matrix(0.993887 -0.110401 -0.110401 -0.993887 842.584 1113.91)"/><text fill="#000000" fill-opacity="1" font-family="Segoe Print,Segoe Print_MSFontService,sans-serif" font-style="normal" font-variant="normal" font-weight="700" font-stretch="normal" font-size="55" text-anchor="start" direction="ltr" writing-mode="lr-tb" unicode-bidi="normal" text-decoration="none" transform="matrix(1 0 0 1 655.982 1187)">Inspiration, Anerkennung, <tspan fill="#000000" fill-opacity="1" font-family="Segoe Print,Segoe Print_MSFontService,sans-serif" font-style="normal" font-variant="normal" font-weight="700" font-stretch="normal" font-size="55" text-anchor="start" direction="ltr" writing-mode="lr-tb" unicode-bidi="normal" text-decoration="none" x="-50.1188" y="66">Austausch, Arbeitsteilung und </tspan><tspan fill="#000000" fill-opacity="1" font-family="Segoe Print,Segoe Print_MSFontService,sans-serif" font-style="normal" font-variant="normal" font-weight="700" font-stretch="normal" font-size="55" text-anchor="start" direction="ltr" writing-mode="lr-tb" unicode-bidi="normal" text-decoration="none" x="151.548" y="132">Ko-konstruktion</tspan><tspan fill="#000000" fill-opacity="1" font-family="Segoe Print,Segoe Print_MSFontService,sans-serif" font-style="normal" font-variant="normal" font-weight="700" font-stretch="normal" font-size="64" text-anchor="start" direction="ltr" writing-mode="lr-tb" unicode-bidi="normal" text-decoration="none" x="542.966" y="-447">Anregung und Begleitung von </tspan><tspan fill="#000000" fill-opacity="1" font-family="Segoe Print,Segoe Print_MSFontService,sans-serif" font-style="normal" font-variant="normal" font-weight="700" font-stretch="normal" font-size="64" text-anchor="start" direction="ltr" writing-mode="lr-tb" unicode-bidi="normal" text-decoration="none" x="552.431" y="-370">sozialen Innovationsprozessen </tspan><tspan fill="#000000" fill-opacity="1" font-family="Segoe Print,Segoe Print_MSFontService,sans-serif" font-style="normal" font-variant="normal" font-weight="700" font-stretch="normal" font-size="64" text-anchor="start" direction="ltr" writing-mode="lr-tb" unicode-bidi="normal" text-decoration="none" x="559.008" y="-293">zur Umsetzung von Inklusion</tspan></text><path d="M1096.5 702.5C1016.08 430.871 1291 326.895 1688 300.5 2058.45 309.716 2227.64 482.131 2279.5 702.5 2222.32 980.36 2009.61 1132.51 1688 1104.5 1345.35 1095.76 1121.17 936.308 1096.5 702.5Z" stroke="#404040" stroke-width="4.58333" stroke-linecap="butt" stroke-linejoin="round" stroke-miterlimit="10" stroke-opacity="1" fill="none" fill-rule="evenodd"/><path d="M2276.95 1091.29C2302.2 1093.58 2327.57 1093.19 2352.88 1090.22 2375.38 1087.59 2397.29 1082.83 2417.5 1073.72 2443.17 1062.09 2467.2 1048.44 2488.66 1031.29 2489.78 1030.47 2491.12 1030.12 2493.05 1029.13 2492.36 1030.93 2492.25 1032.09 2491.91 1032.98 2487.38 1045.38 2483.87 1058.09 2482.68 1071.25 2482.41 1074.25 2482.92 1077.33 2483.97 1080.21 2484.46 1081.82 2485.8 1082.72 2487.34 1082.86 2488.31 1082.95 2489.37 1082.73 2490.34 1082.19 2492.02 1080.94 2493.77 1079.01 2494.48 1076.98 2495.53 1074.05 2495.8 1071.04 2496.35 1067.83 2499.49 1053.46 2502.36 1039.05 2508.59 1025.19 2509.95 1021.82 2509.55 1017.59 2509.38 1013.62 2509.25 1012.21 2507.84 1010.46 2506.6 1009.64 2503.82 1007.9 2500.84 1006.59 2497.47 1006.29 2496.62 1006.21 2495.75 1006.19 2494.85 1006.25 2477.8 1006.57 2460.75 1006.89 2443.7 1007.2 2439.47 1007.52 2435.5 1008.09 2431.49 1008.89 2428.29 1009.53 2426.04 1011.19 2426.53 1014.49 2427.06 1017.33 2429.91 1020.62 2433 1021.13 2433.45 1021.24 2433.91 1021.31 2434.37 1021.35 2435.49 1021.45 2436.66 1021.4 2437.96 1021.35 2445.58 1021.11 2453.5 1020.42 2461.35 1020.44 2465.48 1020.23 2469.59 1020.11 2473.91 1020.5 2476.49 1020.73 2479.14 1021.15 2481.92 1021.84 2478.25 1024.77 2475.44 1026.84 2472.61 1029.14 2454.35 1042.85 2434.19 1054.29 2412.66 1063.51 2404.47 1067.19 2396.06 1070.38 2387.21 1072.61 2354.95 1081.79 2321.48 1084.11 2287.34 1082.18 2280.78 1081.79 2274.24 1081.35 2267.71 1080.76 2252.18 1079.35 2236.75 1077.13 2221.64 1072.97 2197.1 1066.33 2174.68 1056.37 2153.93 1042.62 2147.51 1038.32 2140.78 1034.45 2133.11 1029.57 2133.86 1035.69 2137.81 1038.37 2141.48 1041.27 2167.56 1062.71 2198.23 1076.9 2232.39 1084.41 2247.17 1087.66 2262.03 1089.94 2276.95 1091.29Z" fill="#000000" fill-rule="evenodd" fill-opacity="1"/><text fill="#000000" fill-opacity="1" font-family="Segoe Print,Segoe Print_MSFontService,sans-serif" font-style="normal" font-variant="normal" font-weight="700" font-stretch="normal" font-size="55" text-anchor="start" direction="ltr" writing-mode="lr-tb" unicode-bidi="normal" text-decoration="none" transform="matrix(1 0 0 1 2034.91 132)">Expertise, Ressourcen, <tspan fill="#000000" fill-opacity="1" font-family="Segoe Print,Segoe Print_MSFontService,sans-serif" font-style="normal" font-variant="normal" font-weight="700" font-stretch="normal" font-size="55" text-anchor="start" direction="ltr" writing-mode="lr-tb" unicode-bidi="normal" text-decoration="none" x="-158.996" y="66">Herausforderungen und Lösungen </tspan><tspan fill="#000000" fill-opacity="1" font-family="Segoe Print,Segoe Print_MSFontService,sans-serif" font-style="normal" font-variant="normal" font-weight="700" font-stretch="normal" font-size="55" text-anchor="start" direction="ltr" writing-mode="lr-tb" unicode-bidi="normal" text-decoration="none" x="-38.6834" y="132">aus Domänen</tspan><tspan fill="#000000" fill-opacity="1" font-family="Segoe Print,Segoe Print_MSFontService,sans-serif" font-style="normal" font-variant="normal" font-weight="700" font-stretch="normal" font-size="55" text-anchor="start" direction="ltr" writing-mode="lr-tb" unicode-bidi="normal" text-decoration="none" x="334.285" y="132">-</tspan><tspan fill="#000000" fill-opacity="1" font-family="Segoe Print,Segoe Print_MSFontService,sans-serif" font-style="normal" font-variant="normal" font-weight="700" font-stretch="normal" font-size="55" text-anchor="start" direction="ltr" writing-mode="lr-tb" unicode-bidi="normal" text-decoration="none" x="369.233" y="132">Kontexten</tspan></text><path d="M2382.03 308.628C2356.81 307.317 2331.58 308.318 2306.55 311.552 2284.28 314.407 2262.7 319.095 2243.01 327.492 2217.99 338.212 2194.71 350.628 2174.14 365.996 2173.06 366.739 2171.74 367.073 2169.87 367.978 2170.48 366.406 2170.53 365.405 2170.83 364.622 2174.77 353.802 2177.69 342.731 2178.28 331.341 2178.42 328.74 2177.77 326.1 2176.6 323.635 2176.04 322.26 2174.67 321.516 2173.13 321.436 2172.15 321.385 2171.11 321.602 2170.17 322.1 2168.56 323.217 2166.91 324.934 2166.29 326.704 2165.38 329.264 2165.24 331.864 2164.84 334.649 2162.37 347.143 2160.16 359.657 2154.59 371.792 2153.39 374.733 2153.98 378.375 2154.32 381.799 2154.52 383.011 2156 384.488 2157.27 385.161 2160.11 386.588 2163.14 387.641 2166.51 387.816 2167.35 387.86 2168.21 387.851 2169.11 387.777 2186.06 387.054 2203 386.331 2219.95 385.615 2224.14 385.226 2228.07 384.631 2232.02 383.833 2235.17 383.198 2237.33 381.706 2236.7 378.868 2236.05 376.43 2233.06 373.668 2229.96 373.308 2229.51 373.225 2229.05 373.177 2228.59 373.153 2227.48 373.095 2226.31 373.172 2225.02 373.249 2217.45 373.655 2209.6 374.455 2201.79 374.649 2197.7 374.935 2193.62 375.149 2189.3 374.925 2186.72 374.79 2184.06 374.502 2181.27 373.978 2184.79 371.356 2187.49 369.496 2190.2 367.431 2207.75 355.115 2227.28 344.709 2248.29 336.183 2256.26 332.789 2264.48 329.81 2273.18 327.655 2304.87 318.884 2338.06 315.996 2372.1 316.77 2378.64 316.929 2385.17 317.143 2391.69 317.482 2407.2 318.289 2422.65 319.801 2437.87 322.996 2462.58 328.084 2485.33 336.085 2506.59 347.411 2513.17 350.961 2520.04 354.124 2527.89 358.137 2526.86 352.875 2522.82 350.658 2519.04 348.256 2492.13 330.425 2460.97 318.982 2426.66 313.395 2411.81 310.982 2396.93 309.403 2382.03 308.628Z" fill="#000000" fill-rule="evenodd" fill-opacity="1"/><text fill="#000000" fill-opacity="1" font-family="Segoe Print,Segoe Print_MSFontService,sans-serif" font-style="normal" font-variant="normal" font-weight="700" font-stretch="normal" font-size="64" text-anchor="start" direction="ltr" writing-mode="lr-tb" unicode-bidi="normal" text-decoration="none" transform="matrix(1 0 0 1 2533.78 740)">Unterstützende von <tspan fill="#000000" fill-opacity="1" font-family="Segoe Print,Segoe Print_MSFontService,sans-serif" font-style="normal" font-variant="normal" font-weight="700" font-stretch="normal" font-size="64" text-anchor="start" direction="ltr" writing-mode="lr-tb" unicode-bidi="normal" text-decoration="none" x="16.0415" y="77">und Forschende zu </tspan><tspan fill="#000000" fill-opacity="1" font-family="Segoe Print,Segoe Print_MSFontService,sans-serif" font-style="normal" font-variant="normal" font-weight="700" font-stretch="normal" font-size="64" text-anchor="start" direction="ltr" writing-mode="lr-tb" unicode-bidi="normal" text-decoration="none" x="177.329" y="154">Inklusion</tspan></text><g clip-path="url(#clip7)"><g clip-path="url(#clip8)"><g clip-path="url(#clip9)"><path d="M248.029 68.0492 273.571 35.5364 230.762 40.6457 226.285 36.2948C204.879 16.107 173.972 6.90653 143.32 14.5715 125.764 18.9636 110.752 28.2836 99.3501 40.6745L56.5424 35.5693 82.0828 68.078C75.3411 84.9043 73.6325 103.913 78.3626 122.836 90.3166 170.662 138.788 199.737 186.62 187.779 232.39 176.334 261.168 131.574 253.076 85.8235 252.003 79.7084 249.507 72.5876 248.029 68.0492ZM184.58 179.605C141.327 190.421 97.3488 164.038 86.5367 120.797 82.3919 104.216 83.5543 87.0766 89.9044 71.2149 90.5701 69.5414 90.6731 67.7359 90.2527 66.0438 89.9724 64.9102 89.4489 63.8323 88.7069 62.8863L75.7162 46.3465 98.3567 49.0444C101.042 49.3638 103.722 48.3766 105.548 46.3836 116.244 34.7676 130.014 26.5935 145.365 22.7559 173.993 15.5917 202.915 24.7675 222.351 44.3102 224.931 46.872 227.837 49.471 231.753 49.0073L254.391 46.3094 241.401 62.8451C239.556 65.1885 239.103 68.4078 240.201 71.1737 241.287 74.6239 242.524 78.0452 243.406 81.5572 254.224 124.81 227.821 168.788 184.58 179.605Z" fill="#000000" fill-rule="nonzero" fill-opacity="1" transform="matrix(1 0 0 1.00183 2684.47 430)"/><path d="M314.949 25.5816C314.949 33.1636 308.802 39.3101 301.22 39.3101 293.638 39.3101 287.492 33.1636 287.492 25.5816 287.492 17.9995 293.638 11.853 301.22 11.853 308.802 11.853 314.949 17.9995 314.949 25.5816Z" fill="#000000" fill-rule="nonzero" fill-opacity="1" transform="matrix(1 0 0 1.00183 2684.47 430)"/><path d="M326.75 62.0557C319.815 50.5675 310.649 44.2958 300.954 44.3803 291.305 44.4689 282.32 50.8581 275.655 62.3607 268.901 74.0138 264.653 90.6443 263.382 110.447 263.2 113.254 265.329 115.684 268.145 115.867 270.962 116.053 273.382 113.915 273.563 111.102 274.738 92.8661 278.51 77.7814 284.485 67.4783 285.161 66.3138 285.857 65.2214 286.574 64.2053L275.721 127.325 285.647 127.325 285.647 183.877C285.647 187.513 288.59 190.454 292.22 190.454 295.859 190.454 298.805 187.507 298.805 183.877L298.805 127.32 303.644 127.32 303.644 183.918C303.644 187.554 306.595 190.499 310.229 190.499 313.861 190.499 316.81 187.55 316.81 183.918L316.81 127.32 326.725 127.32 315.854 64.0714C316.589 65.0813 317.315 66.1674 318.016 67.3278 324.24 77.6371 328.341 92.8063 329.862 111.191 330.083 113.856 332.313 115.871 334.943 115.871 335.079 115.871 335.225 115.863 335.369 115.853 338.17 115.622 340.26 113.153 340.027 110.348 338.372 90.4032 333.778 73.7026 326.75 62.0557Z" fill="#000000" fill-rule="nonzero" fill-opacity="1" transform="matrix(1 0 0 1.00183 2684.47 430)"/><path d="M41.6453 25.5816C41.6453 33.1636 35.4988 39.3101 27.9167 39.3101 20.3346 39.3101 14.1882 33.1636 14.1882 25.5816 14.1882 17.9995 20.3346 11.853 27.9167 11.853 35.4988 11.853 41.6453 17.9995 41.6453 25.5816Z" fill="#000000" fill-rule="nonzero" fill-opacity="1" transform="matrix(1 0 0 1.00183 2684.47 430)"/><path d="M27.6508 44.3803C18.0031 44.4689 9.01703 50.8581 2.3537 62.3607-4.40237 74.0138-8.64604 90.6443-9.91976 110.447-10.1011 113.254-7.97208 115.684-5.15671 115.867-2.33927 116.053 0.0803803 113.915 0.257629 111.102 1.43242 92.8661 5.20617 77.7814 11.1811 67.4783 11.8551 66.3138 12.5538 65.2214 13.271 64.2053L2.41759 127.32 12.3415 127.32 12.3415 183.873C12.3415 187.509 15.2867 190.45 18.9162 190.45 22.556 190.45 25.5012 187.503 25.5012 183.873L25.5012 127.32 30.3405 127.32 30.3405 183.918C30.3405 187.554 33.2919 190.499 36.9234 190.499 40.555 190.499 43.5043 187.55 43.5043 183.918L43.5043 127.32 53.422 127.32 42.5501 64.0714C43.2858 65.0813 44.0113 66.1674 44.7121 67.3278 50.9364 77.6371 55.0358 92.8063 56.5589 111.191 56.7794 113.856 59.0095 115.871 61.6352 115.871 61.7733 115.871 61.9197 115.863 62.0619 115.853 64.8649 115.622 66.9548 113.153 66.7219 110.348 65.0669 90.4011 60.4749 73.7005 53.4467 62.0536 46.5072 50.5675 37.3459 44.2958 27.6508 44.3803Z" fill="#000000" fill-rule="nonzero" fill-opacity="1" transform="matrix(1 0 0 1.00183 2684.47 430)"/><path d="M189.941 83.4492C189.797 83.4492 170.825 83.4492 170.825 83.3029L170.825 62.0186C170.969 55.9344 161.121 55.9344 161.266 62.0186L161.266 83.3029C161.266 83.4492 143.308 83.3029 142.15 83.4492L122.889 129.647C126.945 139.349 133.316 144.126 141.861 144.126 150.404 144.126 156.777 139.349 160.686 129.792L147.073 91.2709 185.303 91.2709 171.404 129.794C175.314 139.351 181.688 144.128 190.229 144.128 198.774 144.128 205.145 139.351 209.199 129.647L189.941 83.4492ZM152.432 129.794C152.286 129.794 131.144 129.794 131.288 129.649 131.579 129.357 141.57 102.565 141.57 102.565 142.147 100.83 142.582 100.83 143.162 102.565L152.432 129.794ZM200.656 129.064 179.803 129.064C179.368 129.064 182.698 119.218 188.927 102.275 189.506 100.828 189.941 100.828 190.52 102.275 200.512 128.343 200.656 128.92 200.656 129.064Z" fill="#000000" fill-rule="nonzero" fill-opacity="1" transform="matrix(1 0 0 1.00183 2684.47 430)"/><text fill="#000000" fill-opacity="1" font-family="Helvetica Neue,Helvetica Neue_MSFontService,sans-serif" font-style="normal" font-variant="normal" font-weight="700" font-stretch="normal" font-size="5" text-anchor="start" direction="ltr" writing-mode="lr-tb" unicode-bidi="normal" text-decoration="none" transform="matrix(2.06103 0 0 2.0648 2672.53 656)">Created by corpus delicti<tspan fill="#000000" fill-opacity="1" font-family="Helvetica Neue,Helvetica Neue_MSFontService,sans-serif" font-style="normal" font-variant="normal" font-weight="700" font-stretch="normal" font-size="5" text-anchor="start" direction="ltr" writing-mode="lr-tb" unicode-bidi="normal" text-decoration="none" x="0" y="4.84307">from the Noun Project</tspan></text></g></g></g><path d="M2432.5 714.5C2425.3 488.039 2574.79 329.687 2852.5 312.5 3128.2 321.716 3220.68 494.131 3272.5 714.5 3253.16 955.419 3080.4 1138.93 2852.5 1116.5 2604.58 1107.76 2457.15 948.308 2432.5 714.5Z" stroke="#404040" stroke-width="4.58333" stroke-linecap="butt" stroke-linejoin="round" stroke-miterlimit="10" stroke-opacity="1" fill="none" fill-rule="evenodd"/><text fill="#000000" fill-opacity="1" font-family="Segoe Print,Segoe Print_MSFontService,sans-serif" font-style="normal" font-variant="normal" font-weight="700" font-stretch="normal" font-size="55" text-anchor="start" direction="ltr" writing-mode="lr-tb" unicode-bidi="normal" text-decoration="none" transform="matrix(1 0 0 1 1956.75 1187)">Inspiration, Anerkennung, <tspan fill="#000000" fill-opacity="1" font-family="Segoe Print,Segoe Print_MSFontService,sans-serif" font-style="normal" font-variant="normal" font-weight="700" font-stretch="normal" font-size="55" text-anchor="start" direction="ltr" writing-mode="lr-tb" unicode-bidi="normal" text-decoration="none" x="-50.1187" y="66">Austausch, Arbeitsteilung und </tspan><tspan fill="#000000" fill-opacity="1" font-family="Segoe Print,Segoe Print_MSFontService,sans-serif" font-style="normal" font-variant="normal" font-weight="700" font-stretch="normal" font-size="55" text-anchor="start" direction="ltr" writing-mode="lr-tb" unicode-bidi="normal" text-decoration="none" x="151.548" y="132">Ko-konstruktion</tspan></text></g></svg>