<svg width="1980" height="1196" xmlns="http://www.w3.org/2000/svg" xmlns:xlink="http://www.w3.org/1999/xlink" overflow="hidden"><defs><clipPath id="clip0"><rect x="0" y="0" width="1980" height="1196"/></clipPath></defs><g clip-path="url(#clip0)"><path d="M632.5 373C632.5 175.558 792.782 15.5 990.5 15.5 1188.22 15.5 1348.5 175.558 1348.5 373 1348.5 570.442 1188.22 730.5 990.5 730.5 792.782 730.5 632.5 570.442 632.5 373Z" stroke="#FFFFFF" stroke-width="4.58333" stroke-linecap="butt" stroke-linejoin="miter" stroke-miterlimit="8" stroke-opacity="1" fill="#BF403C" fill-rule="evenodd" fill-opacity="0.901961"/><text fill="#000000" fill-opacity="1" font-family="Arial,Arial_MSFontService,sans-serif" font-style="normal" font-variant="normal" font-weight="700" font-stretch="normal" font-size="55" text-anchor="start" direction="ltr" writing-mode="lr-tb" unicode-bidi="normal" text-decoration="none" transform="matrix(1 0 0 1 847.813 318)">Sekretariat</text><path d="M890.5 820C890.5 622.558 1050.78 462.5 1248.5 462.5 1446.22 462.5 1606.5 622.558 1606.5 820 1606.5 1017.44 1446.22 1177.5 1248.5 1177.5 1050.78 1177.5 890.5 1017.44 890.5 820Z" stroke="#FFFFFF" stroke-width="4.58333" stroke-linecap="butt" stroke-linejoin="miter" stroke-miterlimit="8" stroke-opacity="1" fill="#D8A818" fill-rule="evenodd" fill-opacity="0.901961"/><text fill="#000000" fill-opacity="1" font-family="Arial,Arial_MSFontService,sans-serif" font-style="normal" font-variant="normal" font-weight="700" font-stretch="normal" font-size="55" text-anchor="start" direction="ltr" writing-mode="lr-tb" unicode-bidi="normal" text-decoration="none" transform="matrix(1 0 0 1 1123.64 860)">Unterstützende</text><path d="M374.5 820C374.5 622.558 534.782 462.5 732.5 462.5 930.218 462.5 1090.5 622.558 1090.5 820 1090.5 1017.44 930.218 1177.5 732.5 1177.5 534.782 1177.5 374.5 1017.44 374.5 820Z" stroke="#FFFFFF" stroke-width="4.58333" stroke-linecap="butt" stroke-linejoin="miter" stroke-miterlimit="8" stroke-opacity="1" fill="#72A41B" fill-rule="evenodd" fill-opacity="0.901961"/><text fill="#000000" fill-opacity="1" font-family="Arial,Arial_MSFontService,sans-serif" font-style="normal" font-variant="normal" font-weight="700" font-stretch="normal" font-size="55" text-anchor="start" direction="ltr" writing-mode="lr-tb" unicode-bidi="normal" text-decoration="none" transform="matrix(1 0 0 1 497.278 860)">Mitwirkende</text></g></svg>