<?xml version="1.0" encoding="UTF-8" standalone="no"?>
<!DOCTYPE svg PUBLIC "-//W3C//DTD SVG 1.1//EN" "http://www.w3.org/Graphics/SVG/1.1/DTD/svg11.dtd">
<svg width="100%" height="100%" viewBox="0 0 2945 862" version="1.1" xmlns="http://www.w3.org/2000/svg" xmlns:xlink="http://www.w3.org/1999/xlink" xml:space="preserve" xmlns:serif="http://www.serif.com/" style="fill-rule:evenodd;clip-rule:evenodd;stroke-linecap:round;stroke-linejoin:round;">
    <g>
        <g transform="matrix(1,0,0,1,0,-23)">
            <circle cx="524.409" cy="377.008" r="170.079" style="fill:none;stroke:rgb(64,64,64);stroke-width:20px;"/>
            <path d="M601.449,435.685L447.37,435.685C442.952,435.685 439.37,439.267 439.37,443.685L439.37,597.764C439.37,602.182 442.952,605.764 447.37,605.764L601.449,605.764C605.867,605.764 609.449,602.182 609.449,597.764L609.449,443.685C609.449,439.267 605.867,435.685 601.449,435.685Z" style="fill:rgb(191,64,60);fill-rule:nonzero;stroke:rgb(64,64,64);stroke-width:1px;stroke-linecap:butt;stroke-miterlimit:2;"/>
            <path d="M601.449,435.685L447.37,435.685C442.952,435.685 439.37,439.267 439.37,443.685L439.37,597.764C439.37,602.182 442.952,605.764 447.37,605.764L601.449,605.764C605.867,605.764 609.449,602.182 609.449,597.764L609.449,443.685C609.449,439.267 605.867,435.685 601.449,435.685Z" style="fill:none;fill-rule:nonzero;stroke:rgb(64,64,64);stroke-width:20px;"/>
            <path d="M447.754,348.422L375.659,204.232C373.683,200.28 368.878,198.678 364.926,200.654C363.378,201.429 362.123,202.684 361.349,204.232L289.253,348.422C287.277,352.374 288.879,357.18 292.831,359.155C293.942,359.711 295.167,360 296.409,360L440.599,360C445.017,360 448.599,356.418 448.599,352C448.599,350.758 448.31,349.533 447.754,348.422Z" style="fill:rgb(114,164,27);fill-rule:nonzero;stroke:rgb(64,64,64);stroke-width:1px;stroke-linecap:butt;stroke-miterlimit:2;"/>
            <path d="M447.754,348.422L375.659,204.232C373.683,200.28 368.878,198.678 364.926,200.654C363.378,201.429 362.123,202.684 361.349,204.232L289.253,348.422C287.277,352.374 288.879,357.18 292.831,359.155C293.942,359.711 295.167,360 296.409,360L440.599,360C445.017,360 448.599,356.418 448.599,352C448.599,350.758 448.31,349.533 447.754,348.422Z" style="fill:none;fill-rule:nonzero;stroke:rgb(64,64,64);stroke-width:20px;"/>
            <circle cx="680.315" cy="274.961" r="85.04" style="fill:rgb(216,168,24);stroke:rgb(64,64,64);stroke-width:1px;stroke-linecap:butt;stroke-miterlimit:2;"/>
            <circle cx="680.315" cy="274.961" r="85.04" style="fill:none;stroke:rgb(64,64,64);stroke-width:20px;"/>
        </g>
        <g transform="matrix(1,0,0,1,0,-23)">
            <path d="M941.772,110.551L101.378,110.551C98.617,110.551 96.378,112.79 96.378,115.551L96.378,814.213C96.378,816.974 98.617,819.213 101.378,819.213L941.772,819.213C944.533,819.213 946.772,816.974 946.772,814.213L946.772,115.551C946.772,112.79 944.533,110.551 941.772,110.551Z" style="fill:none;fill-rule:nonzero;stroke:rgb(64,64,64);stroke-width:20px;"/>
        </g>
        <g transform="matrix(1,0,0,1,0,-23)">
            <path d="M864.596,413.858C864.596,413.858 880.344,467.717 874.674,515.905C869.005,564.095 866.17,566.929 857.666,586.772C849.162,606.614 837.824,640.63 820.816,657.638C803.808,674.646 792.47,685.984 747.115,734.173C701.761,782.362 710.265,810.709 710.265,810.709L605.383,810.709C605.383,810.709 598.139,788.032 608.218,748.346C618.296,708.661 634.989,683.15 646.328,668.976C657.666,654.803 667.745,637.795 690.422,606.614C713.099,575.433 730.107,527.244 732.942,515.905C735.777,504.567 741.446,473.386 741.446,473.386C741.446,473.386 764.123,459.213 769.792,490.394C775.462,521.575 769.792,527.244 766.958,538.583C764.123,549.921 755.619,569.764 755.619,569.764L738.611,615.118C738.611,615.118 809.477,569.764 826.485,530.079C843.493,490.394 837.509,467.717 841.918,436.535C846.328,405.354 864.596,413.858 864.596,413.858Z" style="fill:rgb(64,64,64);fill-rule:nonzero;"/>
            <path d="M864.596,413.858C864.596,413.858 880.344,467.717 874.674,515.905C869.005,564.095 866.17,566.929 857.666,586.772C849.162,606.614 837.824,640.63 820.816,657.638C803.808,674.646 792.47,685.984 747.115,734.173C701.761,782.362 710.265,810.709 710.265,810.709L605.383,810.709C605.383,810.709 598.139,788.032 608.218,748.346C618.296,708.661 634.989,683.15 646.328,668.976C657.666,654.803 667.745,637.795 690.422,606.614C713.099,575.433 730.107,527.244 732.942,515.905C735.777,504.567 741.446,473.386 741.446,473.386C741.446,473.386 764.123,459.213 769.792,490.394C775.462,521.575 769.792,527.244 766.958,538.583C764.123,549.921 755.619,569.764 755.619,569.764L738.611,615.118C738.611,615.118 809.477,569.764 826.485,530.079C843.493,490.394 837.509,467.717 841.918,436.535C846.328,405.354 864.596,413.858 864.596,413.858Z" style="fill:rgb(64,64,64);fill-rule:nonzero;stroke:rgb(53,102,128);stroke-width:1px;"/>
            <path d="M186.142,413.858C186.142,413.858 170.394,467.717 176.063,515.905C181.732,564.095 184.567,566.929 193.071,586.772C201.575,606.614 212.914,640.63 229.921,657.638C246.929,674.646 258.268,685.984 303.622,734.173C348.977,782.362 340.473,810.709 340.473,810.709L445.355,810.709C445.355,810.709 452.599,788.032 442.52,748.346C432.441,708.661 415.748,683.15 404.41,668.976C393.071,654.803 382.992,637.795 360.315,606.614C337.638,575.433 320.63,527.244 317.795,515.905C314.961,504.567 309.292,473.386 309.292,473.386C309.292,473.386 286.614,459.213 280.945,490.394C275.276,521.575 280.945,527.244 283.78,538.583C286.614,549.921 295.118,569.764 295.118,569.764L312.126,615.118C312.126,615.118 241.26,569.764 224.252,530.079C207.244,490.394 213.229,467.717 208.819,436.535C204.41,405.354 186.142,413.858 186.142,413.858Z" style="fill:rgb(64,64,64);fill-rule:nonzero;"/>
            <path d="M186.142,413.858C186.142,413.858 170.394,467.717 176.063,515.905C181.732,564.095 184.567,566.929 193.071,586.772C201.575,606.614 212.914,640.63 229.921,657.638C246.929,674.646 258.268,685.984 303.622,734.173C348.977,782.362 340.473,810.709 340.473,810.709L445.355,810.709C445.355,810.709 452.599,788.032 442.52,748.346C432.441,708.661 415.748,683.15 404.41,668.976C393.071,654.803 382.992,637.795 360.315,606.614C337.638,575.433 320.63,527.244 317.795,515.905C314.961,504.567 309.292,473.386 309.292,473.386C309.292,473.386 286.614,459.213 280.945,490.394C275.276,521.575 280.945,527.244 283.78,538.583C286.614,549.921 295.118,569.764 295.118,569.764L312.126,615.118C312.126,615.118 241.26,569.764 224.252,530.079C207.244,490.394 213.229,467.717 208.819,436.535C204.41,405.354 186.142,413.858 186.142,413.858Z" style="fill:rgb(64,64,64);fill-rule:nonzero;stroke:rgb(53,102,128);stroke-width:1px;"/>
        </g>
        <g transform="matrix(1,0,0,1,0,-23)">
            <g transform="matrix(1,0,0,1,1020.84,395.845)">
                <g transform="matrix(290,0,0,290,0,0)">
                    <rect x="0.077" y="-0.714" width="0.068" height="0.714" style="fill:rgb(64,64,64);fill-rule:nonzero;"/>
                </g>
                <g transform="matrix(290,0,0,290,64.38,0)">
                    <path d="M0.059,-0.516L0.059,-0L0.122,-0L0.122,-0.301C0.123,-0.326 0.127,-0.35 0.135,-0.372C0.142,-0.393 0.153,-0.412 0.167,-0.428C0.18,-0.443 0.197,-0.456 0.217,-0.465C0.236,-0.474 0.259,-0.478 0.284,-0.478C0.309,-0.478 0.331,-0.474 0.348,-0.466C0.365,-0.458 0.378,-0.447 0.388,-0.433C0.398,-0.419 0.405,-0.403 0.409,-0.384C0.413,-0.365 0.415,-0.344 0.415,-0.322L0.415,-0L0.478,-0L0.478,-0.332C0.478,-0.363 0.475,-0.39 0.469,-0.415C0.463,-0.44 0.453,-0.46 0.438,-0.478C0.423,-0.495 0.404,-0.508 0.38,-0.517C0.355,-0.526 0.325,-0.531 0.289,-0.531C0.252,-0.531 0.219,-0.522 0.188,-0.503C0.157,-0.484 0.136,-0.458 0.124,-0.427L0.122,-0.427L0.122,-0.516L0.059,-0.516Z" style="fill:rgb(64,64,64);fill-rule:nonzero;"/>
                </g>
                <g transform="matrix(290,0,0,290,220.11,0)">
                    <path d="M0.059,-0.516L0.059,-0L0.122,-0L0.122,-0.301C0.123,-0.326 0.127,-0.35 0.135,-0.372C0.142,-0.393 0.153,-0.412 0.167,-0.428C0.18,-0.443 0.197,-0.456 0.217,-0.465C0.236,-0.474 0.259,-0.478 0.284,-0.478C0.309,-0.478 0.331,-0.474 0.348,-0.466C0.365,-0.458 0.378,-0.447 0.388,-0.433C0.398,-0.419 0.405,-0.403 0.409,-0.384C0.413,-0.365 0.415,-0.344 0.415,-0.322L0.415,-0L0.478,-0L0.478,-0.332C0.478,-0.363 0.475,-0.39 0.469,-0.415C0.463,-0.44 0.453,-0.46 0.438,-0.478C0.423,-0.495 0.404,-0.508 0.38,-0.517C0.355,-0.526 0.325,-0.531 0.289,-0.531C0.252,-0.531 0.219,-0.522 0.188,-0.503C0.157,-0.484 0.136,-0.458 0.124,-0.427L0.122,-0.427L0.122,-0.516L0.059,-0.516Z" style="fill:rgb(64,64,64);fill-rule:nonzero;"/>
                </g>
                <g transform="matrix(290,0,0,290,375.84,0)">
                    <path d="M0.278,-0.478C0.308,-0.478 0.334,-0.472 0.357,-0.459C0.38,-0.446 0.399,-0.43 0.414,-0.409C0.429,-0.388 0.44,-0.365 0.448,-0.339C0.455,-0.312 0.459,-0.285 0.459,-0.258C0.459,-0.231 0.455,-0.204 0.448,-0.178C0.44,-0.151 0.429,-0.128 0.414,-0.107C0.399,-0.086 0.38,-0.07 0.357,-0.057C0.334,-0.044 0.308,-0.038 0.278,-0.038C0.248,-0.038 0.222,-0.044 0.199,-0.057C0.176,-0.07 0.158,-0.086 0.143,-0.107C0.128,-0.128 0.116,-0.151 0.109,-0.178C0.101,-0.204 0.097,-0.231 0.097,-0.258C0.097,-0.285 0.101,-0.312 0.109,-0.339C0.116,-0.365 0.128,-0.388 0.143,-0.409C0.158,-0.43 0.176,-0.446 0.199,-0.459C0.222,-0.472 0.248,-0.478 0.278,-0.478ZM0.278,-0.531C0.239,-0.531 0.204,-0.524 0.174,-0.509C0.143,-0.494 0.118,-0.475 0.097,-0.45C0.076,-0.425 0.061,-0.397 0.05,-0.364C0.039,-0.331 0.034,-0.295 0.034,-0.258C0.034,-0.221 0.039,-0.186 0.05,-0.153C0.061,-0.12 0.076,-0.091 0.097,-0.066C0.118,-0.041 0.143,-0.022 0.174,-0.008C0.204,0.007 0.239,0.014 0.278,0.014C0.317,0.014 0.352,0.007 0.383,-0.008C0.413,-0.022 0.438,-0.041 0.459,-0.066C0.48,-0.091 0.495,-0.12 0.506,-0.153C0.517,-0.186 0.522,-0.221 0.522,-0.258C0.522,-0.295 0.517,-0.331 0.506,-0.364C0.495,-0.397 0.48,-0.425 0.459,-0.45C0.438,-0.475 0.413,-0.494 0.383,-0.509C0.352,-0.524 0.317,-0.531 0.278,-0.531Z" style="fill:rgb(64,64,64);fill-rule:nonzero;"/>
                </g>
                <g transform="matrix(290,0,0,290,537.08,0)">
                    <path d="M0.002,-0.516L0.201,-0L0.268,-0L0.461,-0.516L0.396,-0.516L0.236,-0.063L0.234,-0.063L0.072,-0.516L0.002,-0.516Z" style="fill:rgb(64,64,64);fill-rule:nonzero;"/>
                </g>
                <g transform="matrix(290,0,0,290,671.35,0)">
                    <path d="M0.054,-0.358L0.117,-0.358C0.118,-0.4 0.132,-0.431 0.157,-0.45C0.182,-0.468 0.215,-0.478 0.255,-0.478C0.274,-0.478 0.291,-0.476 0.308,-0.474C0.324,-0.471 0.338,-0.465 0.351,-0.457C0.363,-0.449 0.373,-0.438 0.38,-0.425C0.387,-0.411 0.39,-0.393 0.39,-0.372C0.39,-0.358 0.388,-0.347 0.385,-0.338C0.381,-0.329 0.376,-0.323 0.369,-0.318C0.362,-0.313 0.354,-0.309 0.344,-0.307C0.334,-0.305 0.322,-0.303 0.309,-0.302C0.275,-0.298 0.242,-0.294 0.209,-0.29C0.175,-0.285 0.146,-0.278 0.12,-0.267C0.093,-0.256 0.072,-0.241 0.056,-0.221C0.04,-0.2 0.032,-0.172 0.032,-0.136C0.032,-0.11 0.037,-0.088 0.046,-0.069C0.055,-0.05 0.067,-0.034 0.083,-0.022C0.098,-0.009 0.117,-0 0.138,0.006C0.159,0.011 0.181,0.014 0.205,0.014C0.23,0.014 0.252,0.012 0.271,0.007C0.289,0.002 0.305,-0.004 0.32,-0.013C0.334,-0.022 0.347,-0.033 0.359,-0.046C0.37,-0.058 0.382,-0.073 0.393,-0.09L0.395,-0.09C0.395,-0.077 0.396,-0.065 0.398,-0.054C0.399,-0.043 0.403,-0.033 0.408,-0.025C0.413,-0.017 0.421,-0.011 0.431,-0.007C0.44,-0.002 0.453,-0 0.469,-0C0.478,-0 0.485,-0 0.491,-0.001C0.496,-0.002 0.503,-0.003 0.51,-0.004L0.51,-0.057C0.504,-0.054 0.497,-0.053 0.49,-0.053C0.465,-0.053 0.453,-0.066 0.453,-0.091L0.453,-0.365C0.453,-0.4 0.447,-0.428 0.436,-0.45C0.425,-0.471 0.41,-0.488 0.392,-0.5C0.374,-0.512 0.354,-0.52 0.331,-0.525C0.308,-0.529 0.286,-0.531 0.263,-0.531C0.233,-0.531 0.206,-0.528 0.181,-0.521C0.156,-0.514 0.135,-0.504 0.117,-0.49C0.098,-0.476 0.084,-0.458 0.073,-0.436C0.062,-0.414 0.056,-0.388 0.054,-0.358ZM0.39,-0.282L0.39,-0.2C0.39,-0.175 0.385,-0.152 0.376,-0.132C0.366,-0.112 0.353,-0.095 0.337,-0.081C0.32,-0.067 0.301,-0.056 0.279,-0.049C0.257,-0.042 0.234,-0.038 0.21,-0.038C0.195,-0.038 0.181,-0.04 0.167,-0.045C0.153,-0.05 0.141,-0.057 0.13,-0.066C0.119,-0.075 0.111,-0.085 0.105,-0.098C0.098,-0.11 0.095,-0.124 0.095,-0.14C0.095,-0.165 0.102,-0.185 0.118,-0.199C0.133,-0.212 0.152,-0.223 0.175,-0.23C0.198,-0.237 0.224,-0.243 0.253,-0.247C0.281,-0.25 0.308,-0.254 0.335,-0.259C0.344,-0.26 0.354,-0.263 0.365,-0.266C0.376,-0.269 0.384,-0.275 0.388,-0.282L0.39,-0.282Z" style="fill:rgb(64,64,64);fill-rule:nonzero;"/>
                </g>
                <g transform="matrix(290,0,0,290,821.86,0)">
                    <path d="M0.16,-0.516L0.16,-0.671L0.097,-0.671L0.097,-0.516L0.007,-0.516L0.007,-0.463L0.097,-0.463L0.097,-0.11C0.096,-0.066 0.104,-0.036 0.121,-0.02C0.138,-0.003 0.167,0.005 0.209,0.005C0.218,0.005 0.228,0.005 0.237,0.004C0.246,0.003 0.256,0.003 0.265,0.003L0.265,-0.05C0.247,-0.048 0.229,-0.047 0.211,-0.047C0.188,-0.048 0.174,-0.055 0.169,-0.067C0.163,-0.078 0.16,-0.094 0.16,-0.115L0.16,-0.463L0.265,-0.463L0.265,-0.516L0.16,-0.516Z" style="fill:rgb(64,64,64);fill-rule:nonzero;"/>
                </g>
                <g transform="matrix(290,0,0,290,907.7,0)">
                    <path d="M0.061,-0.714L0.061,-0.613L0.124,-0.613L0.124,-0.714L0.061,-0.714ZM0.061,-0.516L0.061,-0L0.124,-0L0.124,-0.516L0.061,-0.516Z" style="fill:rgb(64,64,64);fill-rule:nonzero;"/>
                </g>
                <g transform="matrix(290,0,0,290,961.35,0)">
                    <path d="M0.278,-0.478C0.308,-0.478 0.334,-0.472 0.357,-0.459C0.38,-0.446 0.399,-0.43 0.414,-0.409C0.429,-0.388 0.44,-0.365 0.448,-0.339C0.455,-0.312 0.459,-0.285 0.459,-0.258C0.459,-0.231 0.455,-0.204 0.448,-0.178C0.44,-0.151 0.429,-0.128 0.414,-0.107C0.399,-0.086 0.38,-0.07 0.357,-0.057C0.334,-0.044 0.308,-0.038 0.278,-0.038C0.248,-0.038 0.222,-0.044 0.199,-0.057C0.176,-0.07 0.158,-0.086 0.143,-0.107C0.128,-0.128 0.116,-0.151 0.109,-0.178C0.101,-0.204 0.097,-0.231 0.097,-0.258C0.097,-0.285 0.101,-0.312 0.109,-0.339C0.116,-0.365 0.128,-0.388 0.143,-0.409C0.158,-0.43 0.176,-0.446 0.199,-0.459C0.222,-0.472 0.248,-0.478 0.278,-0.478ZM0.278,-0.531C0.239,-0.531 0.204,-0.524 0.174,-0.509C0.143,-0.494 0.118,-0.475 0.097,-0.45C0.076,-0.425 0.061,-0.397 0.05,-0.364C0.039,-0.331 0.034,-0.295 0.034,-0.258C0.034,-0.221 0.039,-0.186 0.05,-0.153C0.061,-0.12 0.076,-0.091 0.097,-0.066C0.118,-0.041 0.143,-0.022 0.174,-0.008C0.204,0.007 0.239,0.014 0.278,0.014C0.317,0.014 0.352,0.007 0.383,-0.008C0.413,-0.022 0.438,-0.041 0.459,-0.066C0.48,-0.091 0.495,-0.12 0.506,-0.153C0.517,-0.186 0.522,-0.221 0.522,-0.258C0.522,-0.295 0.517,-0.331 0.506,-0.364C0.495,-0.397 0.48,-0.425 0.459,-0.45C0.438,-0.475 0.413,-0.494 0.383,-0.509C0.352,-0.524 0.317,-0.531 0.278,-0.531Z" style="fill:rgb(64,64,64);fill-rule:nonzero;"/>
                </g>
                <g transform="matrix(290,0,0,290,1122.59,0)">
                    <path d="M0.059,-0.516L0.059,-0L0.122,-0L0.122,-0.301C0.123,-0.326 0.127,-0.35 0.135,-0.372C0.142,-0.393 0.153,-0.412 0.167,-0.428C0.18,-0.443 0.197,-0.456 0.217,-0.465C0.236,-0.474 0.259,-0.478 0.284,-0.478C0.309,-0.478 0.331,-0.474 0.348,-0.466C0.365,-0.458 0.378,-0.447 0.388,-0.433C0.398,-0.419 0.405,-0.403 0.409,-0.384C0.413,-0.365 0.415,-0.344 0.415,-0.322L0.415,-0L0.478,-0L0.478,-0.332C0.478,-0.363 0.475,-0.39 0.469,-0.415C0.463,-0.44 0.453,-0.46 0.438,-0.478C0.423,-0.495 0.404,-0.508 0.38,-0.517C0.355,-0.526 0.325,-0.531 0.289,-0.531C0.252,-0.531 0.219,-0.522 0.188,-0.503C0.157,-0.484 0.136,-0.458 0.124,-0.427L0.122,-0.427L0.122,-0.516L0.059,-0.516Z" style="fill:rgb(64,64,64);fill-rule:nonzero;"/>
                </g>
                <g transform="matrix(290,0,0,290,1358.94,0)">
                    <path d="M0.072,-0.714L0.072,-0L0.14,-0L0.14,-0.346L0.564,-0.346L0.564,-0L0.632,-0L0.632,-0.714L0.564,-0.714L0.564,-0.404L0.14,-0.404L0.14,-0.714L0.072,-0.714Z" style="fill:rgb(64,64,64);fill-rule:nonzero;"/>
                </g>
                <g transform="matrix(290,0,0,290,1563.1,0)">
                    <path d="M0.478,-0L0.478,-0.516L0.415,-0.516L0.415,-0.245C0.415,-0.219 0.412,-0.194 0.406,-0.169C0.4,-0.143 0.391,-0.121 0.378,-0.102C0.365,-0.083 0.349,-0.067 0.33,-0.056C0.311,-0.044 0.287,-0.038 0.26,-0.038C0.21,-0.038 0.175,-0.05 0.155,-0.074C0.134,-0.098 0.123,-0.133 0.122,-0.18L0.122,-0.516L0.059,-0.516L0.059,-0.181C0.059,-0.15 0.062,-0.123 0.069,-0.099C0.076,-0.075 0.086,-0.055 0.101,-0.038C0.115,-0.021 0.133,-0.009 0.157,0.001C0.18,0.01 0.207,0.014 0.24,0.014C0.279,0.014 0.314,0.005 0.346,-0.014C0.377,-0.032 0.401,-0.058 0.418,-0.093L0.42,-0.093L0.42,-0L0.478,-0Z" style="fill:rgb(64,64,64);fill-rule:nonzero;"/>
                </g>
                <g transform="matrix(290,0,0,290,1718.83,0)">
                    <path d="M0.06,-0.714L0.06,-0L0.118,-0L0.118,-0.098L0.12,-0.098C0.135,-0.062 0.159,-0.034 0.192,-0.015C0.225,0.004 0.262,0.014 0.304,0.014C0.343,0.014 0.378,0.007 0.407,-0.008C0.436,-0.022 0.46,-0.042 0.479,-0.067C0.498,-0.092 0.513,-0.121 0.522,-0.154C0.531,-0.187 0.536,-0.221 0.536,-0.258C0.536,-0.295 0.531,-0.329 0.522,-0.363C0.513,-0.396 0.498,-0.425 0.479,-0.45C0.46,-0.474 0.436,-0.494 0.407,-0.509C0.378,-0.524 0.343,-0.531 0.304,-0.531C0.285,-0.531 0.267,-0.529 0.248,-0.524C0.229,-0.519 0.212,-0.512 0.196,-0.503C0.18,-0.493 0.166,-0.481 0.154,-0.467C0.141,-0.453 0.132,-0.437 0.125,-0.418L0.123,-0.418L0.123,-0.714L0.06,-0.714ZM0.473,-0.258C0.473,-0.231 0.47,-0.205 0.464,-0.179C0.457,-0.152 0.447,-0.129 0.434,-0.108C0.42,-0.087 0.402,-0.07 0.381,-0.058C0.36,-0.045 0.334,-0.038 0.304,-0.038C0.271,-0.038 0.243,-0.045 0.22,-0.058C0.197,-0.07 0.178,-0.087 0.164,-0.108C0.149,-0.129 0.139,-0.152 0.133,-0.179C0.126,-0.205 0.123,-0.231 0.123,-0.258C0.123,-0.285 0.126,-0.311 0.133,-0.338C0.139,-0.364 0.149,-0.387 0.164,-0.408C0.178,-0.429 0.197,-0.446 0.22,-0.459C0.243,-0.472 0.271,-0.478 0.304,-0.478C0.334,-0.478 0.36,-0.472 0.381,-0.459C0.402,-0.446 0.42,-0.429 0.434,-0.408C0.447,-0.387 0.457,-0.364 0.464,-0.338C0.47,-0.311 0.473,-0.285 0.473,-0.258Z" style="fill:rgb(64,64,64);fill-rule:nonzero;"/>
                </g>
            </g>
            <g transform="matrix(1,0,0,1,1021.97,743.589)">
                <g transform="matrix(340,0,0,340,0,0)">
                    <rect x="0.069" y="-0.714" width="0.157" height="0.714" style="fill:rgb(64,64,64);fill-rule:nonzero;"/>
                </g>
                <g transform="matrix(340,0,0,340,100.3,0)">
                    <path d="M0.069,-0.714L0.069,-0L0.216,-0L0.216,-0.478L0.218,-0.478L0.515,-0L0.672,-0L0.672,-0.714L0.525,-0.714L0.525,-0.235L0.523,-0.235L0.225,-0.714L0.069,-0.714Z" style="fill:rgb(64,64,64);fill-rule:nonzero;"/>
                </g>
                <g transform="matrix(340,0,0,340,352.24,0)">
                    <path d="M0.069,-0.714L0.069,-0L0.226,-0L0.226,-0.23L0.316,-0.321L0.531,-0L0.728,-0L0.422,-0.432L0.701,-0.714L0.505,-0.714L0.226,-0.418L0.226,-0.714L0.069,-0.714Z" style="fill:rgb(64,64,64);fill-rule:nonzero;"/>
                </g>
                <g transform="matrix(340,0,0,340,597.72,0)">
                    <path d="M0.069,-0.714L0.069,-0L0.574,-0L0.574,-0.132L0.226,-0.132L0.226,-0.714L0.069,-0.714Z" style="fill:rgb(64,64,64);fill-rule:nonzero;"/>
                </g>
                <g transform="matrix(340,0,0,340,799.34,0)">
                    <path d="M0.675,-0.27L0.675,-0.714L0.518,-0.714L0.518,-0.27C0.518,-0.217 0.507,-0.178 0.486,-0.153C0.465,-0.128 0.426,-0.115 0.37,-0.115C0.338,-0.115 0.313,-0.12 0.294,-0.129C0.275,-0.138 0.26,-0.149 0.249,-0.164C0.238,-0.178 0.231,-0.194 0.228,-0.213C0.225,-0.232 0.223,-0.251 0.223,-0.27L0.223,-0.714L0.066,-0.714L0.066,-0.27C0.066,-0.173 0.092,-0.101 0.146,-0.054C0.199,-0.007 0.273,0.016 0.37,0.016C0.465,0.016 0.54,-0.008 0.594,-0.055C0.648,-0.101 0.675,-0.173 0.675,-0.27Z" style="fill:rgb(64,64,64);fill-rule:nonzero;"/>
                </g>
                <g transform="matrix(340,0,0,340,1051.28,0)">
                    <path d="M0.176,-0.237L0.024,-0.237C0.023,-0.193 0.031,-0.155 0.048,-0.123C0.065,-0.091 0.087,-0.065 0.116,-0.044C0.144,-0.023 0.177,-0.008 0.214,0.002C0.251,0.011 0.289,0.016 0.328,0.016C0.377,0.016 0.42,0.01 0.457,-0.001C0.494,-0.012 0.525,-0.028 0.55,-0.049C0.575,-0.069 0.593,-0.093 0.606,-0.121C0.619,-0.149 0.625,-0.179 0.625,-0.212C0.625,-0.252 0.616,-0.285 0.6,-0.311C0.583,-0.336 0.562,-0.357 0.539,-0.372C0.516,-0.387 0.492,-0.399 0.469,-0.406C0.445,-0.413 0.426,-0.417 0.413,-0.42C0.368,-0.431 0.332,-0.441 0.305,-0.448C0.277,-0.455 0.255,-0.463 0.24,-0.47C0.224,-0.477 0.213,-0.485 0.208,-0.494C0.203,-0.503 0.2,-0.514 0.2,-0.528C0.2,-0.543 0.203,-0.556 0.21,-0.566C0.217,-0.576 0.225,-0.584 0.236,-0.591C0.246,-0.598 0.257,-0.602 0.27,-0.605C0.283,-0.608 0.295,-0.609 0.308,-0.609C0.327,-0.609 0.345,-0.607 0.362,-0.604C0.378,-0.601 0.392,-0.595 0.405,-0.587C0.418,-0.579 0.428,-0.568 0.436,-0.554C0.443,-0.54 0.448,-0.522 0.449,-0.501L0.601,-0.501C0.601,-0.542 0.593,-0.578 0.578,-0.607C0.562,-0.636 0.541,-0.659 0.514,-0.678C0.487,-0.697 0.457,-0.71 0.423,-0.719C0.388,-0.727 0.352,-0.731 0.315,-0.731C0.283,-0.731 0.251,-0.727 0.219,-0.718C0.187,-0.709 0.158,-0.696 0.133,-0.678C0.108,-0.66 0.087,-0.638 0.072,-0.611C0.056,-0.584 0.048,-0.552 0.048,-0.515C0.048,-0.482 0.054,-0.455 0.067,-0.432C0.079,-0.409 0.095,-0.389 0.115,-0.374C0.135,-0.359 0.158,-0.346 0.183,-0.337C0.208,-0.327 0.234,-0.319 0.261,-0.312C0.287,-0.305 0.313,-0.298 0.338,-0.292C0.363,-0.286 0.386,-0.279 0.406,-0.271C0.426,-0.263 0.442,-0.253 0.455,-0.241C0.467,-0.229 0.473,-0.213 0.473,-0.194C0.473,-0.176 0.468,-0.161 0.459,-0.15C0.45,-0.138 0.438,-0.129 0.424,-0.122C0.41,-0.115 0.395,-0.111 0.379,-0.109C0.363,-0.106 0.348,-0.105 0.334,-0.105C0.313,-0.105 0.293,-0.108 0.274,-0.113C0.255,-0.117 0.238,-0.125 0.224,-0.136C0.209,-0.146 0.198,-0.159 0.189,-0.176C0.18,-0.193 0.176,-0.213 0.176,-0.237Z" style="fill:rgb(64,64,64);fill-rule:nonzero;"/>
                </g>
                <g transform="matrix(340,0,0,340,1271.94,0)">
                    <rect x="0.069" y="-0.714" width="0.157" height="0.714" style="fill:rgb(64,64,64);fill-rule:nonzero;"/>
                </g>
                <g transform="matrix(340,0,0,340,1372.24,0)">
                    <path d="M0.195,-0.354C0.195,-0.385 0.199,-0.416 0.206,-0.445C0.213,-0.474 0.224,-0.501 0.239,-0.524C0.254,-0.547 0.274,-0.565 0.299,-0.579C0.324,-0.592 0.354,-0.599 0.389,-0.599C0.424,-0.599 0.454,-0.592 0.479,-0.579C0.504,-0.565 0.524,-0.547 0.539,-0.524C0.554,-0.501 0.566,-0.474 0.573,-0.445C0.58,-0.416 0.583,-0.385 0.583,-0.354C0.583,-0.324 0.58,-0.295 0.573,-0.267C0.566,-0.238 0.554,-0.213 0.539,-0.19C0.524,-0.167 0.504,-0.149 0.479,-0.136C0.454,-0.122 0.424,-0.115 0.389,-0.115C0.354,-0.115 0.324,-0.122 0.299,-0.136C0.274,-0.149 0.254,-0.167 0.239,-0.19C0.224,-0.213 0.213,-0.238 0.206,-0.267C0.199,-0.295 0.195,-0.324 0.195,-0.354ZM0.038,-0.354C0.038,-0.302 0.046,-0.254 0.062,-0.209C0.078,-0.164 0.101,-0.124 0.131,-0.091C0.161,-0.058 0.198,-0.032 0.242,-0.013C0.285,0.007 0.334,0.016 0.389,0.016C0.444,0.016 0.494,0.007 0.537,-0.013C0.58,-0.032 0.617,-0.058 0.647,-0.091C0.677,-0.124 0.7,-0.164 0.716,-0.209C0.732,-0.254 0.74,-0.302 0.74,-0.354C0.74,-0.407 0.732,-0.457 0.716,-0.503C0.7,-0.548 0.677,-0.588 0.647,-0.622C0.617,-0.656 0.58,-0.683 0.537,-0.702C0.494,-0.721 0.444,-0.731 0.389,-0.731C0.334,-0.731 0.285,-0.721 0.242,-0.702C0.198,-0.683 0.161,-0.656 0.131,-0.622C0.101,-0.588 0.078,-0.548 0.062,-0.503C0.046,-0.457 0.038,-0.407 0.038,-0.354Z" style="fill:rgb(64,64,64);fill-rule:nonzero;"/>
                </g>
                <g transform="matrix(340,0,0,340,1636.76,0)">
                    <path d="M0.069,-0.714L0.069,-0L0.216,-0L0.216,-0.478L0.218,-0.478L0.515,-0L0.672,-0L0.672,-0.714L0.525,-0.714L0.525,-0.235L0.523,-0.235L0.225,-0.714L0.069,-0.714Z" style="fill:rgb(64,64,64);fill-rule:nonzero;"/>
                </g>
            </g>
        </g>
    </g>
</svg>
