<?xml version="1.0" encoding="UTF-8" standalone="no"?>
<!DOCTYPE svg PUBLIC "-//W3C//DTD SVG 1.1//EN" "http://www.w3.org/Graphics/SVG/1.1/DTD/svg11.dtd">
<svg width="100%" height="100%" viewBox="0 0 2945 862" version="1.1" xmlns="http://www.w3.org/2000/svg" xmlns:xlink="http://www.w3.org/1999/xlink" xml:space="preserve" xmlns:serif="http://www.serif.com/" style="fill-rule:evenodd;clip-rule:evenodd;stroke-linecap:round;stroke-linejoin:round;">
    <g>
        <g>
            <circle cx="524.409" cy="377.008" r="170.079" style="fill:none;stroke:rgb(64,64,64);stroke-width:20px;"/>
            <path d="M601.449,435.685L447.37,435.685C442.952,435.685 439.37,439.267 439.37,443.685L439.37,597.764C439.37,602.182 442.952,605.764 447.37,605.764L601.449,605.764C605.867,605.764 609.449,602.182 609.449,597.764L609.449,443.685C609.449,439.267 605.867,435.685 601.449,435.685Z" style="fill:rgb(191,64,60);fill-rule:nonzero;stroke:rgb(64,64,64);stroke-width:1px;stroke-linecap:butt;stroke-miterlimit:2;"/>
            <path d="M601.449,435.685L447.37,435.685C442.952,435.685 439.37,439.267 439.37,443.685L439.37,597.764C439.37,602.182 442.952,605.764 447.37,605.764L601.449,605.764C605.867,605.764 609.449,602.182 609.449,597.764L609.449,443.685C609.449,439.267 605.867,435.685 601.449,435.685Z" style="fill:none;fill-rule:nonzero;stroke:rgb(64,64,64);stroke-width:20px;"/>
            <path d="M447.754,348.422L375.659,204.232C373.683,200.28 368.878,198.678 364.926,200.654C363.378,201.429 362.123,202.684 361.349,204.232L289.253,348.422C287.277,352.374 288.879,357.18 292.831,359.155C293.942,359.711 295.167,360 296.409,360L440.599,360C445.017,360 448.599,356.418 448.599,352C448.599,350.758 448.31,349.533 447.754,348.422Z" style="fill:rgb(114,164,27);fill-rule:nonzero;stroke:rgb(64,64,64);stroke-width:1px;stroke-linecap:butt;stroke-miterlimit:2;"/>
            <path d="M447.754,348.422L375.659,204.232C373.683,200.28 368.878,198.678 364.926,200.654C363.378,201.429 362.123,202.684 361.349,204.232L289.253,348.422C287.277,352.374 288.879,357.18 292.831,359.155C293.942,359.711 295.167,360 296.409,360L440.599,360C445.017,360 448.599,356.418 448.599,352C448.599,350.758 448.31,349.533 447.754,348.422Z" style="fill:none;fill-rule:nonzero;stroke:rgb(64,64,64);stroke-width:20px;"/>
            <circle cx="680.315" cy="274.961" r="85.04" style="fill:rgb(216,168,24);stroke:rgb(64,64,64);stroke-width:1px;stroke-linecap:butt;stroke-miterlimit:2;"/>
            <circle cx="680.315" cy="274.961" r="85.04" style="fill:none;stroke:rgb(64,64,64);stroke-width:20px;"/>
        </g>
        <g>
            <path d="M941.772,110.551L101.378,110.551C98.617,110.551 96.378,112.79 96.378,115.551L96.378,814.213C96.378,816.974 98.617,819.213 101.378,819.213L941.772,819.213C944.533,819.213 946.772,816.974 946.772,814.213L946.772,115.551C946.772,112.79 944.533,110.551 941.772,110.551Z" style="fill:none;fill-rule:nonzero;stroke:rgb(64,64,64);stroke-width:20px;"/>
        </g>
        <g>
            <path d="M864.596,413.858C864.596,413.858 880.344,467.717 874.674,515.905C869.005,564.095 866.17,566.929 857.666,586.772C849.162,606.614 837.824,640.63 820.816,657.638C803.808,674.646 792.47,685.984 747.115,734.173C701.761,782.362 710.265,810.709 710.265,810.709L605.383,810.709C605.383,810.709 598.139,788.032 608.218,748.346C618.296,708.661 634.989,683.15 646.328,668.976C657.666,654.803 667.745,637.795 690.422,606.614C713.099,575.433 730.107,527.244 732.942,515.905C735.777,504.567 741.446,473.386 741.446,473.386C741.446,473.386 764.123,459.213 769.792,490.394C775.462,521.575 769.792,527.244 766.958,538.583C764.123,549.921 755.619,569.764 755.619,569.764L738.611,615.118C738.611,615.118 809.477,569.764 826.485,530.079C843.493,490.394 837.509,467.717 841.918,436.535C846.328,405.354 864.596,413.858 864.596,413.858Z" style="fill:rgb(64,64,64);fill-rule:nonzero;"/>
            <path d="M864.596,413.858C864.596,413.858 880.344,467.717 874.674,515.905C869.005,564.095 866.17,566.929 857.666,586.772C849.162,606.614 837.824,640.63 820.816,657.638C803.808,674.646 792.47,685.984 747.115,734.173C701.761,782.362 710.265,810.709 710.265,810.709L605.383,810.709C605.383,810.709 598.139,788.032 608.218,748.346C618.296,708.661 634.989,683.15 646.328,668.976C657.666,654.803 667.745,637.795 690.422,606.614C713.099,575.433 730.107,527.244 732.942,515.905C735.777,504.567 741.446,473.386 741.446,473.386C741.446,473.386 764.123,459.213 769.792,490.394C775.462,521.575 769.792,527.244 766.958,538.583C764.123,549.921 755.619,569.764 755.619,569.764L738.611,615.118C738.611,615.118 809.477,569.764 826.485,530.079C843.493,490.394 837.509,467.717 841.918,436.535C846.328,405.354 864.596,413.858 864.596,413.858Z" style="fill:rgb(64,64,64);fill-rule:nonzero;stroke:rgb(53,102,128);stroke-width:1px;"/>
            <path d="M186.142,413.858C186.142,413.858 170.394,467.717 176.063,515.905C181.732,564.095 184.567,566.929 193.071,586.772C201.575,606.614 212.914,640.63 229.921,657.638C246.929,674.646 258.268,685.984 303.622,734.173C348.977,782.362 340.473,810.709 340.473,810.709L445.355,810.709C445.355,810.709 452.599,788.032 442.52,748.346C432.441,708.661 415.748,683.15 404.41,668.976C393.071,654.803 382.992,637.795 360.315,606.614C337.638,575.433 320.63,527.244 317.795,515.905C314.961,504.567 309.292,473.386 309.292,473.386C309.292,473.386 286.614,459.213 280.945,490.394C275.276,521.575 280.945,527.244 283.78,538.583C286.614,549.921 295.118,569.764 295.118,569.764L312.126,615.118C312.126,615.118 241.26,569.764 224.252,530.079C207.244,490.394 213.229,467.717 208.819,436.535C204.41,405.354 186.142,413.858 186.142,413.858Z" style="fill:rgb(64,64,64);fill-rule:nonzero;"/>
            <path d="M186.142,413.858C186.142,413.858 170.394,467.717 176.063,515.905C181.732,564.095 184.567,566.929 193.071,586.772C201.575,606.614 212.914,640.63 229.921,657.638C246.929,674.646 258.268,685.984 303.622,734.173C348.977,782.362 340.473,810.709 340.473,810.709L445.355,810.709C445.355,810.709 452.599,788.032 442.52,748.346C432.441,708.661 415.748,683.15 404.41,668.976C393.071,654.803 382.992,637.795 360.315,606.614C337.638,575.433 320.63,527.244 317.795,515.905C314.961,504.567 309.292,473.386 309.292,473.386C309.292,473.386 286.614,459.213 280.945,490.394C275.276,521.575 280.945,527.244 283.78,538.583C286.614,549.921 295.118,569.764 295.118,569.764L312.126,615.118C312.126,615.118 241.26,569.764 224.252,530.079C207.244,490.394 213.229,467.717 208.819,436.535C204.41,405.354 186.142,413.858 186.142,413.858Z" style="fill:rgb(64,64,64);fill-rule:nonzero;stroke:rgb(53,102,128);stroke-width:1px;"/>
        </g>
        <g>
            <g transform="matrix(1,0,0,1,1020.84,395.845)">
                <text x="0px" y="0px" style="font-family:'HelveticaNeue-Light', 'Helvetica Neue';font-weight:300;font-size:290px;fill:rgb(64,64,64);">Innovation Hub</text>
            </g>
            <g transform="matrix(1,0,0,1,1021.97,743.589)">
                <text x="0px" y="0px" style="font-family:'HelveticaNeue-Bold', 'Helvetica Neue';font-weight:700;font-size:340px;fill:rgb(64,64,64);">INKLUSION</text>
            </g>
        </g>
    </g>
</svg>
