<?xml version="1.0" encoding="UTF-8" standalone="no"?>
<!DOCTYPE svg PUBLIC "-//W3C//DTD SVG 1.1//EN" "http://www.w3.org/Graphics/SVG/1.1/DTD/svg11.dtd">
<svg width="100%" height="100%" viewBox="0 0 1024 250" version="1.1" xmlns="http://www.w3.org/2000/svg" xmlns:xlink="http://www.w3.org/1999/xlink" xml:space="preserve" xmlns:serif="http://www.serif.com/" style="fill-rule:evenodd;clip-rule:evenodd;stroke-linejoin:round;stroke-miterlimit:2;">
    <g transform="matrix(0.34,0.94,-0.94,0.34,484.967,64.2502)">
        <g>
            <text x="0px" y="0px" style="font-family:'LucidaGrande', 'Lucida Grande', sans-serif;font-weight:500;font-size:14.063px;fill:rgb(113,163,26);">Gestaltungsorientiert</text>
        </g>
    </g>
    <g transform="matrix(0.47,-0.88,0.88,0.47,396.225,239.153)">
        <g>
            <text x="0px" y="0px" style="font-family:'LucidaGrande', 'Lucida Grande', sans-serif;font-weight:500;font-size:33.752px;">Innovation Hub</text>
        </g>
    </g>
    <g transform="matrix(1,0,0,1,437.84,226.67)">
        <g>
            <text x="0px" y="0px" style="font-family:'LucidaGrande', 'Lucida Grande', sans-serif;font-weight:500;font-size:56.253px;">Zusammenarbeit</text>
        </g>
    </g>
    <g transform="matrix(0.98,-0.21,0.21,0.98,524.714,137.244)">
        <g>
            <text x="0px" y="0px" style="font-family:'LucidaGrande', 'Lucida Grande', sans-serif;font-weight:500;font-size:56.253px;fill:rgb(113,163,26);">Räume schaﬀen</text>
        </g>
    </g>
    <g transform="matrix(1,0,0,1,540.16,179.67)">
        <g>
            <text x="0px" y="0px" style="font-family:'LucidaGrande', 'Lucida Grande', sans-serif;font-weight:500;font-size:56.253px;">Kooperation</text>
        </g>
    </g>
    <g transform="matrix(1,0,0,1,75.3748,105.342)">
        <g>
            <text x="0px" y="0px" style="font-family:'LucidaGrande', 'Lucida Grande', sans-serif;font-weight:500;font-size:78.754px;fill:rgb(113,163,26);">Inklusion</text>
        </g>
    </g>
    <g transform="matrix(1,0,0,1,93.2047,149.897)">
        <g>
            <text x="0px" y="0px" style="font-family:'Helvetica-Bold', 'Helvetica';font-weight:700;font-size:56.253px;">Partizipativ</text>
        </g>
    </g>
    <g transform="matrix(1,0,0,1,668.77,142.67)">
        <g>
            <text x="0px" y="0px" style="font-family:'LucidaGrande', 'Lucida Grande', sans-serif;font-weight:500;font-size:56.253px;">Mitmachen!</text>
        </g>
    </g>
    <g transform="matrix(1,0,0,1,86.25,198.67)">
        <g>
            <text x="0px" y="0px" style="font-family:'LucidaGrande', 'Lucida Grande', sans-serif;font-weight:500;font-size:56.253px;fill:rgb(113,163,26);">Netzwerk</text>
        </g>
    </g>
    <g transform="matrix(1,0,0,1,510.664,62.67)">
        <g>
            <text x="0px" y="0px" style="font-family:'Helvetica';font-size:56.253px;fill:rgb(113,163,26);">Methodik</text>
        </g>
    </g>
    <g transform="matrix(1,0,0,1,45.73,241.67)">
        <g>
            <text x="0px" y="0px" style="font-family:'LucidaGrande', 'Lucida Grande', sans-serif;font-weight:500;font-size:56.253px;">Thematik</text>
        </g>
    </g>
    <g transform="matrix(1,0,0,1,339.851,32.3777)">
        <g>
            <text x="0px" y="0px" style="font-family:'LucidaGrande', 'Lucida Grande', sans-serif;font-weight:500;font-size:28.126px;">Forschung</text>
        </g>
    </g>
    <g transform="matrix(1,0,0,1,195.74,30.84)">
        <g>
            <text x="0px" y="0px" style="font-family:'LucidaGrande', 'Lucida Grande', sans-serif;font-weight:500;font-size:28.126px;fill:rgb(113,163,26);">Innovation</text>
        </g>
    </g>
    <g transform="matrix(0.78,-0.63,0.63,0.78,936.934,241.643)">
        <g>
            <text x="0px" y="0px" style="font-family:'Helvetica';font-size:28.126px;fill:rgb(113,163,26);">Bildung</text>
        </g>
    </g>
    <g transform="matrix(1,0,0,1,875.581,104.222)">
        <g>
            <text x="0px" y="0px" style="font-family:'Helvetica';font-size:28.126px;fill:rgb(113,163,26);">Transfer</text>
        </g>
    </g>
    <g transform="matrix(1,0,0,1,660.98,195.07)">
        <g>
            <text x="0px" y="0px" style="font-family:'LucidaGrande-Bold', 'Lucida Grande', sans-serif;font-weight:600;font-size:22.501px;fill:rgb(113,163,26);">Austausch</text>
        </g>
    </g>
    <g transform="matrix(0.12,0.99,-0.99,0.12,25.3181,54.7446)">
        <g>
            <text x="0px" y="0px" style="font-family:'Helvetica';font-size:45.002px;">Schule</text>
        </g>
    </g>
    <g transform="matrix(1,0,0,1,505.133,75.8015)">
        <g>
            <text x="0px" y="0px" style="font-family:'LucidaGrande', 'Lucida Grande', sans-serif;font-weight:500;font-size:15.751px;fill:rgb(113,163,26);">Sonderpädagogik</text>
        </g>
    </g>
    <g transform="matrix(1,0,0,1,855.41,83.07)">
        <g>
            <text x="0px" y="0px" style="font-family:'LucidaGrande', 'Lucida Grande', sans-serif;font-weight:500;font-size:22.501px;">Deutschland</text>
        </g>
    </g>
    <g transform="matrix(0.45,-0.89,0.89,0.45,422.653,216.877)">
        <g>
            <text x="0px" y="0px" style="font-family:'LucidaGrande', 'Lucida Grande', sans-serif;font-weight:500;font-size:14.063px;fill:rgb(113,163,26);">Gestaltungsorientiert</text>
        </g>
    </g>
    <g transform="matrix(1,0,0,1,475.38,239.3)">
        <g>
            <text x="0px" y="0px" style="font-family:'LucidaGrande', 'Lucida Grande', sans-serif;font-weight:500;font-size:16.876px;">Innovation Hub</text>
        </g>
    </g>
    <g transform="matrix(0.99903,0.0440335,-0.0440335,0.99903,347.094,45.7396)">
        <g>
            <text x="0px" y="0px" style="font-family:'LucidaGrande', 'Lucida Grande', sans-serif;font-weight:500;font-size:14.063px;">Zusammenarbeit</text>
        </g>
    </g>
    <g transform="matrix(1,0,0,1,540.7,188.42)">
        <g>
            <text x="0px" y="0px" style="font-family:'LucidaGrande', 'Lucida Grande', sans-serif;font-weight:500;font-size:14.063px;fill:rgb(113,163,26);">Räume schaﬀen</text>
        </g>
    </g>
    <g transform="matrix(0.58,-0.81,0.81,0.58,368.044,209.947)">
        <g>
            <text x="0px" y="0px" style="font-family:'LucidaGrande', 'Lucida Grande', sans-serif;font-weight:500;font-size:14.063px;">Kooperation</text>
        </g>
    </g>
    <g transform="matrix(1,0,0,1,630.69,237.42)">
        <g>
            <text x="0px" y="0px" style="font-family:'Helvetica';font-size:14.063px;">Governance</text>
        </g>
    </g>
    <g transform="matrix(1,0,0,1,576.61,142.42)">
        <g>
            <text x="0px" y="0px" style="font-family:'Helvetica';font-size:14.063px;">Partizipativ</text>
        </g>
    </g>
    <g transform="matrix(0.59,0.8,-0.8,0.59,470.861,123.96)">
        <g>
            <text x="0px" y="0px" style="font-family:'LucidaGrande', 'Lucida Grande', sans-serif;font-weight:500;font-size:14.063px;">Mitmachen!</text>
        </g>
    </g>
    <g transform="matrix(1,0,0,1,622.373,20.3221)">
        <g>
            <text x="0px" y="0px" style="font-family:'LucidaGrande', 'Lucida Grande', sans-serif;font-weight:500;font-size:14.063px;fill:rgb(113,163,26);">Netzwerk</text>
        </g>
    </g>
    <g transform="matrix(1,0,0,1,414.47,239.42)">
        <g>
            <text x="0px" y="0px" style="font-family:'Helvetica';font-size:14.063px;fill:rgb(113,163,26);">Methodik</text>
        </g>
    </g>
    <g transform="matrix(1,0,0,1,724.46,20.42)">
        <g>
            <text x="0px" y="0px" style="font-family:'LucidaGrande', 'Lucida Grande', sans-serif;font-weight:500;font-size:14.063px;">Forschung</text>
        </g>
    </g>
    <g transform="matrix(1,0,0,1,588.37,130.42)">
        <g>
            <text x="0px" y="0px" style="font-family:'LucidaGrande', 'Lucida Grande', sans-serif;font-weight:500;font-size:14.063px;fill:rgb(113,163,26);">Innovation</text>
        </g>
    </g>
    <g transform="matrix(1,0,0,1,317.468,230.652)">
        <g>
            <text x="0px" y="0px" style="font-family:'Helvetica';font-size:14.063px;fill:rgb(113,163,26);">Transfer</text>
        </g>
    </g>
    <g transform="matrix(1,0,0,1,523.67,16.5734)">
        <g>
            <text x="0px" y="0px" style="font-family:'LucidaGrande', 'Lucida Grande', sans-serif;font-weight:500;font-size:11.251px;fill:rgb(113,163,26);">Austausch</text>
        </g>
    </g>
    <g transform="matrix(0.74,0.67,-0.67,0.74,938.402,15.0387)">
        <g>
            <text x="0px" y="0px" style="font-family:'Helvetica';font-size:22.501px;">Schule</text>
        </g>
    </g>
    <g transform="matrix(1,0,0,1,715.5,238.47)">
        <g>
            <text x="0px" y="0px" style="font-family:'LucidaGrande', 'Lucida Grande', sans-serif;font-weight:500;font-size:7.875px;fill:rgb(113,163,26);">Sonderpädagogik</text>
        </g>
    </g>
    <g transform="matrix(0.43,-0.9,0.9,0.43,917.488,233.051)">
        <g>
            <text x="0px" y="0px" style="font-family:'LucidaGrande', 'Lucida Grande', sans-serif;font-weight:500;font-size:8.438px;">Innovation Hub</text>
        </g>
    </g>
    <g transform="matrix(1,0,0,1,193.7,42.42)">
        <g>
            <text x="0px" y="0px" style="font-family:'LucidaGrande', 'Lucida Grande', sans-serif;font-weight:500;font-size:14.063px;fill:rgb(113,163,26);">Räume schaﬀen</text>
        </g>
    </g>
    <g transform="matrix(1,-0.07,0.07,1,741.849,108.182)">
        <g>
            <text x="0px" y="0px" style="font-family:'LucidaGrande', 'Lucida Grande', sans-serif;font-weight:500;font-size:14.063px;">Kooperation</text>
        </g>
    </g>
    <g transform="matrix(1,0,0,1,185.69,161.42)">
        <g>
            <text x="0px" y="0px" style="font-family:'Helvetica';font-size:14.063px;">Governance</text>
        </g>
    </g>
    <g transform="matrix(1,0,0,1,916.505,162.472)">
        <g>
            <text x="0px" y="0px" style="font-family:'Helvetica';font-size:14.063px;">Partizipativ</text>
        </g>
    </g>
    <g transform="matrix(1,0,0,1,462.85,180.21)">
        <g>
            <text x="0px" y="0px" style="font-family:'LucidaGrande', 'Lucida Grande', sans-serif;font-weight:500;font-size:7.032px;">Mitmachen!</text>
        </g>
    </g>
    <g transform="matrix(1,0,0,1,792.81,240.42)">
        <g>
            <text x="0px" y="0px" style="font-family:'LucidaGrande', 'Lucida Grande', sans-serif;font-weight:500;font-size:14.063px;fill:rgb(113,163,26);">Netzwerk</text>
        </g>
    </g>
    <g transform="matrix(1,0,0,1,872.466,179.057)">
        <g>
            <text x="0px" y="0px" style="font-family:'Helvetica';font-size:14.063px;fill:rgb(113,163,26);">Methodik</text>
        </g>
    </g>
    <g transform="matrix(1,0,0,1,463.19,167.21)">
        <g>
            <text x="0px" y="0px" style="font-family:'LucidaGrande', 'Lucida Grande', sans-serif;font-weight:500;font-size:7.032px;fill:rgb(113,163,26);">Innovation</text>
        </g>
    </g>
    <g transform="matrix(1,0,0,1,807.461,192.553)">
        <g>
            <text x="0px" y="0px" style="font-family:'Helvetica';font-size:14.063px;fill:rgb(113,163,26);">Bildung</text>
        </g>
    </g>
    <g transform="matrix(1.53625,0.232765,-0.232765,1.53625,61.0604,34.3957)">
        <g>
            <text x="0px" y="0px" style="font-family:'Helvetica-Bold', 'Helvetica';font-weight:700;font-size:14.063px;fill:rgb(113,163,26);">Transfer</text>
        </g>
    </g>
    <g transform="matrix(1,0,0,1,525.99,84.77)">
        <g>
            <text x="0px" y="0px" style="font-family:'LucidaGrande', 'Lucida Grande', sans-serif;font-weight:500;font-size:5.625px;fill:rgb(113,163,26);">Austausch</text>
        </g>
    </g>
    <g transform="matrix(0.983683,-0.179913,0.179913,0.983683,785.808,31.8252)">
        <g>
            <text x="0px" y="0px" style="font-family:'LucidaGrande', 'Lucida Grande', sans-serif;font-weight:500;font-size:7.875px;fill:rgb(113,163,26);">Sonderpädagogik</text>
        </g>
    </g>
</svg>
