<?xml version="1.0" encoding="UTF-8" standalone="no"?>
<!DOCTYPE svg PUBLIC "-//W3C//DTD SVG 1.1//EN" "http://www.w3.org/Graphics/SVG/1.1/DTD/svg11.dtd">
<svg width="100%" height="100%" viewBox="0 0 1024 250" version="1.1" xmlns="http://www.w3.org/2000/svg" xmlns:xlink="http://www.w3.org/1999/xlink" xml:space="preserve" xmlns:serif="http://www.serif.com/" style="fill-rule:evenodd;clip-rule:evenodd;stroke-linejoin:round;stroke-miterlimit:2;">
    <g transform="matrix(0.561973,0,0,0.561973,200.2,132.85)">
        <g>
            <text x="0px" y="0px" style="font-family:'ArialMT', 'Arial', sans-serif;font-size:43.225px;">Resourcen-Etikettierungs-Dilemma</text>
        </g>
    </g>
    <g transform="matrix(0.88,-0.48,0.48,0.88,379.951,115.143)">
        <g>
            <text x="0px" y="0px" style="font-family:'ArialMT', 'Arial', sans-serif;font-size:21.613px;fill:rgb(113,163,26);">Betreuungsangebote</text>
        </g>
    </g>
    <g transform="matrix(1,0,0,1,136.696,206.011)">
        <g>
            <text x="0px" y="0px" style="font-family:'Arial-BoldMT', 'Arial', sans-serif;font-weight:700;font-size:70.45px;fill:rgb(113,163,26);">Lebenslanges Lernen</text>
        </g>
    </g>
    <g transform="matrix(0.994216,0.107395,-0.107395,0.994216,485.068,97.6622)">
        <g>
            <text x="0px" y="0px" style="font-family:'ArialMT', 'Arial', sans-serif;font-size:51.87px;">Innovation Hub</text>
        </g>
    </g>
    <g transform="matrix(1,0,0,1,535.552,71.3967)">
        <g>
            <text x="0px" y="0px" style="font-family:'Georgia', serif;font-size:43.225px;">Kindertagesstätte</text>
        </g>
    </g>
    <g transform="matrix(1,0,0,1,188.84,242.58)">
        <g>
            <text x="0px" y="0px" style="font-family:'ArialMT', 'Arial', sans-serif;font-size:43.225px;">Zusammenarbeit</text>
        </g>
    </g>
    <g transform="matrix(1,0,0,1,155.92,52.58)">
        <g>
            <text x="0px" y="0px" style="font-family:'Georgia', serif;font-size:43.225px;fill:rgb(113,163,26);">Räume schaﬀen</text>
        </g>
    </g>
    <g transform="matrix(0.95,0.31,-0.31,0.95,227.953,73.2589)">
        <g>
            <text x="0px" y="0px" style="font-family:'Georgia', serif;font-size:21.613px;fill:rgb(113,163,26);">Lebensspanne</text>
        </g>
    </g>
    <g transform="matrix(1,0,0,1,568.577,226.603)">
        <g>
            <text x="0px" y="0px" style="font-family:'ArialMT', 'Arial', sans-serif;font-size:21.613px;fill:rgb(113,163,26);">Kindergarten</text>
        </g>
    </g>
    <g transform="matrix(1,0,0,1,300.57,70.79)">
        <g>
            <text x="0px" y="0px" style="font-family:'Georgia', serif;font-size:21.613px;fill:rgb(113,163,26);">Arbeitsmarkt</text>
        </g>
    </g>
    <g transform="matrix(1,0,0,1,571.02,27.79)">
        <g>
            <text x="0px" y="0px" style="font-family:'Georgia', serif;font-size:21.613px;fill:rgb(113,163,26);">Förderschule</text>
        </g>
    </g>
    <g transform="matrix(1,0,0,1,707.465,232.748)">
        <g>
            <text x="0px" y="0px" style="font-family:'CourierNewPS-BoldMT', 'Courier New', monospace;font-weight:700;font-size:30.258px;fill:rgb(113,163,26);">Inklusion</text>
        </g>
    </g>
    <g transform="matrix(1,0,0,1,500.15,155.79)">
        <g>
            <text x="0px" y="0px" style="font-family:'ArialMT', 'Arial', sans-serif;font-size:21.613px;fill:rgb(113,163,26);">Mitmachen!</text>
        </g>
    </g>
    <g transform="matrix(1,0,0,1,710.7,32.79)">
        <g>
            <text x="0px" y="0px" style="font-family:'CourierNewPSMT', 'Courier New', monospace;font-size:21.613px;fill:rgb(113,163,26);">Weiterbildung</text>
        </g>
    </g>
    <g transform="matrix(1,0,0,1,98.7,100.79)">
        <g>
            <text x="0px" y="0px" style="font-family:'CourierNewPSMT', 'Courier New', monospace;font-size:21.613px;">Schnittstelle</text>
        </g>
    </g>
    <g transform="matrix(1,0,0,1,92.4731,132.79)">
        <g>
            <text x="0px" y="0px" style="font-family:'ArialMT', 'Arial', sans-serif;font-size:21.613px;">Forschung</text>
        </g>
    </g>
    <g transform="matrix(0.73,-0.68,0.68,0.73,879.741,134.786)">
        <g>
            <text x="0px" y="0px" style="font-family:'CourierNewPSMT', 'Courier New', monospace;font-size:21.613px;fill:rgb(113,163,26);">Partizipativ</text>
        </g>
    </g>
    <g transform="matrix(1,0,0,1,120.9,76.79)">
        <g>
            <text x="0px" y="0px" style="font-family:'Georgia', serif;font-size:21.613px;fill:rgb(113,163,26);">Übergabe</text>
        </g>
    </g>
    <g transform="matrix(1,0,0,1,285.162,154.201)">
        <g>
            <text x="0px" y="0px" style="font-family:'CourierNewPSMT', 'Courier New', monospace;font-size:21.613px;fill:rgb(113,163,26);">Kooperation</text>
        </g>
    </g>
    <g transform="matrix(1,0,0,1,238.55,27.79)">
        <g>
            <text x="0px" y="0px" style="font-family:'Georgia', serif;font-size:21.613px;">Netzwerk</text>
        </g>
    </g>
    <g transform="matrix(1,0,0,1,806.15,156.79)">
        <g>
            <text x="0px" y="0px" style="font-family:'CourierNewPSMT', 'Courier New', monospace;font-size:21.613px;">Ausbildung</text>
        </g>
    </g>
    <g transform="matrix(0.58,0.82,-0.82,0.58,48.7419,94.6805)">
        <g>
            <text x="0px" y="0px" style="font-family:'CourierNewPSMT', 'Courier New', monospace;font-size:21.613px;fill:rgb(113,163,26);">Diagnostik</text>
        </g>
    </g>
    <g transform="matrix(1,0,0,1,431.22,28.79)">
        <g>
            <text x="0px" y="0px" style="font-family:'Georgia', serif;font-size:21.613px;">Transfer</text>
        </g>
    </g>
    <g transform="matrix(0.1,0.99,-0.99,0.1,956.146,79.8815)">
        <g>
            <text x="0px" y="0px" style="font-family:'CourierNewPS-BoldMT', 'Courier New', monospace;font-weight:700;font-size:21.613px;">Innovation</text>
        </g>
    </g>
    <g transform="matrix(1,0,0,1,514.31,240.43)">
        <g>
            <text x="0px" y="0px" style="font-family:'CourierNewPSMT', 'Courier New', monospace;font-size:17.29px;">Austausch</text>
        </g>
    </g>
    <g transform="matrix(1,0,0,1,97.6868,228.605)">
        <g>
            <text x="0px" y="0px" style="font-family:'CourierNewPSMT', 'Courier New', monospace;font-size:21.613px;">Lernen</text>
        </g>
    </g>
    <g transform="matrix(1,0,0,1,37.13,54.86)">
        <g>
            <text x="0px" y="0px" style="font-family:'ArialMT', 'Arial', sans-serif;font-size:34.58px;fill:rgb(113,163,26);">Schule</text>
        </g>
    </g>
    <g transform="matrix(0.19,0.98,-0.98,0.19,54.4306,132.123)">
        <g>
            <text x="0px" y="0px" style="font-family:'CourierNewPSMT', 'Courier New', monospace;font-size:12.103px;fill:rgb(113,163,26);">Sonderpädagogik</text>
        </g>
    </g>
    <g transform="matrix(1,0,0,1,26.94,25.43)">
        <g>
            <text x="0px" y="0px" style="font-family:'ArialMT', 'Arial', sans-serif;font-size:17.29px;">Deutschland</text>
        </g>
    </g>
    <g transform="matrix(0.16,-0.99,0.99,0.16,29.7517,222.9)">
        <g>
            <text x="0px" y="0px" style="font-family:'ArialMT', 'Arial', sans-serif;font-size:10.806px;fill:rgb(113,163,26);">Betreuungsangebote</text>
        </g>
    </g>
    <g transform="matrix(0.92,0.4,-0.4,0.92,275.488,68.072)">
        <g>
            <text x="0px" y="0px" style="font-family:'ArialMT', 'Arial', sans-serif;font-size:5.403px;">Lebenslanges Lernen</text>
        </g>
    </g>
    <g transform="matrix(1,0,0,1,316.38,81.07)">
        <g>
            <text x="0px" y="0px" style="font-family:'ArialMT', 'Arial', sans-serif;font-size:12.968px;">Innovation Hub</text>
        </g>
    </g>
    <g transform="matrix(1,0,0,1,341.46,18.39)">
        <g>
            <text x="0px" y="0px" style="font-family:'ArialMT', 'Arial', sans-serif;font-size:10.806px;">Zusammenarbeit</text>
        </g>
    </g>
    <g transform="matrix(1,0,0,1,686.73,43.39)">
        <g>
            <text x="0px" y="0px" style="font-family:'Georgia', serif;font-size:10.806px;fill:rgb(113,163,26);">Räume schaﬀen</text>
        </g>
    </g>
    <g transform="matrix(0.68,0.73,-0.73,0.68,450.138,79.6803)">
        <g>
            <text x="0px" y="0px" style="font-family:'Georgia', serif;font-size:5.403px;fill:rgb(113,163,26);">Lebensspanne</text>
        </g>
    </g>
    <g transform="matrix(1,0,0,1,160.06,18.39)">
        <g>
            <text x="0px" y="0px" style="font-family:'ArialMT', 'Arial', sans-serif;font-size:10.806px;fill:rgb(113,163,26);">Kindergarten</text>
        </g>
    </g>
    <g transform="matrix(1,0,0,1,167.608,154.617)">
        <g>
            <text x="0px" y="0px" style="font-family:'Georgia', serif;font-size:10.806px;fill:rgb(113,163,26);">Arbeitsmarkt</text>
        </g>
    </g>
    <g transform="matrix(0.942429,0.334407,-0.334407,0.942429,873.676,223.919)">
        <g>
            <text x="0px" y="0px" style="font-family:'Georgia', serif;font-size:10.806px;fill:rgb(113,163,26);">Förderschule</text>
        </g>
    </g>
    <g transform="matrix(1,0,0,1,18.0124,78.0209)">
        <g>
            <text x="0px" y="0px" style="font-family:'CourierNewPSMT', 'Courier New', monospace;font-size:15.129px;fill:rgb(113,163,26);">Inklusion</text>
        </g>
    </g>
    <g transform="matrix(1,0,0,1,328.07,91.39)">
        <g>
            <text x="0px" y="0px" style="font-family:'ArialMT', 'Arial', sans-serif;font-size:10.806px;fill:rgb(113,163,26);">Mitmachen!</text>
        </g>
    </g>
    <g transform="matrix(1,0,0,1,596.307,131.965)">
        <g>
            <text x="0px" y="0px" style="font-family:'CourierNewPSMT', 'Courier New', monospace;font-size:10.806px;fill:rgb(113,163,26);">Weiterbildung</text>
        </g>
    </g>
    <g transform="matrix(1,0,0,1,249.85,115.39)">
        <g>
            <text x="0px" y="0px" style="font-family:'CourierNewPSMT', 'Courier New', monospace;font-size:10.806px;">Schnittstelle</text>
        </g>
    </g>
    <g transform="matrix(1,0,0,1,629.138,239.416)">
        <g>
            <text x="0px" y="0px" style="font-family:'ArialMT', 'Arial', sans-serif;font-size:10.806px;">Forschung</text>
        </g>
    </g>
    <g transform="matrix(1,0.03,-0.03,1,823.127,85.7315)">
        <g>
            <text x="0px" y="0px" style="font-family:'Georgia', serif;font-size:10.806px;fill:rgb(113,163,26);">Übergabe</text>
        </g>
    </g>
    <g transform="matrix(1,0,0,1,776.33,17.39)">
        <g>
            <text x="0px" y="0px" style="font-family:'CourierNewPSMT', 'Courier New', monospace;font-size:10.806px;fill:rgb(113,163,26);">Kooperation</text>
        </g>
    </g>
    <g transform="matrix(1,0,0,1,248.28,61.39)">
        <g>
            <text x="0px" y="0px" style="font-family:'Georgia', serif;font-size:10.806px;">Netzwerk</text>
        </g>
    </g>
    <g transform="matrix(1,0,0,1,413.78,103.39)">
        <g>
            <text x="0px" y="0px" style="font-family:'ArialMT', 'Arial', sans-serif;font-size:10.806px;fill:rgb(113,163,26);">Thematik</text>
        </g>
    </g>
    <g transform="matrix(1,0,0,1,130.58,109.39)">
        <g>
            <text x="0px" y="0px" style="font-family:'CourierNewPSMT', 'Courier New', monospace;font-size:10.806px;fill:rgb(113,163,26);">Diagnostik</text>
        </g>
    </g>
    <g transform="matrix(0.99,-0.17,0.17,0.99,879.993,58.4993)">
        <g>
            <text x="0px" y="0px" style="font-family:'Georgia', serif;font-size:21.613px;">Bildung</text>
        </g>
    </g>
    <g transform="matrix(1,0,0,1,955.71,241.63)">
        <g>
            <text x="0px" y="0px" style="font-family:'Georgia', serif;font-size:10.806px;">Transfer</text>
        </g>
    </g>
    <g transform="matrix(1,0,0,1,831.638,242.336)">
        <g>
            <text x="0px" y="0px" style="font-family:'CourierNewPSMT', 'Courier New', monospace;font-size:10.806px;">Innovation</text>
        </g>
    </g>
    <g transform="matrix(1,0.03,-0.03,1,617.578,34.0198)">
        <g>
            <text x="0px" y="0px" style="font-family:'CourierNewPSMT', 'Courier New', monospace;font-size:8.645px;">Austausch</text>
        </g>
    </g>
    <g transform="matrix(1,0,0,1,715.053,243.479)">
        <g>
            <text x="0px" y="0px" style="font-family:'Georgia', serif;font-size:8.645px;">Kooperationsverbünde</text>
        </g>
    </g>
    <g transform="matrix(1,-0.02,0.02,1,827.887,102.861)">
        <g>
            <text x="0px" y="0px" style="font-family:'CourierNewPSMT', 'Courier New', monospace;font-size:10.806px;">Lernen</text>
        </g>
    </g>
    <g transform="matrix(1,0,0,1,161.76,57.9)">
        <g>
            <text x="0px" y="0px" style="font-family:'CourierNewPSMT', 'Courier New', monospace;font-size:6.052px;fill:rgb(113,163,26);">Sonderpädagogik</text>
        </g>
    </g>
    <g transform="matrix(0.05,-1,1,0.05,997.203,224.332)">
        <g>
            <text x="0px" y="0px" style="font-family:'ArialMT', 'Arial', sans-serif;font-size:17.29px;">Deutschland</text>
        </g>
    </g>
</svg>
