<?xml version="1.0" encoding="UTF-8" standalone="no"?>
<!DOCTYPE svg PUBLIC "-//W3C//DTD SVG 1.1//EN" "http://www.w3.org/Graphics/SVG/1.1/DTD/svg11.dtd">
<svg width="100%" height="100%" viewBox="0 0 1024 250" version="1.1" xmlns="http://www.w3.org/2000/svg" xmlns:xlink="http://www.w3.org/1999/xlink" xml:space="preserve" xmlns:serif="http://www.serif.com/" style="fill-rule:evenodd;clip-rule:evenodd;stroke-linejoin:round;stroke-miterlimit:2;">
    <g transform="matrix(1,0,0,1,53.27,168.12)">
        <g>
            <text x="0px" y="0px" style="font-family:'Georgia', serif;font-size:102.254px;fill:rgb(113,163,26);">Professionalisierung</text>
        </g>
    </g>
    <g transform="matrix(1,0,0,1,321.85,208.38)">
        <g>
            <text x="0px" y="0px" style="font-family:'ArialMT', 'Arial', sans-serif;font-size:36.606px;">Lebenslanges Lernen</text>
        </g>
    </g>
    <g transform="matrix(1,0,0,1,316.092,70.9258)">
        <g>
            <text x="0px" y="0px" style="font-family:'ArialMT', 'Arial', sans-serif;font-size:42.606px;">Unterrichtsmethoden</text>
        </g>
    </g>
    <g transform="matrix(1,0,0,1,460.02,238.03)">
        <g>
            <text x="0px" y="0px" style="font-family:'ArialMT', 'Arial', sans-serif;font-size:25.563px;">Innovation Hub</text>
        </g>
    </g>
    <g transform="matrix(0.73,0.68,-0.68,0.73,698.551,175.273)">
        <g>
            <text x="0px" y="0px" style="font-family:'ArialMT', 'Arial', sans-serif;font-size:10.651px;fill:rgb(113,163,26);">Zusammenarbeit</text>
        </g>
    </g>
    <g transform="matrix(1,0,0,1,57.11,238.38)">
        <g>
            <text x="0px" y="0px" style="font-family:'Georgia', serif;font-size:42.606px;fill:rgb(113,163,26);">Räume schaﬀen</text>
        </g>
    </g>
    <g transform="matrix(0.4,-0.92,0.92,0.4,818.772,235.974)">
        <g>
            <text x="0px" y="0px" style="font-family:'Georgia', serif;font-size:10.651px;fill:rgb(113,163,26);">Weiterbildung</text>
        </g>
    </g>
    <g transform="matrix(1,0,0,1,426.25,106.69)">
        <g>
            <text x="0px" y="0px" style="font-family:'Georgia', serif;font-size:21.303px;fill:rgb(113,163,26);">Förderplanung</text>
        </g>
    </g>
    <g transform="matrix(1,0,0,1,490.12,24.69)">
        <g>
            <text x="0px" y="0px" style="font-family:'CourierNewPSMT', 'Courier New', monospace;font-size:21.303px;fill:rgb(113,163,26);">Differenzierung</text>
        </g>
    </g>
    <g transform="matrix(1,0,0,1,682.46,36.37)">
        <g>
            <text x="0px" y="0px" style="font-family:'CourierNewPSMT', 'Courier New', monospace;font-size:29.824px;fill:rgb(113,163,26);">Inklusion</text>
        </g>
    </g>
    <g transform="matrix(1,-0.07,0.07,1,69.8666,64.5249)">
        <g>
            <text x="0px" y="0px" style="font-family:'Georgia', serif;font-size:42.606px;">Diagnostik</text>
        </g>
    </g>
    <g transform="matrix(1,0,0,1,93.81,201.38)">
        <g>
            <text x="0px" y="0px" style="font-family:'ArialMT', 'Arial', sans-serif;font-size:42.606px;">Partizipativ</text>
        </g>
    </g>
    <g transform="matrix(1,0,0,1,330.3,25.69)">
        <g>
            <text x="0px" y="0px" style="font-family:'CourierNewPSMT', 'Courier New', monospace;font-size:21.303px;">Förderschule</text>
        </g>
    </g>
    <g transform="matrix(1,0,0,1,293.86,112.69)">
        <g>
            <text x="0px" y="0px" style="font-family:'ArialMT', 'Arial', sans-serif;font-size:21.303px;fill:rgb(113,163,26);">Förderung</text>
        </g>
    </g>
    <g transform="matrix(0.56,-0.83,0.83,0.56,863.449,109.881)">
        <g>
            <text x="0px" y="0px" style="font-family:'Georgia', serif;font-size:21.303px;">Innovation</text>
        </g>
    </g>
    <g transform="matrix(1,0,0,1,740.68,106.69)">
        <g>
            <text x="0px" y="0px" style="font-family:'ArialMT', 'Arial', sans-serif;font-size:21.303px;">Forschung</text>
        </g>
    </g>
    <g transform="matrix(0.51,-0.86,0.86,0.51,778.581,229.194)">
        <g>
            <text x="0px" y="0px" style="font-family:'CourierNewPSMT', 'Courier New', monospace;font-size:10.651px;">Ausbildung</text>
        </g>
    </g>
    <g transform="matrix(1,0,0,1,726.434,60.6605)">
        <g>
            <text x="0px" y="0px" style="font-family:'CourierNewPSMT', 'Courier New', monospace;font-size:21.303px;fill:rgb(113,163,26);">Kooperation</text>
        </g>
    </g>
    <g transform="matrix(1,0,0,1,93.08,26.69)">
        <g>
            <text x="0px" y="0px" style="font-family:'CourierNewPSMT', 'Courier New', monospace;font-size:21.303px;">Mitmachen!</text>
        </g>
    </g>
    <g transform="matrix(1,0,0,1,370.2,232.69)">
        <g>
            <text x="0px" y="0px" style="font-family:'Georgia', serif;font-size:21.303px;">Netzwerk</text>
        </g>
    </g>
    <g transform="matrix(1,0,0,1,838.08,218.69)">
        <g>
            <text x="0px" y="0px" style="font-family:'CourierNewPSMT', 'Courier New', monospace;font-size:21.303px;">Zertiﬁkat</text>
        </g>
    </g>
    <g transform="matrix(1,0,0,1,136.006,107.823)">
        <g>
            <text x="0px" y="0px" style="font-family:'ArialMT', 'Arial', sans-serif;font-size:21.303px;fill:rgb(113,163,26);">Bildung</text>
        </g>
    </g>
    <g transform="matrix(1,0,0,1,663.81,239.69)">
        <g>
            <text x="0px" y="0px" style="font-family:'Georgia', serif;font-size:21.303px;">Transfer</text>
        </g>
    </g>
    <g transform="matrix(0,1,-1,0,45.31,74.08)">
        <g>
            <text x="0px" y="0px" style="font-family:'CourierNewPSMT', 'Courier New', monospace;font-size:21.303px;fill:rgb(113,163,26);">Unterricht</text>
        </g>
    </g>
    <g transform="matrix(1,0,0,1,67.0562,82.9297)">
        <g>
            <text x="0px" y="0px" style="font-family:'ArialMT', 'Arial', sans-serif;font-size:21.303px;fill:rgb(113,163,26);">T<tspan x="12.222px 19.316px " y="0px 0px ">ra</tspan>ining</text>
        </g>
    </g>
    <g transform="matrix(0.76,0.65,-0.65,0.76,943.701,14.2644)">
        <g>
            <text x="0px" y="0px" style="font-family:'Georgia', serif;font-size:17.042px;">Austausch</text>
        </g>
    </g>
    <g transform="matrix(1,0,0,1,853.87,195.69)">
        <g>
            <text x="0px" y="0px" style="font-family:'ArialMT', 'Arial', sans-serif;font-size:21.303px;fill:rgb(113,163,26);">MOOC</text>
        </g>
    </g>
    <g transform="matrix(1,0,0,1,723.32,182.69)">
        <g>
            <text x="0px" y="0px" style="font-family:'Georgia', serif;font-size:21.303px;fill:rgb(113,163,26);">Lernen</text>
        </g>
    </g>
    <g transform="matrix(1,0,0,1,484.32,180.35)">
        <g>
            <text x="0px" y="0px" style="font-family:'CourierNewPSMT', 'Courier New', monospace;font-size:17.042px;fill:rgb(113,163,26);">Schule</text>
        </g>
    </g>
    <g transform="matrix(1,0,0,1,905.194,78.5234)">
        <g>
            <text x="0px" y="0px" style="font-family:'Georgia', serif;font-size:11.93px;fill:rgb(113,163,26);">Sonderpädagogik</text>
        </g>
    </g>
    <g transform="matrix(1,0,0,1,548.88,175.68)">
        <g>
            <text x="0px" y="0px" style="font-family:'CourierNewPSMT', 'Courier New', monospace;font-size:8.521px;">Deutschland</text>
        </g>
    </g>
    <g transform="matrix(0.491504,-0.866559,0.866559,0.491504,281.945,94.1884)">
        <g>
            <text x="0px" y="0px" style="font-family:'Georgia', serif;font-size:6.391px;fill:rgb(113,163,26);">Professionalisierung</text>
        </g>
    </g>
    <g transform="matrix(1,0,0,1,641.134,85.4518)">
        <g>
            <text x="0px" y="0px" style="font-family:'CourierNewPSMT', 'Courier New', monospace;font-size:10.651px;fill:rgb(113,163,26);">Open Educational Resources</text>
        </g>
    </g>
    <g transform="matrix(1,0,0,1,749.978,13.7354)">
        <g>
            <text x="0px" y="0px" style="font-family:'ArialMT', 'Arial', sans-serif;font-size:10.651px;">Lebenslanges Lernen</text>
        </g>
    </g>
    <g transform="matrix(1,0.04,-0.04,1,514.014,83.6148)">
        <g>
            <text x="0px" y="0px" style="font-family:'ArialMT', 'Arial', sans-serif;font-size:5.326px;">Unterrichtsmethoden</text>
        </g>
    </g>
    <g transform="matrix(0.6,0.8,-0.8,0.6,694.492,183.006)">
        <g>
            <text x="0px" y="0px" style="font-family:'ArialMT', 'Arial', sans-serif;font-size:6.391px;">Innovation Hub</text>
        </g>
    </g>
    <g transform="matrix(1,0,0,1,888.78,234.295)">
        <g>
            <text x="0px" y="0px" style="font-family:'ArialMT', 'Arial', sans-serif;font-size:10.651px;fill:rgb(113,163,26);">Zusammenarbeit</text>
        </g>
    </g>
    <g transform="matrix(1,0,0,1,378.28,183.35)">
        <g>
            <text x="0px" y="0px" style="font-family:'Georgia', serif;font-size:10.651px;fill:rgb(113,163,26);">Räume schaﬀen</text>
        </g>
    </g>
    <g transform="matrix(0.27,0.96,-0.96,0.27,967.612,132.293)">
        <g>
            <text x="0px" y="0px" style="font-family:'Georgia', serif;font-size:10.651px;fill:rgb(113,163,26);">Weiterbildung</text>
        </g>
    </g>
    <g transform="matrix(0.98,-0.19,0.19,0.98,521.981,118.998)">
        <g>
            <text x="0px" y="0px" style="font-family:'Georgia', serif;font-size:5.326px;fill:rgb(113,163,26);">Förderplanung</text>
        </g>
    </g>
    <g transform="matrix(1,0,0,1,544.06,217.35)">
        <g>
            <text x="0px" y="0px" style="font-family:'CourierNewPSMT', 'Courier New', monospace;font-size:10.651px;fill:rgb(113,163,26);">Differenzierung</text>
        </g>
    </g>
    <g transform="matrix(0.85,-0.52,0.52,0.85,637.106,233.457)">
        <g>
            <text x="0px" y="0px" style="font-family:'CourierNewPSMT', 'Courier New', monospace;font-size:7.456px;fill:rgb(113,163,26);">Inklusion</text>
        </g>
    </g>
    <g transform="matrix(0.66,-0.75,0.75,0.66,784.669,234.351)">
        <g>
            <text x="0px" y="0px" style="font-family:'Georgia', serif;font-size:10.651px;">Diagnostik</text>
        </g>
    </g>
    <g transform="matrix(1,0,0,1,637.95,177.35)">
        <g>
            <text x="0px" y="0px" style="font-family:'ArialMT', 'Arial', sans-serif;font-size:10.651px;">Partizipativ</text>
        </g>
    </g>
    <g transform="matrix(1,0,0,1,340.43,98.35)">
        <g>
            <text x="0px" y="0px" style="font-family:'ArialMT', 'Arial', sans-serif;font-size:10.651px;fill:rgb(113,163,26);">Förderung</text>
        </g>
    </g>
    <g transform="matrix(1,0,0,1,272.84,20.35)">
        <g>
            <text x="0px" y="0px" style="font-family:'ArialMT', 'Arial', sans-serif;font-size:10.651px;">Forschung</text>
        </g>
    </g>
    <g transform="matrix(1,0,0,1,218.651,72.2856)">
        <g>
            <text x="0px" y="0px" style="font-family:'CourierNewPSMT', 'Courier New', monospace;font-size:10.651px;">Ausbildung</text>
        </g>
    </g>
    <g transform="matrix(1,0,0,1,367.04,241.35)">
        <g>
            <text x="0px" y="0px" style="font-family:'CourierNewPSMT', 'Courier New', monospace;font-size:10.651px;">Mitmachen!</text>
        </g>
    </g>
    <g transform="matrix(1,0,0,1,240.6,110.35)">
        <g>
            <text x="0px" y="0px" style="font-family:'Georgia', serif;font-size:10.651px;">Netzwerk</text>
        </g>
    </g>
    <g transform="matrix(1,0,0,1,401.04,115.35)">
        <g>
            <text x="0px" y="0px" style="font-family:'CourierNewPSMT', 'Courier New', monospace;font-size:10.651px;">Zertiﬁkat</text>
        </g>
    </g>
    <g transform="matrix(1,0,0,1,641.001,105.71)">
        <g>
            <text x="0px" y="0px" style="font-family:'ArialMT', 'Arial', sans-serif;font-size:10.651px;fill:rgb(113,163,26);">Bildung</text>
        </g>
    </g>
    <g transform="matrix(0.84,0.54,-0.54,0.84,732.307,190.96)">
        <g>
            <text x="0px" y="0px" style="font-family:'Georgia', serif;font-size:10.651px;">Transfer</text>
        </g>
    </g>
    <g transform="matrix(0.99,0.12,-0.12,0.99,914.944,49.3312)">
        <g>
            <text x="0px" y="0px" style="font-family:'CourierNewPSMT', 'Courier New', monospace;font-size:10.651px;fill:rgb(113,163,26);">Unterricht</text>
        </g>
    </g>
    <g transform="matrix(1,0,0,1,278.934,32.8)">
        <g>
            <text x="0px" y="0px" style="font-family:'ArialMT', 'Arial', sans-serif;font-size:10.651px;fill:rgb(113,163,26);">T<tspan x="6.111px 9.658px " y="0px 0px ">ra</tspan>ining</text>
        </g>
    </g>
    <g transform="matrix(0.2,-0.98,0.98,0.2,526.732,157.617)">
        <g>
            <text x="0px" y="0px" style="font-family:'Georgia', serif;font-size:8.521px;">Austausch</text>
        </g>
    </g>
    <g transform="matrix(1,0,0,1,415.43,217.35)">
        <g>
            <text x="0px" y="0px" style="font-family:'ArialMT', 'Arial', sans-serif;font-size:10.651px;fill:rgb(113,163,26);">MOOC</text>
        </g>
    </g>
    <g transform="matrix(1,0,0,1,681.16,225.35)">
        <g>
            <text x="0px" y="0px" style="font-family:'Georgia', serif;font-size:10.651px;fill:rgb(113,163,26);">Lernen</text>
        </g>
    </g>
    <g transform="matrix(0.07,-1,1,0.07,29.8208,231.058)">
        <g>
            <text x="0px" y="0px" style="font-family:'ArialMT', 'Arial', sans-serif;font-size:8.521px;">Kooperationsverbünde</text>
        </g>
    </g>
    <g transform="matrix(1,0,0,1,898.129,103.729)">
        <g>
            <text x="0px" y="0px" style="font-family:'CourierNewPSMT', 'Courier New', monospace;font-size:17.042px;fill:rgb(113,163,26);">Schule</text>
        </g>
    </g>
    <g transform="matrix(1,0,0,1,795.56,72.2172)">
        <g>
            <text x="0px" y="0px" style="font-family:'Georgia', serif;font-size:5.965px;fill:rgb(113,163,26);">Sonderpädagogik</text>
        </g>
    </g>
    <g transform="matrix(1,0,0,1,718.88,42.68)">
        <g>
            <text x="0px" y="0px" style="font-family:'CourierNewPSMT', 'Courier New', monospace;font-size:8.521px;">Deutschland</text>
        </g>
    </g>
    <g transform="matrix(1,0,0,1,851.494,12.8274)">
        <g>
            <text x="0px" y="0px" style="font-family:'Georgia', serif;font-size:6.391px;fill:rgb(113,163,26);">Professionalisierung</text>
        </g>
    </g>
</svg>
