<?xml version="1.0" encoding="UTF-8" standalone="no"?>
<!DOCTYPE svg PUBLIC "-//W3C//DTD SVG 1.1//EN" "http://www.w3.org/Graphics/SVG/1.1/DTD/svg11.dtd">
<svg width="100%" height="100%" viewBox="0 0 1024 250" version="1.1" xmlns="http://www.w3.org/2000/svg" xmlns:xlink="http://www.w3.org/1999/xlink" xml:space="preserve" xmlns:serif="http://www.serif.com/" style="fill-rule:evenodd;clip-rule:evenodd;stroke-linejoin:round;stroke-miterlimit:2;">
    <g transform="matrix(1,0,0,1,185.79,149.47)">
        <g>
            <text x="0px" y="0px" style="font-family:'CourierNewPS-BoldMT', 'Courier New', monospace;font-weight:700;font-size:74.703px;fill:rgb(113,163,26);">Digitalisierung</text>
        </g>
    </g>
    <g transform="matrix(0.44,0.9,-0.9,0.44,131.075,69.8032)">
        <g>
            <text x="0px" y="0px" style="font-family:'ArialMT', 'Arial', sans-serif;font-size:18.676px;fill:rgb(113,163,26);">Digital Kompetenzen</text>
        </g>
    </g>
    <g transform="matrix(0.65,-0.76,0.76,0.65,801.851,239.791)">
        <g>
            <text x="0px" y="0px" style="font-family:'Georgia', serif;font-size:22.411px;fill:rgb(113,163,26);">Innovation Hub</text>
        </g>
    </g>
    <g transform="matrix(1,0,0,1,268.45,186.73)">
        <g>
            <text x="0px" y="0px" style="font-family:'CourierNewPSMT', 'Courier New', monospace;font-size:37.352px;fill:rgb(113,163,26);">Künstliche Intelligenz</text>
        </g>
    </g>
    <g transform="matrix(0.98,0.17,-0.17,0.98,396.059,56.4332)">
        <g>
            <text x="0px" y="0px" style="font-family:'ArialMT', 'Arial', sans-serif;font-size:37.352px;">Räume schaf<tspan x="219.386px 229.763px " y="0px 0px ">fe</tspan>n</text>
        </g>
    </g>
    <g transform="matrix(1,0,0,1,384.11,216.73)">
        <g>
            <text x="0px" y="0px" style="font-family:'Georgia', serif;font-size:37.352px;">Zusammenarbeit</text>
        </g>
    </g>
    <g transform="matrix(1,0,0,1,465.93,38.73)">
        <g>
            <text x="0px" y="0px" style="font-family:'Georgia', serif;font-size:37.352px;fill:rgb(113,163,26);">Diﬀerenzierung</text>
        </g>
    </g>
    <g transform="matrix(0.66,-0.75,0.75,0.66,319.087,108.824)">
        <g>
            <text x="0px" y="0px" style="font-family:'Georgia', serif;font-size:18.676px;fill:rgb(113,163,26);">Soziale Medien</text>
        </g>
    </g>
    <g transform="matrix(0.94,0.34,-0.34,0.94,760.821,44.723)">
        <g>
            <text x="0px" y="0px" style="font-family:'ArialMT', 'Arial', sans-serif;font-size:37.352px;">Förderplanung</text>
        </g>
    </g>
    <g transform="matrix(1,0,0,1,97.9,50.73)">
        <g>
            <text x="0px" y="0px" style="font-family:'Georgia', serif;font-size:37.352px;">Digital Literacy</text>
        </g>
    </g>
    <g transform="matrix(1,0,0,1,403.4,92.21)">
        <g>
            <text x="0px" y="0px" style="font-family:'ArialMT', 'Arial', sans-serif;font-size:26.146px;">Inklusion</text>
        </g>
    </g>
    <g transform="matrix(1,0,0,1,461.07,230.87)">
        <g>
            <text x="0px" y="0px" style="font-family:'ArialMT', 'Arial', sans-serif;font-size:18.676px;fill:rgb(113,163,26);">W<tspan x="17.29px 27.676px " y="0px 0px ">ei</tspan>terbildung</text>
        </g>
    </g>
    <g transform="matrix(1,0,0,1,525.15,53.87)">
        <g>
            <text x="0px" y="0px" style="font-family:'ArialMT', 'Arial', sans-serif;font-size:18.676px;fill:rgb(113,163,26);">Accessibility</text>
        </g>
    </g>
    <g transform="matrix(1,0,0,1,579.58,234.87)">
        <g>
            <text x="0px" y="0px" style="font-family:'Georgia', serif;font-size:18.676px;fill:rgb(113,163,26);">Förderschule</text>
        </g>
    </g>
    <g transform="matrix(1,0,0,1,405.806,159.636)">
        <g>
            <text x="0px" y="0px" style="font-family:'CourierNewPSMT', 'Courier New', monospace;font-size:14.941px;fill:rgb(113,163,26);">Assistive Technologies</text>
        </g>
    </g>
    <g transform="matrix(0.99,0.17,-0.17,0.99,285.881,213.427)">
        <g>
            <text x="0px" y="0px" style="font-family:'CourierNewPSMT', 'Courier New', monospace;font-size:18.676px;">Sprachausgabe</text>
        </g>
    </g>
    <g transform="matrix(1,0,0,1,630.65,68.87)">
        <g>
            <text x="0px" y="0px" style="font-family:'Georgia', serif;font-size:18.676px;fill:rgb(113,163,26);">Mitmachen!</text>
        </g>
    </g>
    <g transform="matrix(0.97,-0.26,0.26,0.97,835.08,226.061)">
        <g>
            <text x="0px" y="0px" style="font-family:'CourierNewPSMT', 'Courier New', monospace;font-size:22.411px;">Open Source</text>
        </g>
    </g>
    <g transform="matrix(1,0,0,1,667.56,94.87)">
        <g>
            <text x="0px" y="0px" style="font-family:'Georgia', serif;font-size:18.676px;">Kooperation</text>
        </g>
    </g>
    <g transform="matrix(1,0,0,1,677.68,217.87)">
        <g>
            <text x="0px" y="0px" style="font-family:'Georgia', serif;font-size:18.676px;">Ausbildung</text>
        </g>
    </g>
    <g transform="matrix(1,0,0,1,811.8,38.73)">
        <g>
            <text x="0px" y="0px" style="font-family:'ArialMT', 'Arial', sans-serif;font-size:37.352px;">Diagnostik</text>
        </g>
    </g>
    <g transform="matrix(0.96,0.29,-0.29,0.96,741.49,160.39)">
        <g>
            <text x="0px" y="0px" style="font-family:'Georgia', serif;font-size:18.676px;fill:rgb(113,163,26);">Unterricht</text>
        </g>
    </g>
    <g transform="matrix(0.2,-0.98,0.98,0.2,66.2574,225.812)">
        <g>
            <text x="0px" y="0px" style="font-family:'ArialMT', 'Arial', sans-serif;font-size:37.352px;fill:rgb(113,163,26);">Innovation</text>
        </g>
    </g>
    <g transform="matrix(1,0,0,1,189.76,80.87)">
        <g>
            <text x="0px" y="0px" style="font-family:'CourierNewPSMT', 'Courier New', monospace;font-size:18.676px;fill:rgb(113,163,26);">Partizipativ</text>
        </g>
    </g>
    <g transform="matrix(1,0.01,-0.01,1,527.671,107.477)">
        <g>
            <text x="0px" y="0px" style="font-family:'Georgia', serif;font-size:18.676px;">Netzwerk</text>
        </g>
    </g>
    <g transform="matrix(0.09,1,-1,0.09,130.502,103.484)">
        <g>
            <text x="0px" y="0px" style="font-family:'CourierNewPSMT', 'Courier New', monospace;font-size:18.676px;">Mobile App</text>
        </g>
    </g>
    <g transform="matrix(0.86,-0.51,0.51,0.86,848.624,205.767)">
        <g>
            <text x="0px" y="0px" style="font-family:'CourierNewPSMT', 'Courier New', monospace;font-size:18.676px;">Förderung</text>
        </g>
    </g>
    <g transform="matrix(0.85,0.52,-0.52,0.85,731.691,51.0911)">
        <g>
            <text x="0px" y="0px" style="font-family:'ArialMT', 'Arial', sans-serif;font-size:18.676px;">T<tspan x="10.715px 16.934px " y="0px 0px ">ra</tspan>nsfer</text>
        </g>
    </g>
    <g transform="matrix(1,0,0,1,285.75,23.87)">
        <g>
            <text x="0px" y="0px" style="font-family:'ArialMT', 'Arial', sans-serif;font-size:18.676px;fill:rgb(113,163,26);">Start Up</text>
        </g>
    </g>
    <g transform="matrix(1,0,0,1,599.48,153.52)">
        <g>
            <text x="0px" y="0px" style="font-family:'CourierNewPSMT', 'Courier New', monospace;font-size:11.205px;">Lebenslanges Lernen</text>
        </g>
    </g>
    <g transform="matrix(1,0,0,1,269.57,238.87)">
        <g>
            <text x="0px" y="0px" style="font-family:'CourierNewPSMT', 'Courier New', monospace;font-size:18.676px;fill:rgb(113,163,26);">Forschung</text>
        </g>
    </g>
    <g transform="matrix(1,0,0,1,692.17,239.87)">
        <g>
            <text x="0px" y="0px" style="font-family:'CourierNewPSMT', 'Courier New', monospace;font-size:18.676px;">Webseite</text>
        </g>
    </g>
    <g transform="matrix(1,0,0,1,319.267,162.05)">
        <g>
            <text x="0px" y="0px" style="font-family:'ArialMT', 'Arial', sans-serif;font-size:14.941px;">Austausch</text>
        </g>
    </g>
    <g transform="matrix(1,0,0,1,776.17,105.87)">
        <g>
            <text x="0px" y="0px" style="font-family:'CourierNewPSMT', 'Courier New', monospace;font-size:18.676px;fill:rgb(113,163,26);">Training</text>
        </g>
    </g>
    <g transform="matrix(1,0,0,1,403.95,27.87)">
        <g>
            <text x="0px" y="0px" style="font-family:'ArialMT', 'Arial', sans-serif;font-size:18.676px;fill:rgb(113,163,26);">MOOC</text>
        </g>
    </g>
    <g transform="matrix(1,0,0,1,211.176,168.509)">
        <g>
            <text x="0px" y="0px" style="font-family:'ArialMT', 'Arial', sans-serif;font-size:18.676px;">Lernen</text>
        </g>
    </g>
    <g transform="matrix(1,0,0,1,159.78,235.87)">
        <g>
            <text x="0px" y="0px" style="font-family:'CourierNewPSMT', 'Courier New', monospace;font-size:18.676px;fill:rgb(113,163,26);">Bildung</text>
        </g>
    </g>
    <g transform="matrix(1,0,0,1,76.78,236.87)">
        <g>
            <text x="0px" y="0px" style="font-family:'CourierNewPSMT', 'Courier New', monospace;font-size:18.676px;">Digital</text>
        </g>
    </g>
    <g transform="matrix(0.76,0.65,-0.65,0.76,938.919,138.658)">
        <g>
            <text x="0px" y="0px" style="font-family:'Georgia', serif;font-size:29.881px;fill:rgb(113,163,26);">Schule</text>
        </g>
    </g>
    <g transform="matrix(1,0,0,1,424.75,194.29)">
        <g>
            <text x="0px" y="0px" style="font-family:'Georgia', serif;font-size:10.458px;">Sonderpädagogik</text>
        </g>
    </g>
    <g transform="matrix(1,0,0,1,666.97,201.93)">
        <g>
            <text x="0px" y="0px" style="font-family:'CourierNewPSMT', 'Courier New', monospace;font-size:9.338px;fill:rgb(113,163,26);">Digitalisierung</text>
        </g>
    </g>
    <g transform="matrix(1,0,0,1,515.92,192.93)">
        <g>
            <text x="0px" y="0px" style="font-family:'ArialMT', 'Arial', sans-serif;font-size:9.338px;fill:rgb(113,163,26);">Digital Kompetenzen</text>
        </g>
    </g>
    <g transform="matrix(0.23,-0.97,0.97,0.23,90.6059,222.472)">
        <g>
            <text x="0px" y="0px" style="font-family:'Georgia', serif;font-size:22.411px;fill:rgb(113,163,26);">Innovation Hub</text>
        </g>
    </g>
    <g transform="matrix(1,0,0,1,198.36,65.93)">
        <g>
            <text x="0px" y="0px" style="font-family:'CourierNewPSMT', 'Courier New', monospace;font-size:9.338px;fill:rgb(113,163,26);">Künstliche Intelligenz</text>
        </g>
    </g>
    <g transform="matrix(1,0,0,1,221.09,89.93)">
        <g>
            <text x="0px" y="0px" style="font-family:'ArialMT', 'Arial', sans-serif;font-size:9.338px;">Räume schaf<tspan x="54.846px 57.441px " y="0px 0px ">fe</tspan>n</text>
        </g>
    </g>
    <g transform="matrix(1,0,0,1,388.78,108.93)">
        <g>
            <text x="0px" y="0px" style="font-family:'Georgia', serif;font-size:9.338px;">Zusammenarbeit</text>
        </g>
    </g>
    <g transform="matrix(1,0,0,1,876.471,235.761)">
        <g>
            <text x="0px" y="0px" style="font-family:'Georgia', serif;font-size:18.676px;fill:rgb(113,163,26);">Diﬀerenzierung</text>
        </g>
    </g>
    <g transform="matrix(1,0,0,1,362.7,72.93)">
        <g>
            <text x="0px" y="0px" style="font-family:'Georgia', serif;font-size:9.338px;fill:rgb(113,163,26);">Soziale Medien</text>
        </g>
    </g>
    <g transform="matrix(1,0,0,1,710.63,102.93)">
        <g>
            <text x="0px" y="0px" style="font-family:'ArialMT', 'Arial', sans-serif;font-size:9.338px;">Förderplanung</text>
        </g>
    </g>
    <g transform="matrix(0.88,0.48,-0.48,0.88,755.627,175.324)">
        <g>
            <text x="0px" y="0px" style="font-family:'Georgia', serif;font-size:9.338px;">Digital Literacy</text>
        </g>
    </g>
    <g transform="matrix(0.95,-0.32,0.32,0.95,259.805,119.16)">
        <g>
            <text x="0px" y="0px" style="font-family:'ArialMT', 'Arial', sans-serif;font-size:13.073px;">Inklusion</text>
        </g>
    </g>
    <g transform="matrix(1,0,0,1,229.54,219.93)">
        <g>
            <text x="0px" y="0px" style="font-family:'ArialMT', 'Arial', sans-serif;font-size:9.338px;fill:rgb(113,163,26);">W<tspan x="8.645px 13.838px " y="0px 0px ">ei</tspan>terbildung</text>
        </g>
    </g>
    <g transform="matrix(1,0,0,1,139.12,18.52)">
        <g>
            <text x="0px" y="0px" style="font-family:'ArialMT', 'Arial', sans-serif;font-size:11.205px;fill:rgb(113,163,26);">Open Educational Resources</text>
        </g>
    </g>
    <g transform="matrix(1,0,0,1,729.865,17.4768)">
        <g>
            <text x="0px" y="0px" style="font-family:'ArialMT', 'Arial', sans-serif;font-size:9.338px;fill:rgb(113,163,26);">Accessibility</text>
        </g>
    </g>
    <g transform="matrix(1,0,0,1,533.79,17.93)">
        <g>
            <text x="0px" y="0px" style="font-family:'Georgia', serif;font-size:9.338px;fill:rgb(113,163,26);">Förderschule</text>
        </g>
    </g>
    <g transform="matrix(1,0,0,1,214.58,195.93)">
        <g>
            <text x="0px" y="0px" style="font-family:'CourierNewPSMT', 'Courier New', monospace;font-size:9.338px;">Sprachausgabe</text>
        </g>
    </g>
    <g transform="matrix(0.65,0.76,-0.76,0.65,157.413,58.7753)">
        <g>
            <text x="0px" y="0px" style="font-family:'Georgia', serif;font-size:9.338px;fill:rgb(113,163,26);">Mitmachen!</text>
        </g>
    </g>
    <g transform="matrix(1,0,0,1,626.31,111.395)">
        <g>
            <text x="0px" y="0px" style="font-family:'CourierNewPSMT', 'Courier New', monospace;font-size:11.205px;">Open Source</text>
        </g>
    </g>
    <g transform="matrix(0.74,-0.67,0.67,0.74,355.535,114.401)">
        <g>
            <text x="0px" y="0px" style="font-family:'Georgia', serif;font-size:9.338px;">Kooperation</text>
        </g>
    </g>
    <g transform="matrix(1,0,0,1,898.68,56.87)">
        <g>
            <text x="0px" y="0px" style="font-family:'Georgia', serif;font-size:18.676px;">Ausbildung</text>
        </g>
    </g>
    <g transform="matrix(0.25,-0.97,0.97,0.25,61.7939,100.76)">
        <g>
            <text x="0px" y="0px" style="font-family:'ArialMT', 'Arial', sans-serif;font-size:18.676px;">Diagnostik</text>
        </g>
    </g>
    <g transform="matrix(1,0,0,1,477.2,48.93)">
        <g>
            <text x="0px" y="0px" style="font-family:'Georgia', serif;font-size:9.338px;fill:rgb(113,163,26);">Unterricht</text>
        </g>
    </g>
    <g transform="matrix(1,0,0,1,339.45,206.93)">
        <g>
            <text x="0px" y="0px" style="font-family:'ArialMT', 'Arial', sans-serif;font-size:9.338px;fill:rgb(113,163,26);">Innovation</text>
        </g>
    </g>
</svg>
