<?xml version="1.0" encoding="UTF-8"?>
<svg width="204px" height="79px" viewBox="0 0 204 79" version="1.1" xmlns="http://www.w3.org/2000/svg" xmlns:xlink="http://www.w3.org/1999/xlink">
    <title>Logo/Logo-PH_Ludwigsburg</title>
    <g id="Symbols" stroke="none" stroke-width="1" fill="none" fill-rule="evenodd">
        <g id="Element/Header" transform="translate(-135.000000, -80.000000)">
            <g id="Header">
                <g id="Logo/Logo-PH_Ludwigsburg" transform="translate(135.000000, 80.000000)">
                    <g id="Logo_PH_Ludwigsburg">
                        <polygon id="path575" fill="#006633" fill-rule="nonzero" points="29.0119785 74.1477857 35.9189553 74.1477857 35.9189553 41.9119186 29.0119785 41.9119186"></polygon>
                        <polygon id="path579" fill="#006633" fill-rule="nonzero" points="64.9380883 7.10030422 48.3587975 46.839758 48.3587975 74.1487051 55.2680893 74.1487051 55.2680893 48.2039413 64.9380883 25.0220187"></polygon>
                        <polygon id="path583" fill="#84B819" fill-rule="nonzero" points="57.444598 0 38.6891542 44.9594375 38.6891542 74.1485948 45.5961309 74.1485948 45.5961309 46.3247701 64.9210791 0"></polygon>
                        <polygon id="path587" fill="#006633" fill-rule="nonzero" points="4.95122467 0 0.000472271914 0 0.000472271914 4.93956193 19.3416277 32.3634397 19.3416277 64.5487435 26.249762 64.5487435 26.249762 30.2016631"></polygon>
                        <polygon id="path591" fill="#84B819" fill-rule="nonzero" points="0 9.71766247 0 21.6746663 9.67115648 35.3877544 9.67115648 70.7209111 16.5781332 70.7209111 16.5781332 33.2259778"></polygon>
                        <g id="g601" transform="translate(69.344228, 52.282240) scale(-1, 1) rotate(-180.000000) translate(-69.344228, -52.282240) translate(65.871640, 45.961256)" fill="#00492C" fill-rule="nonzero">
                            <path d="M2.3150584,6.89561925 L3.13690414,6.89561925 C4.50047353,6.89561925 5.66263285,7.30361006 5.66263285,8.87696052 C5.66263285,10.6686723 4.20877618,10.799689 2.77112491,10.799689 L2.3150584,10.799689 L2.3150584,6.89561925 Z M2.3150584,0.950446187 L1.08344733,0.950446187 L1.08344733,11.9351677 L2.90192571,11.9351677 C3.85572977,11.9351677 4.83962959,11.9064359 5.64642744,11.3536371 C6.46827318,10.7847485 6.89424392,9.82280963 6.89424392,8.8470795 C6.89424392,7.95754462 6.52730717,7.0542185 5.83626223,6.48762845 C5.08849837,5.87391833 4.13353678,5.75899135 3.210986,5.75899135 L2.3150584,5.75899135 L2.3150584,0.950446187 Z" id="path603"></path>
                        </g>
                        <g id="g605" transform="translate(77.998722, 52.275907) scale(-1, 1) rotate(-180.000000) translate(-77.998722, -52.275907) translate(73.368605, 46.529558)" fill="#00492C" fill-rule="nonzero">
                            <polygon id="path607" points="6.94517521 6.89561925 6.94517521 11.3547864 8.17678628 11.3547864 8.17678628 0.3700649 6.94517521 0.3700649 6.94517521 5.76014062 2.11017573 5.76014062 2.11017573 0.3700649 0.878564664 0.3700649 0.878564664 11.3547864 2.11017573 11.3547864 2.11017573 6.89561925"></polygon>
                        </g>
                        <g id="g609" transform="translate(88.988535, 51.919531) scale(-1, 1) rotate(-180.000000) translate(-88.988535, -51.919531) translate(85.515948, 46.173181)" fill="#00492C" fill-rule="nonzero">
                            <polygon id="path611" points="2.3150584 1.14926988 6.22982216 1.14926988 6.22982216 0.0137912385 1.11354309 0.0137912385 1.11354309 10.9985127 2.3150584 10.9985127"></polygon>
                        </g>
                        <g id="g613" transform="translate(95.075537, 54.048094) scale(-1, 1) rotate(-180.000000) translate(-95.075537, -54.048094) translate(91.602949, 50.025649)" fill="#00492C" fill-rule="nonzero">
                            <path d="M2.3150584,3.44780963 C2.3150584,2.29853975 2.4458592,1.30671985 3.87077765,1.30671985 C5.29338104,1.30671985 5.4264969,2.29853975 5.4264969,3.44780963 L5.4264969,7.26453488 L6.59907398,7.26453488 L6.59907398,3.31679286 C6.59907398,1.49520011 5.91150163,0.228704705 3.87077765,0.228704705 C1.8312112,0.228704705 1.14132379,1.49520011 1.14132379,3.31679286 L1.14132379,7.26453488 L2.3150584,7.26453488 L2.3150584,3.44780963 Z" id="path615"></path>
                        </g>
                        <g id="g617" transform="translate(102.844975, 52.431301) scale(-1, 1) rotate(-180.000000) translate(-102.844975, -52.431301) translate(98.793623, 46.110316)" fill="#00492C" fill-rule="nonzero">
                            <path d="M2.3150584,4.5970795 C2.3150584,3.25588156 3.10796591,1.98823688 4.57571293,1.98823688 C6.08744607,1.98823688 6.87803851,3.19726879 6.87803851,4.58213899 C6.87803851,5.95091942 6.0133642,7.05766631 4.56066505,7.05766631 C3.19593812,7.05766631 2.3150584,5.87851541 2.3150584,4.5970795 M6.82016205,2.04570038 L6.79006629,2.04570038 C6.21824687,1.30327204 5.35241503,0.910221741 4.41365884,0.910221741 C2.38798274,0.910221741 1.11354309,2.61573824 1.11354309,4.50973499 C1.11354309,6.46119524 2.36020204,8.13683072 4.42754919,8.13683072 C5.35241503,8.13683072 6.23445228,7.70010817 6.79006629,6.97147107 L6.82016205,6.97147107 L6.82016205,12.0845727 L7.99389666,12.0845727 L7.99389666,1.09985127 L6.82016205,1.09985127 L6.82016205,2.04570038 Z" id="path619"></path>
                        </g>
                        <g id="g621" transform="translate(114.021151, 54.288417) scale(-1, 1) rotate(-180.000000) translate(-114.021151, -54.288417) translate(108.233505, 49.691337)" fill="#00492C" fill-rule="nonzero">
                            <polygon id="path623" points="3.4725876 3.44780963 5.61401663 8.60458356 7.769336 3.44780963 9.8227928 8.07936723 11.159739 8.07936723 7.7415553 0.751622499 5.61401663 5.85093294 3.48647795 0.751622499 0.0949173945 8.07936723 1.42954856 8.07936723"></polygon>
                        </g>
                        <path d="M122.095843,57.6523151 L120.918636,57.6523151 L120.918636,50.8049689 L122.095843,50.8049689 L122.095843,57.6523151 Z M122.343554,48.224858 C122.343554,48.6914616 121.960412,49.0557802 121.507818,49.0557802 C121.054067,49.0557802 120.672082,48.6914616 120.672082,48.224858 C120.672082,47.7743442 121.054067,47.3962345 121.507818,47.3962345 C121.960412,47.3962345 122.343554,47.7743442 122.343554,48.224858" id="path625" fill="#00492C" fill-rule="nonzero"></path>
                        <g id="g627" transform="translate(126.972152, 55.879110) scale(-1, 1) rotate(-180.000000) translate(-126.972152, -55.879110) translate(122.920800, 49.558126)" fill="#00492C" fill-rule="nonzero">
                            <path d="M2.3150584,8.04488913 C2.3150584,6.70369118 3.10796591,5.43604651 4.57224035,5.43604651 C6.08513101,5.43604651 6.87803851,6.64507842 6.87803851,8.02994862 C6.87803851,9.39872904 6.01220667,10.5054759 4.55834999,10.5054759 C3.19593812,10.5054759 2.3150584,9.32632504 2.3150584,8.04488913 M7.99273914,4.8832477 C7.99273914,3.79144132 7.99273914,2.84329367 7.29011891,1.93996755 C6.64306009,1.12398594 5.64411239,0.730935641 4.61854151,0.730935641 C2.69588551,0.730935641 1.27328212,1.93996755 1.22929601,3.87763656 L2.40187309,3.87763656 C2.41576344,2.60884262 3.3417868,1.80895078 4.60465116,1.80895078 C6.42197201,1.80895078 6.82016205,3.13405895 6.82016205,4.67982693 L6.82016205,5.49351001 L6.79238135,5.49351001 C6.23213722,4.78211195 5.3234768,4.35803137 4.39861096,4.35803137 C2.38914027,4.35803137 1.11122803,6.03251758 1.11122803,7.94145484 C1.11122803,9.86648188 2.40187309,11.5846403 4.44143955,11.5846403 C5.39755867,11.5846403 6.23213722,11.161709 6.79238135,10.4192807 L6.82016205,10.4192807 L6.82016205,11.3950108 L7.99273914,11.3950108 L7.99273914,4.8832477 Z" id="path629"></path>
                        </g>
                        <g id="g631" transform="translate(135.853781, 54.116590) scale(-1, 1) rotate(-180.000000) translate(-135.853781, -54.116590) translate(132.959958, 50.094145)" fill="#00492C" fill-rule="nonzero">
                            <path d="M3.4725876,5.74634938 C3.31169104,6.11066793 2.95748711,6.44395619 2.53151636,6.44395619 C2.12290856,6.44395619 1.67957487,6.12675771 1.67957487,5.68773661 C1.67957487,5.06138453 2.47479743,4.82693348 3.28043776,4.49364521 C4.08839314,4.15805841 4.88130064,3.67651433 4.88130064,2.52724446 C4.88130064,1.22742023 3.82563401,0.296511628 2.54772177,0.296511628 C1.38903504,0.296511628 0.479217089,0.952744727 0.112280333,2.03075987 L1.15405661,2.46748242 C1.4469115,1.82618983 1.7837525,1.37567604 2.56392718,1.37567604 C3.1947806,1.37567604 3.6786278,1.79860736 3.6786278,2.42381017 C3.6786278,3.95348837 0.567189309,3.42942131 0.567189309,5.5854516 C0.567189309,6.73587074 1.50594549,7.52312061 2.62180364,7.52312061 C3.41471114,7.52312061 4.14858466,6.96917253 4.45648743,6.25547593 L3.4725876,5.74634938 Z" id="path633"></path>
                        </g>
                        <g id="g635" transform="translate(143.018183, 52.431301) scale(-1, 1) rotate(-180.000000) translate(-143.018183, -52.431301) translate(139.545595, 46.110316)" fill="#00492C" fill-rule="nonzero">
                            <path d="M1.1575292,4.5970795 C1.1575292,3.25588156 1.94927917,1.98823688 3.41586867,1.98823688 C4.92991687,1.98823688 5.72050931,3.19726879 5.72050931,4.58213899 C5.72050931,5.95091942 4.85351994,7.05766631 3.40082079,7.05766631 C2.03840892,7.05766631 1.1575292,5.87851541 1.1575292,4.5970795 M0.0416710512,12.0845727 L1.21656319,12.0845727 L1.21656319,6.97147107 L1.24550142,6.97147107 C1.80227297,7.70010817 2.66810481,8.13683072 3.60801852,8.13683072 C5.66379038,8.13683072 6.92433968,6.46119524 6.92433968,4.52352623 C6.92433968,2.61573824 5.64758497,0.910221741 3.62190887,0.910221741 C2.66810481,0.910221741 1.80227297,1.30327204 1.24550142,2.04570038 L1.21656319,2.04570038 L1.21656319,1.09985127 L0.0416710512,1.09985127 L0.0416710512,12.0845727 Z" id="path637"></path>
                        </g>
                        <g id="g639" transform="translate(150.503684, 54.048094) scale(-1, 1) rotate(-180.000000) translate(-150.503684, -54.048094) translate(147.031096, 50.025649)" fill="#00492C" fill-rule="nonzero">
                            <path d="M2.3150584,3.44780963 C2.3150584,2.29853975 2.44701673,1.30671985 3.87193518,1.30671985 C5.29453857,1.30671985 5.4264969,2.29853975 5.4264969,3.44780963 L5.4264969,7.26453488 L6.60023151,7.26453488 L6.60023151,3.31679286 C6.60023151,1.49520011 5.90918657,0.228704705 3.87193518,0.228704705 C1.8312112,0.228704705 1.14363885,1.49520011 1.14363885,3.31679286 L1.14363885,7.26453488 L2.3150584,7.26453488 L2.3150584,3.44780963 Z" id="path641"></path>
                        </g>
                        <g id="g643" transform="translate(157.615080, 54.422538) scale(-1, 1) rotate(-180.000000) translate(-157.615080, -54.422538) translate(154.721257, 50.400093)" fill="#00492C" fill-rule="nonzero">
                            <path d="M2.3150584,6.89561925 L2.3428391,6.89561925 C2.7549195,7.4357761 3.10796591,7.82997566 3.87193518,7.82997566 C4.26781017,7.82997566 4.58844575,7.69780963 4.92760181,7.50932937 L4.36851521,6.44395619 C4.13585184,6.60485398 3.97495528,6.75081125 3.66589498,6.75081125 C2.37524992,6.75081125 2.3150584,5.10505679 2.3150584,4.2155219 L2.3150584,0.791846944 L1.14016626,0.791846944 L1.14016626,7.63919686 L2.3150584,7.63919686 L2.3150584,6.89561925 Z" id="path645"></path>
                        </g>
                        <g id="g647" transform="translate(163.263471, 55.879110) scale(-1, 1) rotate(-180.000000) translate(-163.263471, -55.879110) translate(159.212119, 49.558126)" fill="#00492C" fill-rule="nonzero">
                            <path d="M2.3150584,8.04488913 C2.3150584,6.70369118 3.10912343,5.43604651 4.57224035,5.43604651 C6.08628854,5.43604651 6.87688098,6.64507842 6.87688098,8.02994862 C6.87688098,9.39872904 6.01220667,10.5054759 4.55950752,10.5054759 C3.19709565,10.5054759 2.3150584,9.32632504 2.3150584,8.04488913 M7.99158161,4.8832477 C7.99158161,3.79144132 7.99158161,2.84329367 7.28896138,1.93996755 C6.64421762,1.12398594 5.64526991,0.730935641 4.61854151,0.730935641 C2.69588551,0.730935641 1.27443965,1.93996755 1.22813848,3.87763656 L2.40187309,3.87763656 C2.41692097,2.60884262 3.34410186,1.80895078 4.60580869,1.80895078 C6.4254446,1.80895078 6.81900452,3.13405895 6.81900452,4.67982693 L6.81900452,5.49351001 L6.79122382,5.49351001 C6.23329475,4.78211195 5.32231927,4.35803137 4.39861096,4.35803137 C2.38914027,4.35803137 1.11238556,6.03251758 1.11238556,7.94145484 C1.11238556,9.86648188 2.40187309,11.5846403 4.44259707,11.5846403 C5.39640114,11.5846403 6.23329475,11.161709 6.79122382,10.4192807 L6.81900452,10.4192807 L6.81900452,11.3950108 L7.99158161,11.3950108 L7.99158161,4.8832477 Z" id="path649"></path>
                        </g>
                        <g id="g651" transform="translate(70.960713, 68.758528) scale(-1, 1) rotate(-180.000000) translate(-70.960713, -68.758528) translate(66.909360, 63.012179)" fill="#00492C" fill-rule="nonzero">
                            <path d="M6.94517521,11.4926988 L7.65937073,11.4926988 L7.65937073,4.55110871 C7.65937073,3.41333153 7.65937073,2.43989995 6.90003157,1.51014062 C6.14184994,0.653934559 4.98316321,0.208017847 3.85225718,0.208017847 C2.72250868,0.208017847 1.56150689,0.653934559 0.803325266,1.51014062 C0.0451436389,2.43989995 0.0451436389,3.41333153 0.0451436389,4.55110871 L0.0451436389,11.4926988 L0.758181627,11.4926988 L0.758181627,4.75797729 C0.758181627,3.75581395 0.758181627,2.69159005 1.33926129,1.95375879 C1.89024519,1.24351001 2.9887404,0.875743645 3.85225718,0.875743645 C4.71345891,0.875743645 5.81311165,1.24351001 6.36525308,1.95375879 C6.94517521,2.69159005 6.94517521,3.75581395 6.94517521,4.75797729 L6.94517521,11.4926988 Z" id="path653"></path>
                        </g>
                        <g id="g655" transform="translate(79.220610, 70.687794) scale(-1, 1) rotate(-180.000000) translate(-79.220610, -70.687794) translate(76.326787, 66.090714)" fill="#00492C" fill-rule="nonzero">
                            <path d="M1.1575292,6.89561925 L1.18646743,6.89561925 C1.58928759,7.64954029 2.33126381,8.1069497 3.22371883,8.1069497 C4.99358097,8.1069497 5.48437336,7.01514332 5.48437336,5.25676041 L5.48437336,1.13662791 L4.81532148,1.13662791 L4.81532148,5.25676041 C4.81532148,6.48303137 4.66831527,7.48634397 3.16236978,7.48634397 C1.43996633,7.48634397 1.1575292,5.89115738 1.1575292,4.50283937 L1.1575292,1.13662791 L0.487319794,1.13662791 L0.487319794,7.95984316 L1.1575292,7.95984316 L1.1575292,6.89561925 Z" id="path657"></path>
                        </g>
                        <path d="M85.0236554,74.1477857 L84.3546035,74.1477857 L84.3546035,67.3234211 L85.0236554,67.3234211 L85.0236554,74.1477857 Z M85.3060925,65.0501653 C85.3060925,65.3880507 85.0375457,65.6558306 84.6983896,65.6558306 C84.3546035,65.6558306 84.0860567,65.3880507 84.0860567,65.0501653 C84.0860567,64.7260712 84.3546035,64.4456494 84.6983896,64.4456494 C85.0375457,64.4456494 85.3060925,64.7260712 85.3060925,65.0501653" id="path659" fill="#00492C" fill-rule="nonzero"></path>
                        <g id="g661" transform="translate(89.679117, 71.227721) scale(-1, 1) rotate(-180.000000) translate(-89.679117, -71.227721) translate(86.206530, 67.205276)" fill="#00492C" fill-rule="nonzero">
                            <polygon id="path663" points="3.4725876 2.29853975 5.9103441 7.92536506 6.59560139 7.92536506 3.45753972 0.732084911 0.305587709 7.92536506 0.989687467 7.92536506"></polygon>
                        </g>
                        <g id="g665" transform="translate(96.424170, 70.751243) scale(-1, 1) rotate(-180.000000) translate(-96.424170, -70.751243) translate(92.372818, 66.728798)" fill="#00492C" fill-rule="nonzero">
                            <path d="M6.94517521,4.5970795 C6.78312112,5.85438075 5.74134484,6.97491888 4.32684415,6.97491888 C2.92854888,6.97491888 1.76870462,5.88541103 1.65063664,4.5970795 L6.94517521,4.5970795 Z M1.65063664,3.97647377 C1.60433547,2.25141969 2.80932337,1.09985127 4.40208355,1.09985127 C5.47279806,1.09985127 6.33399979,1.73309897 6.8259497,2.65021633 L7.39198148,2.32382369 C6.76691571,1.1446728 5.66494791,0.476946998 4.3129538,0.476946998 C2.27454488,0.476946998 0.980427234,2.11810438 0.980427234,4.05347485 C0.980427234,5.95666577 2.30464064,7.59552461 4.3129538,7.59552461 C6.39534884,7.59552461 7.62811744,5.94172526 7.61538462,3.97647377 L1.65063664,3.97647377 Z" id="path667"></path>
                        </g>
                        <g id="g669" transform="translate(102.854920, 71.081763) scale(-1, 1) rotate(-180.000000) translate(-102.854920, -71.081763) translate(101.118627, 67.059319)" fill="#00492C" fill-rule="nonzero">
                            <path d="M1.1575292,6.89561925 L1.18646743,6.89561925 C1.45617174,7.51277718 1.94696412,7.92536506 2.67736504,7.92536506 C2.94359676,7.92536506 3.16699989,7.86790157 3.40197832,7.76446728 L3.04777439,7.17374256 C2.88224771,7.26223634 2.74913185,7.3059086 2.57087236,7.3059086 C1.06724192,7.3059086 1.1575292,5.44753921 1.1575292,4.43962953 L1.1575292,0.956192537 L0.488477323,0.956192537 L0.488477323,7.77940779 L1.1575292,7.77940779 L1.1575292,6.89561925 Z" id="path671"></path>
                        </g>
                        <g id="g673" transform="translate(106.891577, 70.288868) scale(-1, 1) rotate(-180.000000) translate(-106.891577, -70.288868) translate(103.997754, 66.266424)" fill="#00492C" fill-rule="nonzero">
                            <path d="M4.63011681,5.74634938 C4.40555614,6.21755003 3.9599074,6.51291239 3.42397138,6.51291239 C2.84404925,6.51291239 2.24907924,6.04171174 2.24907924,5.45098702 C2.24907924,3.80982964 5.59665369,4.60972147 5.59665369,2.14338832 C5.59665369,0.887236344 4.6139114,0.0149405084 3.3811428,0.0149405084 C2.23750395,0.0149405084 1.29759023,0.710248783 1.01631064,1.81814494 L1.67031464,2.02501352 C1.92497106,1.21247972 2.47248237,0.637844781 3.3811428,0.637844781 C4.24234452,0.637844781 4.92991687,1.31706328 4.92991687,2.17212006 C4.92991687,3.01568415 4.27359781,3.28001622 3.58949805,3.51446728 C2.65305693,3.85350189 1.58118489,4.25344781 1.58118489,5.40731476 C1.58118489,6.44165765 2.45627697,7.13351812 3.45522467,7.13351812 C4.1543723,7.13351812 4.91602652,6.67610871 5.21003894,6.04171174 L4.63011681,5.74634938 Z" id="path675"></path>
                        </g>
                        <path d="M112.244112,74.1477857 L111.57043,74.1477857 L111.57043,67.3234211 L112.244112,67.3234211 L112.244112,74.1477857 Z M112.524234,65.0501653 C112.524234,65.3880507 112.25453,65.6558306 111.915374,65.6558306 C111.57043,65.6558306 111.305356,65.3880507 111.305356,65.0501653 C111.305356,64.7260712 111.57043,64.4456494 111.915374,64.4456494 C112.25453,64.4456494 112.524234,64.7260712 112.524234,65.0501653" id="path677" fill="#00492C" fill-rule="nonzero"></path>
                        <g id="g679" transform="translate(115.543894, 68.976890) scale(-1, 1) rotate(-180.000000) translate(-115.543894, -68.976890) translate(113.228836, 63.805175)" fill="#00492C" fill-rule="nonzero">
                            <polygon id="path681" points="2.3150584 0 1.64369147 0 1.64369147 6.20260952 0.887824897 6.20260952 0.887824897 6.82436452 1.64369147 6.82436452 1.64369147 9.25966739 2.3150584 9.25966739 2.3150584 6.82436452 3.51657371 6.82436452 3.51657371 6.20260952 2.3150584 6.20260952"></polygon>
                        </g>
                        <g id="g683" transform="translate(121.111017, 73.071159) scale(-1, 1) rotate(-180.000000) translate(-121.111017, -73.071159) translate(117.638430, 67.324809)" fill="#00492C" fill-rule="nonzero">
                            <polygon id="path685" points="0 11.4926988 0.699147638 11.4926988 3.63001158 5.31767171 6.26107545 11.4926988 6.94401768 11.4926988 2.33589393 0.683815576 1.64832158 0.683815576 3.30127328 4.55110871"></polygon>
                        </g>
                        <g id="g687" transform="translate(132.254421, 70.749505) scale(-1, 1) rotate(-180.000000) translate(-132.254421, -70.749505) translate(128.203069, 66.152425)" fill="#00492C" fill-rule="nonzero">
                            <path d="M1.1575292,4.5970795 C1.1575292,3.0444159 2.39261286,1.67333694 4.0154688,1.67333694 C5.69388614,1.67333694 7.00305167,2.94328015 7.00305167,4.5970795 C7.00305167,6.2796106 5.71009155,7.54840454 4.0154688,7.54840454 C2.37640745,7.54840454 1.1575292,6.17502704 1.1575292,4.5970795 M7.67094602,4.61087074 C7.67094602,2.58585722 6.08165842,1.05043267 4.05829738,1.05043267 C2.07892245,1.05043267 0.488477323,2.6628583 0.488477323,4.5970795 C0.488477323,6.55773391 2.0650321,8.16786101 4.05829738,8.16786101 C6.08165842,8.16786101 7.67094602,6.63473499 7.67094602,4.61087074" id="path689"></path>
                        </g>
                        <g id="g691" transform="translate(138.164089, 68.402255) scale(-1, 1) rotate(-180.000000) translate(-138.164089, -68.402255) translate(135.849031, 62.655905)" fill="#00492C" fill-rule="nonzero">
                            <path d="M2.3150584,0 L1.64716405,0 L1.64716405,5.1809086 L0.888982427,5.1809086 L0.888982427,5.80151433 L1.64716405,5.80151433 L1.64716405,8.85742293 C1.64716405,9.3585046 1.66221193,10.0836939 1.9145533,10.5250135 C2.22824371,11.0732153 2.82321372,11.3559356 3.44827949,11.3559356 C3.65547722,11.3559356 3.84994212,11.3260546 4.0432495,11.2513521 L4.0432495,10.6445376 C3.86614753,10.6744186 3.68557298,10.7330314 3.49110807,10.7330314 C2.33126381,10.7330314 2.3150584,9.58261222 2.3150584,8.72410763 L2.3150584,5.80151433 L4.0432495,5.80151433 L4.0432495,5.1809086 L2.3150584,5.1809086 L2.3150584,0 Z" id="path693"></path>
                        </g>
                        <g id="g695" transform="translate(148.767390, 68.848842) scale(-1, 1) rotate(-180.000000) translate(-148.767390, -68.848842) translate(145.294802, 62.527858)" fill="#00492C" fill-rule="nonzero">
                            <polygon id="path697" points="1.1575292 11.4926988 1.1575292 7.44611952 5.67883826 7.44611952 5.67883826 6.78069227 1.1575292 6.78069227 1.1575292 1.68827745 5.79574871 1.68827745 5.79574871 1.02170092 0.442176155 1.02170092 0.442176155 12.158126 5.79574871 12.158126 5.79574871 11.4926988"></polygon>
                        </g>
                        <g id="g699" transform="translate(155.737346, 68.894354) scale(-1, 1) rotate(-180.000000) translate(-155.737346, -68.894354) translate(151.685994, 62.573369)" fill="#00492C" fill-rule="nonzero">
                            <path d="M6.94517521,4.5970795 C6.94517521,6.17847485 5.85941282,7.41738778 4.19604335,7.41738778 C2.61717352,7.41738778 1.52909607,6.00033802 1.52909607,4.52352623 C1.52909607,2.95707139 2.57202989,1.5411709 4.23655688,1.5411709 C5.9936862,1.5411709 6.94517521,2.95707139 6.94517521,4.5970795 M6.90234663,2.29164413 L6.87225087,2.29164413 C6.36641061,1.42164684 5.26560034,0.918266631 4.25391981,0.918266631 C2.17152478,0.918266631 0.861201726,2.53184154 0.861201726,4.52352623 C0.861201726,6.51636019 2.15416184,8.03684424 4.22498158,8.03684424 C5.28064822,8.03684424 6.29001368,7.56564359 6.87225087,6.71173607 L6.90234663,6.71173607 L6.90234663,12.2029475 L7.56908345,12.2029475 L7.56908345,1.06652244 L6.90234663,1.06652244 L6.90234663,2.29164413 Z" id="path701"></path>
                        </g>
                        <g id="g703" transform="translate(163.487476, 71.347254) scale(-1, 1) rotate(-180.000000) translate(-163.487476, -71.347254) translate(160.593653, 67.324809)" fill="#00492C" fill-rule="nonzero">
                            <path d="M5.78764601,8.04488913 L5.78764601,3.95348837 C5.78764601,3.26047864 5.80153636,2.56517036 5.36977796,1.99283396 C4.89634852,1.36992969 4.09186573,1.07341806 3.31747869,1.07341806 C2.54309166,1.07341806 1.73976639,1.36992969 1.26633695,1.99283396 C0.833421025,2.56517036 0.847311375,3.26047864 0.847311375,3.95348837 L0.847311375,8.04488913 L1.51867831,8.04488913 L1.51867831,4.19023797 C1.51867831,2.8766225 1.66799958,1.69632234 3.31747869,1.69632234 C4.9669578,1.69632234 5.11859413,2.8766225 5.11859413,4.19023797 L5.11859413,8.04488913 L5.78764601,8.04488913 Z" id="path705"></path>
                        </g>
                        <g id="g707" transform="translate(170.939075, 70.627802) scale(-1, 1) rotate(-180.000000) translate(-170.939075, -70.627802) translate(166.887723, 66.605357)" fill="#00492C" fill-rule="nonzero">
                            <path d="M6.94517521,5.74634938 C6.29001368,6.45544889 5.50173629,6.851947 4.51667894,6.851947 C2.90076818,6.851947 1.67725981,5.4785695 1.67725981,3.9293537 C1.67725981,2.37554083 2.88109018,0.976879394 4.50510365,0.976879394 C5.48900347,0.976879394 6.40923919,1.44693077 7.03314743,2.20085181 L7.03314743,1.3009735 C6.33284226,0.696457545 5.45775018,0.353975122 4.53519941,0.353975122 C2.49679049,0.353975122 1.00705041,1.93307193 1.00705041,3.9293537 C1.00705041,5.90839643 2.52688625,7.47140346 4.55140482,7.47140346 C5.44154478,7.47140346 6.26223298,7.20822066 6.94517521,6.63243645 L6.94517521,5.74634938 Z" id="path709"></path>
                        </g>
                        <g id="g711" transform="translate(178.555589, 70.692290) scale(-1, 1) rotate(-180.000000) translate(-178.555589, -70.692290) translate(174.504237, 66.095210)" fill="#00492C" fill-rule="nonzero">
                            <path d="M1.1575292,4.5970795 C1.1575292,3.03062466 2.19930548,1.61587345 3.86499,1.61587345 C5.61864674,1.61587345 6.57245081,3.03062466 6.57245081,4.67063277 C6.57245081,6.25317739 5.48437336,7.49094105 3.82100389,7.49094105 C2.24329159,7.49094105 1.1575292,6.07504056 1.1575292,4.5970795 M7.19635904,1.14122499 L6.52499211,1.14122499 L6.52499211,2.36634667 L6.49605388,2.36634667 C5.99252868,1.49634938 4.89056088,0.992969173 3.87888035,0.992969173 C1.79532779,0.992969173 0.488477323,2.60539481 0.488477323,4.5970795 C0.488477323,6.58991347 1.78027991,8.11154678 3.84994212,8.11154678 C4.90676628,8.11154678 5.91728928,7.63919686 6.49605388,6.78528935 L6.52499211,6.78528935 L6.52499211,7.96444024 L7.19635904,7.96444024 L7.19635904,1.14122499 Z" id="path713"></path>
                        </g>
                        <g id="g715" transform="translate(184.736693, 68.976890) scale(-1, 1) rotate(-180.000000) translate(-184.736693, -68.976890) translate(182.421635, 63.805175)" fill="#00492C" fill-rule="nonzero">
                            <polygon id="path717" points="2.3150584 0 1.64369147 0 1.64369147 6.20260952 0.88435231 6.20260952 0.88435231 6.82436452 1.64369147 6.82436452 1.64369147 9.25966739 2.3150584 9.25966739 2.3150584 6.82436452 3.51541618 6.82436452 3.51541618 6.20260952 2.3150584 6.20260952"></polygon>
                        </g>
                        <path d="M188.020604,74.1477857 L187.351552,74.1477857 L187.351552,67.3234211 L188.020604,67.3234211 L188.020604,74.1477857 Z M188.301883,65.0501653 C188.301883,65.3880507 188.035652,65.6558306 187.695338,65.6558306 C187.351552,65.6558306 187.083005,65.3880507 187.083005,65.0501653 C187.083005,64.7260712 187.351552,64.4456494 187.695338,64.4456494 C188.035652,64.4456494 188.301883,64.7260712 188.301883,65.0501653" id="path719" fill="#00492C" fill-rule="nonzero"></path>
                        <g id="g721" transform="translate(193.471288, 70.749505) scale(-1, 1) rotate(-180.000000) translate(-193.471288, -70.749505) translate(189.419936, 66.152425)" fill="#00492C" fill-rule="nonzero">
                            <path d="M1.1575292,4.5970795 C1.1575292,3.0444159 2.39492792,1.67333694 4.01431127,1.67333694 C5.69388614,1.67333694 7.0042092,2.94328015 7.0042092,4.5970795 C7.0042092,6.2796106 5.71240661,7.54840454 4.01431127,7.54840454 C2.37988004,7.54840454 1.1575292,6.17502704 1.1575292,4.5970795 M7.6744186,4.61087074 C7.6744186,2.58585722 6.08165842,1.05043267 4.05829738,1.05043267 C2.08239503,1.05043267 0.490792381,2.6628583 0.490792381,4.5970795 C0.490792381,6.55773391 2.06618962,8.16786101 4.05829738,8.16786101 C6.08165842,8.16786101 7.6744186,6.63473499 7.6744186,4.61087074" id="path723"></path>
                        </g>
                        <g id="g725" transform="translate(201.121862, 70.687794) scale(-1, 1) rotate(-180.000000) translate(-201.121862, -70.687794) translate(198.228039, 66.090714)" fill="#00492C" fill-rule="nonzero">
                            <path d="M1.1575292,6.89561925 L1.1853099,6.89561925 C1.58349995,7.64954029 2.33242134,8.1069497 3.22140377,8.1069497 C4.99242345,8.1069497 5.4820583,7.01514332 5.4820583,5.25676041 L5.4820583,1.13662791 L4.81532148,1.13662791 L4.81532148,5.25676041 C4.81532148,6.48303137 4.66600021,7.48634397 3.16352731,7.48634397 C1.4388088,7.48634397 1.1575292,5.89115738 1.1575292,4.50283937 L1.1575292,1.13662791 L0.485004735,1.13662791 L0.485004735,7.95984316 L1.1575292,7.95984316 L1.1575292,6.89561925 Z" id="path727"></path>
                        </g>
                    </g>
                </g>
            </g>
        </g>
    </g>
</svg>