<?xml version="1.0" encoding="utf-8"?>
<!-- Generator: Adobe Illustrator 19.0.0, SVG Export Plug-In . SVG Version: 6.00 Build 0)  -->
<svg version="1.1" id="Layer_1" xmlns="http://www.w3.org/2000/svg" xmlns:xlink="http://www.w3.org/1999/xlink" x="0px" y="0px"
	 viewBox="0 0 500 500" style="enable-background:new 0 0 500 500;" xml:space="preserve">
<style type="text/css">
	.st0{fill:#41799E;}
</style>
<g id="XMLID_1_">
	<path id="XMLID_383_" class="st0" d="M432.5,250c0-100.8-81.7-182.5-182.5-182.5C149.2,67.5,67.5,149.2,67.5,250
		c0,100.8,81.7,182.5,182.5,182.5C350.8,432.5,432.5,350.8,432.5,250 M430.5,250c0,99.7-80.8,180.5-180.5,180.5S69.5,349.7,69.5,250
		S150.3,69.5,250,69.5C349.7,69.5,430.5,150.3,430.5,250 M426.7,250c0-97.6-79.1-176.7-176.7-176.7S73.3,152.4,73.3,250
		c0,94.5,74.2,171.7,167.6,176.5c-1.8-0.9-3.6-2-5.5-3.2C146.2,415.9,76.1,341.1,76.1,250c0-96.1,77.9-173.9,173.9-173.9
		c96,0,173.9,77.9,173.9,173.9c0,91.1-70.1,165.9-159.3,173.3c-1.9,1.2-3.7,2.3-5.5,3.2C352.5,421.7,426.7,344.5,426.7,250
		 M179.2,395.7c0.6-1.6,1.5-3.4,2.3-5c0.8-1.7,1.4-3.6,2.6-5.1l1.4-0.3l0.4-1.9c0-0.5-4.7-4.9-6.3-6.3l-4.8,1.5l5.8,5.3
		c-0.5,0.8-1,1.7-1.4,2.6h-7.9c-1.3,1.8-1.5,1.5-1.5,2.9l-0.5,7.1l1,1.4l5.9-1.8c2.1-0.1,1.8-0.1,2.5,0L179.2,395.7 M178.3,388.3
		l-3.4,7.2h-1.6c0.3-1.3,0.6-2.7,0.8-3.9c0-0.1,0.3-3.3,1.1-3.3H178.3z M183,403.4l7.9-2.4l0.6,0.1c1.8-3.9,3.3-7.9,5.2-11.7
		c0.3-0.6,1.2-1,1.8-1.4l-7-4.7l-5.1,2.1c1.7,1.1,5.1,3,5.1,3.3v1.9l-4.1,9.3c-0.3-1.5-0.8-3.2-1.4-4.7l-5.1,1.5
		c0.3,0.9,0.6,1.8,0.8,2.7C182.1,400.7,182.2,402.1,183,403.4 M213,404.2l-5.4,2.8c1,1.9,2,3.7,3,5.3c1.8-1,3.6-2,5.3-2.9L213,404.2
		z M206.8,391.4c0.7-1.2,2.6-1.3,3.8-2l-1.1-1.2l-5.2,2.3h-1.9l-7.2,18.6c-0.4-1.2-0.9-2.6-1.3-4c-1.7,0.2-3.1,0.4-4.5,0.7
		c0.4,1.8,0.7,3.5,1.1,5.2c1,0.4,2.8,1.1,3,1.1c0.2,0,1.8-0.5,2.5-0.7c0.8-0.1,1.6-0.4,2.3-0.6l1.3-0.4
		C202,404.2,203.7,397.4,206.8,391.4 M169,375.9l-1.3-5.8l-6,1.2v0.5l1.2,5.3h0.7L169,375.9z M142.7,126.1h-5.1v5.1h2.6
		c2.7,2.7,5.5,5.1,7.8,8c0.5,0.7,0.4,1.7,0.6,2.5h0.3c1.4-0.4,2.8-0.7,4-1.3l0.3-0.8l0.6-4.2l-0.1-0.2c-0.9,0.3-2.3,0.9-2.6,0.9
		c-0.2,0-3.4-3.4-5-5l-3.4-3.8V126.1z M109.3,158.2l1.8,6c0,0.6-0.1,1.7-0.1,1.9l0,0.3c2.2,1.1,4.4,2.2,6.6,3.3
		c1.2,0.6,2.7,0.9,3.7,2l0.1,1.1l1.5,0.8l6.2-5.7l-2-5l-4.4,4.8c-0.6-0.4-1.3-0.8-1.9-1.1v-7.2l-1.8-1.8l-8-0.6
		c-0.9,0-0.6,0-1.8,0.8L109.3,158.2 M111.6,160.9c2.5,0.5,5,1,7.4,1.5l0.1,0.8c0,0.2,0,1.6,0,2.6c-2.5-1.2-5-2.3-7.4-3.4l-0.1-0.9
		V160.9z M107.9,169.3l-4.7,1.9c0.7,1.6,1.2,3.2,2,4.6c0.8-0.4,2.1-0.9,2.3-0.9c0.2,0,6.3,2.6,9.2,4.4c0.8,0.5,1.1,1.6,1.8,2.4
		l3.7-2.8c-0.4-1.7-0.8-3.3-1.2-5c-0.8,0.6-2.1,1.6-2.3,1.6c-0.2,0-1.3-0.6-2-0.9c-2.7-1.2-5.7-2.3-8.2-3.9L107.9,169.3 M95.7,197
		c-1.6,1.5-3.6,2.5-5.4,3.8l3.8,8.4c1.6-0.3,4.5-0.7,4.7-0.7c0.2,0,4.5,1,6.4,2c1,0.5,1.4,1.6,2.1,2.2l4.3-6l-3-7.7
		c-0.6,0.1-1.6,0.4-1.9,0.4c-0.2,0-1.8-0.5-2.6-0.8c-2.6-1-5.2-0.6-7.9-3.5C96,195.8,96.2,196.6,95.7,197 M93.5,203.9l4.3-3.1
		l10.6,3.2c-0.6,0.8-1.6,2.4-2.3,2.8l-10.5-3H93.5z M103.4,215.6l-19.1-4.3v0.3c0,0.2,0.7,2.8,1.1,4.2c5.4,1.2,10.8,2.4,16.1,3.6
		l1.5,0.4c0.5,0.9,1,2,1.4,2.9l3.3-5.1c-0.8-1.3-1.8-2.6-2.6-3.9C104.5,214.4,104,215,103.4,215.6 M84.3,227.9l5.4,7.5
		c1.5-0.5,4.4-1.5,4.6-1.5l3.9,0.5c0.2,0,1.8-0.1,2.6,0.2c0.9,0.4,1.6,1.3,2.5,1.8l3.1-6.6l-4.6-7.1c-1.3,0.5-1.1,0.7-2,0.7
		c-0.2,0-2.3-0.2-4.2-0.4c-1.4-0.1-2.8-0.2-4.1-0.5c-0.9-0.2-1.7-0.9-2.6-1.3v1.4C88.9,223.5,84.8,227.3,84.3,227.9 M88.2,230.3
		c0.3-0.4,2.9-3.7,3.7-3.7l10.8,1.1c-0.2,0.8-1.5,3.3-1.7,3.3l-11-1C89.6,230.1,89,230.3,88.2,230.3 M82.4,242.1
		c1.2,1.3,4.4,4.3,5.7,6.6l13-0.1c0.7,0.3,1.4,0.8,2.2,1.2c0-2.7,1.1-5.6,1.6-8.1l-4.1-3.8l-0.3,1.5c0,0.2-0.3,2.9-0.5,4.3
		c-0.6,0.4-1.7,1-2,1.1H87.7c1.2-1,2.6-2.1,3.8-3.2c-1.2-1.4-2.3-2.7-3.4-3.9L82.4,242.1z M84,262l4.8,3.3l3.3-4.7l-4.8-3.2L84,262z
		 M101.8,263.1l3.3-4.6l-4.7-3.3l-3.4,4.6l0.1,0.2L101.8,263.1z M85.3,280l6.6,6.2c2.7-0.9,5.5-1.7,8.2-2.5l0.2-1.5
		c0.1-1.7,0.3-3,0.3-3.3l-0.1-0.4c-0.8-0.5-2.6-1.4-2.6-1.6L99,275c1.3-0.4,3.7-0.7,4-0.7l0.2,0.1l-1.1,7.1c0.1,0.7,1.3,1.2,2,1.8
		c0.6,0.6,1.9,1.6,2.2,1.6l1.4-0.8l-1.3-1.3l1.3-7.8c-0.7-0.8-1.5-1.8-2.3-2.7c-0.7-0.8-2.1-2.4-2.3-2.4c-0.2,0-5.3,0.9-7.9,1.4
		c-0.6,1.5-1.2,3.2-1.8,4.8c0.9,0.6,3.2,1.7,3.2,2.1l-0.6,2.2c-1.6,0.5-4.8,1.5-5,1.5l-1.1-1.1c0-0.1,1.3-3.1,2.1-3.3
		c1.5-0.2,1.8-0.1,2.1,0l-6.6-5.5c0.2,1.2,0.6,2.7,0.6,3C88,275.2,86.1,278.4,85.3,280 M109.4,292.6c0.2-1.4,0.4-2.8,0.7-4.2l-4.4-3
		c-0.2,0.9-0.3,1.8-0.4,2.6c-3.7,1.1-11.2,3.4-11.4,3.4l-1.4-0.7l-2.4,4.4l4.6,2.3c0.4-0.7,0.8-1.4,1-2l0.3-0.3
		c3.5-1,10.1-2.8,10.4-2.8l2.8,0.5L109.4,292.6 M97.6,308.2h1.1c0.2,0,2.2-0.3,3.2-0.5c-0.2-0.6-0.3-1.2-0.5-1.7l8.8-3.6l3.4,1.6
		l0.2-0.1l0.4-6.4l-0.1-0.5c-1.4-0.7-3-1.3-4.5-1.9c-0.3,1.3-0.6,2.7-0.9,3.9l-0.2,0.2c-2.7,1-5.4,2.1-8.1,3.1
		c-0.5-1.5-0.9-3.1-1.5-4.7c-1.7,0.1-2.2,0.1-3.5,0.2l-0.6,0.3l1.6,5.3v0.4l-6.4,2.4c1.6,0.8,3.2,1.5,4.9,2.2l2.5-1L97.6,308.2
		 M97.9,321.4c2.6,0,5.4,1.2,7.9,2.2c-0.1-0.6-1-2-1-2.6l0.3-2.6c0-0.2,0.1-1.7,0.1-2.5c3.3-1.1,6.6-2.3,9.7-3.5l1.4,3.4l-10,5.7
		l4.6,1.8l7-3.9c1.2,0.2,2.5,0.4,3.8,0.5l-0.6-6.1l-0.1-1.1c-1.4-0.4-2.7-0.8-3.9-1.2l1-4.8l-0.1-0.3c-2.1-0.5-3.8-1-5.7-1.6
		c0,1,0,1.2,0,3.6c-3.6,1.3-7.3,2.6-10.8,3.9c-0.4,1.2-0.8,2.4-1.2,3.6C99.7,317.8,99.5,319.7,97.9,321.4 M111.4,336.2
		c1.5-0.4,2.7-0.7,4-1.1c-0.2-0.6-0.5-1.3-0.7-1.8l8.2-4.7c1.1,0.4,2.3,0.7,3.7,1l-0.8-7l-4.9-1.1c0.2,0.4,0,2.4,0,3.3l-0.1,0.6
		c-2.4,1.7-5.3,3.2-7.7,4.5c-0.8-1.4-1.4-2.9-2.1-4.3c-1.4,0.4-2.7,0.6-4,0.9v0.3l2.4,5.2l-5.9,3.4l0.1,0.2c1.4,0.3,2.8,0.6,4,0.9
		l1,0.4c0.2,0,1.7-1,2.4-1.4L111.4,336.2 M119.8,343.2c2.5-2.5,6.2-4.2,9.1-6.1c1-0.2,2-0.3,3-0.5c-0.2-1.5-0.5-2.9-0.7-4.3
		c-1.6-0.5-3.3-1-5-1.6l-0.1,0.2c0,0.2,0.3,1.7,0.5,2.4l-10,6.5l-1.1,0l-0.4,0.2c-0.2,1.6-0.4,3.1-0.7,4.7c1.7,0.3,3.3,0.5,5,0.8
		C119.6,344.8,119.3,343.8,119.8,343.2 M160.1,381.4l-6,1.3l1.2,5.8h0.5l5.5-1.2v-0.6L160.1,381.4z M147,374.9
		c2.7-3,5.5-6.7,8.8-9.9c0.4-0.4,1.2-0.4,1.9-0.6l-5.5-6.6l-5.4,0.7l4,4.4c-0.2,0.7-0.2,1.5-0.6,2.1c-2,2.7-4.6,5.2-6.6,7.5v-4.9
		c-2.5,0-4.9-0.4-5.4,0v6.9h8.3L147,374.9 M130.2,362.4c0.1,0.7,0.1,4.4,0.1,4.6l-0.1,0.3h5.3v-2.2l-0.1-0.4
		c3.1-2.9,5.7-5.9,9.1-8.6c0.8-0.6,1.9-0.6,2.9-1c-0.6-1.4-1-2.8-1.5-4.1l-5.3-0.6c0.3,0.9,0.6,1.8,1,2.5c-3.1,2.9-6.6,5.8-9.3,8.9
		C131.6,362.6,130.8,362.1,130.2,362.4 M125.4,351.9v-3l8.7-7l0.1,0.1l1.4,3.9c-1.1,1-2.2,2.2-3.3,3.1c-1.7,1.5-3.2,3.1-5.1,4.4
		c-0.5,0.3-1.2,0.2-1.9,0.3v5.4h0.5l4.3-1.1c0.4-1.2,0-1.2,0-1.9c0-0.4,4.3-4,5.4-4.9l1.2-1c1.9-1.5,1.7-2.1,3.9-2.1l0.3,0
		c-1-2.7-1.8-5.3-2.9-7.8c-2.5-0.3-7.3-0.8-7.5-0.8c-1.1,0-7.6,5.8-8.2,5.8l-1.1-0.3h-0.7v8.2l5.9-0.8L125.4,351.9 M98.2,181.2
		l1.3,4.3c-1.2,0.9-3.6,2.3-3.6,2.6c0,0.6,1.4,4.3,1.8,5c1.1-0.4,3-1.1,3.2-1.1c0.2,0,6.1,2.3,9,3.6c0.7,0.3,0.8,1.7,1.4,1.9
		l3.8-2.8c-0.8-1.4-1.5-2.8-2.3-4c-0.7,0.4-1.8,1.2-2.1,1.2c-0.2,0-6.2-2-8.8-3.8c-0.7-0.5-0.6-1.7-0.7-2.6l-0.1-0.1v-0.3l3.2-1.5
		l0.7,1c2.8,1.2,5.8,2.1,8.4,3.6l1,1.7l3.7-3.2l-1.7-4.5l-2.4,2c-1.5-0.7-3.1-1.3-4.5-1.9c-0.9-0.4-2.1-0.5-2.8-1.1
		c-0.9-0.8-1.3-2.1-1.8-3.1h-0.3L98.2,181.2z M120.4,144.2l0.6,3l-0.2,0.4c-1.5,0.5-2.9,1-4.3,1.5l0.2,0.4c0.4,1.5,1.1,3.5,1.5,5
		l0.3,0.3l1.8-1c0.2,0,6,3.4,8.4,5.7c0.8,0.8,0.7,2.1,1.1,3.2l4.7-2.3v-0.4l-1.2-4.6c-0.7,0.2-1.8,0.6-2,0.6l-0.8-0.4
		c-1.7-1.2-7.8-5-7.8-5.5l-0.1-2.1l0.3-0.5c1.1-0.7,3.1-2.1,3.4-2.1l0.8,1.9c2.3,1.9,5.4,2.9,7.4,4.9c0.7,0.7,0.5,1.9,0.7,2.8
		l5.4-2.6l-0.6-4.4c-0.9,0.4-2.3,1.2-2.6,1.2c-0.2,0-6.2-3.4-8.6-5.9c-0.8-0.9-0.7-2.3-1-3.5c-2,1.1-3.9,2.1-5.8,3
		C121.7,143.1,120.4,143.6,120.4,144.2 M147.1,146.2l-16.6-14.5c2.9-0.2,3.4-0.2,3.9-0.1l0.2-0.1v-5h-0.6c-0.2,0-2.4-0.1-3.3,0.4
		c-2.3,1.2-2.2,2.2-2.2,3.7l-0.2,4.4l0,0.5c1.5,1.4,3.3,2.9,4.8,4.2c4.6,4,9,7.8,13.6,11.8l0.2-0.2V146.2z M150.3,120.3l0.6-1.5
		c0.2,0,0.4,0.1,3.5,0.1c0.5,0.7,1,1.4,1.5,2l1.8-8.1c-0.9,0.6-2.4,1.9-2.7,1.9h-5.4l-2.6,8.5l6.1,5.9c1.6-0.7,3.4-1.4,5-2.1
		c0-0.9-0.1-2.2,0.2-3l1.8-0.2c0.2,0,2,2.4,3,3.4l-0.2,0.2c-1.2,0.4-2.5,0.8-3.7,1.2c-1,0.3-3.6,1.1-3.6,1.5c0,0.2-0.5,3.1-0.9,4.7
		l1.4,0.9l0.4-1.6c1.6-1,3.8-1.4,5.4-1.9c0.8-0.2,2-0.2,2.4-0.9c1.3-1.8,2.5-5.9,2.5-6.1l-5.2-6.5c-0.2,0-3.4,0.5-5,0.9l-0.1,1
		c0,0.2,0,1.5,0,2.3c-0.3,0.3-1.4,0.8-2.1,0.8l-1.7-1.4C151.8,121.9,150.3,120.5,150.3,120.3 M180.2,112.5c2.9,0,4.9-2,4.9-5.1
		c0-2.7-2-5.2-5.1-5.2c-3.4,0-4.9,3.1-4.9,5.5l0.3,1C176,111.5,178.2,112.5,180.2,112.5 M198.5,103.2c3,0,4.8-2.3,4.8-5.1
		c0-2.7-2-5.2-5.1-5.2c-2.8,0-4.9,2.3-4.9,5C193.3,100.6,195.3,103.2,198.5,103.2 M272.9,89.1c-0.3,0.8-0.8,1.9-0.8,2.8
		c0,0.2,0.4,2.2,0.9,3c1.1,1.8,2.9,2.3,4.2,2.3c2.9,0,4.9-2.2,4.9-5.1c0-2.6-1.9-5.1-5-5.1C275.9,86.8,273.5,87.4,272.9,89.1
		 M243.9,87.2l-0.4,1.6l0.3,1.1c0.8,2.7,2.2,4.1,4.9,4.1c2.9,0,4.9-2.2,4.9-5.1c0-2.7-1.9-5.1-5-5.1
		C246.8,83.8,244.4,84.7,243.9,87.2 M241.7,113.1c-0.8,1.6-3.8,7-3.8,7.5c0,0.2,0,0.8,0.6,0.8c0.5,0,9.5-6.8,10.2-7.3
		c3.4,2.4,9.4,7.3,10.2,7.3l0.6-0.8c0-0.2-1.5-3.4-2.3-5c-2.6-5.1-5.2-10.4-7.9-15.5l-0.7-0.4l-0.7,0.4
		C245.9,104.5,243.9,109,241.7,113.1 M218.8,97.6c2.9,0,4.9-2.2,4.9-5.1c0-2.7-1.9-5.1-5-5.1c-1.9,0-4.2,0.9-4.7,3.4l-0.3,1.6
		l0.3,1.1C214.6,96.2,216.1,97.6,218.8,97.6 M235.1,95.9v1.7h-13.6v46.8l5.9-11.5v-3.6c0-0.2-0.3-1.6-0.6-2.4l-0.5-0.4
		c-0.1,0.7-0.2,1.4-0.2,2c-0.1,0.6-0.6,2-1.7,2c-1.4,0-1.3-1.7-1.3-2.6c0-1.2-0.2-2.7,1.7-3.2c-1.3-0.7-2.4-2.5-2.4-3.7l0.2-1.5
		l0.8-1.2l0.8-0.1c1.6,0,2,1.2,2.2,2.8c0.2-1,0.7-2.4,1.8-2.4c1.2,0,1.4,1.3,1.4,2.1c0,1.2-0.9,3.1-2.3,4.3l0,0.2l0.9,1.8
		c0.3,0.9,0.7,2,0.5,2.8c1.6-3,3.3-6.1,4.8-9.2l-0.1-0.4c0-0.9,0.1-0.9,0.1-1.2c0-1.6,0.1-2.6-0.7-4.5l-0.4-0.3
		c-0.2,0.6-0.1,4.1-2.1,4.1c-1.2,0-1.3-1.9-1.3-2.7c0-0.8,0.1-3.1,1.6-3.2c-1.2-1-2.2-2.4-2.2-3.7c0-0.8,0.4-2.9,1.8-2.9
		c1.6,0,2.3,1.7,2.3,3.2c0.2-1,0.3-2.7,1.8-2.7c1.3,0,1.3,1.1,1.3,1.9c0,2.5-2.3,4.5-2.3,4.7l0.9,1.6c0.4,0.9,0.6,1.9,0.7,2.9l4.7-9
		v-3.9c0-0.2-0.3-1.6-0.6-2.4l-0.5-0.3c-0.3,0.6,0,3.9-2,3.9c-1.4,0-1.3-1.7-1.3-2.5c0-1.1,0-2.9,1.6-3.3c-0.9-0.3-1.8-1.8-1.8-2.4
		l0.1-0.1h6.4v0.3c-0.6,0.9-2,2.5-2,2.8l0.8,1.5c0.4,0.8,0.4,2.2,0.7,3l0.2-0.1l3.8-7.6c-3.3,0.1-3.5,0.1-3.6,0
		c0.1-1.4-0.1-2.4-1.4-2.4c-0.8,0-1.2,0.3-1.5,1.5c0.1-0.9-1.2-1.8-2-1.8C236.4,94.8,235.1,95.1,235.1,95.9 M255.7,96.9l0,0.7h-3.6
		c1.3,2.6,2.5,5.1,3.8,7.6l0.4,0.2c0-1.2,0.3-2.4,0.8-3.5l0.8-1.2l-1.2-1.5l-0.8-1.5h6.4c-0.1,0.9-1.1,2.2-2,2.5
		c1.3,0.3,1.8,2,1.8,3.4c0,0.4-0.1,2.4-1.3,2.4c-1.8,0-1.4-2.9-2.1-4l-0.6,0.8c-0.3,0.9-0.5,2.8-0.5,3c0,0.2,0,0.4,0.1,2l0.1,1.1
		c1.2,2.9,2.7,5.7,4.1,8.4l0.6,0.4c0-1.1,0.3-2.6,0.9-3.6l0.7-1c0-0.3-2.3-2.2-2.3-4.8c0-0.5-0.1-1.9,1.2-1.9c1.4,0,1.4,1.7,1.8,2.7
		c0.2-1.5,0.6-3.1,2.3-3.1c1.2,0,1.7,1.2,1.7,2.3c0,1.2-0.5,3.3-2.3,4.2c1.9,0.7,1.7,2.1,1.7,3.3c0,0.3,0.2,2.5-1.2,2.5
		c-1.7,0-1.5-2.8-2.1-4.1l-0.2,0.1c-0.6,0.9-0.9,2.9-0.9,4c0,0.2-0.2,2.2,0.1,3.1c1.1,2.9,2.9,5.7,4.4,8.6h0.3c0.1-1,0.3-2,0.6-2.9
		l0.9-1.7c0-0.2-1-1-1.3-1.7c-0.7-1.2-1-1.7-1-2.9c0-0.6,0.1-1.9,1.2-1.9c1.4,0,1.8,2.1,1.8,2.8c0-1.3,0.6-3.3,2.2-3.3
		c1.3,0,1.6,1.2,1.6,2.3c0,1.3-0.2,3.2-2.1,4.3c1.6,0.5,1.7,2,1.7,3.1c0,0.6,0.2,2.5-1.2,2.5c-1.9,0-1.5-2.9-1.8-3.6l-0.4-0.3
		l-0.9,2.5v4.4c1,1.9,2.1,3.7,2.9,5.5c0.6,1.3,2.1,4.6,2.5,4.6l0.3-0.1V97.5h-13.3c0.3-1.2-0.4-2.6-1.7-2.6c-0.9,0-1.7,0.7-2,1.6
		c-0.5-1.1-0.8-1.4-1.5-1.4C256.1,95.3,255.7,96.1,255.7,96.9 M298.6,103.6c2.9,0,4.9-2.2,4.9-5.2c0-2.7-2-5.2-5.1-5.2
		c-0.2,0-1.4,0.4-2.1,0.5c-1.8,0.5-2.8,2.8-2.8,4.8C293.6,101.1,295.7,103.6,298.6,103.6 M317.5,113.6c2.9,0,4.9-2.2,4.9-5.1
		c0-2.7-1.9-5.1-5-5.1c-1.8,0-4.2,0.9-4.7,3.4l-0.3,1.6l0.3,1.1C313.4,112.2,314.8,113.6,317.5,113.6 M330.2,127.6
		c0,1.1,0.2,2.5,0.6,3.7c1.7-0.2,3.3-0.5,4.9-0.8v-0.6c0-0.2-0.6-2.8-0.8-4.2h-0.8l-0.7,0.2c-1.1,0.1-2.3,0.4-3.5,0.5v0.5
		L330.2,127.6 M306.5,392.8l1.5-5.2l-5.2-1.6l-1.6,5.2L306.5,392.8z M312.6,403.5l1.6-5.2l-5.4-1.4l-1.5,5L312.6,403.5z
		 M375.7,360.5h0.4V360l-0.2-1.2c-0.1-1.2,0-2.4-0.4-3.5c-0.2-0.6-1.5-0.8-1.8-1.6l0.3-0.4l-2.5-3.1l-1.5,1.1c-0.2,0-4.6-3.6-7-5.4
		c-0.1-1.1-0.2-2.3-0.4-3.5h-0.4c-2.1,1.2-6,2.8-6,3.1c0,0.2,0.4,2.7,0.5,4.1l0.2,0.3c1-0.3,2.8-0.6,3.8-1.2l6.7,5.3
		c-0.9,0.8-3.1,2.6-3.1,3.2l2.3,3.3c0.2,0,2.8-2.6,4.2-4L375.7,360.5z M379.2,326.7c0-1.1-0.5-2.5-0.8-3.4l-5.6,1.4v0.6l0.6,1.8
		c0.2,1,0.5,2,0.8,3c1.9-0.5,3.7-0.9,5.6-1.4v-0.4l-0.4-1.3L379.2,326.7 M401.5,304.7c1.9-0.5,2.8-1.3,4.7-2v-0.3
		c-0.4-0.7-1.1-1.7-1.1-1.9c0-0.2-0.6-1.6-0.9-2.3h-0.4c-0.8,0.6-1.4,0.6-2.2,1l-7.5-3l-1.7-0.7c-0.7-0.7-1.3-1.8-2-2.7H390
		l-4.6,6.1c0.5,1.2,1.2,2.4,1.7,3.5l0.3,0.2l3.3-3.1l6.7,2.6l0.2,0c1,0.4,2.2,0.6,3.2,1.3L401.5,304.7 M408,290.5
		c1.6,0.5,3.5,1,5.2,1.5v-0.4c-1.2-1.5-2-3.3-3.4-4.5c-0.5-0.4-1.5-0.3-2.1-0.5l0.5-1.2l-0.1-0.3c-1.2-0.5-3.6-1.8-3.8-1.8l-0.4,0.4
		l-0.4,1l-0.2,0.1c-0.2,0-2.1-0.5-3-0.7c-1.9-0.5-4.1-1-6.1-1.4c-0.6-0.7-1.1-1.6-1.7-2.3h-0.3l-3.4,7.5c0.7,1.1,1.6,2.3,2.4,3.4
		h0.4c0.9-1.4,1.7-2.8,2.6-4.1c2.5,0.6,5,1.2,7.5,1.7l0.4,0.2c-0.5,1.2-1.5,3.7-1.5,3.9l3.8,2.8h0.3l0.5-1.6
		c0.3-0.9,0.6-1.8,0.9-2.5l0.8-1.7L408,290.5 M413.4,274.6l1.7-0.7v-0.4c-2.5-1.6-3-3.3-4.8-5.6l-0.3,0c-0.1,0.8,0,1.7-0.4,2.3
		c-1,1.8-2.4,3.3-3.6,4.7l-9.3-1.9v-0.3c0.4-1.1,0.7-2.1,0.9-3.2h10l0.7,0.2l0.6-0.1v-0.3c-0.7-1-2-2.6-2-2.8l-0.5-1l-7.2-0.1
		l-1.1-0.5c-0.6-0.6-1.9-1.8-2.2-1.8l-2.1,3.4c-0.5,1.1-1.3,2.2-1.9,3.4l2.4,2.9l-3.7,4c1.1,1.5,2.4,3.3,3.8,4.5
		c0.6-0.8,1.6-2.1,1.6-2.3l0.8-0.9L407,280c0.7-0.5,1.4-1.1,2-1.6C410.5,277,411.8,275.6,413.4,274.6 M411.5,258.3h6.4l-3.3-3.8
		c-1.5,0.3-2.4,0-2.7,0l-0.1-0.7c-1.3-0.3-2.6-0.7-3.9-1c-0.1,0.6-0.2,1.5-0.6,1.9h-8.2l-2.6-2.6h-0.4l-2.7,5.9
		c1,1.2,2.2,2.3,3.1,3.2h0.3c0.7-1.1,1.4-2.1,2.1-3.1h8.2l0.2,0.2c-0.3,0.7-0.2,1.7-0.4,2.5c-0.1,0.6-0.2,1.3-0.2,1.9l1.5,0.4
		c0.7,0.3,2,0.8,2.2,0.8l0.3-0.2l0-0.5c0.2-1.4,0.4-3,0.6-4.4L411.5,258.3 M394.7,243.3l-1.9,4l3.2,3.9h0.3c0.4-0.9,0.8-1.8,1.2-2.5
		l1.2,0.2c0.2,0,2-0.2,3.1-0.1l0.3-0.2h7.7l1.2,0.9l3.4-3.6c-1.2-1.1-3.2-3.1-3.4-3.1l-0.3-0.1c-0.6,0-1.2,1.8-2.5,1.8l-8.6,0.1
		l-1.2,0.2l-0.9-0.1C396.8,244.1,395.8,243.7,394.7,243.3 M405.6,208.7c-1.3-0.8-1.9-2.4-2.4-2.4l-0.9,0.4l-9.8,2.7l-1.4-0.8l-1.9,1
		c0,0.2-0.4,4.8-0.5,7.9l-0.1,0.2c0,0.3,3.3,2.1,4.1,2.7h0.4v-6.8l0.3-0.5c0.7-0.2,1.9-0.7,2.1-0.7l5.5,5.3c1.6,0.1,1.7,0.1,1.7,0.1
		l0.2,0l3.9-2.8c0.7-0.6,3.2-2,3.2-2.9l0.1-0.6C410.1,210.7,405.8,208.8,405.6,208.7 M405,209.8l0.6,0.1l0.2,0.3l0.3,0.2l-0.3,0.4
		l-0.4,0.3l-0.4,0.1l-0.2,0.1l-0.1,0.2c-1.6,0.9-4.3,2.5-4.5,2.5l-0.5-0.3l-1.4-1.6l-0.4-0.3l1-0.2l0.1-0.1l0.3,0l3.1-1v-0.2l0.8,0
		v-0.2L405,209.8 M394.8,180.9c-0.4,0.8-0.3,2-1.2,2.5l-10.5,4.5c-0.2-0.1-0.5-0.1-2.8,0v4.5l4.6,2.2l0.2-0.1v-2.5l11.4-5.3
		c0.4,0.1,0.8,0.3,1.5,0.4c0.6-1.5,1.5-4,1.5-4.2v-0.6C397.9,181.7,396.4,181.3,394.8,180.9 M359.4,148.1l0-0.8l0-1h-1l-0.3,0.2
		c-1.1,0-2.8-0.1-3.9,0.3c0,0.8,0.1,1,0.1,1.1c0.1,0.9,0.2,1.7,0.2,2.6l0.2,0.3c0,0.1-0.3,0.9,0.3,0.9l1.7-0.3l1.4,0l1.4-0.1
		l0.3,0.1v-1.2l-0.3-1.4L359.4,148.1 M343.5,120c-0.1-0.8-0.3-1.5-0.3-1.8l0.1-0.4L343,117c0-0.2-0.1-1.3-0.3-1.9H342
		c0,0-3.5,0.6-4.4,0.8l0.9,4.8h0.8C339.5,120.8,342.1,120.3,343.5,120 M349.8,134.4l0.3,1.6c0,0.2-2.1,1.9-3,2.8
		c-1.2-2.2-1.9-4.4-3-6.6c-1-0.1-2.1-0.2-3-0.3l-1.9-0.3l-1,1.1v0.4l0.4,0.1l1.2,0.2c1.1,2.4,2.1,4.8,3.2,7.2c2.1,0.6,6,1.9,6.2,1.9
		c0.7,0,3.4-2.7,4.2-3.4c0.5-0.5,1.2-0.9,1.8-1.5l0-0.4l-1.1-4.7h-2l-0.2,0.2l-1.2-0.2l-0.9-1.8l3.5-3.8l1.2,0.5
		c0,1.4,0.2,2.7,0.2,2.9c0,0.2-1.1,1-1.8,1.4v0.3c0.8,0.1,1.6,0.2,2.4,0.3c1.7,0.3,3.7,0.6,5.9,0.9c-0.3-1.1-2.1-2.2-2.1-2.7v-1.5
		l-0.2-0.1c0-0.2,0-2.5,0-3.3l-8.8-2l-5.6,6.1c0.7,1.6,1.6,3.2,2.4,4.7l1.5-0.1C349.5,134.3,349.7,134.3,349.8,134.4 M364.7,142.5
		l4.7-0.5l0.1-0.3l-0.1-1.1l-0.2-0.2c0-1,0.1-2.4-0.3-3.3c-1.8,0.2-3.2,0.4-4.9,0.4l-0.1,0.6l0.4,2.6l0,1.7L364.7,142.5 M379.1,156
		l0,0.3l-0.2,0.8c-2.9,2.8-5.6,4.4-8.9,7c-1.1-0.8-2.4-0.8-2.4-2.1l-0.3-1.8l9.8-7.7l0.3,0.2h0.7c-0.2-1.3,0.6-2.2,0.5-3.4l0.1-0.4
		l0-1.1c-1.6-0.2-3.1-0.4-5-0.7c0,0.6-0.2,1.3-0.2,1.5l-0.1,1c-3.1,2.6-6.4,5.2-9.5,7.3l-0.9-0.1h-2.8v0.3l2.8,6.2l0.3,0.9l0.9,0.1
		l0.6,0.1c0.7,0,1.7,0,2.2,0.5l0.1,0.5l0.2,0.1c0,1.5,0.3,2.9,0.6,4.4l0.4,0c1.5,0.3,2.9,0.5,4.6,0.8v-0.5l-0.3-0.8l-0.3-1.1
		l6.7-5.5c1.1-0.6,3.6-2.8,4-2.8l0.5,0.2l0.3-0.1c0.2-1.6,0.5-3.1,0.7-4.8c-1.5-0.2-4.3-0.7-4.6-0.7l-0.6,0.1L379.1,156
		 M388.7,168.4c0-0.1,0.3-0.1,0.2-0.8c0.1-1,0.4-3,0.4-3.3l0-1l-4.6-0.3c0.4,1,0,0.9,0,1.3l-0.2,1.3l-1.3,1l-9.3,5.2l-1.2-0.3
		l-1.1,0v0.7c0,0.2,0.3,2,0.4,3l0.2,0.1c0,0.5-0.2,0.7,0.1,1.6c1.5,0.3,4,0.9,4.3,0.9h0.4v-0.2l0.1-0.9l0.2-1.6
		c2.3-1.3,4.5-2.7,6.6-3.9c0.7-0.4,1.9-1.1,2.1-1.1c0.2,0,2.1,0.7,3.2,1l0.2,0.3l-0.5,2.3l-0.4,1.3l-1.4,0c-0.8,0.3-1.7,1-2.4,1.5
		c-2.2,1.2-6.1,3.6-6.3,3.6l-1.4-0.2l-0.6-0.2l-0.3,0.1v1.1l0.3,1.1c0,1.2-0.2,2,0.2,3.1c1.5,0.8,3,1.4,4.6,2.3h0.5
		c-0.1-1.9,0-2.2,0-3.8c0.8-0.6,1.7-1.2,2.5-1.6c1.1-0.5,2.1-1.2,3.2-1.7c0.7-0.4,1.5-1,2.3-1c1.9,0.1,2.4,0,2.9-0.1l0.2-1.3
		c0.7-2.3,1.3-4.8,1.8-7.1l-1.7-0.6c-0.8-0.2-1.6-0.4-2.2-0.6C390.1,169.2,388.7,169.3,388.7,168.4 M399.4,196.1l0.7,0.9
		c0,0.2-0.4,1.7-0.9,2.3l-1.5,0.8l-7.8,2.8l-0.8,0v-3.8c1-0.5,2.1-0.9,3-1.4l7-2.7l1.4,0.3l0.5-0.3c0.5-1.1,0.8-2.3,1.3-3.5v-0.3
		l0.3-0.6V190c-1.7-0.1-3.3-0.3-4.9-0.5c-0.3,0.7-0.5,1.5-0.6,2.2l-10.3,4.1l-1.7-0.5l-0.3,0.1v7.9c0.9,0.5,2,1,2.9,1.4
		c1.3,0.6,3.8,1.9,4,1.9l1.1-0.5l7.8-2.4l1.5,0.9l0.3-0.1l2.5-7.6c-1.1-0.2-2.3-0.4-3.3-0.6c-0.7-0.1-1.5-0.3-2.4-0.5V196.1z
		 M411.9,227.8c-1-0.5-2-1-2.8-1.4c0.7-1.3,1.6-2.7,2.3-4.1l-4.8-2.7h-0.3c-0.6,1-0.5,1.5-1.2,2.4c-3.4,0.6-6.8,1.3-10.1,2
		c-0.7-0.6-1.9-1.5-2.2-1.5h-0.4l-0.8,7.5c0,0.8,1.9,1.6,2.3,1.9l1.2,0.8l0.2-0.1c0.1-0.7,0.1-1.4,0.2-1.9l0.1-0.5
		c0-0.8,0.2-1.6,0.5-2.6c1.3-0.1,2.7-0.4,3.9-0.6c1.1-0.1,2.2-0.6,4.2-0.5c0.9,0,1.4,0.9,2.1,1.3c-1.1,0.8-2.8,2.2-2.8,2.4
		c0,0.2,2.1,2.6,2.7,3.1l5.8-4V227.8z M414.9,237.5L414.9,237.5c-0.8-0.6-1.8-1.2-2.6-1.8c-1-0.8-2.5-2.4-2.8-2.4
		c-0.2,0-2,1.5-3,1.9l-1,0.2c-1.8,0.1-3.7,0.2-6.6,0.5c-2.1,0.2-4.3,0.4-6.4,0.6l-0.4,0.2l-1.5-0.9h-0.3c0.8,1.5,2.1,2.8,3.4,4.6
		l6.9-0.4l1.7-0.1l1.2-0.1l0.2-0.2l0.5,0.2l1.2-0.3l0.2,0.2c0.2,0,1.7-0.1,2.9-0.2c1.4-0.2,4-0.9,4.2-0.9l1.4,0.8
		c-0.7,0.7-1.7,1.7-1.7,1.9l0.2,0.4c1.3,0.7,3.6,2.2,3.8,2.2l3.1-2.7v-0.4L414.9,237.5z M389.2,329.4c-1.9,0.5-3.6,0.9-5.4,1.4v0.6
		l0.4,0.8c0,1.2,0.7,3.1,0.9,4l0.2,0.2c1.1-0.3,2.2-0.6,3-0.8l1.4-0.3l0.1-0.1l0.9,0v-0.5l-0.2-0.2
		C390.3,332.8,390,330.7,389.2,329.4 M379,316.3l6.8,3.9c1.6-0.7,3-1.6,4.5-2.3v-0.4l-1-2.8l1.6-1.4l4.7,2.1v1.3c-1,0.3-2.8,1-3.1,1
		l-2.2-1.1l1.3,8c0.8-0.7,1.2-2.5,2.5-2.9c0.9-0.3,1.9-0.6,2.7-1l1.6-0.8c0-0.2,0-0.4-0.1-1.6l-0.1-1.4l-0.1-0.1
		c0-0.2,0-1.6-0.1-3.2c-0.1-0.8-0.2-1.5-0.2-2.2c-2.4-1-7.3-3.3-7.6-3.3l-3.9,3.6l0.9,2.5l-1.6,0.9l-3.5-2c1.2-1,5.6-4.4,5.6-4.8
		c0-0.2-0.7-3.3-1-4.8l-1.6-0.4v1l0.1,0.8c-2.1,1.6-4,3.2-6.2,4.9V316.3z M363.8,338.3l16.8,11.2l-0.2,0.2c-1,0.2-2.1,0.4-3.1,0.6
		l0.2,3.3l0.4,1l5.3-1v-1.4l-0.3-1.4l0-0.9l-0.2-1.5c0-0.2-0.1-2-0.2-3c-3.3-2.2-6.6-4.3-10-6.6c-2-1.4-3.8-2.6-5.6-3.8l-1-0.9
		l-0.5-1.1l-0.3-0.9l0.1-0.2h-0.4l-0.9,0.8V338.3z M355.4,367.8c-2.5-2.3-4.7-4.7-7.1-7l0.4-1.1l0.6-1.1c0.8-0.4,2.3-0.8,2.5-0.8
		c0.4,0,4.3,4,5.1,4.8c1,1,2.9,2.9,2.9,3.1l-0.2,0.4l0.1,0.4h5c0.1-1.8,0.2-3.1,0.3-4.9l-0.5,0.1c-0.2-0.1-0.4,0.3-1.9-0.1
		c-1.1-0.3-1.9-1.6-2.7-2.3c-1.6-1.5-3.6-3.1-4.9-5c-0.5-0.8-0.3-1.9-0.5-2.9c-2.5,1.2-4.9,2.6-7.2,3.8c-0.1,1.1-0.1,2.3-0.4,3.3
		l-0.5,0.6c-1.1,0.4-2.2,0.7-3.3,1.1c-0.2,1.7-0.3,3.4-0.4,5c1.1-0.2,2.3-0.5,2.5-0.5l0.3,0c2.5,2.4,5.1,4.8,7.4,7.2l0.2,1.1
		c3,0.1,4,0.2,4.9,0.1c0.1-2,0.3-4,0.2-4.9l-1.9,0L355.4,367.8 M348.2,385.9l0.4,0.4l-0.2,0.7v0.8l0.4-0.1l1-1
		c0.4-1,0.5-3.1,0.5-3.4c0-0.8-1.8-1-2.5-1.2c-1.1-0.3-2.3-0.4-3.4-0.8c-1.3-0.4-3.6-0.5-4.7-1.6l-5.7-7.1l1.1-0.6
		c0.8-0.3,1.6-0.6,2.3-1l0.4-0.3l0.5-0.1l6.6,7.9h1.7v2.6c0.7-1.1,1.7-2.9,1.7-3.2l0.8-1.8c0-0.4-7.2-8.2-7.5-9.2
		c-0.4-1.7,0.1-2,0.1-2.3l-0.3-0.1l-8,2.8l-0.2-0.1v2.3l-2.5,5.6c0,0.2,4.6,5.9,6.9,8.8l1,1.1l1.2,0.1L348.2,385.9z M324.2,379.8
		l6.2,9.4l-0.2,1.3l4.8,1l0.8-4.6l-2.3-0.6l-5.8-8.5l-0.1-3l-4.3,0.6l-1.8,4.8L324.2,379.8z M314.8,385.2l5.4,9.9l-0.4,1.4l4.8,1.3
		l1.1-4.6l-2.2-0.7l-4.9-8.9l-0.1-3l-4.3,0.2l-2,4.7L314.8,385.2z M250,426.8c9.3,0,33.4-17.4,33.4-36.2v-5.2
		c60.9-15,106-69.9,106-135.4c0-51.8-28.2-96.9-70.1-121v23.3c1.3,0.8,1.7,1.9,1.7,3c0,1.5-1.4,3.6-3.5,3.6c-1.7,0-3.4-1.5-3.4-3.5
		c0-1,0.1-2.6,1.6-3.5v-29c-5.8-6-11.6-12-17.3-17.8l-0.4-0.1l-18.1,19.6v19.1c0.8-1.1,1.3-2.2,1.9-3.2c0.5-0.7,3.1-3.9,3.1-4.3
		c0-0.2-0.2-1.5-0.4-2.3c-0.4,1.1-1.1,2.1-2,2.1c-0.8,0-0.8-1-0.8-1.4c0-1,0.5-3,1.3-3.9c-1.5-1.1-2.2-1.8-2.2-3
		c0-1,0.4-2.2,1.9-2.2c0.9,0,1.8,0.6,1.8,1.8l-0.1,0.8l1.9-1.3c0.7,0,1.6,0.6,1.6,1.8c0,1.2-0.5,2.1-2.1,3.2v1.2
		c0,0.2,0.2,1.5,0.4,2.2c1.8-2.5,5-4.3,5-6.7l-0.2-1.5l-1.5,0.9c-1.4,0-1.8-1-1.8-2.1c0-0.9,0.2-2,1.4-2.4c-1.1-1-1.5-1.5-1.5-2.6
		c0-0.8,0.3-2.7,1.8-2.7c0.8,0,1.5,0.1,1.6,1.5c0.1,1.3-0.1,1.7-0.1,2.1c0.5-0.8,1.1-0.7,1.4-0.7c0.9,0,1.8,0.6,1.8,1.9
		c0,1-0.3,1.7-1.8,2.7l0,0.5c0,0.9,0.3,2,0.6,2.9c1.1-0.7,2.6-1.7,3.6-1.9c0.3-0.9,0.4-2.3,0.4-2.5v-2.4l-0.2-0.2l-0.9,0.2
		c-1.5,0-1.7-1.2-1.7-2.3c0-1.1,0.3-2.7,2.3-2.7c-0.4-1.8-0.9-2.1-0.9-3.5c0-1.4,0.2-2.9,2.4-2.9c2.1,0,2.4,1.5,2.4,3
		c0,1.5-0.5,1.4-0.9,3.4c1.9,0.1,2.3,1.6,2.3,2.7c0,0.9-0.2,2.3-1.8,2.3l-1,0l0,2.8l0.4,1.9c0.8,0.8,2.1,1.3,3.1,2
		c0.6-1.1,0.8-2.2,1.1-3.3c-1.3-0.5-1.4-1.7-1.4-2.3l0.2-1.1l0.7-0.8l0.8-0.1l0.5,0l0.9,0.5c-0.1-0.3-0.3-0.4-0.1-2.1
		c0.2-1.2,0.7-1.4,1.5-1.4c1.4,0,1.9,1.6,1.9,2.8c0,0.8-0.5,1.8-1.5,2.5c1.2,0.6,1.4,1.6,1.4,2.5c0,1-0.4,2-1.8,2l-1.9-1.3
		c-0.3,1-0.7,2.8-0.7,3l0.3,0.9c1.7,1.3,2.5,2.9,3.8,4.3l0.4-0.5v-1.4c-0.9-0.8-1.4-1.9-1.4-2.8c0-0.6,0.2-1.9,1.7-1.9
		c0.6,0,1.4,0.3,1.9,1.3c-0.2-1.8,0.6-2.5,1.8-2.5c1,0,2.3,0.8,2.3,2.2c0,1.1-1.8,2.4-2.4,2.9c1.3,0.7,1.4,1.7,1.4,2.5
		c0,1-0.2,2.1-1.7,2.1c-1,0-1.4-1-2.2-1.7c-0.1,0.7-0.4,1.7-0.4,2l0.2,0.7c1.7,2.1,2.6,4.3,3.6,6.3c0.4,0.8,0.6,1.7,0.8,2.5l0.3,0.9
		l-0.3,0.4c-2.8-5.6-6.8-12.3-13.2-16.8c-0.9-0.6-2.4-1.6-3.3-1.6c-2.4,0-7.4,5.6-8.6,7.3l-0.8,1.4c-1.9,2.7-4.5,6.9-6.1,10.9
		c-0.4,1-0.9,3.1-0.9,3.3l0,0.3l-0.3,0.4c0.5,0.6,0.8,1.5,0.8,2.2c0,1.4-1.1,3.6-3.5,3.6c-1.9,0-3.3-1.6-3.3-3.6l0-0.7l0.5-1.1
		c0-0.2-1.7-4-2.7-5.9c-1.6-3.1-3.4-6.3-5.4-9.5c-1.6-2.7-3.7-5.9-6-8.5c-1.7-1.9-3.6-4.1-5.5-5.6c-1.7-1.4-5.1-3.9-7.4-3.9
		c-0.9,0-2.7,0.9-3.3,1.2c-3.4,1.7-7.4,5.9-9.8,8.9c-1.4,1.8-2.6,3.4-3.7,4.9c-0.7,1-1.4,2.1-1.9,3c-0.5,0.8-1,1.7-1.6,2.6
		c-1.1,2-2.3,4.2-3.4,6.4c-1,2.1-2.9,6.2-2.9,6.5l0.5,1.9c0,1.4-1.3,3.5-3.5,3.5c-1.7,0-3.4-1.6-3.4-3.5c0-1.1,0.4-2.5,1.6-3.2
		v-28.3l-18.6-19.1c-1.4,0.5-2.9,2.7-3.9,3.8c-4.5,4.7-13.3,14.3-13.3,14.5v21.7c0.7-1.8,2.1-3.8,3.2-5.5l0.7-0.8
		c0.4-0.8,0.7-0.8,0.7-1.5c0-0.2-0.3-1.8-0.5-2.7c-0.4,1.1-1.1,2.1-2,2.1c-0.8,0-0.8-1-0.8-1.4c0-1,0.5-3,1.3-3.9
		c-1.5-1.3-2.2-1.7-2.2-3.1c0-1,0.4-2.2,1.9-2.2c1.2,0,1.8,0.9,1.8,1.9l-0.1,0.7c0.8-0.9,1.2-1.2,1.9-1.2c1,0,1.7,0.6,1.7,1.8
		c0,1.2-0.6,2.2-2.1,3.2v1.2c0,0.2,0.3,1.6,0.5,2.4c1.5-1.5,3.7-3.8,4.7-5.3l0.2-1.3c0-0.2-0.1-1.2-0.2-1.8l-1.5,0.9
		c-1.4,0-1.8-1-1.8-2.1c0-0.8,0-1.9,1.4-2.4c-1.2-1-1.5-1.5-1.5-2.6c0-0.8,0.3-2.7,1.8-2.7c0.8,0,1.5,0.1,1.7,1.5
		c0.1,1.4-0.1,1.7-0.1,2.1l0.8-0.7c1.4,0,2.4,0.3,2.4,2c0,1.1-0.4,1.8-1.8,2.7l0,0.6c0,0.8,0.3,2,0.6,2.8c1.1-0.7,2.6-1.7,3.6-1.9
		c0.2-0.9,0.4-2.3,0.4-2.5v-2.4l-0.2-0.2l-0.9,0.2c-1.5,0-1.7-1.2-1.7-2.3c0-1.1,0.3-2.7,2.3-2.7c-0.6-1.7-0.9-1.7-0.9-3.4
		c0-1.4,0.2-3,2.4-3c2.1,0,2.4,1.5,2.4,3l-0.2,1.6c-0.2,0.5-0.4,1-0.6,1.8c1.9,0.1,2.3,1.6,2.3,2.7c0,0.8-0.2,2.3-1.8,2.3l-1,0
		l0,2.7c0.1,0.7,0.2,1.4,0.4,1.9c1.1,0.5,2.1,1.2,3.1,1.9c0.6-1.1,0.8-2.2,1.1-3.3c-1.3-0.8-1.4-1.5-1.4-2.3c0-1,0.4-1.9,1.7-1.9
		l0.5,0l0.9,0.5c-0.1-0.3-0.1-0.4-0.1-2.1c0-0.7,0.9-1.4,1.6-1.4c1.6,0,1.9,1.8,1.9,2.8l-0.5,1.5l-0.9,1.1c1.2,0.4,1.4,1.5,1.4,2.4
		c0,1-0.4,2-1.8,2l-1.9-1.3c-0.3,1-0.7,2.9-0.7,3.1l0.3,0.8c1.7,1.3,2.5,2.9,3.8,4.3l0.4-0.4v-1.5c-0.9-0.8-1.4-1.9-1.4-2.7
		c0-0.6,0.2-1.9,1.7-1.9c0.6,0,1.4,0.3,1.9,1.3v-1.3c0-0.9,1.2-1.2,1.8-1.2c1,0,2.3,0.8,2.3,2.2c0,1-1.5,2.3-2.4,2.9
		c1.3,0.7,1.4,1.7,1.4,2.5c0,1-0.2,2.1-1.7,2.1c-1,0-1.5-1-2.3-1.7c-0.1,0.7-0.4,1.7-0.4,2l0.2,0.7c1.6,2.1,2.6,4.3,3.6,6.3
		c0.4,0.8,0.6,1.7,0.8,2.5l0.3,0.9l-0.3,0.4c-0.7-1.2-1.2-2.5-1.8-3.7c-1-1.6-2.2-3.1-3.1-4.7c-0.9-1.6-8.7-10-11.6-10
		c-3.4,0-10.5,10.1-10.7,10.5c-1.9,3.4-4.4,7.4-5.2,10.9l-0.4,1.5c0,0.6,0.9,1.1,0.9,2.6c0,1.7-1.2,3.6-3.4,3.6
		c-1.8,0-3.4-1.6-3.4-3.5c0-0.8,0.9-2.3,0.9-2.3v-22c-40,24.5-66.8,68.6-66.8,119c0,65.5,45.1,120.4,106,135.4v5.2
		C216.6,409.4,240.7,426.8,250,426.8 M152.5,337.1h56.8v37.2C187.1,367,167.6,354.1,152.5,337.1 M158.1,311c0,0.9,0.3,0.4,0,3.1
		l-8.4-1.1c-0.1-0.4,0-0.6,0-1.6c0-0.4-0.2-1,0.5-1l1.4,0.3h1.8l1.5,0.4l1.6,0.1L158.1,311 M156.7,309.6c-0.8,0-1.6-0.7-1.6-1.4
		c0-0.2,0.7-1.7,1-2.5c0.4,1.1,1.4,3.2,1.4,3.4L156.7,309.6 M141,323.9c0-1,0.4-0.9,0.8-2.3c0.9-2.8,1.5-5.9,1.9-8.9
		c0.2-1.7,0.3-3.2,0.3-3.4l-0.2-0.4v-2.6l-0.3-0.8c0-1.7-0.6-3.6-0.8-5.4c-0.1-1.1-0.1-1.4-0.1-1.7c0-1.8,1.4-5.2,2.4-6.8
		c1-1.6,1.8-3.2,2.6-4.9c0.3-0.7,0.3-1.5,0.5-2.3c-0.1-0.8-0.1-0.9,0-1c-0.3-1.2-0.7-2.5-0.9-3.8c-0.8-4.7-1.8-14.1-1.8-14.3v-1.6
		c0-0.2-0.5-2.3-0.7-3.5c-0.1-0.9,0-1.1-0.1-1.5c0.7-0.4,1.7-0.1,2.6-0.3l0.6-0.3c0.2,0,3.6,2.8,5.5,3.9l1.9,0.4
		c2.7,0,5.3-1.7,7.9-2.6l0.6,0.9c1.3,3.5,2.5,6.9,3.8,10.5c0.3,1,0.3,2.2,0.5,3.2c0.6,2.1,1.4,4.3,2.1,6.6l0.2,1.8
		c0,1.5-1.2,3.3-1.8,4.9c-0.7,1.7-0.7,3.9-0.8,5.6l-2.6,14.6c0,1.6-0.3,5.5,0,8.1l0.5,1.8v1.5c0,2.6,5.2,5.9,6.5,7l0.5,0.2
		c1.5,0.9,2.7,1.4,4.2,2c0.8,0.3,1.8,0.5,2.8,1c-0.7,0.7-1.8,0.4-2.5,0.6l-9.9-1.3c-1.1,0.2-2.2,0.5-3.4,0.8l-3.1,1l-0.9-0.4
		c-1.2-0.4-1.5-2.1-1.5-3c0-0.2,0.4-1.6,0.5-2.4c0.4-1.7,0.7-5.2,0.7-5.4v-4.2c0-0.2-0.3-3.9-0.7-5.8c-0.2-1.1-0.8-2.1-1.1-3.2
		c-0.2-0.8-0.2-1.7-0.4-2.4c-0.3-0.8-0.4-1.9-0.4-2.8c0-4.6,1-8.1,2.8-12c0.3-0.7,0.4-1.7,0.6-2.4l0.3-1.7c0-0.2,0.1-0.3-0.1-1.4
		c-0.3-1.5-0.7-3-1.7-4.3c-1.6-2.4-4.1-4.2-5.9-6.3c-1.8-2.1-3.6-4.4-4.3-6.6c-0.2-0.6,0-1.5-0.1-2.2l-1.1-1.1l-0.4,0.4l0.4,0.7
		c0.2,1.1,0.1,2.5,0.4,3.6c1.2,3.5,5,7.2,8,10.7c0.6,0.7,1.3,2.9,1.3,4c0,0.2,0,1.8-0.3,2.6c-0.9,2.4-2.1,4.7-3,7.1
		c-0.8,2-1.6,4-2.3,6.1c-0.9,3-1.9,6.1-2.5,9.1c-0.3,1.3-0.3,2.8-0.4,4.3c-0.3,2.2-0.9,6.5-0.9,6.7l0.3,1.3c0.5,0.7,1.4,1.4,2.1,2.2
		c1,1.1,2.1,2.9,3.5,3.4c1,0.4,2.2,0.5,3.4,0.9c-0.1,0.6-0.1,1.1-0.1,1.6l-1.7,0.4c-1.3,0-3.4-0.7-4.6-1c-1.2-0.3-2.6-0.8-3.9-1.1
		l-1,0.1h-2.2l-2.6-0.8L141,323.9 M170.7,298c0.5,1.2,2,3.1,2,4.1l-0.2,1l-1.5,0.9l-1.3-1v-1.6C169.7,301.2,170.2,299.2,170.7,298
		 M160.8,196.7v-4.7c0.3-0.9,1-2.3,1.9-3.3c2.3-2.2,3.2-2.1,5.1-2.1c0.9,0,1.6,0,2.4,0.4c0.7,0.3,1.7,0.4,2.3,1.2l0.3,0.9
		c0,0.2-0.8,1.9-1,2.7l-0.2,0.4H171l-1.3-0.5c-0.4,0-1.2,0-1.2,0.7l0.7,0.7c-0.1,0.8,0.6,1,1.3,0.8v2.7l-0.3,1
		c-0.4,0.6-1.1,1.2-1.6,1.9l-1.1,1.8l-1.5,0.7l-0.6-0.2c-1.7,0.1-3.5-2.5-3.8-3.9l-0.2-0.3l-0.3,0.3l0.3,0.8l0.7,1.7l2.4,2.1h1.8
		v0.3l-0.2,1.4l-2.5,0.4c-2.1,0-3-0.8-5.3-2c-0.8-0.4-0.8-0.9-0.8-1.2c0-0.8,0.6-0.5,1.3-1C160.2,199.7,160.4,197.9,160.8,196.7
		 M157.6,204c0.5,0.2,3.7,2.3,4.6,2.3h1.9c1.1,0,2.9-1.2,3.3-1.2c0.8,0,0.8,1.7,0.8,1.9l-1.2,0.8l-1.5,0.2c-0.2,0-1.6,0-2.3-0.2
		c-1.9-0.5-3.6-1.2-5.5-2.1c-1.2-0.6-2.9-1.5-3.7-3l-0.7-0.6l1.5-0.1l0.8,0.9C156.2,203.3,157,203.6,157.6,204 M172.9,211.6l0.4,0.9
		v6l0.4,2.6v1.1l0.7,4.1v1.2l0.7,2.3c-0.8-0.6-4.1-3.2-4.1-4.6c0-2.5,1-1.6,1-5.3c0-1.7-1-6.5-1.6-7l-0.1,0.2l0.2,0.8
		c0.3,3.2,0.4,1.7,0.4,3.9c0,2.4-0.2,3.5-1.3,6.2l-1.2-1.1c-1.7-2.2-3.4-4.5-5.1-6.7c-0.5-0.6-1.2-1.2-1.7-1.9c-2-2.8-3.6-5.6-5-8.5
		c2.3,1.6,6.3,3.2,9,3.2c0.9,0,2.4-0.2,3.1-1.6C170.1,208.4,172.5,209.7,172.9,211.6 M176.1,232.5l-1.2,0.4l-1.7-1.2
		c-4.4-3.9-7.9-8.9-10.4-13c-1.1-1.8-2.2-3.7-3.1-5.7c0.9,1.2,1.9,2.5,3.1,3.9c1.9,2.1,3.5,4.8,5.3,7.1c1.6,2.1,3.7,4.2,5.5,6.2
		C174.2,230.9,175.2,231.6,176.1,232.5 M172.6,233c-0.2,0.4-1.4,1-1.9,1.7c-0.6,0.6-1.2,1.7-1.2,2.4c-1.4,0.1-1.2-2-1.2-2.7
		c0-1.8,0.3-3.5,1.2-4.9C170.6,230.6,171.8,231.8,172.6,233 M154.7,238c0,0.9,1.4,0.8,1.8,0.9l6.1,0.1c0.8,0.1,2,0.4,2.7,0.9
		c0.8,0.6,1.4,1.8,1.6,2.4c0.2,0.7,2.4,7.7,2.4,9v0.6l-1.2,0l-4.5,0.5c-3.1,0-4.7-2.3-7.6-2.3c-2.6,0-5.1,2-6.9,2l-1-0.1
		c-0.3-3-3.8-3.1-5.3-4c0.4-2.3,1.8-5.1,3.6-7.3l1-1.5c0.6-0.8,1.5-1.5,1.5-2.3c0-1.3-1.9-1.3-1.9-3c0-0.5,0.8-1.5,1.5-1.8
		c-0.8,2.8,7,3.4,8.9,3.4c2.5,0,6.5-0.7,8.5-1.2l0.3,0.2v1.5c-0.6,0.9-1.9,1-2.8,1.2l-8,0.2L154.7,238 M144.1,236.7
		c0.2,1.1,0.7,3.2,0.7,3.4c0,1-0.8,2.1-1.6,2.1c-0.8,0-1-1.6-1-1.7C142.2,239.2,143.6,238.3,144.1,236.7 M141.6,231.1
		c-0.7,0-1-1.1-1-1.5c0-0.8,0.9-2.2,1.3-3c0.4,0.7,1,1.7,1,2.6C142.9,229.9,142.5,231.1,141.6,231.1 M152.6,252.3
		c2.4-0.9,1.3-0.9,2.9-0.9c1.1,0,2.2,0.3,3.4,1.1c0.6,0.4,1.5,0.3,2.2,0.5l1.5,0.5l1.9,0.1l3.3-0.5c0.5,0,1.6,0,1.6,0.8l-1.4,1.6
		c-2.1,1.3-4.4,2.5-6.7,3.6c-0.8,0.4-1.8,0.7-2.8,1.2l-1.9,0.5c-0.2,0-0.3-0.1-1.3-0.1c-4.1-1.3-8.4-5.2-10.3-7.8l-0.4-0.2v-0.3h1
		l2.5,1C149.3,253.4,151.4,252.8,152.6,252.3 M141.5,278.8c0-0.2,1-2,1.5-3l0.6-1.5l0.7,1.9c0.2,0.8,0.4,2.3,0.4,2.6
		c0,1.1-0.2,2-1.5,2l-0.5,0l-0.9-0.8L141.5,278.8 M142.3,304.5c0,1.8,0,2,0.1,2.1c-0.1,0.1-0.3,0.1-1.5,0.1c-1-0.6-1.1-0.7-1.1-1.5
		c0-1.5,1.2-4.8,1.5-5.9C141.6,301.1,141.9,302.8,142.3,304.5 M181.8,180.3l-1.1,1.1c-1.7,0.6-4,2.4-5.1,4.3c-0.3,0.4-0.7,2-1.5,1.7
		l-0.7-0.8c-2.7-1.7-4.7-3.4-8.8-2.8c-2,0.3-4.2,0.8-6.3,2.6c-1.5,1.3-1.8,2.7-2.3,4c-0.2,0.6-0.2,1.3-0.3,2l-0.2,0.3v1.2
		c0,2-7.9,3.4-7.9,5.9c0,0.7,3.4,1.5,4.1,1.8l0.2,0.5c1.6,1.6,3.5,3.9,4,5.8l0.2,0.3c1.5,4,4,8,6.4,11.9c0.4,0.7,1,1.6,1.6,2.5
		c1.3,1.8,3.9,5,3.9,5.3l-0.7,1.9c-0.2,1-0.5,2.3-1.7,3.2l-1.9,0.5c-1.3,0.3-2.8,0.5-4.3,0.8l-4.6,0.1c-2.1-0.3-4.4,0-6-2l-0.2-1.6
		c-0.3-1.1-0.5-2.3-1-3.4c-0.4-1.1-0.9-2.3-1.5-3.3l-0.8-1.6l0.8-1.3c0.8-1.1,1.6-2.4,2.4-3.5l0.9-0.5l0.4,0.4l0.4,0.1l0.5-0.7
		l-0.8-0.7c-1.7,0-4.6,3.8-5.1,4.4c-2.5,2.6-5.8,5.8-8.5,8.4l-0.6,1l0,0.7c0,1.8,2,7.3,2,7.7c0,0.8,0.4,1.5,0.5,2.3
		c0.2,1.3,0.2,2.7,0.4,4.1c0.2,0.9,0.8,2.4,0.8,2.6l-1.1,0.9l-1.1,1.1l0.2,0.2l1.8-0.4c0.2,0,2.2,0.1,3.3,0.3l1.4,0.6
		c0.8,0.3,1.6,0.2,2.3,1v0.4h-1.3l-2-0.5l-0.9,0.8c0,0.8,4.1,4.9,4.5,5.4l-0.7,0.3c-0.2,0-1.8,0-2.5-0.4c-1.3-0.8-2.3-2.3-3.1-3.2
		c-0.8-0.8-1.8-1.3-2.6-2c-0.7-0.6-1.3-1.2-1.8-2c-2-2.9-3-7.5-3.7-10.4l-0.3-0.8l-0.2-1.2c-0.5-2-1.5-5.8-1.5-6V229l-0.2,0v-2.6
		l0.2-0.1c-0.1-1.2,1.9-2.6,3-3.7c2.2-2.5,4.6-5.2,7.2-7.4c2-1.7,4.7-3.5,6.9-4.8c1.2-0.7,2.6-1.3,4-1.8l1.5-0.1
		c0.2,0,0.9,0.1,1.7,0.1c-0.6-0.9-1.5-1.1-2.1-1.1l-1.6-0.2c-1.2,0-3.4,1.1-4.4,1.9l-1.4,1c-5.2,2.9-9.8,9.1-14.8,13.8l-0.7,0.9
		l-0.7,3.5v1.7c0,1.5,1.2,4.4,1.4,5.7c0.4,2.5,0.5,5.2,1,7.6c0.3,1.4,0.9,2.7,1.4,4.1c0.4,1,0.6,2.3,0.8,3.3c0.5,2.1,1.7,4,2.6,6.1
		l0.1,1.2c0,2.1-1,2.6-3.2,4.2l-1.5,0.5c-0.9,0.5-1.8,1-2.6,1.7c-1.3,1.2-1.8,3.4-1.8,4.8c0,0.2,0.4,2,0.5,3c0.2,1.2,1.1,3,2.3,4.1
		l0.9,0.4c0.6,0.3,1.2,0.8,1.9,0.9c1.6,0.3,3.6,0.4,5.4,0.9c1.1,0.3,1.3,1.5,1.3,2.2c0,2.1-4.1,7.3-4.9,8.3
		c-1.1,1.5-3.6,3.3-4.4,4.7c-0.9,1.6-1.2,3.7-1.2,5.3c0,1.4,0.4,3,1.3,4.5l0.8,1.7c1.2,1.6,3,3,4.4,3.5c0.8,0.3,4.5,0.9,4.8,0.9h1.9
		l0.5,0.2c-0.2,0.6-0.3,1.3-0.3,1.9l-0.9,0.2c-2.5,0-10.6-2.2-11.3-5.4c-0.1-0.6-0.8-1-1.1-1.6c-0.7-1.5-1.3-3.9-1.3-5.5
		c0-0.2-0.1-0.8,0.1-3c0.2-1.7,0.5-3.5,0.8-5.2l0.4-1.2c0-0.1,0.9-4.9,0.9-5.8c0-0.2-0.3-3.1-0.4-3.9l1-0.3c2.2,0,3.3,0.7,3.3,2.9
		c0,2.3-1.3,4.8-2.4,7.2c2-1.4,3.9-5.2,3.9-7c0-0.2,0-0.3-0.1-1.4c-0.2-2-2.7-2.8-4.2-2.8c-1.6,0-2.3,0.4-4.3,1l-0.8,0l-1,0.2
		l-1.1-0.1l-1.3-2.6c0-2.8,1.2-5.6,1.8-8.4c0.4-2,0.8-4.1,1-6.1c0.2-1.9,0.1-3.9,0.2-4.7c0.2-4,0.3-0.2-0.2-8.1l-0.7-21.2
		c0-0.2,0.4-2.5,0.8-3.6c0.4-1.1,1.5-2.7,2.8-3.3c0.9-0.4,2.3-1.1,3.4-1.9c1-0.7,1.7-2.4,2.1-3.5c0.7-1.8,1.2-3.7,2.3-5.3
		c0.8-1.1,2.8-2.5,3.9-3.1c1.7-1.1,3.5-2.2,5.2-3.2l-0.7-1l-0.1-1c0-0.8,0.2-1.7,1.6-2.3l-0.3-1c0-1.6,2-3.1,3.9-4.1
		c0.6-0.3,4.2-1.3,4.2-2.7v-1.9l0.2-0.4c0.3-2.2,3.1-6.6,5.7-7.2l0.4-0.2v-1.9c0-0.2-0.5-2.8-0.9-4.1c-0.4-1.2-1.1-2.4-1.7-3.9h1.4
		c1.2,0,2.7,2.6,3.2,3.4c0.4,0.7,1.4,0.9,1.4,1.6c0,0.4-1.1,1.4-1.1,2.2c0,0.5,0.1,1.5,0.7,1.7l1.7,0.5c1.1,0,2.1-1.3,2.1-2.2
		l-1.3-2.9c0-0.2,2.2-3.1,3.3-4.5l0.6-0.3l0.3,0.1c0.2,0.7,0.5,1.5,0.7,2.1c0.4,1.1,1.5,3.1,1.5,3.3c0,0.7-2.9,1.6-2.9,3.4
		c0,1.2,0.6,2.4,1.9,2.4c0.8,0,1.6-0.2,2.2-1.1c0.5-0.8,0.2-1.6,0.8-2.3c0.8,0.1,2.2,0.3,2.4,0.3c1,0,4.2-0.9,4.4-1L181.8,180.3
		 M138.1,294.1l-1.3-1.3c0-0.2,0-0.4,0.1-1.4c0.1-1,0.5-2.1,0.9-3.1l0.8-1.4c0.7,1.4,0.8,2.7,0.9,4.1c0.1,1.2,0.1,1.3,0.1,1.5
		C139.7,293.5,138.6,294.1,138.1,294.1 M133.6,302.7c-1,0-1.2-0.8-1.2-1.5c0-1.2,1-3,1.5-4.2c0.7,0.1,1.3,2.8,1.3,3.7
		C135.2,301.7,134.9,302.7,133.6,302.7 M137.4,271.9c-1.3,0-1.5-1.2-1.5-1.8l0.6-1.4c0.2-0.7,0.4-1.3,0.6-2c0.1-0.7,0.2-1.4,0.4-2.1
		c0.5,1.7,1.1,3.6,1.1,5.4C138.7,271,138.6,271.9,137.4,271.9 M188.5,234.6c0,2.5-5.6,3.5-6.3,3.3l-7.1-0.1l0.9,6.8v1.5l0.4,2.4v1.3
		l1.7,17.7l0.5,9.8l0.3,0.7v13.1l0.2,0.3v9.6c0,1-0.8,3.6-0.9,4l-0.7,1.3c-0.8,2.6-4.5,4.9-6.6,6.3l-0.9,0.5c-1,0.2-2.8,0.6-3,0.6
		h-0.5c-0.1-0.7,0-1.5,0-2.3c0.5-0.1,1.1-0.4,1.7-0.4c3.2-0.1,9.7-6.8,9.7-10.5c0-2-0.7-3.9-2.3-5.9c-2.2-2.7-3.7-4.7-3.7-6.9
		c0-1.8,0.7-2.1,2.8-3.4c2-1.3,2.5-3.4,2.5-5l-0.3-0.9c-0.5-2.7-4-3.8-5.9-4.5l-0.8-1.9c0-0.2,0.8-1.7,0.9-2.5
		c0.7-3.1,0.9-2.4,0.9-4.7l0.3-2.9V254l-0.5-8l-1.2-8.7c-0.2-1,0.4-2,1.4-2.7c0.8-0.5,2.2-0.4,3-0.7c1.5-0.4,4.5-2.3,4.9-4.2v-6.4
		c-0.2-0.8-0.8-1.6-1.2-2.4l0.2-0.3l-0.2-0.4l0.2-0.3l-0.2-0.2l0.2-0.1l-0.2-0.1v-7.8l-0.3-0.2h-0.3l-0.2,0.2v7.4l-1.2,2l-0.8,0.4
		h-0.5V209c0-0.4,0.3-3.2,1.5-3.2l0.8,0.4l1.2,0.2c1.1,0.1,1.4,0.1,1.6,0.1c0.2,0,3-0.3,3-1.1l-0.7-0.5l-2,0.4
		c-0.4,0-2.9-0.3-2.9-1.2c0-0.4,1.5-1.8,1.5-4l-0.2-1l0,0.2c0,0.2-0.4,1.5-0.7,2.2c-0.3,0.6-0.9,1.4-1.5,2l-0.6,0.3v-0.3
		c1.1-0.7,1.7-2.5,2.1-3v-2.2l-0.4-0.2c-0.9,0-1.6-1.9-1.6-2.5c0-1.9,1.1-3.4,3.2-3.4c0.2,0,1.2,0.3,1.8,0.5c-0.1,0-0.3,0-1.4-0.1
		c-1,0-2.7,1.4-2.7,2.5c0,1.5,1.5,1.9,2.3,1.9c0.4,0,1.2-0.2,1.2-0.9c0-0.5-1-0.6-1-1.5c0-0.9,1.2-1.1,1.4-1.1c1.2,0,1.7,1,1.7,1.9
		c0,1.8-1.5,1.2-1.5,2.4l0.2,1l-0.2,1.3c0,1.5,1,2.7,2.1,4.1l1.5,1.3l0.9,1.8v13.7l-0.3,0.1c-0.8,0-1.6-0.9-2-1.7
		c-0.2-5.7-0.1-5.8-0.1-5.9l-0.2-0.7c0-0.2,0-0.5,0.1-2.1l0.4-1c0-0.6-0.4-0.8-0.8-0.8l-0.8,0.8l0.4,1.2v9.9
		c-0.1,0.7-1.2,1.8-1.2,2.1v6.3c0,0.8,0.3,1.5,0.7,2.1l-0.8-1.2L182,231c0.4,1.3,1.4,3.4,2.9,3.7l-0.3,0.4l0.8,0.7
		c0.2,0,1.7-0.2,1.7-1l-0.8-1l-0.7-0.5l-0.3-0.1c-1-0.4-1.8-1-2.3-1.7c0.7,0.9,1.7,1.4,2.6,1.7l0.7,0.2
		C186.7,233.5,188.5,233.7,188.5,234.6 M206.9,209.9c1.8-1.1,3.7-1.1,5.5-1.6c0.7-0.2,2-0.7,2.2-0.7l1.2,0.8c1.3,0.6,2,0.8,3.2,0.8
		c2.9,0,6.3-2.2,8.4-2.2l0.6,0.1v0.7l-0.7,1c-1.5,2-3.4,2.9-5.2,2.9l-2.5-0.7l-1-0.7l-1.3,1.1c0,0.9,1.7,1.1,1.8,1.1l1.1,0.4
		c0.7,0.2,1.8,0.2,2.1,0.2c2.5,0,8.1-2.7,8.1-6.1c0-1-0.7-1.8-1.7-1.8c-1.7,0-7.4,2.6-8.5,2.6c-0.2,0-0.5,0-2-0.1
		c-0.8-0.1-3.4-1.6-3.4-2.1l0.9-1.3c0.2,0,2.2,1,3.3,1.4c0.9,0.4,1.9,0.6,2.9,0.6c0.2,0,1.7-0.4,2.6-0.5l0.8-0.4
		c1.1-0.8,2.2-1.3,3.2-1.3l1,0.1c0.3,0,1.2,1.9,2.6,2.8c0.5,0.4,1.5,0.2,2.2,0.2c0.7,0,1.7,0,2.4-0.2c0.6-0.2,1.6-0.8,1.8-0.8l0.7,1
		l-0.2,0.7c0.2,1.1-1.7,2.5-2.3,3.6l0.3,0.3l2.3-1.9c0.4-0.8,0.9-2.1,0.9-2.3l-0.8-2.2l0.3-0.9c0.2-1.1,1.1-2.3,2.3-3.5
		c1.1-1,1.9-1.9,3.2-2.6l1.2-0.2c-0.3,1.1-1,4.7-1,4.9c0,0.2,0.2,2,0.4,4l-0.2,11.6c-0.2,2.1-0.4,4.4-0.8,6.5
		c-0.2,1.1-0.7,2.2-1,3.3l-0.5,1.2c-1.4,2.1-3.8,4.3-5.9,4.9c2.6-2.8,3.5-5.5,3.9-8.2h0.3l0.1-0.3l-0.4-0.4c-1.1,0-1.9,3.8-2,4.1
		c-0.4,1-2,3.1-3.3,3.4l-0.7,0.5h-0.4c-0.5-1-0.7-2.4-0.7-3.3c-0.1-4.2,0.2-5.1,0.2-5.3l-0.2-0.2c-0.6,0-1,2.1-1,2.8
		c-0.2,2-0.2,2.4,0,4.2c0.4,3.8,2.3,7.5,3.8,11.3c0.3,0.7,2.2,7,2.2,9.3l0.4,1.4c0.2,0.7,0.2,1.5,0.3,2.1l0.2,1.4l1.5,18.9l1.2,10.4
		v7.3c0,0.2,0.2,1.4,0.4,3.5c0,0.1-0.1,0.2,0,3.8l-0.5,6.2c-1.5,0-2.2,0-2.4,0l-1.5,0.2l-1,1.6c0,0.2,0.4,1,0.5,1.7
		c-0.7-0.2-1.7-0.6-2.5-0.6c-1.8,0-2.7,1.7-3.2,3.6c-0.2,0.8-2,2.9-2.3,2.9c-0.6,0-1.4-1.7-2.7-1.7c-1.3,0-2.7,2-3.3,2l-0.6-0.5
		l1.6-8.7c0.2-2.1,0.5-5.4,0.5-5.6v-9.8c0-1.1-0.6-4.6-0.4-5.5c0-0.1,0-0.3-0.1-1.4c-0.5-4.8-1.1-9.7-2.3-14.5l-0.2-0.4l-0.4,0.6
		c0,2.5,1.1,6.3,1.1,8v1.7l0.6,4.9v13.7l-0.5,8.3c-0.1,0.7-0.1,1.5-0.3,2.2c-0.5,1.7-0.9,3.4-1.4,5.1l-1.3,0.8l-2.9,1.8l-1.9-0.7
		l-0.3-0.6l0.6-0.7c0.5-1.5,0.5-3.1,0.7-4.7l0.9-10.3v-15.8l-2.6-24.4c-0.1-1.4,0-2.1,0-2.4l-0.2-1.5l-0.4-0.4h-0.3
		c-0.4,5.2-0.3,5.6-0.3,5.9c0.9,7.5,0.5,4.7,1.3,15.5l0.4,2.8l0.3,6.8v9.2l-0.6,9.2l-0.2,0.7v2.7c-0.2,1.6-0.5,4.7-0.5,4.9l-0.7,0.8
		l-1.9-0.7l-1.8-0.3c-0.7,1.8-1.3,1.9-1.3,3.3l0.7,3.7c0,0.6-0.1,2-1.1,2h-1.5l-1.7,0.3l-1.8,0.3c-0.6,0.3-1.2,0.5-1.7,0.9
		c-1.3,1.1-3.6,3.8-3.8,3.8h-5.8c-0.2,0-1.3-0.3-1.9-0.5l0.7-1c2.6-1.3,5.4-1.1,7.9-4.6c1.4-2,3.4-3.9,5.3-5.9l0-0.4l-0.1-2.4
		l-0.8-0.6l-1.2,0.2c-0.6,0-1.5-0.3-1.5-1.1c0-0.2,0.7-3.8,1-5.7l0.2-1.5l0.1-1l0.1-1.1l0.1-1.2c0-0.9,0.1-1.8,0.2-2.8l-0.5-18.8
		l0-5.1l0.2-1.8c0.4-1.1,1.1-2.2,1.5-3.4c0.3-0.9,0.6-2.1,0.9-3.1c0.4-1.1,1.9-5.2,1.9-5.7c0-0.2,0.7-2.3,1-3.4
		c0.6-2.2,1.3-4.6,1.9-6.8l1.5-0.5l1.1-1.7c0-0.9-1.2-1.3-1.2-1.9l0.5-1.3c0.3-1.3,0.4-2.8,0.5-4.2c0.1-0.8,0.3-1.5,0.3-2.3v-3.1
		l0.2-0.5l-0.2-0.3v-2.1c0-1.4-0.3-3-0.7-4.2c0.6-0.4,1.3-0.6,2-0.9l0.3-0.6c0-0.7-1.5-0.7-2.4-4.2c0-1.7-0.1-1.7-0.1-2l0.2-1.4
		c1.7-0.7,2.2-1.6,2.2-2.8c0-1.9-1.7-3.1-3.1-3.1c-1.1,0-3.1,0.6-3.1,2.3c0,1.2,0.8,2.4,0.8,2.7l-0.4,1.2c-1.6,4.7-4.9,4.9-4.9,5.9
		c0,0.3,1.8,1.9,2,2.6l0.1,1.6c0,0.2-0.2,2.4-0.4,3.6c-1.3-0.4-3.7,0.8-3.7,2.6c0,0.9,0.2,1.7,0.8,2.7l0.8,0.8
		c0,0.2-0.3,1.9-0.5,2.7c-0.2,0.6-1,1.3-1.6,1.9c-0.3,0.3-1.4,0.8-1.4,1.4l0.9,1.1c0.6,0.5,2.2,0.8,3,0.8c0.2,0,1.3-0.1,3.1-0.2
		l-1.1,0.9l-0.2,0.2l1.6,0.2l2-0.4h1.8l0.2,0.2l-0.2,0.3c-1.2,0.4-2.7,0.8-3.9,1.4l-2.2,1.5l-1.1-0.4c-0.9-0.1-1.7-0.1-2.6-0.1
		l-0.8-0.3c-0.5-0.5-0.6-1.3-0.9-1.9c-0.3-0.8-0.8-2-1.1-2.7c-0.4-1-1.4-0.7-2.1-0.9c0.9-1.3,1.2-3.2,1.2-4.8l-0.6-6.2
		c0-1.4,0-1.9,1-3.5l0.1-0.6c0.5-1.5,1.1-3,1.7-4.5c1.2-2.7,2.6-5.3,3.9-8.1l0.2-0.7c0.3-0.6,0.8-1.2,1.2-1.9c0.7-1.4,1.4-3,2.7-4.3
		L206.9,209.9 M210.9,217.1v0.2l-0.8,0.8C210.8,217.8,210.8,217.4,210.9,217.1v-0.4l-0.2-0.2l-0.7,0.4l-1.1-1l0.8-0.9l-0.4-0.6h0.8
		l1.2,0.9l0.1,1L210.9,217.1 M210.6,226.6c-0.8,0.7-2,1.2-2.7,2.4l-1,1.6c-0.3,0.8-0.8,2.2-0.8,2.4v1.5c1.3,0.3,2,0.8,2,1.9l0,0.5
		l-1,1.4l-0.6,0.2l-1.5,0.5l-0.3,0.9c-0.2,1.7-0.2,2.9-0.2,3.1c0,0.9-0.1,1.6,1,2.7c-1.3,0.2-3.6,0.6-3.9,0.6
		c-0.6,0-2.2-0.3-2.4-0.9c0.8-0.6,1.8-1.2,2.5-2l0.6-1.4c0.3-1.1,0.6-3,0.6-3.2l-1.2-1l-0.5-1.5l0.4-1.5l2-0.7l1,0.3
		c0.3-1.6,0.8-3.5,0.8-5.1l-0.3-1.5l-0.1,0.2c-0.1-0.6-0.5-1.6-1.2-2.2l1.8-1.4c0.6-0.5,1-1.1,1.4-1.7c0.6-0.9,1.2-2.3,1.4-3.3h0.6
		c0.1,0.2-0.1,0.5,0,3.3C209,223.8,209.6,225.3,210.6,226.6 M209.9,238.4c0,1.2-0.5,2.4-0.8,3.6c-0.3,1.3-0.5,3.2-1.8,4.4l0.1-0.3
		c0-0.6-1.6-1.4-1.6-3.1c0-0.2,0.2-2,0.4-3l1.1-0.7c1.3-0.7,2.1-2,2.1-3c0-1-0.5-2.6-2-2.6v-0.8l0.2-0.3c0.1-1,0.8-2.6,2-3.5
		C209.6,230.2,210.2,230.8,209.9,238.4 M261,183.2l-0.7-3.1l0.7-1.8l0.7,1.7c0.1,0.6,0.3,1.3,0.5,1.9c0.1,0.4,1.4,2.6,1.4,3.3
		l-0.2,1.4c-0.3,1,0,2.5-0.5,3.3c-1.2,1.9-3.1,3.2-4.7,4.9c-0.8-0.8-1.1-2.3-1.1-3.3l0.8-3.6c0-1.1-0.5-2-1.8-3.3l0.4-0.2
		c2,0,1.5,0.8,3,2l0.1-0.2l-0.3-1.9l0.3-0.9h1.4L261,183.2 M260.9,196.9l-0.2,0.3l-1.3,1.6c-2.6,0.9-6.8,3.9-7.7,7
		c-0.3,1-2.2,2-3,3.4c-0.6,1.2-0.4,2.7-0.6,4.1l0.3,9.3c0,2-0.3,4.1-0.8,6.1c-1.2,4.6-5.6,9-9.2,9c-0.8,0-2.4-0.6-2.9-1.6
		c1-0.2,2-0.3,2.9-0.7c0.7-0.3,1.4-0.6,2-1.1c1.4-1.1,2.6-2.4,3.3-3.3l0.4-1.1c1.1-1.6,1.6-3.4,2-5c0.4-1.7,0.5-5,0.5-5.2v-16.2
		c0-1.6,1-6.2,1.8-7l1.4-1.3c2-1.2,4.1-2.3,6.2-3.3c0.4,1.5,0.5,5.3,2.7,5.3c1.3,0,1.4-0.2,1.4-1.5l-0.2-1.5l0.5-0.7l0.3,1.6V196.9z
		 M255.8,308.1c0.7,0.2,2.1,1.9,2.5,2.5c0.5,0.8,1.4,1.6,1.7,2.4c0.7,1.7,1.1,3.6,2,5.3c0.6,1.1,1.9,2.3,2.6,3.6
		c-1.7-0.3-3.2-0.7-4.8-0.8c-1.5-0.1-2.2-0.1-2.4-0.1c-2.6,0-5.7,0.6-8.2,1.1c-2,0.4-4.5,1.9-6.5,1.9c-1.8,0-2.8-0.8-2.8-2.3
		l0.4-1.4c1.2,1.7,1.5,2.8,3.1,2.8c1.7,0,2-1.9,2-2.7c0-0.2-0.1-0.6-0.1-1.7c0-0.8-0.3-1.7-0.6-2.5l-0.9-1.7l-0.8-1.1
		c-0.8-1.5-1.6-3.4-2.8-5.2l6.8-0.1c0.8,0,5.1-0.9,5.1-0.9C252.3,307.3,254.6,307.7,255.8,308.1 M238.4,317.7
		c-0.7,0.4-1,1.3-1.8,1.8c-1.2,0.7-2.9,2.2-4.3,3.3l-1,1.2c-0.7,0.7-1.5,1.5-2.3,2c-0.8,0.5-4.5,1-4.7,1l-1.6-0.7l0.4-0.8h1.3l1-0.5
		l1.4-1.7l0.8-0.3l1.2-0.8c1.1-1.1,2.1-2.9,2.6-4.2c0.5-1.1,1.7-1.9,2.2-2.9c0.5-1,0.5-2.4,1.2-3.3c1.7-0.4,3,1.1,4.5,1.1
		c0.6,0,0.9-0.3,1.9-0.6c0.6,1.7,1.8,4.8,1.8,5l-0.3,1.2c-0.4-0.3-1.9-1.1-2.5-1.1L238.4,317.7 M231.7,174.4
		c-1.3,1.4-3.6,5.3-3.6,7.1c0,0.2,0.1,0.7,0.3,1.4L228,183c-0.2,0-2.9-0.5-4-0.5c-2.7,0-6.7,0.8-9.3,2.8c-1.1-3.3-4.8-5.8-6.3-7.4
		l1.5-0.6c1.3,0,3.5,2.1,4.5,2.1c0.2,0,1-0.1,1.7-0.3l0.2,0.4l-1,1.6c0,1.3,1.1,1.9,2,1.9c1.5,0,2.3-1,2.3-2.3c0-1.6-0.6-2.5-2.4-4
		c0-0.8,1-1,1.4-1.3c0.1-1.6,0-3.1,0.8-4.5l0.1-0.5l0.6-0.3l1.8,2.5l0.4,1.4c0.5,0.7,1.7,0.3,2.5,1l-1.1,1.2c-0.6,1-1.1,1.7-1.1,2.7
		c0,1.1,0.9,2.1,1.9,2.1c1.8,0,2.4-3.2,2.3-3.8l0.4-1.4c0.6-1,3.2-1.6,4.2-1.6L231.7,174.4 M232.5,193.1c0.9,1.1,2,1.9,3.1,2.8v1.4
		l-2.5,2.3l-0.4,0.6l-0.6,0.3l-1.6-0.8l-0.7,0.2c-1.8,0-1.9-2.2-2.2-3.3c-0.4,0.4-0.4,1.5-0.8,2.1c-0.8,1.6-0.8,0.9-0.8,2
		c0,0.8-0.1,1,0.7,2c-0.6,0.6-2.8,2-3.6,2c-1.4,0-2.9-0.7-4.4-1.1c0.6-1.2,0.7-1.1,0.7-1.8l-0.6-1.5l-0.8,0.2
		c-0.3,0-3.5-1.3-3.5-2.2c0-0.3,1.6-2.8,1.6-4.2c0-1.4-1-3.7-1-5.2l0.3-1.8l1.2-0.6c1.6-1.1,6-1.8,8.2-1.8c0.2,0,2.8,0.3,3.8,0.3
		c2.2,1.8,2.5,4.4,3.4,6.5L232.5,193.1 M257.5,153.1l0,0.3c2.7,2.8,5.5,5.7,8.3,8.7l-11.2-0.7l-0.4,0c-1.8,3.4-3.8,6.8-5.7,10.4
		c-1.5-3-2.6-6.2-3.9-9.2l-0.4-0.1l-10.1,1.6l-0.1-0.3l4.8-9.9l-6.5-9l0.5-0.4l10.4,1.7l0.5-0.2c1-2.5,2.8-7.5,2.8-7.7l0.3-0.4
		c0.3-0.9,0.7-1.7,0.9-2.7l0.3,0.1c1.7,3.2,3.2,6.4,4.8,9.6l0.6,0.8l10.1-1.6L257.5,153.1z M284.4,218.1c-1.3-0.2-3.1-1.3-3.1-2.3
		l0.6,0.2l0.7-0.3C283.5,215.7,284.4,217.9,284.4,218.1 M289.4,226.8l-0.3,0.5l-1.5,0.5c-0.8,0.5-0.7,1.1-0.6,1.7l-0.1,0.9
		c-0.8,0.5-1.4,0.4-2.2,0.4c-0.5,0-1-0.1-1.7-0.5l-1.5-0.9l-0.1-0.8l0.2-2.3c0-0.7-0.5-1-1-1c-1.3,0-0.8,0.3-2.7,0.8
		c-1-0.9-0.1-2.2-1.2-3l-0.3,0.2l-0.1,1.8c0,1-0.3,2.6,1.2,2.6l2.2-0.9h0.5c-0.2,1.4-0.4,2.8-0.6,4.2c-1.5-0.5-3-1-4.4-1.6l-1.7-0.8
		l-0.7,0.7l1,1l0.4,0.1c0.7,0.3,1.4,0.9,1.9,1.6c2.3,2.5,3.6,5.2,4,7.9c0,0.1-0.1,0.2,0,2.6c-0.2,1.2-0.4,2.9-1,4.2
		c-1.3-1.1-1.1-2.6-1.7-4c-0.4-0.9-0.9-1.9-1.3-2.7c-0.4-0.9-1-2-1.5-3c-0.5-1.1-1.2-2.2-1.9-3.3l-2.4-2.3l-0.5,0.2
		c2.7,3.2,4.8,7.5,6.3,11.2c0.6,1.5,1.2,4.9,1.2,5.1c0,0.3-1,1.6-1,2.6l0.6,0.6c0.9,0,0.9-1.6,1.9-1.6l1.8,1.1
		c0.9,0.3,2.2,1.5,3.4,2.1c1.1,0.6,2.3,1.2,3.5,1.5c0.8,0.2,2,0.1,3.1,0.2l-1.1,1.2c-0.3,0.5-1.9,4.2-1.9,5.4v2.3l0.2,0.2
		c0,0.1,0.8,2.3,1.7,2.3c0.8,0,2.3-1.7,2.3-2.4l0-0.8l0.1-0.5h1.2l-0.3,0.4v1.6c0,1.5-2.2,2.5-3,2.5c-1.2,0-2.4-1.3-3-2.7
		c-0.6-1.2-2.5-2.8-3.6-3.5c-1.5-1.1-3.1-1.9-4.8-2.8c-2.1-1-4.4-1.7-6.4-2.9c-0.6-0.3-1-1-1.2-1.6c-0.3-0.7-0.3-1.6-0.5-2.3
		c-1.5-4-3.3-9.1-6-11.2l-0.2,0.2c0.6,1.4,1.4,3,2.1,4.5c0.9,2,1.7,4.1,2.3,6.1c0.6,1.9,0.7,4.2,2.9,6.3c-0.8,1-3.4,2.5-4.6,2.5
		c-1.3,0-1.8-0.5-2.5-2.2l-0.4-0.2l-0.9,0.9l1.2,1.4l0.6,0.7c1.2,0.9,1.8,1.1,2.9,1.1l1.7-0.5c1.3-0.7,2.7-3.3,3.1-3.3
		c0.2,0,1.4,0.5,2.1,0.7c-2.5,4.1-5.8,5.9-8.8,5.9c-2.2,0-3.9-1.4-4.7-4.3V257c0.3-1.8,1.6-3.2,1.6-3.3c0-0.7-1.8-4.4-1.9-4.8
		c-0.4-1.5-0.5-3.1-0.9-4.7v-7.6c0.2-1,0.5-2,0.8-3.1c0.1-0.6,1.8-2,2.3-2.4l0.8-0.5c0.3-0.1,7-2.6,7-4.2c0-0.6-1-0.6-1.4-0.8
		l-0.4-0.5c0.7-0.4,1-1.5,1-2l-0.5-1.7c-0.8-1.4-2-1.7-3.1-2.3c-1.1-0.7-2.2-2.4-2.2-3.4c0-1.1,0.9-2.8,1.4-3.8
		c2.2-4,6.2-5.1,9.3-5.1c0.4,0,2.9,0.2,2.9,1c0,1.2-3.2,1.7-3.3,1.7l-0.2,0.2l0.2,0.1h1.2l1.5-0.4c1.3-0.6,2-1.8,2.4-2.9l0.3-0.6
		c0.6,0,1.2,1.3,1.2,2l-0.3,1.4l-0.7,0.9c0,0.5,2.5,2.7,2.5,3.4l-0.1,0.3l-0.9,0.2l-1.3,1.8c0,2.8,4.5,3,4.5,3.9l-1.3,1.7l0.4,0.5
		c0.6,0,1.2-1.3,1.4-1.6c1.1,0.4,1.3,1.9,1.4,2.6c0.2,0.6,0.4,1.3,0.8,1.9C288.1,225.6,289.4,226.6,289.4,226.8 M281.5,243.2v-3.6
		c0-2.4-2.4-5.5-3.8-7.9h0.4l1.8,0.2c1.5,0.5,3.2,2.7,3.9,4.2c0.5,1.1,1,3.5,1,4.8v4.4l-0.5,3c0.1,1.9,0,2.2,0,2.6
		c-1.3-0.8-2.9-2.1-4.3-2.5l-0.1-0.3l0.8-1.5C281,245.6,281.5,243.5,281.5,243.2 M301,242.8c0,1.2-4.7,1.8-4.7,1.8H294l-0.5,0.6
		c0,0.8,1.5,0.5,1.6,0.5c1.7,0,3.3-0.3,5-0.7l1.4-1c0.2,1.3-1.4,3.1-2.9,4.3l-1.4,0.7l-0.2,1.4v1.5l-0.1,1.1c-1,0.7-0.9,1.7-2.1,2
		c-0.3,0.1-1.2-0.1-1.2,0.6l1.1,0.7c0.8,0,2.5-1,2.2-2.1h0.4l0.4,0.8c0,0.9-1.2,1.3-1.8,2.3l-0.4,0.2l1,0.3c0.4,0,3.9-1,3.9-2.1
		c0-0.6-0.9-1.1-0.9-1.4l0.8-1.1c0.7,0,0.5,0.4,1.3,1.2c0.5,0.6,1.5,0.4,2.1,0.4c1.1,0,1.9,0.2,3-1.1l0.3-0.7l-0.7-3.4l0.6-2.7
		c0-1-1.1-1.7-1.1-2.7c0-1,2.1-3.2,2.7-3.8l1.2-1.1c0.3,0.9,1.6,2.5,1.6,2.5l-1.2,1.1l-1.6,2.2l-0.3,0.5c0,0.4,1.3,2.4,1.3,3.5
		l-0.2,2.6l0.3,4c0,0.8-0.4,1.5-1.5,1.5c-1.3,0-1.6,0.1-1.9,0.1l-1.7-0.3l-1.9,0.4L301,257l-0.5,0.6c-0.3,1.2-1.8,2.4-2.9,2.8
		l-1.5,0.3l-6.7-0.3v-0.3c0-1.4,1-4,1.9-4.3c0.8-0.3,1.9-1.1,2.8-1.7l0.1-1.2l-0.2-1.4l0.1-1.6c0-0.9-1.4-1.2-2.1-1.9
		c-0.6-0.6-1.9-1.4-2-2.3l-0.7-1.8l0.3-1.4c0.3-0.7,1.3-0.9,2-1.1c1.3-0.3,2.4-0.5,3.6-0.5C296,241,301,241.6,301,242.8 M314,257.7
		l0.2,1.8c0,1-0.3,2.7-1.8,2.7c-1.9,0-4.5-2.5-6.1-2.5l-1.4,0.3c-0.7,0-1.7-0.4-1.7-1.4l1.3-1c0.6,0,0.5,0.7,1.3,0.7l1.7-0.3h1.3
		l1.3,0.1l1-1.3c0-1.2-0.6-3-0.6-4.4l0.2-3.5c0-1.7-1-1.8-1-2.9c0-0.4,1.6-2.9,2.5-2.9l1.6,1.1c0.7,0.4,1.6,0.5,2.5,0.6l2.2-0.1
		c-0.8,2.1-3.3,2.2-3.3,4.1l0.8,2.9C315.8,253.7,314,257.1,314,257.7 M316.3,239.9l-1.3-1.2c-0.3-0.5-0.7-1.1-0.9-1.7l0.3-0.2
		c0.8,0,0.6,1.3,2.8,2.2c0.8,0.3,1.8,0.1,2.7,0.3c0.9,0.2,2.1,1.1,3.1,1.6l0,0.2c-1.8,1.5-3.7,2.4-5.5,2.3l-1.5,0.2
		c-3.5,0-5.6-5-6.1-7l0.5-0.2c0.9,0,0.9,2.7,3.9,3.9l1.1,0.4L316.3,239.9 M311.2,190.1c0.2,0,1.9,0.2,2.8,0.4
		c0.9,0.2,1.9,0.9,2.7,1.3c0.3,0.2,2.2,0.9,2.2,1.7l-2.8,4.6c-1.4-0.8-2.7-1.2-4.1-1.3c-1.2-0.1-1.3-0.1-1.5-0.1
		c-1.2,0-2.5,0.4-3.7,0.8l-3.4-4.8C305.4,191,309,190.1,311.2,190.1 M347.5,182c0,0.2,0,0.3-0.1,1.8c0,0.7-0.1,1.5-0.2,2.2
		c-0.1,0.6-0.5,1.2-0.8,1.8c-0.3,0.6-0.2,1.4-1,2l-1.3-1.1l-1.1-1.7c-0.3-0.4-3.1-3.2-3.1-4c0-0.2,0.2-1.3,0.3-1.9
		c0.1-1.1,0.4-2.1,0.7-3.2l0.2-0.2c0.2-0.7,0.5-1.4,0.8-2l0.9-1.1l0.4-1l-0.5-0.9h-1.1c-0.3,0-3.5,1-3.5,2l0.6,0.4
		c0.2,0,1.2-0.6,1.8-0.8l-1.1,1.6c-0.7,1.6-1.5,3.4-1.5,4.8c0,1.3-0.9,2.1-2.4,2c-1.5,0-1.8,0-3.9,0c-0.9,0-1.9,0.1-2.7,0.3
		c-1.3,0.3-2.5,0.6-3.8,1.1c-0.8,0.3-1.6,0.6-2.3,0.6c-2,0-2.7-1.1-5-2.4c-1-0.6-2.2-0.9-3.2-1.4l0.6-0.3l1.6-0.2c2.3,0,1.6,1,3.2,1
		c1.1,0,1.2-1,2.1-1.7h0.3l-0.1,0.3c0,1.1,2.6,0.2,2.6,1.8l-0.5,0.6l-1.1-1h-0.2l-0.7,1c0,0.6,0.6,1.3,1.2,1.5l0.8,0.1
		c0.9,0,2.6-1.3,2.8-2l0.1-1l-1.2-2.3l-1.1-0.2l-0.9-0.8c0-0.9,1.6-1,1.6-1.7l-0.4-2c0-0.3,0.5-3.7,1.4-3.7l1.1,0.6l0.6-0.5
		c0-1.2-1.8-1.5-2.1-1.5c-0.6,0-1.2,0.8-1.5,1.5c-0.4,0.9-0.9,1.9-0.9,2.8v1.5c0,0.2-0.2,1.4-0.4,2.1l-0.5,0.4l-0.5,0.8
		c-0.6,0.5-1.7,0.8-2.4,1.7c-0.7-0.5-1.8-0.9-2.4-0.9c-0.3,0-5,0.7-5,2c0,0.6,0.8,0.9,1.2,1.1c0.9,0.4,1.9,0.7,2.8,1.3
		c1.5,1,3.4,2.2,4.7,3.6c1.6,1.7,1,3.8,2.6,5.7l0.1-0.2l-0.4-1.8c0-0.7,1.1-2.9,1.5-3.1l1-0.4l0.9-0.2c2,0,4.3,1.2,4.3,3.3l0.3,1
		c0.3,0.8,0.9,1.7,1.5,2.5c0.6,0.7,2,1.4,2,2.1c0,1.1-0.4,1.7-0.9,2.9l-0.4,0.5c-0.7,1.3-1.5,3.4-2.5,4.1l-1.9,0.3
		c-1.1,0-1.3-1-2.1-2.3c-0.6-1-1.5-1.8-2.1-2.8c-0.6-1-0.1-2.6-0.9-3.5l-0.5,0.6l-1-1l-1.3-0.7h-0.3l-0.1,0.2c0,0.1,1.5,2.7,1.8,3.4
		v0.3c-1.8,0.7-3.6,1.3-5.5,2l-0.6,0.6c0.6,0.5,2.1,3.5,2.1,4.5l-0.2,1.8c-0.3,0.9-0.9,1.9-1.5,2.8l-1,1l-0.7-0.6l-0.7-0.2l-0.4,0.4
		l1.3,1.4l0.8,0l0.1,1.2l1.4,0.6l1.3,1.5l0.9,1c0.9,1.6,2.4,3.7,2.3,5.4l0.1,1.1c0.1,0.7,0.3,1.9,0.3,2.2l-0.4,2.2
		c0,1.5,1,2.1,1.9,3.8c0.4,0.7,0.7,2.2,0.7,2.5c0,0.6-0.6,2.3-0.7,2.5l-1,1.3c-0.7,0.4-1.7,0.9-1.8,1.8l-2.9-0.8h-1.3
		c-1.7,0-1.4-2.1-3.3-2.1c-0.8,0-1,0.6-1,1c0,0.8,0.6,1.6,1,2.3c-2-0.9-2-3.8-4.2-3.8l-0.9,0.2c0.9-2.8,4.6-3.9,5.9-5.1l0.8-2.1
		c0.3-0.7,1-1.4,1.4-2.1c0.4-0.7,0.8-2.2,0.8-2.4l-0.1-0.5l-0.2-0.1c-0.8,0-1.2,2.2-1.3,2.4c-0.4,0.7-1,1.3-1.4,2
		c-0.4,0.6-0.2,1.7-0.9,2.2c-2,1.6-5,2-5.9,4.3l-0.3,1c-1.4,1.8-2.1,2.3-3.6,2.3l-0.7,0l-1.5-1.7c0-0.7,0.3-0.9,1.2-1.8l0-0.9
		l0.5-0.4h2l0.3-0.2c1.3,0.1,1.9-1.9,2.2-2.7c0.4-1.5,3-3,3.4-4.8l0-1.7c0.3-1.1,1-2,2-3.6l-0.3-0.1c-1.1,0-2.3,2.1-2.5,2.8
		c-0.2,0.8,0,1.6-0.2,2.3c-0.2,0.9-1.8,2.3-2.4,3c-1,1.1-1.1,2.3-1.6,3.2l-1.1,0.6h-2l-1.5,1.6l0.2,0.8c-0.6,0.2-1.1,1.1-0.8,1.7
		l-0.3,0.1c-0.7,0-1.1-0.7-1.1-1.2c0-1,0.3-1.3,1-2.1l-0.5,0l-0.7-0.8c0-1,1.5-0.9,1.9-1l1.5-0.6c0.8-0.4,1-1.1,1.3-1.9l0.7-1.6
		c0.8-1,2.4-1.4,2.5-2.6c0.1-1.1-0.2-1.5-0.1-2.4c0.1-1.4,0.6-2.9,1.7-3.7l1.2-0.4c1.1-0.5,3.1-3.2,3.1-4.4c0-0.5-0.1-0.9-0.7-0.9
		l-0.5,0.3c-0.6,2-0.9,3.2-2.7,3.2l-1.4-0.2c-1.3-0.7-2.7-2-2.7-3.1l0.4-1.1l-0.5-0.6c-0.6,0.7-0.2,0.9-1,0.9c-4,0-6.3-6.9-6.3-9
		c0-0.9,0.4-3.4,0.7-3.9l1.3,0.7c0.9,0.4,1.8,0.8,2.8,1.2c-0.6,1.4-0.9,2.5-0.9,3.6c0,1.7,0,3,2.2,3c0.9,0,0.9,0.1,1.9-0.7l1.2-1.2
		l0.8-0.2l-0.6-0.4c-1.3,0-2.3,1.4-3.3,1.4c-0.8,0-0.9-1.4-0.9-1.5c0-1.4,1.2-3.2,1.6-4.3c-1.7-1.2-3.9-1.4-5.6-3
		c0.7-1.1,1.5-2.9,2.9-3.8c1.4,1.4,3,3.7,4.4,5.4c1-0.7,2.1-0.7,3.2-1c1.6,0.1,1.6,0.1,1.7,0c1.1,0.2,2.3,0.2,3.4,0.5l1.2,0.9
		l1.1-1.1c0.2-0.2,3-4.2,3-5.2c0-1-0.9-1.2-1.9-2.1l-1.4-0.8c-1.5-0.7-2.7-1.4-4.2-1.5l-0.6-0.9c-0.1-0.1-0.7-3-0.7-3.7l0.1-1.8
		c0-1.5,0.8-5,1.2-5.7c1-2.1,2.7-4.8,5.1-6.9c2.6-2.3,5.3-3.6,8.1-4l1.3-0.2l1.6,0.1l1.4-0.2c1.3,0,4.8,1,5.3,1.2
		c1.6,0.7,3.7,1.4,5.4,2.7c2.7,2.1,3.8,4.5,5.2,6.9C346.6,177.1,347.5,180.4,347.5,182 M320.4,205.1c0-1.2-0.6-2.6-1.7-4
		c1.3-0.9,3.2-1.3,4.8-1.9c0.5,0.3,0.7,2.8,0.7,3.5c0,0.2-0.1,1.8-0.3,2.6c-0.1,0.5-2.6,6.4-5.1,6.4l-0.8-0.5c0-0.2,1.2-2.2,1.7-3.3
		C320.1,207.1,320.4,205.4,320.4,205.1 M348.8,208.1l-0.9,0.6c-1,0-3.9-0.9-4.5-1.8c-0.9-1.3-2-2.7-1.9-4.1l-0.1-1l-0.5-1.5
		c-0.4-1.2-0.8-2.5-1.4-3.7c-0.6-1.2-2-1.4-3-2.1c-1-0.7-3.1-2.2-3.6-3.6c-0.5-1.5-0.9-3.9-3-4.6c-1.6-0.6-2.3-1-3.5-1l-1.6,0.4
		c-0.4,0.2-0.8,0.7-1.4,1l-0.1-0.4l0.7-0.7c0.7-0.6,1.7-0.8,2.5-1.1l1.4-0.2c1.8-0.4,4-0.7,6-0.7c4.4,0,5.7,1.6,9.7,6.9l1.2,1.2
		c1.3,1.6,1.9,1.8,1.9,3.3l-0.3,2.5c0,2.2,1.3,2.9,2.2,4.9c0.3,0.6,0.1,1.8,0.1,2V208.1z M365.7,299.7h-48.2c-0.8,0-0.9-1.6-0.9-1.7
		c0-0.6,0.6-1.9,1.5-1.9h47.5l0.7,0.7l0.3,1.2L365.7,299.7 M320.4,294.9l0.5-17.5h42.3l0.3,0.4v17.1H320.4z M354.8,325.9h-2.3
		l-0.9,0.2h-32.9l0.3-23.9h43.8v12.6c0,0.2-3,5-4.6,7.5c-0.6,0.9-1.3,1.8-1.9,2.7C355.7,325.9,355.4,325.9,354.8,325.9 M352.6,330.4
		H318l-3.7-7.5c0.3-0.7,0.7-1.3,1-1.9l3,6.5l0.3,0.2h35.9C354,328.4,353.5,329.6,352.6,330.4 M290.8,337.1h56.8
		c-15.1,17-34.7,29.9-56.8,37.2V337.1z M287.1,316.4c0-1.2,1.9-3.6,1.9-7.7c0-0.2-0.3-1.9-0.5-2.9c0.7,0.2,0.9,0.4,1.3,1.1
		c0.6,1,0.7,2.3,1.3,3.4c0.5,0.8,1.3,1.5,1.9,2.2c-0.4,0.5-2.4,1.2-2.4,2.4c0,1.4,1.2,2.2,2.3,2.2c2.3,0,3.1-2.5,3.1-3.9
		c0-0.2-0.2-1.5-0.5-2.2l-0.4-0.8l1.1-0.2l1,0.2c0.2,0,1.2-1.7,2.1-2.2c1.2-0.7,2.6-1.1,3.9-1.6v0.3l-0.5,0.7l0.7,0.7
		c0.8,0,1-1,1-1.4c0-0.9-0.8-1.4-1.4-1.4c-0.8,0-4.3,1.6-4.5,1.6l0-1.5l0.6-8.2l1.3-7.9c-0.1-0.7-0.1-1.4-0.2-2.1
		c-0.1-0.9-1.2-4.6-1.2-5.9c0-3.7,4.8-7.3,5.6-10.8l0.4-1.4l-0.3-0.5c-0.7,0.7-1,1.7-1.6,2.6c-0.9-2.1-1.6-2.3-1.6-4
		c0-0.2,0.3-1.8,0.7-2.5c0.4-0.7,3.3-3.9,4.3-3.9c0.2,0,1.7,0.7,2.6,1.2c-2.2,1.6-2.5,4.1-2.6,6.1c-0.1,1.9-0.3,3.6-0.3,3.9v8.7
		l-0.4,6.4l-0.6,4.5l0.2,0.3l-0.1,2c-0.1,0.8-0.1,2.1-0.1,2.4l-0.5,2.6v1.8l0.5,0.4l0.6-1.3c0.2-0.9,0.3-1.8,0.5-2.6l0.2-1.2
		c0.1-2,0.4-3.4,0.5-4.7c0.2-2.3,0.2-4.2,0.2-4.7l-0.2-0.4l0.7-3.4v-12.7c0-1.2,1.2-5.3,1.4-5.5l0.2-0.8l1.3-1l1.5,0.3
		c1.5,0,3.2-1.1,3.2-2.6v-1.6c2.7-1.2,5.6-1.8,8.3-2.5c2-0.5,4-1.3,6-1.8l-1.5-0.4c-0.2,0-1.8,0.4-2.7,0.5c-1.2,0.3-2.5,0.7-3.8,0.9
		c-2,0.3-4.1,0.5-6.2,1.2l0.9-1.6c0.7-0.6,1.9-1.1,2.7-1.7c1.5-1.1,3.2-2,4.9-2.4l0.5-0.2l2-0.3c1.8,0,7.1,5,8.1,6.2l2.1,0.8
		l0.6-0.3c-0.2-0.7-1.5-0.8-1.9-1.3l-1.1-2c-1.2-1.5-2.8-2.7-4.2-4.2l0.9-0.6c2.5,0.1,3.6,0.3,3.9,0.3l1.1-0.2
		c0.7-0.1,1.5,0,2.1-0.2c7.3-2.3,12.5-11.8,12.8-17.7l0.4-0.8l-0.6-0.9l-0.9,0.7v1.4c0,0.2-1.1,4.1-2.1,6c-0.7,1.4-1.4,3.1-2.6,4.5
		c-1,1.1-2.4,1.6-3.6,2.7c-0.5,0.4-1.2,0.8-2,1.1c-1.8,0.8-3.7,1.2-5.5,1.3l-0.9,0.2h-1.9l-0.9,0.2c-0.2,0-1.4-0.2-2.1-0.4
		c1.9-0.7,4.4-2.5,6.2-4.3l0.5-1c1-1.6,1.7-3.1,1.9-4.6c0.3-1.9,0.8-4,0.9-5.9l0.3-6.5c0.2-1.6,0.3-3.1,0.5-4.7
		c0.2-1.3,0.9-3.5,0.9-3.8v-0.9l-0.2-0.2c-1.1,0.9-1.3,2.4-1.6,3.5c-0.4,1.6-0.9,6.5-0.9,6.9v2.3c0,0.2-0.3,2.8-0.5,4.1
		c-0.5,2.6-2,5.3-3.5,7.9c-1.3,2.2-4.6,4.7-6.9,6.3l-1.5,0.3c-1.1,0-2.7-0.3-3.6-0.7c2.4-1.5,4.4-5,4.5-6.7c0-0.6,0-1.2,0-1.9h1.8
		c1.1,0,3.3-1.1,3.8-1.3l0.8-0.2l1.8-0.8l1.9-1.8l-0.6-0.5c-0.2,0-1.2,0.9-1.8,1.3c-0.4-0.8-0.8-1.6-1.2-2.3
		c-0.5-0.9-1.2-1.7-1.5-2.6c-0.7-2-2-6-2-8.3c0-3.4,2.3-6.3,4.1-9.9l0.2-1.4l0.2-0.1l1.1,0.2c1.7,0,4.5-1.8,5.8-3.1l1.2-1.5
		l-0.8-0.6l-1.2,1.1c-0.8,0.9-3.5,2.7-4.8,2.7l-1.6-0.6v-1.4c0-0.7,0.7-1.7,1.7-2.3v0.3c0,0.4-1,0.8-1,1.5c0,0.6,0.6,1,1.1,1
		c0.2,0,1.3-0.5,2-0.8c0.7-0.3,1.4-0.6,2-1.1c0.9-0.8,1.8-1.3,1.8-2.1l-0.7-1.1c-1.2,0-0.8,1.9-1.1,2.1c-0.6,0.5-2,1.1-2.7,1.4
		c-0.1-1-0.8-2.4-2.1-2.9c0.5-0.8,0.8-1.7,1.3-2.6c0.4-0.8,1.4-1.9,1.5-2.8l0.1-0.8c3,1.5,3.6,5.1,4.2,7.1l0.5,1.5
		c0.3,1.8,1.8,3.1,2.9,3.9c0.7,0.5,1.9,0.4,2.7,0.9l0.5,1c1.1,1.5,2.4,2.8,3.4,4.4c0.6,1,1.1,2.5,1.3,3.7l0.4,1.5
		c0.2,0.7,0.2,2,0.2,2.2l-0.4,4.1v1.7c0,0.2-0.2,3.3-0.4,5c-0.2,1.5-0.6,4.3-0.6,4.6v4.4c0,2.4,1.6,3.5,1.6,3.9
		c0,1.1-1.6,2.6-1.6,3.2c0,0.2,0.9,2.9,1.2,4.4c0.3,1.5,0.4,3.1,0.6,4.7c0.1,1.5,0.1,2.4,0,4.1c-0.1,0.9-0.3,1.8-0.5,2.6
		c-0.2,0.9-0.6,1.8-0.9,2.7c-1.1,3.5-5.9,4.2-8.3,4.2c-0.2,0-1.9,0-2.8-0.1l-1.6-0.5c-0.5-0.1-1.3-0.5-2-0.9l-0.9-0.2
		c-0.2,0-1.6,0.8-2.4,0.9c-1.2,0.3-2.5,0.3-3.8,0.3l-3.6,0.1l-1.9-0.1c-0.3-0.3-0.6-2.2-1.6-2.2h-0.5l-0.1,0.3c0,0.3,0.9,0.6,1,1.7
		l0.1,1.1c0.5,1,1.3,0.7,2,1l18.6,0.1c2.8-0.4,6.4-0.4,9-4c0.7-1,1.6-2.1,2.2-3.2c1-1.8,1.8-3.7,2-5.5l0.2-0.1v-1.5
		c0-0.2,0.3-2,0.5-3.1l0.5-8.8v-15.1l-0.7-7.5v-2.3c0-0.2-0.2-1.6-0.3-3.3l-0.2-0.3c-0.3-2.3-0.8-6.8-0.8-7.1c0-0.2,0.1-0.9,0.2-2.1
		c0.1-0.7,0.7-1.7,1.1-2.1c0.6-0.5,2-0.5,2-1.5c0-0.7-2.3-0.9-2.3-2.8c0-2.8,2.4-1.6,2.4-5.9v-1.7l0.2-1v-13.6l-0.3-1.2
		c-0.2-1.2-1.6-1-2.3-1.7l-0.5-1.1c0-0.7,0.7-1.6,1.5-1.6l1.2,0.5l0.4-0.4c0-0.5-1.2-0.9-1.2-2.2c0-0.6,0.6-2.3,1.9-2.3
		c1.1,0,1.9,1.7,1.9,2.3l-0.7,2l0.7,0.5l1.1-0.4c0.9,0,1.5,1.1,1.5,1.6c0,2.1-3.4,1.7-3.2,3.6V192c0.1,1.3,1.1,7.1,1.1,7.4
		c0.2,0.7,0.8,1.1,1.2,1.6l0.7,1.2v1.7l-1.5,1.7l-1.4,0.1l-0.1,0.3l0.2,0.4l0.7,0.3l1.2,1c0.8,1.2,1.1,2,1.1,3.2
		c0,0.2-0.3,3.5-0.6,5.1c-1,7-1.5,12.5-2.4,21.4l-0.6,11.6v7.4l0.3,1.6c0.2,3.9,1.3,8,2,12.2c1.5,0,1.9,1.8,1.9,2.6
		c0,1-0.5,2.6-2,2.8l-27.8,0.1l-14.6-0.1c-1.6-0.2-3.1-2-3.1-3.4c0-1.7,0.4-2.3,2.4-2.6l0.4-0.2c-0.2-0.9-0.9-0.7-1.6-0.7
		c-1.7,0-3.2,2.1-3.2,3.5l0.2,0.8c-0.2,1.4,0.8,3,2.4,4.1l-0.4,17.7l-0.4,0.2c-2.1,0-2.5,2.1-2.5,3.3c0,1.4,0.3,2.5,2.4,3.1
		c0,0.2,0,0.4-0.1,1.5c-0.2,3-0.9,6.4-1.4,9.4c-0.6,3.3-1.3,7-3.3,10.3l-1.6-0.1l-2.9-1.2l0.4-1.5c0.2-0.8,0.3-1.5,0.4-2.3l1.7-1
		l-0.6-0.8l0.4-1.4c0.6-5.1,1.9-15.2,1.9-15.4v-1.8l0.5-5.9l0.5-14.8l0.3-1.7l-0.4-1l-0.6,0.5c-0.1,0.9-0.5,1.8-0.6,2.7l0,1.3
		c-0.4,1.5-0.4,2.9-0.4,4.3l-0.2,1.2v6l-0.4,2.1c0.2,4.3-1.5,10.8-1.4,15.3l-0.3,0.9c-0.2,1.7-0.7,3.6-1.3,5.2
		c-0.3,0.7-1.6,1.7-1.6,1.9l0.2,0.4c1.3,0,1.6,0.1,2,0.1l0.1,0.4c-1.7,0.7-3.9,1.8-5.6,2.7c-4.2,2.1-3.5,5.5-6.8,5.5
		c-0.9,0-1.5-0.6-2.1-0.9l-0.4,0C291,322.5,287.1,319.3,287.1,316.4 M285.1,317.7l0,0.8c-1.8,0.5-2.9,2.6-3.6,3.9l-1.4,0.3
		c-0.5,0-2.6-1-2.8-1.6c0.9-1.1,1.9-2.6,2.3-3.6c0.3-0.8,0.8-1.6,1.1-2.3c0.3-0.9,0.7-1.8,1-2.7c0.4-1.1,0.7-2.2,1-3.4
		c0.5-2.3,1.1-6.7,1.1-7v-7.6c0-0.2-0.2-2-0.4-3c-0.4,0.3-0.4,1.2-0.5,1.8l-0.2,8.8c-0.5,4.3-1.3,9-3.3,13.3
		c-0.7,1.6-1.4,3.6-3.1,4.9c-0.5,0.4-4.4,3.3-5.7,3.3c-0.2,0-2.1-0.4-3-0.8l-1.2-1.5l-1.1-1.2c-1.4-2-2.2-4.2-2.8-6.2
		c-0.5-1.5-1.3-3-2-4.6c-0.5-1.1-2.4-2.6-3.6-3.1l1.4-0.8c5.6,0,6.5,5.4,11.7,6.3c0.6,0.1,1.3,0.1,1.9,0.4l1,0.7l0.6-0.5l-1-1.2
		c-0.8-0.4-1.7-0.5-2.6-0.9l-0.4-0.1l-1.4-0.9c-1.1-1.1-2.4-2.4-3.6-3.5l0.4-0.7c0.8,0.3,2.3,0.7,2.5,0.7l1.6-0.1
		c0.7-0.5,0.7-0.3,0.7-0.8c0-0.7-0.2-0.7-0.7-0.7l-1.6,0.3l-1.6-0.6l-0.7-2.1c-0.7-0.9-2-2.7-2-3.8v-1.3l0.8-5.5
		c-0.3-1.3-0.2-2.4-0.7-3.5c-0.8-1.8-2.4-3.8-3.6-5.4c-0.5-0.7-0.5-1.9-0.8-2.8c-0.4-1-0.5-1.6-0.5-2.4c0-2.8,0.6-3.1,2-6.7
		c0.4-1,0.5-3,0.5-3.3c0-1.7-1.1-3.2-1.4-5c-0.2-1.2-0.1-1.7-0.1-2.2c0.2,0.7,0.7,1.5,0.9,2.1c0.6,2,3.4,3.6,4.9,3.6
		c1.2,0,1.6,0.1,1.9,0.1c1.7,0,2.6-1,4.4-1.7l1.5-1.1c1.5-1.1,2.6-2.5,3.9-3.9c1.4,0.3,3.4,1.3,4.8,2.4l0.1,1.3
		c0,0.2-0.3,1.4-0.4,2.1c-0.2,2.7-1.2,5.8-2.3,8.6c-0.6,1.6-1.6,3.7-2.6,5.3l-0.2,0.6l-0.7,1.2l0.7,0.5l0.8-0.5
		c1.1-1.7,2.1-3.6,3.1-5.4c0.8-1.4,1.4-3,2.2-4.5c0.2,1.6,0.4,4.5,0.4,4.8s0,1.8-0.1,2.7c-0.1,0.9-0.4,1.8-0.6,2.8l-0.2,1.7
		c-0.2,0.7-0.3,1.5-0.6,2.2c-0.4,1.3-1.4,3.8-1.4,4l0.7,0.6l0.4-0.2c0.8-1.7,1.4-3.4,2.3-5.2c0.6-1.3,0.9-2.8,1.4-4.2
		c0.9-0.2,2.1,0.9,3.1,1.3c1.5,0.5,3.3,0.7,4.8,1.3c1.4,0.6,1.3,2.1,1.5,3.1c0,0.1-0.1,0.2,0,2.5c-0.2,0.8-0.4,1.7-0.6,2.5
		c-0.3,1.1-0.8,2.3-1.1,3.3c-0.8,2.8-1.9,5.7-2.8,8.5l0,0.7l-0.4,1.4l-2.1-1.3l-1,0.7l0.6,1.1c0.1,0.1,0.6,2.6,0.6,3.3
		c0,0.2-0.1,0.7-0.2,2.3c-0.1,0.7-0.4,1.5-0.6,2.2C286.1,314.4,284.6,316.3,285.1,317.7 M215.2,337.1h69.6V369h-69.6V337.1z
		 M230.1,411.3c-0.6-0.7-1.2-1.4-1.8-2.1l3.3-4.2l-5.9-7.2l-3,3.9c-0.6-1.1-1-2.1-1.4-3.2l2.8-3.6l-4.7-5.8v-7.6l4.1-5.1l-3.6-4.4
		h3.7l1.6,2.1l1.6-2.1h3.7l-3.3,4.3l5.9,7.4l5.8-7.3l-3.6-4.4h3.8l1.6,2.1l1.6-2.1h3.6l-3.3,4.3l5.9,7.4l5.8-7.3l-3.6-4.4h4.1
		l1.6,2.1l1.6-2.1h3.4l-3.3,4.3l5.9,7.4l5.8-7.3l-3.6-4.4h3.7l1.6,2.1l1.6-2.1h3.6l-3.3,4.3l5.9,7.4l1.5-1.9v8.6l-1.9-2.3l-5.5,6.9
		l4.6,5.6c-0.5,1-1.3,2-1.9,3l-4.8-6l-5.8,7.2l5,6.1c-0.7,0.8-1.4,1.6-2.1,2.4l-4.8-6l-5.7,7.1l3.7,4.4c-1,0.7-1.9,1.1-2.9,1.7
		l-3-3.6l-5.5,6.9l0.1,0.2l-0.4,0.1c-0.9,0-2.1-0.3-3.3-0.7l-5.7-7.1l-2.1,2.7c-0.7-0.5-1.4-1.1-2-1.7l2.2-2.9l-5.9-7.2L230.1,411.3
		z M227.7,395.1l5.9,7.2l5.2-6.6l-5.9-7.2L227.7,395.1z M240.7,397.8L235,405l5.9,7.4l5.8-7.3L240.7,397.8z M248.2,407.6l-5.5,6.9
		l5.7,7.6l5.7-7.4L248.2,407.6z M250.3,405l6,7.1l5.5-7l-5.8-7.2L250.3,405z M257.9,395.4l5.9,7.2l5.7-7.3l-5.8-7.2L257.9,395.4z
		 M265.8,385.6l5.9,7.1l5.5-7l-5.9-7L265.8,385.6z M256.1,393.2l5.8-7.3l-6-7.4l-5.7,7.2L256.1,393.2z M254.1,395.7l-6-7.3l-5.6,7
		l6,7.4L254.1,395.7z M240.8,393.2l5.8-7.3l-6-7.4l-5.7,7.2L240.8,393.2z M225.2,393.2l5.8-7.3l-6-7.4l-5.7,7.2L225.2,393.2z
		 M221.5,349.1c-1.6-1.1-2.6-3.3-4.4-3.9c1.6,2.2,3.4,6.2,3.4,8.6v5.5c0.8-0.7,3.6-1.5,4.7-1.5h3.4c1.1,0,4,0.7,4.7,1.5v-6l0.3-0.9
		c0-1.6,2.2-6.3,3.2-7.2c-0.9,0.4-2,1.1-2.6,1.9c-0.6,0.9-2.2,2.6-3.1,2.3c-0.1,0.7-0.2,2.5-0.2,2.7c0,1.1,0.3,2.9,1,4.1
		c-0.8,0.1-1.8-0.4-2.8-0.6l-1.4-0.1c1.6-2,1.4-3.6,2.1-6c-3.1-2.4-1.7-5.7-2.7-8.3l-0.3-0.2c-1,3,0.2,6-2.8,8.8
		c1,1.8,0.6,4.2,2.2,5.8c-0.8,0.1-1.7,0.1-2.6,0.3l-1.4,0.5l-0.2-0.1c0.6-2.4,0.8-2.5,0.8-4.2c0-0.2-0.1-1.6-0.1-2.5L221.5,349.1
		 M220.2,361c0,1.4,4.5,2,4.8,2c1.7,0.1,2.4,0.2,3.8,0c1.3-0.2,2.8-0.5,4-1l0.9-1c0-1.9-6.4-2.1-6.7-2.1
		C226.5,358.9,220.2,359,220.2,361 M245.9,349.5c-2.3,0-3.5-3.7-5.8-4.3c0.6,0.7,1,1.4,1.4,2l1.8,4.7l0.3,2.1v5.1
		c1-0.8,3.5-1.5,4.6-1.5h3.4c1.1,0,4,0.7,4.7,1.4v-5.2c0-2.6,1.7-6.4,3.5-8.8c-2.4,0.8-3.4,4.3-5.8,4.4c-0.1,1.5-0.1,2.3-0.1,2.5
		c0,1.4-0.1,1.3,0.4,3.1l0.5,1.1c0,0.2-0.9-0.2-2-0.5c-0.7-0.2-1.5-0.1-2.1-0.2c1.5-1.9,1.2-3.9,2.1-5.7v-0.2
		c-3-2.8-1.9-5.8-2.7-8.6h-0.4c-0.8,3,0.3,6-2.7,8.7c0.8,1.8,0.8,4.1,2.2,5.9c-1.2,0.2-2.7,0.1-4,0.8l-0.1-0.2
		c0.5-1.3,0.8-2.8,0.7-4V349.5z M243.3,361c0,1.4,4.1,2,4.8,2.1c1.5,0.2,2.2,0.1,3.8,0c0.1,0,4.8-0.5,4.8-2.1c0-1.9-6.1-2.1-6.7-2.1
		C249.6,358.9,243.3,359,243.3,361 M268.2,349.3c-1.7-0.5-2.8-3.4-5.1-4.2c1.1,1.4,3.5,6.1,3.5,8v6.1c0.5-0.7,3.7-1.5,4.7-1.5h3.3
		c1.3,0,3.6,0.6,4.8,1.5v-5.7c0-2.4,2-6.6,3.5-8.4c-0.8,0.4-1.7,0.8-2.4,1.6c-0.8,1.1-2.4,2.9-3.4,2.7c0,0.8-0.1,2.2-0.1,2.4
		c0,0.2,0.1,1.7,0.2,2.6l0.7,1.6l-0.1,0.2c-1.2-0.4-2.9-0.6-4.1-0.8c1.6-1.8,1.3-4.1,2.3-5.9c-3.3-2.5-1.9-5.9-2.9-8.6l-0.2-0.1
		l-0.2,1.2l-0.2,0.3l-0.2,0.8c0,2-0.2,4.9-2.4,6.6c0.9,1.4,0.9,4.2,2.2,5.8c-0.8,0.1-1.7,0.1-2.6,0.3l-1.4,0.5l-0.2-0.1
		c0.3-0.5,1-3,1-4.2c0-0.2-0.2-0.9-0.2-2L268.2,349.3 M266.3,361c0,1.6,4.5,2.1,4.9,2.1c1.4,0.1,2.1,0.1,3.7,0
		c0.1,0,4.8-0.5,4.8-2.1c0-1.8-5.6-2.1-6.8-2.1C272.5,358.9,266.3,359.1,266.3,361 M297.4,316.3l-0.4,0.7l0.3,1.6l0.6,0.6l1.5,0.5
		c1.2,0,2.7-1.2,2.5-2.7c1-0.8,2.7-0.9,4.2-1.2l-1.3-0.1l-0.7,0.2c-0.2,0-0.9-0.2-2.3,0l-1.2,0.6c0,0.2,0.1,1.6-0.7,1.6
		c-0.6,0-0.8-0.6-0.8-1.1c0-1.5,1.9-1.8,2.7-1.8l1.1,0.2l0.6-1.1c0-0.7-0.2-3.1-1.7-3.1l-0.7,0.2v0.3l1,2l-0.1,0.2h-0.4
		C300.1,313.9,298.3,314,297.4,316.3 M303.3,310.1l0.2-0.5l-0.4-0.5l-0.5,0.6l0.4,0.3H303.3z M343,339.2h-49.7V371
		C312.3,364.4,329.3,353.3,343,339.2 M336.2,342.7c-5.5,7.6-18.1,17.1-25.9,11c-0.5,8-7.8,13.6-15.3,13.6
		c-0.7-7.2,2.8-13.5,8.8-14.8c-3.7-0.8-9.3-4.8-10-11c8-2.5,15,1.6,16.5,7.5C316.4,338.9,332.3,340.3,336.2,342.7 M331.8,343.6
		c-4.9-1.1-15.5-0.6-20.1,8C317.4,356.5,327.4,348.8,331.8,343.6 M308.4,351c-0.9-3.8-4.2-9.2-11.9-8
		C298.8,348.6,305.1,351,308.4,351 M307.9,353.9c-3.9,0.4-10.7,2.9-10.6,10.7C306,362.6,307.7,356.5,307.9,353.9 M338.1,175.5
		l-0.5-0.5l-0.6,0.2l-1.8-0.4l-1.2,0.1l-1,0.5h-1.1l-0.9-0.5l-0.6,0.3c0.5,1.2,1.4,0.2,1.8,1.2c-1,0.8-1.5,1.9-1.5,2.8
		c0,0.9,0.7,2.4,2.1,2.4c2,0,2.5-2,2.5-3.3l-0.8-1.7l0.2-0.2l0.9-0.1c0.6,0,1,0.5,1.2,0.5C337.2,176.8,338.1,176.2,338.1,175.5
		 M333.6,179.2c0,0.4-0.3,1.1-0.9,1.1l-1.1-1l1.4-1.5L333.6,179.2 M330,174.8l0.8-0.8c0-0.2-0.5-1.4-1.2-1.4l-0.4,0.1v0.4
		C329.8,173.6,329.7,174.1,330,174.8 M314.6,209.5l0.9-0.9l-1-0.5l-0.2-0.3v-1.7l-1.3-2.6l-1-0.2c-0.6,0-0.7,0-1.5,0.9v0.3l1.2,0
		l1.3,1.4v1.9C313.1,208.7,313.7,209.5,314.6,209.5 M310.6,207.6l-2,1.2l1.1,1.2l1-0.6l-0.2-0.6l0.6-0.3v-0.6L310.6,207.6
		 M307.9,212.5l0.5-0.7c0-0.6-0.5-2.8-2.1-2.8c-0.2,0-1-0.1-1,0.6l0.8,1.1l0.7-0.3c0.5,0.6,0.1,1.5,0.6,1.9L307.9,212.5 M308,213.7
		l-0.2,0.3l0.8,0.4c0.7,0,0.7-0.5,1.2-0.8l-0.6-0.2L308,213.7 M309.3,214.7l-0.6,0.3l0.2,0.2l0.7-0.4L309.3,214.7 M324.9,193.7
		l-0.5,0.5l1.3,0.6c0.3,0,1.2-0.5,1.3-1.1l-1.3,0.4L324.9,193.7 M327.2,193.4l-0.4,4.9l0.7,0.7l0.4-0.3l1-0.1l0.2-0.4l-0.6-0.6
		l0.2,0.2l-0.2,0.2c-0.8-0.2-0.9,0.1-1.1,0.1l-0.2-0.3l0.3-3.1L327.2,193.4 M327.8,200l-0.5,0.6l0.7,0.2l1.5-0.1l0.4-0.2l1.4-0.6
		c-0.6,0-1.6-0.2-1.8-0.2L327.8,200 M329.9,201.1c-0.5,0.4-1,0.3-1.8,0.3l1.1,0.8c0.1,0,1.1-0.2,1.1-0.9L329.9,201.1 M331.8,192.4
		l-0.1-0.3l-2.2,1.2l-0.9-0.1c-0.1,0.7,0.9,1.1,1.4,1.1L331.8,192.4 M292.3,245.6l0.5-0.3V245l-0.6-0.2l-0.6,0.4L292.3,245.6
		 M285.6,225.5l0.8-1l-0.5-0.5l-1.4,1.3l0.2,0.2H285.6z M284.7,223.9l1.7-0.8v-0.5l-0.9,0l-0.5,0l-0.9,0.4l-1.2,1.6l0.4,0.6l0.9-0.4
		L284.7,223.9 M279.2,216.7l0.5-0.9l-0.6-0.5l-3.1,2.2l0.2,0.5h0.3l1.2-0.7c0.3,0,0.2,1,1.2,1l0.7-0.8L279.2,216.7 M275.1,220
		c-0.3-0.7-1.1-1.9-1.1-2.2l1.1-1.4c0.4-0.7,0.4-1.5,0.4-2.4c0-0.1-0.1-2.2-0.9-2.2l-0.5,0.4c0,0.2,0.3,0.7,0.2,1.8l-0.4,1.8
		c-1.2,1.5-2.1,1.3-2.1,2.6c0,1.5,1.7,3.2,1.7,4.6l-0.2,0.8l0.7,0.9c0.8,0,1.6-1.6,1.6-2.3C275.6,222.1,275.4,220.8,275.1,220
		 M272.3,228.8l-0.8-1c-0.7,0-1.1,0.9-1.1,1.4l0.8,0.6C271.9,229.9,272.3,229.7,272.3,228.8 M250.8,154.1l-0.3-0.3l0.3-0.3h4.7
		l5.8-7.7l-11.6,7.2l-0.3-0.1v-0.3l2.6-6.2l-3.4-7.1v13.7h-0.3l-1.4-0.5c-3.8-2-7.6-3.9-11.4-5.9l5.4,7.7h7l-10.9,7.8
		c2.6-0.5,5.5-0.3,7.6-1.8c1.8-1.2,2.3-3.7,3.5-5.3h0.5v14.4c1.3-2.9,2.5-5.7,3.8-8.5l0,0l0,0l0.5-1.1l0.2,0l9.1,0.9
		C258.5,158.5,254.6,156.3,250.8,154.1 M231.6,199.1l1.2-0.9c-1-1.3-2.4-2.4-2.8-3.6c-0.4-1.3-0.9-3.7-1.9-5v0.8
		c0.2,1.1,0.8,2.9,0.8,3.1c0,0.7-0.2,0.6-0.7,0.6c-0.6,0-0.2,0.1-1-0.5v-1.3c0-1.1-1.3-4.9-1.5-5.3l-0.1,0.6c0,0.2,0.5,2.3,0.7,3.5
		l-0.1,1.2v1.6c0,1.5,1.8,1.2,2.6,1.1C229.2,195.1,230.5,199.1,231.6,199.1 M224,190.2c0.8,0.1,1.1-0.1,1.2-0.6l-1.2-0.2
		c-0.4,0-3.1,0.4-3.1,1.1l0.1,0.3l1.4-0.5l0.2,0.1c-0.1,1,0.2,1,0.6,1l0.9-0.7L224,190.2 M221.6,194.8c-0.8,0.5-1.7-0.1-1.7,0.7
		l0.1,0.4l0.9,0.1l1.4-0.9l-0.8-1.3l-0.3,0.2L221.6,194.8 M219,190.5l0.6-0.1l-0.7-0.7c-0.2,0-1.5,0.1-2.1,0.3l-0.4,0.7l1.1-0.2
		c0.2,0-0.2,1.4,0.7,1.4l0.9-0.8l-0.1-0.5L219,190.5 M222.1,198.8l-1,0.6l0.3,0.5l0.9-0.3l0.2-0.4L222.1,198.8 M220.6,198.6l0.9-0.4
		c0.7-0.3,1.7,0,2.2-0.7l-0.2-0.2h-1.7l-1,0.2l-0.7,0.7L220.6,198.6 M217.1,193.2h-0.5v1.1c0,0.2,0.2,2.1,0.5,3l0.6,1.2
		c0.5,0.6,1.2,1,1.7,1.7l0.8,1.5l1.6,0.5c0.5,0,2.1-0.4,2.1-1.2c-0.6,0.2-1.6,0.6-1.9,0.6l-1.2-0.8l-0.5-1.2c-0.6-0.7-1.6-1.2-2-1.9
		C217.6,196.3,217.6,194.7,217.1,193.2 M233.4,249.1l-0.3,0.6c0,0.2,0.5,1.6,0.6,2.2c0.2,0.8,0.4,1.5,0.5,2.3c0.1,1,0.2,2.1,0.3,3
		l0.3,1.6c0.2,0.7,0.2,1.9,0.2,2.1l0.6,11.7v10.9l-0.4,3c0,0.2,0,3.4,0,4.6l-0.3,1.7c0,0.2,0,2.7,0.1,4.1c0.2,2.2,0.2,4.4,2.2,6.7
		l0.8,0.7l1-0.8l-1.2-1.4c-0.3-1.1-0.7-3.3-0.7-3.6v-2.8l-0.4-4.2l0.3-1.2v-11.4l-0.2-14.3c-0.7-4.6-0.5-10.6-2.9-15.1L233.4,249.1
		 M242,222.9l-0.9,1c0,0.2,0.2,1,0.9,1c0.2,0,1.2-0.2,1.2-0.9L242,222.9 M182.8,236l0.6-0.5l-0.2-0.3h-0.5l-0.4,0.2l-5.2-0.1
		c-0.9-0.1-1.7-0.3-2.9-0.6v0.6c0.4,0.5,1.5,0.9,2.2,0.9h5.3L182.8,236 M178.4,211.2c0.3,0,0.8-0.1,0.8-0.8l-0.9-0.9l-0.9,1
		L178.4,211.2 M151,237.9l1.1-1.1c0-0.4-0.4-0.9-1.2-0.9l-1.1,1.1L151,237.9 M163.4,190.5l-0.7,0.2v0.7l1,0.3
		c-0.5,0.7,0.5,1.2,1.1,1.2l1-0.4l0.4-0.5l0.3,0.3l0.2-0.2C167,191,164.4,190.5,163.4,190.5 M164.5,197l-0.3,0.4l0.8,1.2l1.7,0.2
		l1-0.8C166.6,197.3,165.4,197.9,164.5,197 M165.4,199.1l-0.7,0.4l0.9,0.5l0.6-0.4v-0.3L165.4,199.1 M166.8,196.7l0.9-0.4v-0.3
		c-0.6-0.2-1.6-0.7-1.9-0.7l-0.6,0.2C165.1,196.4,166.4,196.7,166.8,196.7 M157,339.2c13.7,14.2,30.7,25.2,49.7,31.8v-31.8H157z
		 M163.8,342.7c4-2.4,19.9-3.7,25.9,6.2c1.6-6,8.5-10,16.5-7.5c-0.7,6.2-6.3,10.2-10,11c6,1.4,9.4,7.6,8.8,14.8
		c-7.6,0-14.9-5.6-15.3-13.6C181.9,359.7,169.3,350.3,163.8,342.7 M168.2,343.6c4.5,5.2,14.4,12.9,20.1,8
		C183.7,343.1,173.1,342.5,168.2,343.6 M191.6,351c3.3,0,9.6-2.5,11.8-8C195.8,341.9,192.4,347.2,191.6,351 M192.1,353.9
		c0.2,2.6,1.9,8.7,10.6,10.7C202.8,356.8,195.9,354.3,192.1,353.9"/>
</g>
</svg>
