<svg enable-background="new 0 0 500 500" viewBox="0 0 500 500" xmlns="http://www.w3.org/2000/svg"><path d="m432.5 250c0-100.8-81.7-182.5-182.5-182.5s-182.5 81.7-182.5 182.5 81.7 182.5 182.5 182.5 182.5-81.7 182.5-182.5m-2 0c0 99.7-80.8 180.5-180.5 180.5s-180.5-80.8-180.5-180.5 80.8-180.5 180.5-180.5 180.5 80.8 180.5 180.5m-3.8 0c0-97.6-79.1-176.7-176.7-176.7s-176.7 79.1-176.7 176.7c0 94.5 74.2 171.7 167.6 176.5-1.8-.9-3.6-2-5.5-3.2-89.2-7.4-159.3-82.2-159.3-173.3 0-96.1 77.9-173.9 173.9-173.9s173.9 77.9 173.9 173.9c0 91.1-70.1 165.9-159.3 173.3-1.9 1.2-3.7 2.3-5.5 3.2 93.4-4.8 167.6-82 167.6-176.5m-247.5 145.7c.6-1.6 1.5-3.4 2.3-5 .8-1.7 1.4-3.6 2.6-5.1l1.4-.3.4-1.9c0-.5-4.7-4.9-6.3-6.3l-4.8 1.5 5.8 5.3c-.5.8-1 1.7-1.4 2.6h-7.9c-1.3 1.8-1.5 1.5-1.5 2.9l-.5 7.1 1 1.4 5.9-1.8c2.1-.1 1.8-.1 2.5 0zm-.9-7.4-3.4 7.2h-1.6c.3-1.3.6-2.7.8-3.9 0-.1.3-3.3 1.1-3.3zm4.7 15.1 7.9-2.4.6.1c1.8-3.9 3.3-7.9 5.2-11.7.3-.6 1.2-1 1.8-1.4l-7-4.7-5.1 2.1c1.7 1.1 5.1 3 5.1 3.3v1.9l-4.1 9.3c-.3-1.5-.8-3.2-1.4-4.7l-5.1 1.5c.3.9.6 1.8.8 2.7.4 1.3.5 2.7 1.3 4m30 .8-5.4 2.8c1 1.9 2 3.7 3 5.3 1.8-1 3.6-2 5.3-2.9zm-6.2-12.8c.7-1.2 2.6-1.3 3.8-2l-1.1-1.2-5.2 2.3h-1.9l-7.2 18.6c-.4-1.2-.9-2.6-1.3-4-1.7.2-3.1.4-4.5.7.4 1.8.7 3.5 1.1 5.2 1 .4 2.8 1.1 3 1.1s1.8-.5 2.5-.7c.8-.1 1.6-.4 2.3-.6l1.3-.4c2.4-6.2 4.1-13 7.2-19m-37.8-15.5-1.3-5.8-6 1.2v.5l1.2 5.3h.7zm-26.3-249.8h-5.1v5.1h2.6c2.7 2.7 5.5 5.1 7.8 8 .5.7.4 1.7.6 2.5h.3c1.4-.4 2.8-.7 4-1.3l.3-.8.6-4.2-.1-.2c-.9.3-2.3.9-2.6.9-.2 0-3.4-3.4-5-5l-3.4-3.8zm-33.4 32.1 1.8 6c0 .6-.1 1.7-.1 1.9v.3c2.2 1.1 4.4 2.2 6.6 3.3 1.2.6 2.7.9 3.7 2l.1 1.1 1.5.8 6.2-5.7-2-5-4.4 4.8c-.6-.4-1.3-.8-1.9-1.1v-7.2l-1.8-1.8-8-.6c-.9 0-.6 0-1.8.8zm2.3 2.7c2.5.5 5 1 7.4 1.5l.1.8v2.6c-2.5-1.2-5-2.3-7.4-3.4l-.1-.9zm-3.7 8.4-4.7 1.9c.7 1.6 1.2 3.2 2 4.6.8-.4 2.1-.9 2.3-.9s6.3 2.6 9.2 4.4c.8.5 1.1 1.6 1.8 2.4l3.7-2.8c-.4-1.7-.8-3.3-1.2-5-.8.6-2.1 1.6-2.3 1.6s-1.3-.6-2-.9c-2.7-1.2-5.7-2.3-8.2-3.9zm-12.2 27.7c-1.6 1.5-3.6 2.5-5.4 3.8l3.8 8.4c1.6-.3 4.5-.7 4.7-.7s4.5 1 6.4 2c1 .5 1.4 1.6 2.1 2.2l4.3-6-3-7.7c-.6.1-1.6.4-1.9.4-.2 0-1.8-.5-2.6-.8-2.6-1-5.2-.6-7.9-3.5-.2.7 0 1.5-.5 1.9m-2.2 6.9 4.3-3.1 10.6 3.2c-.6.8-1.6 2.4-2.3 2.8l-10.5-3h-2.1zm9.9 11.7-19.1-4.3v.3c0 .2.7 2.8 1.1 4.2 5.4 1.2 10.8 2.4 16.1 3.6l1.5.4c.5.9 1 2 1.4 2.9l3.3-5.1c-.8-1.3-1.8-2.6-2.6-3.9-.6.7-1.1 1.3-1.7 1.9m-19.1 12.3 5.4 7.5c1.5-.5 4.4-1.5 4.6-1.5l3.9.5c.2 0 1.8-.1 2.6.2.9.4 1.6 1.3 2.5 1.8l3.1-6.6-4.6-7.1c-1.3.5-1.1.7-2 .7-.2 0-2.3-.2-4.2-.4-1.4-.1-2.8-.2-4.1-.5-.9-.2-1.7-.9-2.6-1.3v1.4c0 .9-4.1 4.7-4.6 5.3m3.9 2.4c.3-.4 2.9-3.7 3.7-3.7l10.8 1.1c-.2.8-1.5 3.3-1.7 3.3l-11-1c-.4.1-1 .3-1.8.3m-5.8 11.8c1.2 1.3 4.4 4.3 5.7 6.6l13-.1c.7.3 1.4.8 2.2 1.2 0-2.7 1.1-5.6 1.6-8.1l-4.1-3.8-.3 1.5c0 .2-.3 2.9-.5 4.3-.6.4-1.7 1-2 1.1h-10.3c1.2-1 2.6-2.1 3.8-3.2-1.2-1.4-2.3-2.7-3.4-3.9zm1.6 19.9 4.8 3.3 3.3-4.7-4.8-3.2zm17.8 1.1 3.3-4.6-4.7-3.3-3.4 4.6.1.2zm-16.5 16.9 6.6 6.2c2.7-.9 5.5-1.7 8.2-2.5l.2-1.5c.1-1.7.3-3 .3-3.3l-.1-.4c-.8-.5-2.6-1.4-2.6-1.6l1.1-1.9c1.3-.4 3.7-.7 4-.7l.2.1-1.1 7.1c.1.7 1.3 1.2 2 1.8.6.6 1.9 1.6 2.2 1.6l1.4-.8-1.3-1.3 1.3-7.8c-.7-.8-1.5-1.8-2.3-2.7-.7-.8-2.1-2.4-2.3-2.4s-5.3.9-7.9 1.4c-.6 1.5-1.2 3.2-1.8 4.8.9.6 3.2 1.7 3.2 2.1l-.6 2.2c-1.6.5-4.8 1.5-5 1.5l-1.1-1.1c0-.1 1.3-3.1 2.1-3.3 1.5-.2 1.8-.1 2.1 0l-6.6-5.5c.2 1.2.6 2.7.6 3-.1.2-2 3.4-2.8 5m24.1 12.6c.2-1.4.4-2.8.7-4.2l-4.4-3c-.2.9-.3 1.8-.4 2.6-3.7 1.1-11.2 3.4-11.4 3.4l-1.4-.7-2.4 4.4 4.6 2.3c.4-.7.8-1.4 1-2l.3-.3c3.5-1 10.1-2.8 10.4-2.8l2.8.5zm-11.8 15.6h1.1c.2 0 2.2-.3 3.2-.5-.2-.6-.3-1.2-.5-1.7l8.8-3.6 3.4 1.6.2-.1.4-6.4-.1-.5c-1.4-.7-3-1.3-4.5-1.9-.3 1.3-.6 2.7-.9 3.9l-.2.2c-2.7 1-5.4 2.1-8.1 3.1-.5-1.5-.9-3.1-1.5-4.7-1.7.1-2.2.1-3.5.2l-.6.3 1.6 5.3v.4l-6.4 2.4c1.6.8 3.2 1.5 4.9 2.2l2.5-1zm.3 13.2c2.6 0 5.4 1.2 7.9 2.2-.1-.6-1-2-1-2.6l.3-2.6c0-.2.1-1.7.1-2.5 3.3-1.1 6.6-2.3 9.7-3.5l1.4 3.4-10 5.7 4.6 1.8 7-3.9c1.2.2 2.5.4 3.8.5l-.6-6.1-.1-1.1c-1.4-.4-2.7-.8-3.9-1.2l1-4.8-.1-.3c-2.1-.5-3.8-1-5.7-1.6v3.6c-3.6 1.3-7.3 2.6-10.8 3.9-.4 1.2-.8 2.4-1.2 3.6-.6 1.9-.8 3.8-2.4 5.5m13.5 14.8c1.5-.4 2.7-.7 4-1.1-.2-.6-.5-1.3-.7-1.8l8.2-4.7c1.1.4 2.3.7 3.7 1l-.8-7-4.9-1.1c.2.4 0 2.4 0 3.3l-.1.6c-2.4 1.7-5.3 3.2-7.7 4.5-.8-1.4-1.4-2.9-2.1-4.3-1.4.4-2.7.6-4 .9v.3l2.4 5.2-5.9 3.4.1.2c1.4.3 2.8.6 4 .9l1 .4c.2 0 1.7-1 2.4-1.4zm8.4 7c2.5-2.5 6.2-4.2 9.1-6.1 1-.2 2-.3 3-.5-.2-1.5-.5-2.9-.7-4.3-1.6-.5-3.3-1-5-1.6l-.1.2c0 .2.3 1.7.5 2.4l-10 6.5h-1.1l-.4.2c-.2 1.6-.4 3.1-.7 4.7 1.7.3 3.3.5 5 .8.2-.7-.1-1.7.4-2.3m40.3 38.2-6 1.3 1.2 5.8h.5l5.5-1.2v-.6zm-13.1-6.5c2.7-3 5.5-6.7 8.8-9.9.4-.4 1.2-.4 1.9-.6l-5.5-6.6-5.4.7 4 4.4c-.2.7-.2 1.5-.6 2.1-2 2.7-4.6 5.2-6.6 7.5v-4.9c-2.5 0-4.9-.4-5.4 0v6.9h8.3zm-16.8-12.5c.1.7.1 4.4.1 4.6l-.1.3h5.3v-2.2l-.1-.4c3.1-2.9 5.7-5.9 9.1-8.6.8-.6 1.9-.6 2.9-1-.6-1.4-1-2.8-1.5-4.1l-5.3-.6c.3.9.6 1.8 1 2.5-3.1 2.9-6.6 5.8-9.3 8.9-.7.8-1.5.3-2.1.6m-4.8-10.5v-3l8.7-7 .1.1 1.4 3.9c-1.1 1-2.2 2.2-3.3 3.1-1.7 1.5-3.2 3.1-5.1 4.4-.5.3-1.2.2-1.9.3v5.4h.5l4.3-1.1c.4-1.2 0-1.2 0-1.9 0-.4 4.3-4 5.4-4.9l1.2-1c1.9-1.5 1.7-2.1 3.9-2.1h.3c-1-2.7-1.8-5.3-2.9-7.8-2.5-.3-7.3-.8-7.5-.8-1.1 0-7.6 5.8-8.2 5.8l-1.1-.3h-.7v8.2l5.9-.8zm-27.2-170.7 1.3 4.3c-1.2.9-3.6 2.3-3.6 2.6 0 .6 1.4 4.3 1.8 5 1.1-.4 3-1.1 3.2-1.1s6.1 2.3 9 3.6c.7.3.8 1.7 1.4 1.9l3.8-2.8c-.8-1.4-1.5-2.8-2.3-4-.7.4-1.8 1.2-2.1 1.2-.2 0-6.2-2-8.8-3.8-.7-.5-.6-1.7-.7-2.6l-.1-.1v-.3l3.2-1.5.7 1c2.8 1.2 5.8 2.1 8.4 3.6l1 1.7 3.7-3.2-1.7-4.5-2.4 2c-1.5-.7-3.1-1.3-4.5-1.9-.9-.4-2.1-.5-2.8-1.1-.9-.8-1.3-2.1-1.8-3.1h-.3zm22.2-37 .6 3-.2.4c-1.5.5-2.9 1-4.3 1.5l.2.4c.4 1.5 1.1 3.5 1.5 5l.3.3 1.8-1c.2 0 6 3.4 8.4 5.7.8.8.7 2.1 1.1 3.2l4.7-2.3v-.4l-1.2-4.6c-.7.2-1.8.6-2 .6l-.8-.4c-1.7-1.2-7.8-5-7.8-5.5l-.1-2.1.3-.5c1.1-.7 3.1-2.1 3.4-2.1l.8 1.9c2.3 1.9 5.4 2.9 7.4 4.9.7.7.5 1.9.7 2.8l5.4-2.6-.6-4.4c-.9.4-2.3 1.2-2.6 1.2-.2 0-6.2-3.4-8.6-5.9-.8-.9-.7-2.3-1-3.5-2 1.1-3.9 2.1-5.8 3-.3.3-1.6.8-1.6 1.4m26.7 2-16.6-14.5c2.9-.2 3.4-.2 3.9-.1l.2-.1v-5h-.6c-.2 0-2.4-.1-3.3.4-2.3 1.2-2.2 2.2-2.2 3.7l-.2 4.4v.5c1.5 1.4 3.3 2.9 4.8 4.2 4.6 4 9 7.8 13.6 11.8l.2-.2v-5.1zm3.2-25.9.6-1.5c.2 0 .4.1 3.5.1.5.7 1 1.4 1.5 2l1.8-8.1c-.9.6-2.4 1.9-2.7 1.9h-5.4l-2.6 8.5 6.1 5.9c1.6-.7 3.4-1.4 5-2.1 0-.9-.1-2.2.2-3l1.8-.2c.2 0 2 2.4 3 3.4l-.2.2c-1.2.4-2.5.8-3.7 1.2-1 .3-3.6 1.1-3.6 1.5 0 .2-.5 3.1-.9 4.7l1.4.9.4-1.6c1.6-1 3.8-1.4 5.4-1.9.8-.2 2-.2 2.4-.9 1.3-1.8 2.5-5.9 2.5-6.1l-5.2-6.5c-.2 0-3.4.5-5 .9l-.1 1v2.3c-.3.3-1.4.8-2.1.8l-1.7-1.4c-.9-.4-2.4-1.8-2.4-2m29.9-7.8c2.9 0 4.9-2 4.9-5.1 0-2.7-2-5.2-5.1-5.2-3.4 0-4.9 3.1-4.9 5.5l.3 1c.6 2.8 2.8 3.8 4.8 3.8m18.3-9.3c3 0 4.8-2.3 4.8-5.1 0-2.7-2-5.2-5.1-5.2-2.8 0-4.9 2.3-4.9 5s2 5.3 5.2 5.3m74.4-14.1c-.3.8-.8 1.9-.8 2.8 0 .2.4 2.2.9 3 1.1 1.8 2.9 2.3 4.2 2.3 2.9 0 4.9-2.2 4.9-5.1 0-2.6-1.9-5.1-5-5.1-1.2-.2-3.6.4-4.2 2.1m-29-1.9-.4 1.6.3 1.1c.8 2.7 2.2 4.1 4.9 4.1 2.9 0 4.9-2.2 4.9-5.1 0-2.7-1.9-5.1-5-5.1-1.8 0-4.2.9-4.7 3.4m-2.2 25.9c-.8 1.6-3.8 7-3.8 7.5 0 .2 0 .8.6.8.5 0 9.5-6.8 10.2-7.3 3.4 2.4 9.4 7.3 10.2 7.3l.6-.8c0-.2-1.5-3.4-2.3-5-2.6-5.1-5.2-10.4-7.9-15.5l-.7-.4-.7.4c-2 4.4-4 8.9-6.2 13m-22.9-15.5c2.9 0 4.9-2.2 4.9-5.1 0-2.7-1.9-5.1-5-5.1-1.9 0-4.2.9-4.7 3.4l-.3 1.6.3 1.1c.6 2.7 2.1 4.1 4.8 4.1m16.3-1.7v1.7h-13.6v46.8l5.9-11.5v-3.6c0-.2-.3-1.6-.6-2.4l-.5-.4c-.1.7-.2 1.4-.2 2-.1.6-.6 2-1.7 2-1.4 0-1.3-1.7-1.3-2.6 0-1.2-.2-2.7 1.7-3.2-1.3-.7-2.4-2.5-2.4-3.7l.2-1.5.8-1.2.8-.1c1.6 0 2 1.2 2.2 2.8.2-1 .7-2.4 1.8-2.4 1.2 0 1.4 1.3 1.4 2.1 0 1.2-.9 3.1-2.3 4.3v.2l.9 1.8c.3.9.7 2 .5 2.8 1.6-3 3.3-6.1 4.8-9.2l-.1-.4c0-.9.1-.9.1-1.2 0-1.6.1-2.6-.7-4.5l-.4-.3c-.2.6-.1 4.1-2.1 4.1-1.2 0-1.3-1.9-1.3-2.7s.1-3.1 1.6-3.2c-1.2-1-2.2-2.4-2.2-3.7 0-.8.4-2.9 1.8-2.9 1.6 0 2.3 1.7 2.3 3.2.2-1 .3-2.7 1.8-2.7 1.3 0 1.3 1.1 1.3 1.9 0 2.5-2.3 4.5-2.3 4.7l.9 1.6c.4.9.6 1.9.7 2.9l4.7-9v-3.9c0-.2-.3-1.6-.6-2.4l-.5-.3c-.3.6 0 3.9-2 3.9-1.4 0-1.3-1.7-1.3-2.5 0-1.1 0-2.9 1.6-3.3-.9-.3-1.8-1.8-1.8-2.4l.1-.1h6.4v.3c-.6.9-2 2.5-2 2.8l.8 1.5c.4.8.4 2.2.7 3l.2-.1 3.8-7.6c-3.3.1-3.5.1-3.6 0 .1-1.4-.1-2.4-1.4-2.4-.8 0-1.2.3-1.5 1.5.1-.9-1.2-1.8-2-1.8-.1.2-1.4.5-1.4 1.3m20.6 1v.7h-3.6c1.3 2.6 2.5 5.1 3.8 7.6l.4.2c0-1.2.3-2.4.8-3.5l.8-1.2-1.2-1.5-.8-1.5h6.4c-.1.9-1.1 2.2-2 2.5 1.3.3 1.8 2 1.8 3.4 0 .4-.1 2.4-1.3 2.4-1.8 0-1.4-2.9-2.1-4l-.6.8c-.3.9-.5 2.8-.5 3s0 .4.1 2l.1 1.1c1.2 2.9 2.7 5.7 4.1 8.4l.6.4c0-1.1.3-2.6.9-3.6l.7-1c0-.3-2.3-2.2-2.3-4.8 0-.5-.1-1.9 1.2-1.9 1.4 0 1.4 1.7 1.8 2.7.2-1.5.6-3.1 2.3-3.1 1.2 0 1.7 1.2 1.7 2.3 0 1.2-.5 3.3-2.3 4.2 1.9.7 1.7 2.1 1.7 3.3 0 .3.2 2.5-1.2 2.5-1.7 0-1.5-2.8-2.1-4.1l-.2.1c-.6.9-.9 2.9-.9 4 0 .2-.2 2.2.1 3.1 1.1 2.9 2.9 5.7 4.4 8.6h.3c.1-1 .3-2 .6-2.9l.9-1.7c0-.2-1-1-1.3-1.7-.7-1.2-1-1.7-1-2.9 0-.6.1-1.9 1.2-1.9 1.4 0 1.8 2.1 1.8 2.8 0-1.3.6-3.3 2.2-3.3 1.3 0 1.6 1.2 1.6 2.3 0 1.3-.2 3.2-2.1 4.3 1.6.5 1.7 2 1.7 3.1 0 .6.2 2.5-1.2 2.5-1.9 0-1.5-2.9-1.8-3.6l-.4-.3-.9 2.5v4.4c1 1.9 2.1 3.7 2.9 5.5.6 1.3 2.1 4.6 2.5 4.6l.3-.1v-46.1h-13.3c.3-1.2-.4-2.6-1.7-2.6-.9 0-1.7.7-2 1.6-.5-1.1-.8-1.4-1.5-1.4-1 .2-1.4 1-1.4 1.8m42.9 6.7c2.9 0 4.9-2.2 4.9-5.2 0-2.7-2-5.2-5.1-5.2-.2 0-1.4.4-2.1.5-1.8.5-2.8 2.8-2.8 4.8.1 2.6 2.2 5.1 5.1 5.1m18.9 10c2.9 0 4.9-2.2 4.9-5.1 0-2.7-1.9-5.1-5-5.1-1.8 0-4.2.9-4.7 3.4l-.3 1.6.3 1.1c.7 2.7 2.1 4.1 4.8 4.1m12.7 14c0 1.1.2 2.5.6 3.7 1.7-.2 3.3-.5 4.9-.8v-.6c0-.2-.6-2.8-.8-4.2h-.8l-.7.2c-1.1.1-2.3.4-3.5.5v.5zm-23.7 265.2 1.5-5.2-5.2-1.6-1.6 5.2zm6.1 10.7 1.6-5.2-5.4-1.4-1.5 5zm63.1-43h.4v-.5l-.2-1.2c-.1-1.2 0-2.4-.4-3.5-.2-.6-1.5-.8-1.8-1.6l.3-.4-2.5-3.1-1.5 1.1c-.2 0-4.6-3.6-7-5.4-.1-1.1-.2-2.3-.4-3.5h-.4c-2.1 1.2-6 2.8-6 3.1 0 .2.4 2.7.5 4.1l.2.3c1-.3 2.8-.6 3.8-1.2l6.7 5.3c-.9.8-3.1 2.6-3.1 3.2l2.3 3.3c.2 0 2.8-2.6 4.2-4zm3.5-33.8c0-1.1-.5-2.5-.8-3.4l-5.6 1.4v.6l.6 1.8c.2 1 .5 2 .8 3 1.9-.5 3.7-.9 5.6-1.4v-.4l-.4-1.3zm22.3-22c1.9-.5 2.8-1.3 4.7-2v-.3c-.4-.7-1.1-1.7-1.1-1.9s-.6-1.6-.9-2.3h-.4c-.8.6-1.4.6-2.2 1l-7.5-3-1.7-.7c-.7-.7-1.3-1.8-2-2.7h-.4l-4.6 6.1c.5 1.2 1.2 2.4 1.7 3.5l.3.2 3.3-3.1 6.7 2.6h.2c1 .4 2.2.6 3.2 1.3zm6.5-14.2c1.6.5 3.5 1 5.2 1.5v-.4c-1.2-1.5-2-3.3-3.4-4.5-.5-.4-1.5-.3-2.1-.5l.5-1.2-.1-.3c-1.2-.5-3.6-1.8-3.8-1.8l-.4.4-.4 1-.2.1c-.2 0-2.1-.5-3-.7-1.9-.5-4.1-1-6.1-1.4-.6-.7-1.1-1.6-1.7-2.3h-.3l-3.4 7.5c.7 1.1 1.6 2.3 2.4 3.4h.4c.9-1.4 1.7-2.8 2.6-4.1 2.5.6 5 1.2 7.5 1.7l.4.2c-.5 1.2-1.5 3.7-1.5 3.9l3.8 2.8h.3l.5-1.6c.3-.9.6-1.8.9-2.5l.8-1.7zm5.4-15.9 1.7-.7v-.4c-2.5-1.6-3-3.3-4.8-5.6h-.3c-.1.8 0 1.7-.4 2.3-1 1.8-2.4 3.3-3.6 4.7l-9.3-1.9v-.3c.4-1.1.7-2.1.9-3.2h10l.7.2.6-.1v-.3c-.7-1-2-2.6-2-2.8l-.5-1-7.2-.1-1.1-.5c-.6-.6-1.9-1.8-2.2-1.8l-2.1 3.4c-.5 1.1-1.3 2.2-1.9 3.4l2.4 2.9-3.7 4c1.1 1.5 2.4 3.3 3.8 4.5.6-.8 1.6-2.1 1.6-2.3l.8-.9 10.2 1.9c.7-.5 1.4-1.1 2-1.6 1.5-1.4 2.8-2.8 4.4-3.8m-1.9-16.3h6.4l-3.3-3.8c-1.5.3-2.4 0-2.7 0l-.1-.7c-1.3-.3-2.6-.7-3.9-1-.1.6-.2 1.5-.6 1.9h-8.2l-2.6-2.6h-.4l-2.7 5.9c1 1.2 2.2 2.3 3.1 3.2h.3c.7-1.1 1.4-2.1 2.1-3.1h8.2l.2.2c-.3.7-.2 1.7-.4 2.5-.1.6-.2 1.3-.2 1.9l1.5.4c.7.3 2 .8 2.2.8l.3-.2v-.5c.2-1.4.4-3 .6-4.4zm-16.8-15-1.9 4 3.2 3.9h.3c.4-.9.8-1.8 1.2-2.5l1.2.2c.2 0 2-.2 3.1-.1l.3-.2h7.7l1.2.9 3.4-3.6c-1.2-1.1-3.2-3.1-3.4-3.1l-.3-.1c-.6 0-1.2 1.8-2.5 1.8l-8.6.1-1.2.2-.9-.1c-.7-.6-1.7-1-2.8-1.4m10.9-34.6c-1.3-.8-1.9-2.4-2.4-2.4l-.9.4-9.8 2.7-1.4-.8-1.9 1c0 .2-.4 4.8-.5 7.9l-.1.2c0 .3 3.3 2.1 4.1 2.7h.4v-6.8l.3-.5c.7-.2 1.9-.7 2.1-.7l5.5 5.3c1.6.1 1.7.1 1.7.1h.2l3.9-2.8c.7-.6 3.2-2 3.2-2.9l.1-.6c0-.8-4.3-2.7-4.5-2.8m-.6 1.1.6.1.2.3.3.2-.3.4-.4.3-.4.1-.2.1-.1.2c-1.6.9-4.3 2.5-4.5 2.5l-.5-.3-1.4-1.6-.4-.3 1-.2.1-.1h.3l3.1-1v-.2h.8v-.2zm-10.2-28.9c-.4.8-.3 2-1.2 2.5l-10.5 4.5c-.2-.1-.5-.1-2.8 0v4.5l4.6 2.2.2-.1v-2.5l11.4-5.3c.4.1.8.3 1.5.4.6-1.5 1.5-4 1.5-4.2v-.6c-1.6-.6-3.1-1-4.7-1.4m-35.4-32.8v-.8-1h-1l-.3.2c-1.1 0-2.8-.1-3.9.3 0 .8.1 1 .1 1.1.1.9.2 1.7.2 2.6l.2.3c0 .1-.3.9.3.9l1.7-.3h1.4l1.4-.1.3.1v-1.2l-.3-1.4zm-15.9-28.1c-.1-.8-.3-1.5-.3-1.8l.1-.4-.3-.8c0-.2-.1-1.3-.3-1.9h-.7s-3.5.6-4.4.8l.9 4.8h.8c.2.1 2.8-.4 4.2-.7m6.3 14.4.3 1.6c0 .2-2.1 1.9-3 2.8-1.2-2.2-1.9-4.4-3-6.6-1-.1-2.1-.2-3-.3l-1.9-.3-1 1.1v.4l.4.1 1.2.2c1.1 2.4 2.1 4.8 3.2 7.2 2.1.6 6 1.9 6.2 1.9.7 0 3.4-2.7 4.2-3.4.5-.5 1.2-.9 1.8-1.5v-.4l-1.1-4.7h-2l-.2.2-1.2-.2-.9-1.8 3.5-3.8 1.2.5c0 1.4.2 2.7.2 2.9s-1.1 1-1.8 1.4v.3c.8.1 1.6.2 2.4.3 1.7.3 3.7.6 5.9.9-.3-1.1-2.1-2.2-2.1-2.7v-1.5l-.2-.1c0-.2 0-2.5 0-3.3l-8.8-2-5.6 6.1c.7 1.6 1.6 3.2 2.4 4.7l1.5-.1c1.1 0 1.3 0 1.4.1m14.9 8.1 4.7-.5.1-.3-.1-1.1-.2-.2c0-1 .1-2.4-.3-3.3-1.8.2-3.2.4-4.9.4l-.1.6.4 2.6v1.7zm14.4 13.5v.3l-.2.8c-2.9 2.8-5.6 4.4-8.9 7-1.1-.8-2.4-.8-2.4-2.1l-.3-1.8 9.8-7.7.3.2h.7c-.2-1.3.6-2.2.5-3.4l.1-.4v-1.1c-1.6-.2-3.1-.4-5-.7 0 .6-.2 1.3-.2 1.5l-.1 1c-3.1 2.6-6.4 5.2-9.5 7.3l-.9-.1h-2.8v.3l2.8 6.2.3.9.9.1.6.1c.7 0 1.7 0 2.2.5l.1.5.2.1c0 1.5.3 2.9.6 4.4h.4c1.5.3 2.9.5 4.6.8v-.5l-.3-.8-.3-1.1 6.7-5.5c1.1-.6 3.6-2.8 4-2.8l.5.2.3-.1c.2-1.6.5-3.1.7-4.8-1.5-.2-4.3-.7-4.6-.7l-.6.1zm9.6 12.4c0-.1.3-.1.2-.8.1-1 .4-3 .4-3.3v-1l-4.6-.3c.4 1 0 .9 0 1.3l-.2 1.3-1.3 1-9.3 5.2-1.2-.3h-1.1v.7c0 .2.3 2 .4 3l.2.1c0 .5-.2.7.1 1.6 1.5.3 4 .9 4.3.9h.4v-.2l.1-.9.2-1.6c2.3-1.3 4.5-2.7 6.6-3.9.7-.4 1.9-1.1 2.1-1.1s2.1.7 3.2 1l.2.3-.5 2.3-.4 1.3h-1.4c-.8.3-1.7 1-2.4 1.5-2.2 1.2-6.1 3.6-6.3 3.6l-1.4-.2-.6-.2-.3.1v1.1l.3 1.1c0 1.2-.2 2 .2 3.1 1.5.8 3 1.4 4.6 2.3h.5c-.1-1.9 0-2.2 0-3.8.8-.6 1.7-1.2 2.5-1.6 1.1-.5 2.1-1.2 3.2-1.7.7-.4 1.5-1 2.3-1 1.9.1 2.4 0 2.9-.1l.2-1.3c.7-2.3 1.3-4.8 1.8-7.1l-1.7-.6c-.8-.2-1.6-.4-2.2-.6-.6-.4-2-.3-2-1.2m10.7 27.7.7.9c0 .2-.4 1.7-.9 2.3l-1.5.8-7.8 2.8h-.8v-3.8c1-.5 2.1-.9 3-1.4l7-2.7 1.4.3.5-.3c.5-1.1.8-2.3 1.3-3.5v-.3l.3-.6v-.6c-1.7-.1-3.3-.3-4.9-.5-.3.7-.5 1.5-.6 2.2l-10.3 4.1-1.7-.5-.3.1v7.9c.9.5 2 1 2.9 1.4 1.3.6 3.8 1.9 4 1.9l1.1-.5 7.8-2.4 1.5.9.3-.1 2.5-7.6c-1.1-.2-2.3-.4-3.3-.6-.7-.1-1.5-.3-2.4-.5v.3zm12.5 31.7c-1-.5-2-1-2.8-1.4.7-1.3 1.6-2.7 2.3-4.1l-4.8-2.7h-.3c-.6 1-.5 1.5-1.2 2.4-3.4.6-6.8 1.3-10.1 2-.7-.6-1.9-1.5-2.2-1.5h-.4l-.8 7.5c0 .8 1.9 1.6 2.3 1.9l1.2.8.2-.1c.1-.7.1-1.4.2-1.9l.1-.5c0-.8.2-1.6.5-2.6 1.3-.1 2.7-.4 3.9-.6 1.1-.1 2.2-.6 4.2-.5.9 0 1.4.9 2.1 1.3-1.1.8-2.8 2.2-2.8 2.4s2.1 2.6 2.7 3.1l5.8-4v-1.5zm3 9.7c-.8-.6-1.8-1.2-2.6-1.8-1-.8-2.5-2.4-2.8-2.4-.2 0-2 1.5-3 1.9l-1 .2c-1.8.1-3.7.2-6.6.5-2.1.2-4.3.4-6.4.6l-.4.2-1.5-.9h-.3c.8 1.5 2.1 2.8 3.4 4.6l6.9-.4 1.7-.1 1.2-.1.2-.2.5.2 1.2-.3.2.2c.2 0 1.7-.1 2.9-.2 1.4-.2 4-.9 4.2-.9l1.4.8c-.7.7-1.7 1.7-1.7 1.9l.2.4c1.3.7 3.6 2.2 3.8 2.2l3.1-2.7v-.4zm-25.7 91.9c-1.9.5-3.6.9-5.4 1.4v.6l.4.8c0 1.2.7 3.1.9 4l.2.2c1.1-.3 2.2-.6 3-.8l1.4-.3.1-.1h.9v-.5l-.2-.2c-.2-1.7-.5-3.8-1.3-5.1m-10.2-13.1 6.8 3.9c1.6-.7 3-1.6 4.5-2.3v-.4l-1-2.8 1.6-1.4 4.7 2.1v1.3c-1 .3-2.8 1-3.1 1l-2.2-1.1 1.3 8c.8-.7 1.2-2.5 2.5-2.9.9-.3 1.9-.6 2.7-1l1.6-.8c0-.2 0-.4-.1-1.6l-.1-1.4-.1-.1c0-.2 0-1.6-.1-3.2-.1-.8-.2-1.5-.2-2.2-2.4-1-7.3-3.3-7.6-3.3l-3.9 3.6.9 2.5-1.6.9-3.5-2c1.2-1 5.6-4.4 5.6-4.8 0-.2-.7-3.3-1-4.8l-1.6-.4v1l.1.8c-2.1 1.6-4 3.2-6.2 4.9zm-15.2 22 16.8 11.2-.2.2c-1 .2-2.1.4-3.1.6l.2 3.3.4 1 5.3-1v-1.4l-.3-1.4v-.9l-.2-1.5c0-.2-.1-2-.2-3-3.3-2.2-6.6-4.3-10-6.6-2-1.4-3.8-2.6-5.6-3.8l-1-.9-.5-1.1-.3-.9.1-.2h-.4l-.9.8v5.6zm-8.4 29.5c-2.5-2.3-4.7-4.7-7.1-7l.4-1.1.6-1.1c.8-.4 2.3-.8 2.5-.8.4 0 4.3 4 5.1 4.8 1 1 2.9 2.9 2.9 3.1l-.2.4.1.4h5c.1-1.8.2-3.1.3-4.9l-.5.1c-.2-.1-.4.3-1.9-.1-1.1-.3-1.9-1.6-2.7-2.3-1.6-1.5-3.6-3.1-4.9-5-.5-.8-.3-1.9-.5-2.9-2.5 1.2-4.9 2.6-7.2 3.8-.1 1.1-.1 2.3-.4 3.3l-.5.6c-1.1.4-2.2.7-3.3 1.1-.2 1.7-.3 3.4-.4 5 1.1-.2 2.3-.5 2.5-.5h.3c2.5 2.4 5.1 4.8 7.4 7.2l.2 1.1c3 .1 4 .2 4.9.1.1-2 .3-4 .2-4.9h-1.9zm-7.2 18.1.4.4-.2.7v.8l.4-.1 1-1c.4-1 .5-3.1.5-3.4 0-.8-1.8-1-2.5-1.2-1.1-.3-2.3-.4-3.4-.8-1.3-.4-3.6-.5-4.7-1.6l-5.7-7.1 1.1-.6c.8-.3 1.6-.6 2.3-1l.4-.3.5-.1 6.6 7.9h1.7v2.6c.7-1.1 1.7-2.9 1.7-3.2l.8-1.8c0-.4-7.2-8.2-7.5-9.2-.4-1.7.1-2 .1-2.3l-.3-.1-8 2.8-.2-.1v2.3l-2.5 5.6c0 .2 4.6 5.9 6.9 8.8l1 1.1 1.2.1zm-24-6.1 6.2 9.4-.2 1.3 4.8 1 .8-4.6-2.3-.6-5.8-8.5-.1-3-4.3.6-1.8 4.8zm-9.4 5.4 5.4 9.9-.4 1.4 4.8 1.3 1.1-4.6-2.2-.7-4.9-8.9-.1-3-4.3.2-2 4.7zm-64.8 41.6c9.3 0 33.4-17.4 33.4-36.2v-5.2c60.9-15 106-69.9 106-135.4 0-51.8-28.2-96.9-70.1-121v23.3c1.3.8 1.7 1.9 1.7 3 0 1.5-1.4 3.6-3.5 3.6-1.7 0-3.4-1.5-3.4-3.5 0-1 .1-2.6 1.6-3.5v-29c-5.8-6-11.6-12-17.3-17.8l-.4-.1-18.1 19.6v19.1c.8-1.1 1.3-2.2 1.9-3.2.5-.7 3.1-3.9 3.1-4.3 0-.2-.2-1.5-.4-2.3-.4 1.1-1.1 2.1-2 2.1-.8 0-.8-1-.8-1.4 0-1 .5-3 1.3-3.9-1.5-1.1-2.2-1.8-2.2-3 0-1 .4-2.2 1.9-2.2.9 0 1.8.6 1.8 1.8l-.1.8 1.9-1.3c.7 0 1.6.6 1.6 1.8s-.5 2.1-2.1 3.2v1.2c0 .2.2 1.5.4 2.2 1.8-2.5 5-4.3 5-6.7l-.2-1.5-1.5.9c-1.4 0-1.8-1-1.8-2.1 0-.9.2-2 1.4-2.4-1.1-1-1.5-1.5-1.5-2.6 0-.8.3-2.7 1.8-2.7.8 0 1.5.1 1.6 1.5.1 1.3-.1 1.7-.1 2.1.5-.8 1.1-.7 1.4-.7.9 0 1.8.6 1.8 1.9 0 1-.3 1.7-1.8 2.7v.5c0 .9.3 2 .6 2.9 1.1-.7 2.6-1.7 3.6-1.9.3-.9.4-2.3.4-2.5v-2.4l-.2-.2-.9.2c-1.5 0-1.7-1.2-1.7-2.3s.3-2.7 2.3-2.7c-.4-1.8-.9-2.1-.9-3.5s.2-2.9 2.4-2.9c2.1 0 2.4 1.5 2.4 3s-.5 1.4-.9 3.4c1.9.1 2.3 1.6 2.3 2.7 0 .9-.2 2.3-1.8 2.3h-1v2.8l.4 1.9c.8.8 2.1 1.3 3.1 2 .6-1.1.8-2.2 1.1-3.3-1.3-.5-1.4-1.7-1.4-2.3l.2-1.1.7-.8.8-.1h.5l.9.5c-.1-.3-.3-.4-.1-2.1.2-1.2.7-1.4 1.5-1.4 1.4 0 1.9 1.6 1.9 2.8 0 .8-.5 1.8-1.5 2.5 1.2.6 1.4 1.6 1.4 2.5 0 1-.4 2-1.8 2l-1.9-1.3c-.3 1-.7 2.8-.7 3l.3.9c1.7 1.3 2.5 2.9 3.8 4.3l.4-.5v-1.4c-.9-.8-1.4-1.9-1.4-2.8 0-.6.2-1.9 1.7-1.9.6 0 1.4.3 1.9 1.3-.2-1.8.6-2.5 1.8-2.5 1 0 2.3.8 2.3 2.2 0 1.1-1.8 2.4-2.4 2.9 1.3.7 1.4 1.7 1.4 2.5 0 1-.2 2.1-1.7 2.1-1 0-1.4-1-2.2-1.7-.1.7-.4 1.7-.4 2l.2.7c1.7 2.1 2.6 4.3 3.6 6.3.4.8.6 1.7.8 2.5l.3.9-.3.4c-2.8-5.6-6.8-12.3-13.2-16.8-.9-.6-2.4-1.6-3.3-1.6-2.4 0-7.4 5.6-8.6 7.3l-.8 1.4c-1.9 2.7-4.5 6.9-6.1 10.9-.4 1-.9 3.1-.9 3.3v.3l-.3.4c.5.6.8 1.5.8 2.2 0 1.4-1.1 3.6-3.5 3.6-1.9 0-3.3-1.6-3.3-3.6v-.7l.5-1.1c0-.2-1.7-4-2.7-5.9-1.6-3.1-3.4-6.3-5.4-9.5-1.6-2.7-3.7-5.9-6-8.5-1.7-1.9-3.6-4.1-5.5-5.6-1.7-1.4-5.1-3.9-7.4-3.9-.9 0-2.7.9-3.3 1.2-3.4 1.7-7.4 5.9-9.8 8.9-1.4 1.8-2.6 3.4-3.7 4.9-.7 1-1.4 2.1-1.9 3-.5.8-1 1.7-1.6 2.6-1.1 2-2.3 4.2-3.4 6.4-1 2.1-2.9 6.2-2.9 6.5l.5 1.9c0 1.4-1.3 3.5-3.5 3.5-1.7 0-3.4-1.6-3.4-3.5 0-1.1.4-2.5 1.6-3.2v-28.3l-18.6-19.1c-1.4.5-2.9 2.7-3.9 3.8-4.5 4.7-13.3 14.3-13.3 14.5v21.7c.7-1.8 2.1-3.8 3.2-5.5l.7-.8c.4-.8.7-.8.7-1.5 0-.2-.3-1.8-.5-2.7-.4 1.1-1.1 2.1-2 2.1-.8 0-.8-1-.8-1.4 0-1 .5-3 1.3-3.9-1.5-1.3-2.2-1.7-2.2-3.1 0-1 .4-2.2 1.9-2.2 1.2 0 1.8.9 1.8 1.9l-.1.7c.8-.9 1.2-1.2 1.9-1.2 1 0 1.7.6 1.7 1.8s-.6 2.2-2.1 3.2v1.2c0 .2.3 1.6.5 2.4 1.5-1.5 3.7-3.8 4.7-5.3l.2-1.3c0-.2-.1-1.2-.2-1.8l-1.5.9c-1.4 0-1.8-1-1.8-2.1 0-.8 0-1.9 1.4-2.4-1.2-1-1.5-1.5-1.5-2.6 0-.8.3-2.7 1.8-2.7.8 0 1.5.1 1.7 1.5.1 1.4-.1 1.7-.1 2.1l.8-.7c1.4 0 2.4.3 2.4 2 0 1.1-.4 1.8-1.8 2.7v.6c0 .8.3 2 .6 2.8 1.1-.7 2.6-1.7 3.6-1.9.2-.9.4-2.3.4-2.5v-2.4l-.2-.2-.9.2c-1.5 0-1.7-1.2-1.7-2.3s.3-2.7 2.3-2.7c-.6-1.7-.9-1.7-.9-3.4 0-1.4.2-3 2.4-3 2.1 0 2.4 1.5 2.4 3l-.2 1.6c-.2.5-.4 1-.6 1.8 1.9.1 2.3 1.6 2.3 2.7 0 .8-.2 2.3-1.8 2.3h-1v2.7c.1.7.2 1.4.4 1.9 1.1.5 2.1 1.2 3.1 1.9.6-1.1.8-2.2 1.1-3.3-1.3-.8-1.4-1.5-1.4-2.3 0-1 .4-1.9 1.7-1.9h.5l.9.5c-.1-.3-.1-.4-.1-2.1 0-.7.9-1.4 1.6-1.4 1.6 0 1.9 1.8 1.9 2.8l-.5 1.5-.9 1.1c1.2.4 1.4 1.5 1.4 2.4 0 1-.4 2-1.8 2l-1.9-1.3c-.3 1-.7 2.9-.7 3.1l.3.8c1.7 1.3 2.5 2.9 3.8 4.3l.4-.4v-1.5c-.9-.8-1.4-1.9-1.4-2.7 0-.6.2-1.9 1.7-1.9.6 0 1.4.3 1.9 1.3v-1.3c0-.9 1.2-1.2 1.8-1.2 1 0 2.3.8 2.3 2.2 0 1-1.5 2.3-2.4 2.9 1.3.7 1.4 1.7 1.4 2.5 0 1-.2 2.1-1.7 2.1-1 0-1.5-1-2.3-1.7-.1.7-.4 1.7-.4 2l.2.7c1.6 2.1 2.6 4.3 3.6 6.3.4.8.6 1.7.8 2.5l.3.9-.3.4c-.7-1.2-1.2-2.5-1.8-3.7-1-1.6-2.2-3.1-3.1-4.7s-8.7-10-11.6-10c-3.4 0-10.5 10.1-10.7 10.5-1.9 3.4-4.4 7.4-5.2 10.9l-.4 1.5c0 .6.9 1.1.9 2.6 0 1.7-1.2 3.6-3.4 3.6-1.8 0-3.4-1.6-3.4-3.5 0-.8.9-2.3.9-2.3v-22c-40 24.5-66.8 68.6-66.8 119 0 65.5 45.1 120.4 106 135.4v5.2c-.1 18.2 24 35.6 33.3 35.6m-97.5-89.7h56.8v37.2c-22.2-7.3-41.7-20.2-56.8-37.2m5.6-26.1c0 .9.3.4 0 3.1l-8.4-1.1c-.1-.4 0-.6 0-1.6 0-.4-.2-1 .5-1l1.4.3h1.8l1.5.4 1.6.1zm-1.4-1.4c-.8 0-1.6-.7-1.6-1.4 0-.2.7-1.7 1-2.5.4 1.1 1.4 3.2 1.4 3.4zm-15.7 14.3c0-1 .4-.9.8-2.3.9-2.8 1.5-5.9 1.9-8.9.2-1.7.3-3.2.3-3.4l-.2-.4v-2.6l-.3-.8c0-1.7-.6-3.6-.8-5.4-.1-1.1-.1-1.4-.1-1.7 0-1.8 1.4-5.2 2.4-6.8s1.8-3.2 2.6-4.9c.3-.7.3-1.5.5-2.3-.1-.8-.1-.9 0-1-.3-1.2-.7-2.5-.9-3.8-.8-4.7-1.8-14.1-1.8-14.3v-1.6c0-.2-.5-2.3-.7-3.5-.1-.9 0-1.1-.1-1.5.7-.4 1.7-.1 2.6-.3l.6-.3c.2 0 3.6 2.8 5.5 3.9l1.9.4c2.7 0 5.3-1.7 7.9-2.6l.6.9c1.3 3.5 2.5 6.9 3.8 10.5.3 1 .3 2.2.5 3.2.6 2.1 1.4 4.3 2.1 6.6l.2 1.8c0 1.5-1.2 3.3-1.8 4.9-.7 1.7-.7 3.9-.8 5.6l-2.6 14.6c0 1.6-.3 5.5 0 8.1l.5 1.8v1.5c0 2.6 5.2 5.9 6.5 7l.5.2c1.5.9 2.7 1.4 4.2 2 .8.3 1.8.5 2.8 1-.7.7-1.8.4-2.5.6l-9.9-1.3c-1.1.2-2.2.5-3.4.8l-3.1 1-.9-.4c-1.2-.4-1.5-2.1-1.5-3 0-.2.4-1.6.5-2.4.4-1.7.7-5.2.7-5.4v-4.2c0-.2-.3-3.9-.7-5.8-.2-1.1-.8-2.1-1.1-3.2-.2-.8-.2-1.7-.4-2.4-.3-.8-.4-1.9-.4-2.8 0-4.6 1-8.1 2.8-12 .3-.7.4-1.7.6-2.4l.3-1.7c0-.2.1-.3-.1-1.4-.3-1.5-.7-3-1.7-4.3-1.6-2.4-4.1-4.2-5.9-6.3s-3.6-4.4-4.3-6.6c-.2-.6 0-1.5-.1-2.2l-1.1-1.1-.4.4.4.7c.2 1.1.1 2.5.4 3.6 1.2 3.5 5 7.2 8 10.7.6.7 1.3 2.9 1.3 4 0 .2 0 1.8-.3 2.6-.9 2.4-2.1 4.7-3 7.1-.8 2-1.6 4-2.3 6.1-.9 3-1.9 6.1-2.5 9.1-.3 1.3-.3 2.8-.4 4.3-.3 2.2-.9 6.5-.9 6.7l.3 1.3c.5.7 1.4 1.4 2.1 2.2 1 1.1 2.1 2.9 3.5 3.4 1 .4 2.2.5 3.4.9-.1.6-.1 1.1-.1 1.6l-1.7.4c-1.3 0-3.4-.7-4.6-1s-2.6-.8-3.9-1.1l-1 .1h-2.2l-2.6-.8zm29.7-25.9c.5 1.2 2 3.1 2 4.1l-.2 1-1.5.9-1.3-1v-1.6c0-.2.5-2.2 1-3.4m-9.9-101.3v-4.7c.3-.9 1-2.3 1.9-3.3 2.3-2.2 3.2-2.1 5.1-2.1.9 0 1.6 0 2.4.4.7.3 1.7.4 2.3 1.2l.3.9c0 .2-.8 1.9-1 2.7l-.2.4h-.6l-1.3-.5c-.4 0-1.2 0-1.2.7l.7.7c-.1.8.6 1 1.3.8v2.7l-.3 1c-.4.6-1.1 1.2-1.6 1.9l-1.1 1.8-1.5.7-.6-.2c-1.7.1-3.5-2.5-3.8-3.9l-.2-.3-.3.3.3.8.7 1.7 2.4 2.1h1.8v.3l-.2 1.4-2.5.4c-2.1 0-3-.8-5.3-2-.8-.4-.8-.9-.8-1.2 0-.8.6-.5 1.3-1 1.4-.7 1.6-2.5 2-3.7m-3.2 7.3c.5.2 3.7 2.3 4.6 2.3h1.9c1.1 0 2.9-1.2 3.3-1.2.8 0 .8 1.7.8 1.9l-1.2.8-1.5.2c-.2 0-1.6 0-2.3-.2-1.9-.5-3.6-1.2-5.5-2.1-1.2-.6-2.9-1.5-3.7-3l-.7-.6 1.5-.1.8.9c.6.4 1.4.7 2 1.1m15.3 7.6.4.9v6l.4 2.6v1.1l.7 4.1v1.2l.7 2.3c-.8-.6-4.1-3.2-4.1-4.6 0-2.5 1-1.6 1-5.3 0-1.7-1-6.5-1.6-7l-.1.2.2.8c.3 3.2.4 1.7.4 3.9 0 2.4-.2 3.5-1.3 6.2l-1.2-1.1c-1.7-2.2-3.4-4.5-5.1-6.7-.5-.6-1.2-1.2-1.7-1.9-2-2.8-3.6-5.6-5-8.5 2.3 1.6 6.3 3.2 9 3.2.9 0 2.4-.2 3.1-1.6 1.4 1 3.8 2.3 4.2 4.2m3.2 20.9-1.2.4-1.7-1.2c-4.4-3.9-7.9-8.9-10.4-13-1.1-1.8-2.2-3.7-3.1-5.7.9 1.2 1.9 2.5 3.1 3.9 1.9 2.1 3.5 4.8 5.3 7.1 1.6 2.1 3.7 4.2 5.5 6.2.6.7 1.6 1.4 2.5 2.3m-3.5.5c-.2.4-1.4 1-1.9 1.7-.6.6-1.2 1.7-1.2 2.4-1.4.1-1.2-2-1.2-2.7 0-1.8.3-3.5 1.2-4.9 1.1 1.1 2.3 2.3 3.1 3.5m-17.9 5c0 .9 1.4.8 1.8.9l6.1.1c.8.1 2 .4 2.7.9.8.6 1.4 1.8 1.6 2.4.2.7 2.4 7.7 2.4 9v.6h-1.2l-4.5.5c-3.1 0-4.7-2.3-7.6-2.3-2.6 0-5.1 2-6.9 2l-1-.1c-.3-3-3.8-3.1-5.3-4 .4-2.3 1.8-5.1 3.6-7.3l1-1.5c.6-.8 1.5-1.5 1.5-2.3 0-1.3-1.9-1.3-1.9-3 0-.5.8-1.5 1.5-1.8-.8 2.8 7 3.4 8.9 3.4 2.5 0 6.5-.7 8.5-1.2l.3.2v1.5c-.6.9-1.9 1-2.8 1.2l-8 .2zm-10.6-1.3c.2 1.1.7 3.2.7 3.4 0 1-.8 2.1-1.6 2.1s-1-1.6-1-1.7c0-1.3 1.4-2.2 1.9-3.8m-2.5-5.6c-.7 0-1-1.1-1-1.5 0-.8.9-2.2 1.3-3 .4.7 1 1.7 1 2.6 0 .7-.4 1.9-1.3 1.9m11 21.2c2.4-.9 1.3-.9 2.9-.9 1.1 0 2.2.3 3.4 1.1.6.4 1.5.3 2.2.5l1.5.5 1.9.1 3.3-.5c.5 0 1.6 0 1.6.8l-1.4 1.6c-2.1 1.3-4.4 2.5-6.7 3.6-.8.4-1.8.7-2.8 1.2l-1.9.5c-.2 0-.3-.1-1.3-.1-4.1-1.3-8.4-5.2-10.3-7.8l-.4-.2v-.3h1l2.5 1c1.2 0 3.3-.6 4.5-1.1m-11.1 26.5c0-.2 1-2 1.5-3l.6-1.5.7 1.9c.2.8.4 2.3.4 2.6 0 1.1-.2 2-1.5 2h-.5l-.9-.8zm.8 25.7c0 1.8 0 2 .1 2.1-.1.1-.3.1-1.5.1-1-.6-1.1-.7-1.1-1.5 0-1.5 1.2-4.8 1.5-5.9.3 1.8.6 3.5 1 5.2m39.5-124.2-1.1 1.1c-1.7.6-4 2.4-5.1 4.3-.3.4-.7 2-1.5 1.7l-.7-.8c-2.7-1.7-4.7-3.4-8.8-2.8-2 .3-4.2.8-6.3 2.6-1.5 1.3-1.8 2.7-2.3 4-.2.6-.2 1.3-.3 2l-.2.3v1.2c0 2-7.9 3.4-7.9 5.9 0 .7 3.4 1.5 4.1 1.8l.2.5c1.6 1.6 3.5 3.9 4 5.8l.2.3c1.5 4 4 8 6.4 11.9.4.7 1 1.6 1.6 2.5 1.3 1.8 3.9 5 3.9 5.3l-.7 1.9c-.2 1-.5 2.3-1.7 3.2l-1.9.5c-1.3.3-2.8.5-4.3.8l-4.6.1c-2.1-.3-4.4 0-6-2l-.2-1.6c-.3-1.1-.5-2.3-1-3.4-.4-1.1-.9-2.3-1.5-3.3l-.8-1.6.8-1.3c.8-1.1 1.6-2.4 2.4-3.5l.9-.5.4.4.4.1.5-.7-.8-.7c-1.7 0-4.6 3.8-5.1 4.4-2.5 2.6-5.8 5.8-8.5 8.4l-.6 1v.7c0 1.8 2 7.3 2 7.7 0 .8.4 1.5.5 2.3.2 1.3.2 2.7.4 4.1.2.9.8 2.4.8 2.6l-1.1.9-1.1 1.1.2.2 1.8-.4c.2 0 2.2.1 3.3.3l1.4.6c.8.3 1.6.2 2.3 1v.4h-1.3l-2-.5-.9.8c0 .8 4.1 4.9 4.5 5.4l-.7.3c-.2 0-1.8 0-2.5-.4-1.3-.8-2.3-2.3-3.1-3.2-.8-.8-1.8-1.3-2.6-2-.7-.6-1.3-1.2-1.8-2-2-2.9-3-7.5-3.7-10.4l-.3-.8-.2-1.2c-.5-2-1.5-5.8-1.5-6v-2.6h-.2v-2.6l.2-.1c-.1-1.2 1.9-2.6 3-3.7 2.2-2.5 4.6-5.2 7.2-7.4 2-1.7 4.7-3.5 6.9-4.8 1.2-.7 2.6-1.3 4-1.8l1.5-.1c.2 0 .9.1 1.7.1-.6-.9-1.5-1.1-2.1-1.1l-1.6-.2c-1.2 0-3.4 1.1-4.4 1.9l-1.4 1c-5.2 2.9-9.8 9.1-14.8 13.8l-.7.9-.7 3.5v1.7c0 1.5 1.2 4.4 1.4 5.7.4 2.5.5 5.2 1 7.6.3 1.4.9 2.7 1.4 4.1.4 1 .6 2.3.8 3.3.5 2.1 1.7 4 2.6 6.1l.1 1.2c0 2.1-1 2.6-3.2 4.2l-1.5.5c-.9.5-1.8 1-2.6 1.7-1.3 1.2-1.8 3.4-1.8 4.8 0 .2.4 2 .5 3 .2 1.2 1.1 3 2.3 4.1l.9.4c.6.3 1.2.8 1.9.9 1.6.3 3.6.4 5.4.9 1.1.3 1.3 1.5 1.3 2.2 0 2.1-4.1 7.3-4.9 8.3-1.1 1.5-3.6 3.3-4.4 4.7-.9 1.6-1.2 3.7-1.2 5.3 0 1.4.4 3 1.3 4.5l.8 1.7c1.2 1.6 3 3 4.4 3.5.8.3 4.5.9 4.8.9h1.9l.5.2c-.2.6-.3 1.3-.3 1.9l-.9.2c-2.5 0-10.6-2.2-11.3-5.4-.1-.6-.8-1-1.1-1.6-.7-1.5-1.3-3.9-1.3-5.5 0-.2-.1-.8.1-3 .2-1.7.5-3.5.8-5.2l.4-1.2c0-.1.9-4.9.9-5.8 0-.2-.3-3.1-.4-3.9l1-.3c2.2 0 3.3.7 3.3 2.9 0 2.3-1.3 4.8-2.4 7.2 2-1.4 3.9-5.2 3.9-7 0-.2 0-.3-.1-1.4-.2-2-2.7-2.8-4.2-2.8-1.6 0-2.3.4-4.3 1h-.8l-1 .2-1.1-.1-1.3-2.6c0-2.8 1.2-5.6 1.8-8.4.4-2 .8-4.1 1-6.1.2-1.9.1-3.9.2-4.7.2-4 .3-.2-.2-8.1l-.7-21.2c0-.2.4-2.5.8-3.6s1.5-2.7 2.8-3.3c.9-.4 2.3-1.1 3.4-1.9 1-.7 1.7-2.4 2.1-3.5.7-1.8 1.2-3.7 2.3-5.3.8-1.1 2.8-2.5 3.9-3.1 1.7-1.1 3.5-2.2 5.2-3.2l-.7-1-.1-1c0-.8.2-1.7 1.6-2.3l-.3-1c0-1.6 2-3.1 3.9-4.1.6-.3 4.2-1.3 4.2-2.7v-1.9l.2-.4c.3-2.2 3.1-6.6 5.7-7.2l.4-.2v-1.9c0-.2-.5-2.8-.9-4.1-.4-1.2-1.1-2.4-1.7-3.9h1.4c1.2 0 2.7 2.6 3.2 3.4.4.7 1.4.9 1.4 1.6 0 .4-1.1 1.4-1.1 2.2 0 .5.1 1.5.7 1.7l1.7.5c1.1 0 2.1-1.3 2.1-2.2l-1.3-2.9c0-.2 2.2-3.1 3.3-4.5l.6-.3.3.1c.2.7.5 1.5.7 2.1.4 1.1 1.5 3.1 1.5 3.3 0 .7-2.9 1.6-2.9 3.4 0 1.2.6 2.4 1.9 2.4.8 0 1.6-.2 2.2-1.1.5-.8.2-1.6.8-2.3.8.1 2.2.3 2.4.3 1 0 4.2-.9 4.4-1zm-43.7 113.8-1.3-1.3c0-.2 0-.4.1-1.4s.5-2.1.9-3.1l.8-1.4c.7 1.4.8 2.7.9 4.1.1 1.2.1 1.3.1 1.5.1 1-1 1.6-1.5 1.6m-4.5 8.6c-1 0-1.2-.8-1.2-1.5 0-1.2 1-3 1.5-4.2.7.1 1.3 2.8 1.3 3.7 0 1-.3 2-1.6 2m3.8-30.8c-1.3 0-1.5-1.2-1.5-1.8l.6-1.4c.2-.7.4-1.3.6-2 .1-.7.2-1.4.4-2.1.5 1.7 1.1 3.6 1.1 5.4.1 1 0 1.9-1.2 1.9m51.1-37.3c0 2.5-5.6 3.5-6.3 3.3l-7.1-.1.9 6.8v1.5l.4 2.4v1.3l1.7 17.7.5 9.8.3.7v13.1l.2.3v9.6c0 1-.8 3.6-.9 4l-.7 1.3c-.8 2.6-4.5 4.9-6.6 6.3l-.9.5c-1 .2-2.8.6-3 .6h-.5c-.1-.7 0-1.5 0-2.3.5-.1 1.1-.4 1.7-.4 3.2-.1 9.7-6.8 9.7-10.5 0-2-.7-3.9-2.3-5.9-2.2-2.7-3.7-4.7-3.7-6.9 0-1.8.7-2.1 2.8-3.4 2-1.3 2.5-3.4 2.5-5l-.3-.9c-.5-2.7-4-3.8-5.9-4.5l-.8-1.9c0-.2.8-1.7.9-2.5.7-3.1.9-2.4.9-4.7l.3-2.9v-7.9l-.5-8-1.2-8.7c-.2-1 .4-2 1.4-2.7.8-.5 2.2-.4 3-.7 1.5-.4 4.5-2.3 4.9-4.2v-6.4c-.2-.8-.8-1.6-1.2-2.4l.2-.3-.2-.4.2-.3-.2-.2.2-.1-.2-.1v-7.8l-.3-.2h-.3l-.2.2v7.4l-1.2 2-.8.4h-.5v-12.5c0-.4.3-3.2 1.5-3.2l.8.4 1.2.2c1.1.1 1.4.1 1.6.1s3-.3 3-1.1l-.7-.5-2 .4c-.4 0-2.9-.3-2.9-1.2 0-.4 1.5-1.8 1.5-4l-.2-1v.2c0 .2-.4 1.5-.7 2.2-.3.6-.9 1.4-1.5 2l-.6.3v-.3c1.1-.7 1.7-2.5 2.1-3v-2.2l-.4-.2c-.9 0-1.6-1.9-1.6-2.5 0-1.9 1.1-3.4 3.2-3.4.2 0 1.2.3 1.8.5-.1 0-.3 0-1.4-.1-1 0-2.7 1.4-2.7 2.5 0 1.5 1.5 1.9 2.3 1.9.4 0 1.2-.2 1.2-.9 0-.5-1-.6-1-1.5s1.2-1.1 1.4-1.1c1.2 0 1.7 1 1.7 1.9 0 1.8-1.5 1.2-1.5 2.4l.2 1-.2 1.3c0 1.5 1 2.7 2.1 4.1l1.5 1.3.9 1.8v13.7l-.3.1c-.8 0-1.6-.9-2-1.7-.2-5.7-.1-5.8-.1-5.9l-.2-.7c0-.2 0-.5.1-2.1l.4-1c0-.6-.4-.8-.8-.8l-.8.8.4 1.2v9.9c-.1.7-1.2 1.8-1.2 2.1v6.3c0 .8.3 1.5.7 2.1l-.8-1.2.6.9c.4 1.3 1.4 3.4 2.9 3.7l-.3.4.8.7c.2 0 1.7-.2 1.7-1l-.8-1-.7-.5-.3-.1c-1-.4-1.8-1-2.3-1.7.7.9 1.7 1.4 2.6 1.7l.7.2c.4.1 2.2.3 2.2 1.2m18.4-24.7c1.8-1.1 3.7-1.1 5.5-1.6.7-.2 2-.7 2.2-.7l1.2.8c1.3.6 2 .8 3.2.8 2.9 0 6.3-2.2 8.4-2.2l.6.1v.7l-.7 1c-1.5 2-3.4 2.9-5.2 2.9l-2.5-.7-1-.7-1.3 1.1c0 .9 1.7 1.1 1.8 1.1l1.1.4c.7.2 1.8.2 2.1.2 2.5 0 8.1-2.7 8.1-6.1 0-1-.7-1.8-1.7-1.8-1.7 0-7.4 2.6-8.5 2.6-.2 0-.5 0-2-.1-.8-.1-3.4-1.6-3.4-2.1l.9-1.3c.2 0 2.2 1 3.3 1.4.9.4 1.9.6 2.9.6.2 0 1.7-.4 2.6-.5l.8-.4c1.1-.8 2.2-1.3 3.2-1.3l1 .1c.3 0 1.2 1.9 2.6 2.8.5.4 1.5.2 2.2.2s1.7 0 2.4-.2c.6-.2 1.6-.8 1.8-.8l.7 1-.2.7c.2 1.1-1.7 2.5-2.3 3.6l.3.3 2.3-1.9c.4-.8.9-2.1.9-2.3l-.8-2.2.3-.9c.2-1.1 1.1-2.3 2.3-3.5 1.1-1 1.9-1.9 3.2-2.6l1.2-.2c-.3 1.1-1 4.7-1 4.9s.2 2 .4 4l-.2 11.6c-.2 2.1-.4 4.4-.8 6.5-.2 1.1-.7 2.2-1 3.3l-.5 1.2c-1.4 2.1-3.8 4.3-5.9 4.9 2.6-2.8 3.5-5.5 3.9-8.2h.3l.1-.3-.4-.4c-1.1 0-1.9 3.8-2 4.1-.4 1-2 3.1-3.3 3.4l-.7.5h-.4c-.5-1-.7-2.4-.7-3.3-.1-4.2.2-5.1.2-5.3l-.2-.2c-.6 0-1 2.1-1 2.8-.2 2-.2 2.4 0 4.2.4 3.8 2.3 7.5 3.8 11.3.3.7 2.2 7 2.2 9.3l.4 1.4c.2.7.2 1.5.3 2.1l.2 1.4 1.5 18.9 1.2 10.4v7.3c0 .2.2 1.4.4 3.5 0 .1-.1.2 0 3.8l-.5 6.2c-1.5 0-2.2 0-2.4 0l-1.5.2-1 1.6c0 .2.4 1 .5 1.7-.7-.2-1.7-.6-2.5-.6-1.8 0-2.7 1.7-3.2 3.6-.2.8-2 2.9-2.3 2.9-.6 0-1.4-1.7-2.7-1.7s-2.7 2-3.3 2l-.6-.5 1.6-8.7c.2-2.1.5-5.4.5-5.6v-9.8c0-1.1-.6-4.6-.4-5.5 0-.1 0-.3-.1-1.4-.5-4.8-1.1-9.7-2.3-14.5l-.2-.4-.4.6c0 2.5 1.1 6.3 1.1 8v1.7l.6 4.9v13.7l-.5 8.3c-.1.7-.1 1.5-.3 2.2-.5 1.7-.9 3.4-1.4 5.1l-1.3.8-2.9 1.8-1.9-.7-.3-.6.6-.7c.5-1.5.5-3.1.7-4.7l.9-10.3v-15.8l-2.6-24.4c-.1-1.4 0-2.1 0-2.4l-.2-1.5-.4-.4h-.3c-.4 5.2-.3 5.6-.3 5.9.9 7.5.5 4.7 1.3 15.5l.4 2.8.3 6.8v9.2l-.6 9.2-.2.7v2.7c-.2 1.6-.5 4.7-.5 4.9l-.7.8-1.9-.7-1.8-.3c-.7 1.8-1.3 1.9-1.3 3.3l.7 3.7c0 .6-.1 2-1.1 2h-1.5l-1.7.3-1.8.3c-.6.3-1.2.5-1.7.9-1.3 1.1-3.6 3.8-3.8 3.8h-5.8c-.2 0-1.3-.3-1.9-.5l.7-1c2.6-1.3 5.4-1.1 7.9-4.6 1.4-2 3.4-3.9 5.3-5.9v-.4l-.1-2.4-.8-.6-1.2.2c-.6 0-1.5-.3-1.5-1.1 0-.2.7-3.8 1-5.7l.2-1.5.1-1 .1-1.1.1-1.2c0-.9.1-1.8.2-2.8l-.5-18.8v-5.1l.2-1.8c.4-1.1 1.1-2.2 1.5-3.4.3-.9.6-2.1.9-3.1.4-1.1 1.9-5.2 1.9-5.7 0-.2.7-2.3 1-3.4.6-2.2 1.3-4.6 1.9-6.8l1.5-.5 1.1-1.7c0-.9-1.2-1.3-1.2-1.9l.5-1.3c.3-1.3.4-2.8.5-4.2.1-.8.3-1.5.3-2.3v-3.1l.2-.5-.2-.3v-2.1c0-1.4-.3-3-.7-4.2.6-.4 1.3-.6 2-.9l.3-.6c0-.7-1.5-.7-2.4-4.2 0-1.7-.1-1.7-.1-2l.2-1.4c1.7-.7 2.2-1.6 2.2-2.8 0-1.9-1.7-3.1-3.1-3.1-1.1 0-3.1.6-3.1 2.3 0 1.2.8 2.4.8 2.7l-.4 1.2c-1.6 4.7-4.9 4.9-4.9 5.9 0 .3 1.8 1.9 2 2.6l.1 1.6c0 .2-.2 2.4-.4 3.6-1.3-.4-3.7.8-3.7 2.6 0 .9.2 1.7.8 2.7l.8.8c0 .2-.3 1.9-.5 2.7-.2.6-1 1.3-1.6 1.9-.3.3-1.4.8-1.4 1.4l.9 1.1c.6.5 2.2.8 3 .8.2 0 1.3-.1 3.1-.2l-1.1.9-.2.2 1.6.2 2-.4h1.8l.2.2-.2.3c-1.2.4-2.7.8-3.9 1.4l-2.2 1.5-1.1-.4c-.9-.1-1.7-.1-2.6-.1l-.8-.3c-.5-.5-.6-1.3-.9-1.9-.3-.8-.8-2-1.1-2.7-.4-1-1.4-.7-2.1-.9.9-1.3 1.2-3.2 1.2-4.8l-.6-6.2c0-1.4 0-1.9 1-3.5l.1-.6c.5-1.5 1.1-3 1.7-4.5 1.2-2.7 2.6-5.3 3.9-8.1l.2-.7c.3-.6.8-1.2 1.2-1.9.7-1.4 1.4-3 2.7-4.3zm4 7.2v.2l-.8.8c.7-.3.7-.7.8-1v-.4l-.2-.2-.7.4-1.1-1 .8-.9-.4-.6h.8l1.2.9.1 1zm-.3 9.5c-.8.7-2 1.2-2.7 2.4l-1 1.6c-.3.8-.8 2.2-.8 2.4v1.5c1.3.3 2 .8 2 1.9v.5l-1 1.4-.6.2-1.5.5-.3.9c-.2 1.7-.2 2.9-.2 3.1 0 .9-.1 1.6 1 2.7-1.3.2-3.6.6-3.9.6-.6 0-2.2-.3-2.4-.9.8-.6 1.8-1.2 2.5-2l.6-1.4c.3-1.1.6-3 .6-3.2l-1.2-1-.5-1.5.4-1.5 2-.7 1 .3c.3-1.6.8-3.5.8-5.1l-.3-1.5-.1.2c-.1-.6-.5-1.6-1.2-2.2l1.8-1.4c.6-.5 1-1.1 1.4-1.7.6-.9 1.2-2.3 1.4-3.3h.6c.1.2-.1.5 0 3.3 0 1.1.6 2.6 1.6 3.9m-.7 11.8c0 1.2-.5 2.4-.8 3.6-.3 1.3-.5 3.2-1.8 4.4l.1-.3c0-.6-1.6-1.4-1.6-3.1 0-.2.2-2 .4-3l1.1-.7c1.3-.7 2.1-2 2.1-3s-.5-2.6-2-2.6v-.8l.2-.3c.1-1 .8-2.6 2-3.5 0 1.1.6 1.7.3 9.3m51.1-55.2-.7-3.1.7-1.8.7 1.7c.1.6.3 1.3.5 1.9.1.4 1.4 2.6 1.4 3.3l-.2 1.4c-.3 1 0 2.5-.5 3.3-1.2 1.9-3.1 3.2-4.7 4.9-.8-.8-1.1-2.3-1.1-3.3l.8-3.6c0-1.1-.5-2-1.8-3.3l.4-.2c2 0 1.5.8 3 2l.1-.2-.3-1.9.3-.9h1.4zm-.1 13.7-.2.3-1.3 1.6c-2.6.9-6.8 3.9-7.7 7-.3 1-2.2 2-3 3.4-.6 1.2-.4 2.7-.6 4.1l.3 9.3c0 2-.3 4.1-.8 6.1-1.2 4.6-5.6 9-9.2 9-.8 0-2.4-.6-2.9-1.6 1-.2 2-.3 2.9-.7.7-.3 1.4-.6 2-1.1 1.4-1.1 2.6-2.4 3.3-3.3l.4-1.1c1.1-1.6 1.6-3.4 2-5 .4-1.7.5-5 .5-5.2v-16.2c0-1.6 1-6.2 1.8-7l1.4-1.3c2-1.2 4.1-2.3 6.2-3.3.4 1.5.5 5.3 2.7 5.3 1.3 0 1.4-.2 1.4-1.5l-.2-1.5.5-.7.3 1.6v1.8zm-5.1 111.2c.7.2 2.1 1.9 2.5 2.5.5.8 1.4 1.6 1.7 2.4.7 1.7 1.1 3.6 2 5.3.6 1.1 1.9 2.3 2.6 3.6-1.7-.3-3.2-.7-4.8-.8-1.5-.1-2.2-.1-2.4-.1-2.6 0-5.7.6-8.2 1.1-2 .4-4.5 1.9-6.5 1.9-1.8 0-2.8-.8-2.8-2.3l.4-1.4c1.2 1.7 1.5 2.8 3.1 2.8 1.7 0 2-1.9 2-2.7 0-.2-.1-.6-.1-1.7 0-.8-.3-1.7-.6-2.5l-.9-1.7-.8-1.1c-.8-1.5-1.6-3.4-2.8-5.2l6.8-.1c.8 0 5.1-.9 5.1-.9.2.1 2.5.5 3.7.9m-17.4 9.6c-.7.4-1 1.3-1.8 1.8-1.2.7-2.9 2.2-4.3 3.3l-1 1.2c-.7.7-1.5 1.5-2.3 2s-4.5 1-4.7 1l-1.6-.7.4-.8h1.3l1-.5 1.4-1.7.8-.3 1.2-.8c1.1-1.1 2.1-2.9 2.6-4.2.5-1.1 1.7-1.9 2.2-2.9s.5-2.4 1.2-3.3c1.7-.4 3 1.1 4.5 1.1.6 0 .9-.3 1.9-.6.6 1.7 1.8 4.8 1.8 5l-.3 1.2c-.4-.3-1.9-1.1-2.5-1.1zm-6.7-143.3c-1.3 1.4-3.6 5.3-3.6 7.1 0 .2.1.7.3 1.4l-.4.1c-.2 0-2.9-.5-4-.5-2.7 0-6.7.8-9.3 2.8-1.1-3.3-4.8-5.8-6.3-7.4l1.5-.6c1.3 0 3.5 2.1 4.5 2.1.2 0 1-.1 1.7-.3l.2.4-1 1.6c0 1.3 1.1 1.9 2 1.9 1.5 0 2.3-1 2.3-2.3 0-1.6-.6-2.5-2.4-4 0-.8 1-1 1.4-1.3.1-1.6 0-3.1.8-4.5l.1-.5.6-.3 1.8 2.5.4 1.4c.5.7 1.7.3 2.5 1l-1.1 1.2c-.6 1-1.1 1.7-1.1 2.7 0 1.1.9 2.1 1.9 2.1 1.8 0 2.4-3.2 2.3-3.8l.4-1.4c.6-1 3.2-1.6 4.2-1.6zm.8 18.7c.9 1.1 2 1.9 3.1 2.8v1.4l-2.5 2.3-.4.6-.6.3-1.6-.8-.7.2c-1.8 0-1.9-2.2-2.2-3.3-.4.4-.4 1.5-.8 2.1-.8 1.6-.8.9-.8 2 0 .8-.1 1 .7 2-.6.6-2.8 2-3.6 2-1.4 0-2.9-.7-4.4-1.1.6-1.2.7-1.1.7-1.8l-.6-1.5-.8.2c-.3 0-3.5-1.3-3.5-2.2 0-.3 1.6-2.8 1.6-4.2s-1-3.7-1-5.2l.3-1.8 1.2-.6c1.6-1.1 6-1.8 8.2-1.8.2 0 2.8.3 3.8.3 2.2 1.8 2.5 4.4 3.4 6.5zm25-40v.3c2.7 2.8 5.5 5.7 8.3 8.7l-11.2-.7h-.4c-1.8 3.4-3.8 6.8-5.7 10.4-1.5-3-2.6-6.2-3.9-9.2l-.4-.1-10.1 1.6-.1-.3 4.8-9.9-6.5-9 .5-.4 10.4 1.7.5-.2c1-2.5 2.8-7.5 2.8-7.7l.3-.4c.3-.9.7-1.7.9-2.7l.3.1c1.7 3.2 3.2 6.4 4.8 9.6l.6.8 10.1-1.6zm26.9 65c-1.3-.2-3.1-1.3-3.1-2.3l.6.2.7-.3c.9 0 1.8 2.2 1.8 2.4m5 8.7-.3.5-1.5.5c-.8.5-.7 1.1-.6 1.7l-.1.9c-.8.5-1.4.4-2.2.4-.5 0-1-.1-1.7-.5l-1.5-.9-.1-.8.2-2.3c0-.7-.5-1-1-1-1.3 0-.8.3-2.7.8-1-.9-.1-2.2-1.2-3l-.3.2-.1 1.8c0 1-.3 2.6 1.2 2.6l2.2-.9h.5c-.2 1.4-.4 2.8-.6 4.2-1.5-.5-3-1-4.4-1.6l-1.7-.8-.7.7 1 1 .4.1c.7.3 1.4.9 1.9 1.6 2.3 2.5 3.6 5.2 4 7.9 0 .1-.1.2 0 2.6-.2 1.2-.4 2.9-1 4.2-1.3-1.1-1.1-2.6-1.7-4-.4-.9-.9-1.9-1.3-2.7-.4-.9-1-2-1.5-3-.5-1.1-1.2-2.2-1.9-3.3l-2.4-2.3-.5.2c2.7 3.2 4.8 7.5 6.3 11.2.6 1.5 1.2 4.9 1.2 5.1 0 .3-1 1.6-1 2.6l.6.6c.9 0 .9-1.6 1.9-1.6l1.8 1.1c.9.3 2.2 1.5 3.4 2.1 1.1.6 2.3 1.2 3.5 1.5.8.2 2 .1 3.1.2l-1.1 1.2c-.3.5-1.9 4.2-1.9 5.4v2.3l.2.2c0 .1.8 2.3 1.7 2.3.8 0 2.3-1.7 2.3-2.4v-.8l.1-.5h1.2l-.3.4v1.6c0 1.5-2.2 2.5-3 2.5-1.2 0-2.4-1.3-3-2.7-.6-1.2-2.5-2.8-3.6-3.5-1.5-1.1-3.1-1.9-4.8-2.8-2.1-1-4.4-1.7-6.4-2.9-.6-.3-1-1-1.2-1.6-.3-.7-.3-1.6-.5-2.3-1.5-4-3.3-9.1-6-11.2l-.2.2c.6 1.4 1.4 3 2.1 4.5.9 2 1.7 4.1 2.3 6.1.6 1.9.7 4.2 2.9 6.3-.8 1-3.4 2.5-4.6 2.5-1.3 0-1.8-.5-2.5-2.2l-.4-.2-.9.9 1.2 1.4.6.7c1.2.9 1.8 1.1 2.9 1.1l1.7-.5c1.3-.7 2.7-3.3 3.1-3.3.2 0 1.4.5 2.1.7-2.5 4.1-5.8 5.9-8.8 5.9-2.2 0-3.9-1.4-4.7-4.3v-2.4c.3-1.8 1.6-3.2 1.6-3.3 0-.7-1.8-4.4-1.9-4.8-.4-1.5-.5-3.1-.9-4.7v-7.6c.2-1 .5-2 .8-3.1.1-.6 1.8-2 2.3-2.4l.8-.5c.3-.1 7-2.6 7-4.2 0-.6-1-.6-1.4-.8l-.4-.5c.7-.4 1-1.5 1-2l-.5-1.7c-.8-1.4-2-1.7-3.1-2.3-1.1-.7-2.2-2.4-2.2-3.4 0-1.1.9-2.8 1.4-3.8 2.2-4 6.2-5.1 9.3-5.1.4 0 2.9.2 2.9 1 0 1.2-3.2 1.7-3.3 1.7l-.2.2.2.1h1.2l1.5-.4c1.3-.6 2-1.8 2.4-2.9l.3-.6c.6 0 1.2 1.3 1.2 2l-.3 1.4-.7.9c0 .5 2.5 2.7 2.5 3.4l-.1.3-.9.2-1.3 1.8c0 2.8 4.5 3 4.5 3.9l-1.3 1.7.4.5c.6 0 1.2-1.3 1.4-1.6 1.1.4 1.3 1.9 1.4 2.6.2.6.4 1.3.8 1.9.6.7 1.9 1.7 1.9 1.9m-7.9 16.4v-3.6c0-2.4-2.4-5.5-3.8-7.9h.4l1.8.2c1.5.5 3.2 2.7 3.9 4.2.5 1.1 1 3.5 1 4.8v4.4l-.5 3c.1 1.9 0 2.2 0 2.6-1.3-.8-2.9-2.1-4.3-2.5l-.1-.3.8-1.5c.3-1 .8-3.1.8-3.4m19.5-.4c0 1.2-4.7 1.8-4.7 1.8h-2.3l-.5.6c0 .8 1.5.5 1.6.5 1.7 0 3.3-.3 5-.7l1.4-1c.2 1.3-1.4 3.1-2.9 4.3l-1.4.7-.2 1.4v1.5l-.1 1.1c-1 .7-.9 1.7-2.1 2-.3.1-1.2-.1-1.2.6l1.1.7c.8 0 2.5-1 2.2-2.1h.4l.4.8c0 .9-1.2 1.3-1.8 2.3l-.4.2 1 .3c.4 0 3.9-1 3.9-2.1 0-.6-.9-1.1-.9-1.4l.8-1.1c.7 0 .5.4 1.3 1.2.5.6 1.5.4 2.1.4 1.1 0 1.9.2 3-1.1l.3-.7-.7-3.4.6-2.7c0-1-1.1-1.7-1.1-2.7s2.1-3.2 2.7-3.8l1.2-1.1c.3.9 1.6 2.5 1.6 2.5l-1.2 1.1-1.6 2.2-.3.5c0 .4 1.3 2.4 1.3 3.5l-.2 2.6.3 4c0 .8-.4 1.5-1.5 1.5-1.3 0-1.6.1-1.9.1l-1.7-.3-1.9.4-1.6-.4-.5.6c-.3 1.2-1.8 2.4-2.9 2.8l-1.5.3-6.7-.3v-.3c0-1.4 1-4 1.9-4.3.8-.3 1.9-1.1 2.8-1.7l.1-1.2-.2-1.4.1-1.6c0-.9-1.4-1.2-2.1-1.9-.6-.6-1.9-1.4-2-2.3l-.7-1.8.3-1.4c.3-.7 1.3-.9 2-1.1 1.3-.3 2.4-.5 3.6-.5.8.1 5.8.7 5.8 1.9m13 14.9.2 1.8c0 1-.3 2.7-1.8 2.7-1.9 0-4.5-2.5-6.1-2.5l-1.4.3c-.7 0-1.7-.4-1.7-1.4l1.3-1c.6 0 .5.7 1.3.7l1.7-.3h1.3l1.3.1 1-1.3c0-1.2-.6-3-.6-4.4l.2-3.5c0-1.7-1-1.8-1-2.9 0-.4 1.6-2.9 2.5-2.9l1.6 1.1c.7.4 1.6.5 2.5.6l2.2-.1c-.8 2.1-3.3 2.2-3.3 4.1l.8 2.9c-.2 2-2 5.4-2 6m2.3-17.8-1.3-1.2c-.3-.5-.7-1.1-.9-1.7l.3-.2c.8 0 .6 1.3 2.8 2.2.8.3 1.8.1 2.7.3s2.1 1.1 3.1 1.6v.2c-1.8 1.5-3.7 2.4-5.5 2.3l-1.5.2c-3.5 0-5.6-5-6.1-7l.5-.2c.9 0 .9 2.7 3.9 3.9l1.1.4zm-5.1-49.8c.2 0 1.9.2 2.8.4s1.9.9 2.7 1.3c.3.2 2.2.9 2.2 1.7l-2.8 4.6c-1.4-.8-2.7-1.2-4.1-1.3-1.2-.1-1.3-.1-1.5-.1-1.2 0-2.5.4-3.7.8l-3.4-4.8c2-1.7 5.6-2.6 7.8-2.6m36.3-8.1c0 .2 0 .3-.1 1.8 0 .7-.1 1.5-.2 2.2-.1.6-.5 1.2-.8 1.8s-.2 1.4-1 2l-1.3-1.1-1.1-1.7c-.3-.4-3.1-3.2-3.1-4 0-.2.2-1.3.3-1.9.1-1.1.4-2.1.7-3.2l.2-.2c.2-.7.5-1.4.8-2l.9-1.1.4-1-.5-.9h-1.1c-.3 0-3.5 1-3.5 2l.6.4c.2 0 1.2-.6 1.8-.8l-1.1 1.6c-.7 1.6-1.5 3.4-1.5 4.8 0 1.3-.9 2.1-2.4 2-1.5 0-1.8 0-3.9 0-.9 0-1.9.1-2.7.3-1.3.3-2.5.6-3.8 1.1-.8.3-1.6.6-2.3.6-2 0-2.7-1.1-5-2.4-1-.6-2.2-.9-3.2-1.4l.6-.3 1.6-.2c2.3 0 1.6 1 3.2 1 1.1 0 1.2-1 2.1-1.7h.3l-.1.3c0 1.1 2.6.2 2.6 1.8l-.5.6-1.1-1h-.2l-.7 1c0 .6.6 1.3 1.2 1.5l.8.1c.9 0 2.6-1.3 2.8-2l.1-1-1.2-2.3-1.1-.2-.9-.8c0-.9 1.6-1 1.6-1.7l-.4-2c0-.3.5-3.7 1.4-3.7l1.1.6.6-.5c0-1.2-1.8-1.5-2.1-1.5-.6 0-1.2.8-1.5 1.5-.4.9-.9 1.9-.9 2.8v1.5c0 .2-.2 1.4-.4 2.1l-.5.4-.5.8c-.6.5-1.7.8-2.4 1.7-.7-.5-1.8-.9-2.4-.9-.3 0-5 .7-5 2 0 .6.8.9 1.2 1.1.9.4 1.9.7 2.8 1.3 1.5 1 3.4 2.2 4.7 3.6 1.6 1.7 1 3.8 2.6 5.7l.1-.2-.4-1.8c0-.7 1.1-2.9 1.5-3.1l1-.4.9-.2c2 0 4.3 1.2 4.3 3.3l.3 1c.3.8.9 1.7 1.5 2.5.6.7 2 1.4 2 2.1 0 1.1-.4 1.7-.9 2.9l-.4.5c-.7 1.3-1.5 3.4-2.5 4.1l-1.9.3c-1.1 0-1.3-1-2.1-2.3-.6-1-1.5-1.8-2.1-2.8s-.1-2.6-.9-3.5l-.5.6-1-1-1.3-.7h-.3l-.1.2c0 .1 1.5 2.7 1.8 3.4v.3c-1.8.7-3.6 1.3-5.5 2l-.6.6c.6.5 2.1 3.5 2.1 4.5l-.2 1.8c-.3.9-.9 1.9-1.5 2.8l-1 1-.7-.6-.7-.2-.4.4 1.3 1.4h.8l.1 1.2 1.4.6 1.3 1.5.9 1c.9 1.6 2.4 3.7 2.3 5.4l.1 1.1c.1.7.3 1.9.3 2.2l-.4 2.2c0 1.5 1 2.1 1.9 3.8.4.7.7 2.2.7 2.5 0 .6-.6 2.3-.7 2.5l-1 1.3c-.7.4-1.7.9-1.8 1.8l-2.9-.8h-1.3c-1.7 0-1.4-2.1-3.3-2.1-.8 0-1 .6-1 1 0 .8.6 1.6 1 2.3-2-.9-2-3.8-4.2-3.8l-.9.2c.9-2.8 4.6-3.9 5.9-5.1l.8-2.1c.3-.7 1-1.4 1.4-2.1s.8-2.2.8-2.4l-.1-.5-.2-.1c-.8 0-1.2 2.2-1.3 2.4-.4.7-1 1.3-1.4 2-.4.6-.2 1.7-.9 2.2-2 1.6-5 2-5.9 4.3l-.3 1c-1.4 1.8-2.1 2.3-3.6 2.3h-.7l-1.5-1.7c0-.7.3-.9 1.2-1.8v-.9l.5-.4h2l.3-.2c1.3.1 1.9-1.9 2.2-2.7.4-1.5 3-3 3.4-4.8v-1.7c.3-1.1 1-2 2-3.6l-.3-.1c-1.1 0-2.3 2.1-2.5 2.8-.2.8 0 1.6-.2 2.3-.2.9-1.8 2.3-2.4 3-1 1.1-1.1 2.3-1.6 3.2l-1.1.6h-2l-1.5 1.6.2.8c-.6.2-1.1 1.1-.8 1.7l-.3.1c-.7 0-1.1-.7-1.1-1.2 0-1 .3-1.3 1-2.1h-.5l-.7-.8c0-1 1.5-.9 1.9-1l1.5-.6c.8-.4 1-1.1 1.3-1.9l.7-1.6c.8-1 2.4-1.4 2.5-2.6.1-1.1-.2-1.5-.1-2.4.1-1.4.6-2.9 1.7-3.7l1.2-.4c1.1-.5 3.1-3.2 3.1-4.4 0-.5-.1-.9-.7-.9l-.5.3c-.6 2-.9 3.2-2.7 3.2l-1.4-.2c-1.3-.7-2.7-2-2.7-3.1l.4-1.1-.5-.6c-.6.7-.2.9-1 .9-4 0-6.3-6.9-6.3-9 0-.9.4-3.4.7-3.9l1.3.7c.9.4 1.8.8 2.8 1.2-.6 1.4-.9 2.5-.9 3.6 0 1.7 0 3 2.2 3 .9 0 .9.1 1.9-.7l1.2-1.2.8-.2-.6-.4c-1.3 0-2.3 1.4-3.3 1.4-.8 0-.9-1.4-.9-1.5 0-1.4 1.2-3.2 1.6-4.3-1.7-1.2-3.9-1.4-5.6-3 .7-1.1 1.5-2.9 2.9-3.8 1.4 1.4 3 3.7 4.4 5.4 1-.7 2.1-.7 3.2-1 1.6.1 1.6.1 1.7 0 1.1.2 2.3.2 3.4.5l1.2.9 1.1-1.1c.2-.2 3-4.2 3-5.2s-.9-1.2-1.9-2.1l-1.4-.8c-1.5-.7-2.7-1.4-4.2-1.5l-.6-.9c-.1-.1-.7-3-.7-3.7l.1-1.8c0-1.5.8-5 1.2-5.7 1-2.1 2.7-4.8 5.1-6.9 2.6-2.3 5.3-3.6 8.1-4l1.3-.2 1.6.1 1.4-.2c1.3 0 4.8 1 5.3 1.2 1.6.7 3.7 1.4 5.4 2.7 2.7 2.1 3.8 4.5 5.2 6.9.3 1.4 1.2 4.7 1.2 6.3m-27.1 23.1c0-1.2-.6-2.6-1.7-4 1.3-.9 3.2-1.3 4.8-1.9.5.3.7 2.8.7 3.5 0 .2-.1 1.8-.3 2.6-.1.5-2.6 6.4-5.1 6.4l-.8-.5c0-.2 1.2-2.2 1.7-3.3.4-.8.7-2.5.7-2.8m28.4 3-.9.6c-1 0-3.9-.9-4.5-1.8-.9-1.3-2-2.7-1.9-4.1l-.1-1-.5-1.5c-.4-1.2-.8-2.5-1.4-3.7s-2-1.4-3-2.1-3.1-2.2-3.6-3.6c-.5-1.5-.9-3.9-3-4.6-1.6-.6-2.3-1-3.5-1l-1.6.4c-.4.2-.8.7-1.4 1l-.1-.4.7-.7c.7-.6 1.7-.8 2.5-1.1l1.4-.2c1.8-.4 4-.7 6-.7 4.4 0 5.7 1.6 9.7 6.9l1.2 1.2c1.3 1.6 1.9 1.8 1.9 3.3l-.3 2.5c0 2.2 1.3 2.9 2.2 4.9.3.6.1 1.8.1 2v3.7zm16.9 91.6h-48.2c-.8 0-.9-1.6-.9-1.7 0-.6.6-1.9 1.5-1.9h47.5l.7.7.3 1.2zm-45.3-4.8.5-17.5h42.3l.3.4v17.1zm34.4 31h-2.3l-.9.2h-32.9l.3-23.9h43.8v12.6c0 .2-3 5-4.6 7.5-.6.9-1.3 1.8-1.9 2.7s-.9.9-1.5.9m-2.2 4.5h-34.6l-3.7-7.5c.3-.7.7-1.3 1-1.9l3 6.5.3.2h35.9c-.5.7-1 1.9-1.9 2.7m-61.8 6.7h56.8c-15.1 17-34.7 29.9-56.8 37.2zm-3.7-20.7c0-1.2 1.9-3.6 1.9-7.7 0-.2-.3-1.9-.5-2.9.7.2.9.4 1.3 1.1.6 1 .7 2.3 1.3 3.4.5.8 1.3 1.5 1.9 2.2-.4.5-2.4 1.2-2.4 2.4 0 1.4 1.2 2.2 2.3 2.2 2.3 0 3.1-2.5 3.1-3.9 0-.2-.2-1.5-.5-2.2l-.4-.8 1.1-.2 1 .2c.2 0 1.2-1.7 2.1-2.2 1.2-.7 2.6-1.1 3.9-1.6v.3l-.5.7.7.7c.8 0 1-1 1-1.4 0-.9-.8-1.4-1.4-1.4-.8 0-4.3 1.6-4.5 1.6v-1.5l.6-8.2 1.3-7.9c-.1-.7-.1-1.4-.2-2.1-.1-.9-1.2-4.6-1.2-5.9 0-3.7 4.8-7.3 5.6-10.8l.4-1.4-.3-.5c-.7.7-1 1.7-1.6 2.6-.9-2.1-1.6-2.3-1.6-4 0-.2.3-1.8.7-2.5s3.3-3.9 4.3-3.9c.2 0 1.7.7 2.6 1.2-2.2 1.6-2.5 4.1-2.6 6.1-.1 1.9-.3 3.6-.3 3.9v8.7l-.4 6.4-.6 4.5.2.3-.1 2c-.1.8-.1 2.1-.1 2.4l-.5 2.6v1.8l.5.4.6-1.3c.2-.9.3-1.8.5-2.6l.2-1.2c.1-2 .4-3.4.5-4.7.2-2.3.2-4.2.2-4.7l-.2-.4.7-3.4v-12.7c0-1.2 1.2-5.3 1.4-5.5l.2-.8 1.3-1 1.5.3c1.5 0 3.2-1.1 3.2-2.6v-1.6c2.7-1.2 5.6-1.8 8.3-2.5 2-.5 4-1.3 6-1.8l-1.5-.4c-.2 0-1.8.4-2.7.5-1.2.3-2.5.7-3.8.9-2 .3-4.1.5-6.2 1.2l.9-1.6c.7-.6 1.9-1.1 2.7-1.7 1.5-1.1 3.2-2 4.9-2.4l.5-.2 2-.3c1.8 0 7.1 5 8.1 6.2l2.1.8.6-.3c-.2-.7-1.5-.8-1.9-1.3l-1.1-2c-1.2-1.5-2.8-2.7-4.2-4.2l.9-.6c2.5.1 3.6.3 3.9.3l1.1-.2c.7-.1 1.5 0 2.1-.2 7.3-2.3 12.5-11.8 12.8-17.7l.4-.8-.6-.9-.9.7v1.4c0 .2-1.1 4.1-2.1 6-.7 1.4-1.4 3.1-2.6 4.5-1 1.1-2.4 1.6-3.6 2.7-.5.4-1.2.8-2 1.1-1.8.8-3.7 1.2-5.5 1.3l-.9.2h-1.9l-.9.2c-.2 0-1.4-.2-2.1-.4 1.9-.7 4.4-2.5 6.2-4.3l.5-1c1-1.6 1.7-3.1 1.9-4.6.3-1.9.8-4 .9-5.9l.3-6.5c.2-1.6.3-3.1.5-4.7.2-1.3.9-3.5.9-3.8v-.9l-.2-.2c-1.1.9-1.3 2.4-1.6 3.5-.4 1.6-.9 6.5-.9 6.9v2.3c0 .2-.3 2.8-.5 4.1-.5 2.6-2 5.3-3.5 7.9-1.3 2.2-4.6 4.7-6.9 6.3l-1.5.3c-1.1 0-2.7-.3-3.6-.7 2.4-1.5 4.4-5 4.5-6.7 0-.6 0-1.2 0-1.9h1.8c1.1 0 3.3-1.1 3.8-1.3l.8-.2 1.8-.8 1.9-1.8-.6-.5c-.2 0-1.2.9-1.8 1.3-.4-.8-.8-1.6-1.2-2.3-.5-.9-1.2-1.7-1.5-2.6-.7-2-2-6-2-8.3 0-3.4 2.3-6.3 4.1-9.9l.2-1.4.2-.1 1.1.2c1.7 0 4.5-1.8 5.8-3.1l1.2-1.5-.8-.6-1.2 1.1c-.8.9-3.5 2.7-4.8 2.7l-1.6-.6v-1.4c0-.7.7-1.7 1.7-2.3v.3c0 .4-1 .8-1 1.5 0 .6.6 1 1.1 1 .2 0 1.3-.5 2-.8s1.4-.6 2-1.1c.9-.8 1.8-1.3 1.8-2.1l-.7-1.1c-1.2 0-.8 1.9-1.1 2.1-.6.5-2 1.1-2.7 1.4-.1-1-.8-2.4-2.1-2.9.5-.8.8-1.7 1.3-2.6.4-.8 1.4-1.9 1.5-2.8l.1-.8c3 1.5 3.6 5.1 4.2 7.1l.5 1.5c.3 1.8 1.8 3.1 2.9 3.9.7.5 1.9.4 2.7.9l.5 1c1.1 1.5 2.4 2.8 3.4 4.4.6 1 1.1 2.5 1.3 3.7l.4 1.5c.2.7.2 2 .2 2.2l-.4 4.1v1.7c0 .2-.2 3.3-.4 5-.2 1.5-.6 4.3-.6 4.6v4.4c0 2.4 1.6 3.5 1.6 3.9 0 1.1-1.6 2.6-1.6 3.2 0 .2.9 2.9 1.2 4.4s.4 3.1.6 4.7c.1 1.5.1 2.4 0 4.1-.1.9-.3 1.8-.5 2.6-.2.9-.6 1.8-.9 2.7-1.1 3.5-5.9 4.2-8.3 4.2-.2 0-1.9 0-2.8-.1l-1.6-.5c-.5-.1-1.3-.5-2-.9l-.9-.2c-.2 0-1.6.8-2.4.9-1.2.3-2.5.3-3.8.3l-3.6.1-1.9-.1c-.3-.3-.6-2.2-1.6-2.2h-.5l-.1.3c0 .3.9.6 1 1.7l.1 1.1c.5 1 1.3.7 2 1l18.6.1c2.8-.4 6.4-.4 9-4 .7-1 1.6-2.1 2.2-3.2 1-1.8 1.8-3.7 2-5.5l.2-.1v-1.5c0-.2.3-2 .5-3.1l.5-8.8v-15.1l-.7-7.5v-2.3c0-.2-.2-1.6-.3-3.3l-.2-.3c-.3-2.3-.8-6.8-.8-7.1 0-.2.1-.9.2-2.1.1-.7.7-1.7 1.1-2.1.6-.5 2-.5 2-1.5 0-.7-2.3-.9-2.3-2.8 0-2.8 2.4-1.6 2.4-5.9v-1.7l.2-1v-13.6l-.3-1.2c-.2-1.2-1.6-1-2.3-1.7l-.5-1.1c0-.7.7-1.6 1.5-1.6l1.2.5.4-.4c0-.5-1.2-.9-1.2-2.2 0-.6.6-2.3 1.9-2.3 1.1 0 1.9 1.7 1.9 2.3l-.7 2 .7.5 1.1-.4c.9 0 1.5 1.1 1.5 1.6 0 2.1-3.4 1.7-3.2 3.6v11.4c.1 1.3 1.1 7.1 1.1 7.4.2.7.8 1.1 1.2 1.6l.7 1.2v1.7l-1.5 1.7-1.4.1-.1.3.2.4.7.3 1.2 1c.8 1.2 1.1 2 1.1 3.2 0 .2-.3 3.5-.6 5.1-1 7-1.5 12.5-2.4 21.4l-.6 11.6v7.4l.3 1.6c.2 3.9 1.3 8 2 12.2 1.5 0 1.9 1.8 1.9 2.6 0 1-.5 2.6-2 2.8l-27.8.1-14.6-.1c-1.6-.2-3.1-2-3.1-3.4 0-1.7.4-2.3 2.4-2.6l.4-.2c-.2-.9-.9-.7-1.6-.7-1.7 0-3.2 2.1-3.2 3.5l.2.8c-.2 1.4.8 3 2.4 4.1l-.4 17.7-.4.2c-2.1 0-2.5 2.1-2.5 3.3 0 1.4.3 2.5 2.4 3.1 0 .2 0 .4-.1 1.5-.2 3-.9 6.4-1.4 9.4-.6 3.3-1.3 7-3.3 10.3l-1.6-.1-2.9-1.2.4-1.5c.2-.8.3-1.5.4-2.3l1.7-1-.6-.8.4-1.4c.6-5.1 1.9-15.2 1.9-15.4v-1.8l.5-5.9.5-14.8.3-1.7-.4-1-.6.5c-.1.9-.5 1.8-.6 2.7v1.3c-.4 1.5-.4 2.9-.4 4.3l-.2 1.2v6l-.4 2.1c.2 4.3-1.5 10.8-1.4 15.3l-.3.9c-.2 1.7-.7 3.6-1.3 5.2-.3.7-1.6 1.7-1.6 1.9l.2.4c1.3 0 1.6.1 2 .1l.1.4c-1.7.7-3.9 1.8-5.6 2.7-4.2 2.1-3.5 5.5-6.8 5.5-.9 0-1.5-.6-2.1-.9h-.4c-2.9-.8-6.8-4-6.8-6.9m-2 1.3v.8c-1.8.5-2.9 2.6-3.6 3.9l-1.4.3c-.5 0-2.6-1-2.8-1.6.9-1.1 1.9-2.6 2.3-3.6.3-.8.8-1.6 1.1-2.3.3-.9.7-1.8 1-2.7.4-1.1.7-2.2 1-3.4.5-2.3 1.1-6.7 1.1-7v-7.6c0-.2-.2-2-.4-3-.4.3-.4 1.2-.5 1.8l-.2 8.8c-.5 4.3-1.3 9-3.3 13.3-.7 1.6-1.4 3.6-3.1 4.9-.5.4-4.4 3.3-5.7 3.3-.2 0-2.1-.4-3-.8l-1.2-1.5-1.1-1.2c-1.4-2-2.2-4.2-2.8-6.2-.5-1.5-1.3-3-2-4.6-.5-1.1-2.4-2.6-3.6-3.1l1.4-.8c5.6 0 6.5 5.4 11.7 6.3.6.1 1.3.1 1.9.4l1 .7.6-.5-1-1.2c-.8-.4-1.7-.5-2.6-.9l-.4-.1-1.4-.9c-1.1-1.1-2.4-2.4-3.6-3.5l.4-.7c.8.3 2.3.7 2.5.7l1.6-.1c.7-.5.7-.3.7-.8 0-.7-.2-.7-.7-.7l-1.6.3-1.6-.6-.7-2.1c-.7-.9-2-2.7-2-3.8v-1.3l.8-5.5c-.3-1.3-.2-2.4-.7-3.5-.8-1.8-2.4-3.8-3.6-5.4-.5-.7-.5-1.9-.8-2.8-.4-1-.5-1.6-.5-2.4 0-2.8.6-3.1 2-6.7.4-1 .5-3 .5-3.3 0-1.7-1.1-3.2-1.4-5-.2-1.2-.1-1.7-.1-2.2.2.7.7 1.5.9 2.1.6 2 3.4 3.6 4.9 3.6 1.2 0 1.6.1 1.9.1 1.7 0 2.6-1 4.4-1.7l1.5-1.1c1.5-1.1 2.6-2.5 3.9-3.9 1.4.3 3.4 1.3 4.8 2.4l.1 1.3c0 .2-.3 1.4-.4 2.1-.2 2.7-1.2 5.8-2.3 8.6-.6 1.6-1.6 3.7-2.6 5.3l-.2.6-.7 1.2.7.5.8-.5c1.1-1.7 2.1-3.6 3.1-5.4.8-1.4 1.4-3 2.2-4.5.2 1.6.4 4.5.4 4.8s0 1.8-.1 2.7-.4 1.8-.6 2.8l-.2 1.7c-.2.7-.3 1.5-.6 2.2-.4 1.3-1.4 3.8-1.4 4l.7.6.4-.2c.8-1.7 1.4-3.4 2.3-5.2.6-1.3.9-2.8 1.4-4.2.9-.2 2.1.9 3.1 1.3 1.5.5 3.3.7 4.8 1.3 1.4.6 1.3 2.1 1.5 3.1 0 .1-.1.2 0 2.5-.2.8-.4 1.7-.6 2.5-.3 1.1-.8 2.3-1.1 3.3-.8 2.8-1.9 5.7-2.8 8.5v.7l-.4 1.4-2.1-1.3-1 .7.6 1.1c.1.1.6 2.6.6 3.3 0 .2-.1.7-.2 2.3-.1.7-.4 1.5-.6 2.2-.3 1.8-1.8 3.7-1.3 5.1m-69.9 19.4h69.6v31.9h-69.6zm14.9 74.2c-.6-.7-1.2-1.4-1.8-2.1l3.3-4.2-5.9-7.2-3 3.9c-.6-1.1-1-2.1-1.4-3.2l2.8-3.6-4.7-5.8v-7.6l4.1-5.1-3.6-4.4h3.7l1.6 2.1 1.6-2.1h3.7l-3.3 4.3 5.9 7.4 5.8-7.3-3.6-4.4h3.8l1.6 2.1 1.6-2.1h3.6l-3.3 4.3 5.9 7.4 5.8-7.3-3.6-4.4h4.1l1.6 2.1 1.6-2.1h3.4l-3.3 4.3 5.9 7.4 5.8-7.3-3.6-4.4h3.7l1.6 2.1 1.6-2.1h3.6l-3.3 4.3 5.9 7.4 1.5-1.9v8.6l-1.9-2.3-5.5 6.9 4.6 5.6c-.5 1-1.3 2-1.9 3l-4.8-6-5.8 7.2 5 6.1c-.7.8-1.4 1.6-2.1 2.4l-4.8-6-5.7 7.1 3.7 4.4c-1 .7-1.9 1.1-2.9 1.7l-3-3.6-5.5 6.9.1.2-.4.1c-.9 0-2.1-.3-3.3-.7l-5.7-7.1-2.1 2.7c-.7-.5-1.4-1.1-2-1.7l2.2-2.9-5.9-7.2zm-2.4-16.2 5.9 7.2 5.2-6.6-5.9-7.2zm13 2.7-5.7 7.2 5.9 7.4 5.8-7.3zm7.5 9.8-5.5 6.9 5.7 7.6 5.7-7.4zm2.1-2.6 6 7.1 5.5-7-5.8-7.2zm7.6-9.6 5.9 7.2 5.7-7.3-5.8-7.2zm7.9-9.8 5.9 7.1 5.5-7-5.9-7zm-9.7 7.6 5.8-7.3-6-7.4-5.7 7.2zm-2 2.5-6-7.3-5.6 7 6 7.4zm-13.3-2.5 5.8-7.3-6-7.4-5.7 7.2zm-15.6 0 5.8-7.3-6-7.4-5.7 7.2zm-3.7-44.1c-1.6-1.1-2.6-3.3-4.4-3.9 1.6 2.2 3.4 6.2 3.4 8.6v5.5c.8-.7 3.6-1.5 4.7-1.5h3.4c1.1 0 4 .7 4.7 1.5v-6l.3-.9c0-1.6 2.2-6.3 3.2-7.2-.9.4-2 1.1-2.6 1.9-.6.9-2.2 2.6-3.1 2.3-.1.7-.2 2.5-.2 2.7 0 1.1.3 2.9 1 4.1-.8.1-1.8-.4-2.8-.6l-1.4-.1c1.6-2 1.4-3.6 2.1-6-3.1-2.4-1.7-5.7-2.7-8.3l-.3-.2c-1 3 .2 6-2.8 8.8 1 1.8.6 4.2 2.2 5.8-.8.1-1.7.1-2.6.3l-1.4.5-.2-.1c.6-2.4.8-2.5.8-4.2 0-.2-.1-1.6-.1-2.5zm-1.3 11.9c0 1.4 4.5 2 4.8 2 1.7.1 2.4.2 3.8 0 1.3-.2 2.8-.5 4-1l.9-1c0-1.9-6.4-2.1-6.7-2.1-.5 0-6.8.1-6.8 2.1m25.7-11.5c-2.3 0-3.5-3.7-5.8-4.3.6.7 1 1.4 1.4 2l1.8 4.7.3 2.1v5.1c1-.8 3.5-1.5 4.6-1.5h3.4c1.1 0 4 .7 4.7 1.4v-5.2c0-2.6 1.7-6.4 3.5-8.8-2.4.8-3.4 4.3-5.8 4.4-.1 1.5-.1 2.3-.1 2.5 0 1.4-.1 1.3.4 3.1l.5 1.1c0 .2-.9-.2-2-.5-.7-.2-1.5-.1-2.1-.2 1.5-1.9 1.2-3.9 2.1-5.7v-.2c-3-2.8-1.9-5.8-2.7-8.6h-.4c-.8 3 .3 6-2.7 8.7.8 1.8.8 4.1 2.2 5.9-1.2.2-2.7.1-4 .8l-.1-.2c.5-1.3.8-2.8.7-4v-2.6zm-2.6 11.5c0 1.4 4.1 2 4.8 2.1 1.5.2 2.2.1 3.8 0 .1 0 4.8-.5 4.8-2.1 0-1.9-6.1-2.1-6.7-2.1-.4 0-6.7.1-6.7 2.1m24.9-11.7c-1.7-.5-2.8-3.4-5.1-4.2 1.1 1.4 3.5 6.1 3.5 8v6.1c.5-.7 3.7-1.5 4.7-1.5h3.3c1.3 0 3.6.6 4.8 1.5v-5.7c0-2.4 2-6.6 3.5-8.4-.8.4-1.7.8-2.4 1.6-.8 1.1-2.4 2.9-3.4 2.7 0 .8-.1 2.2-.1 2.4s.1 1.7.2 2.6l.7 1.6-.1.2c-1.2-.4-2.9-.6-4.1-.8 1.6-1.8 1.3-4.1 2.3-5.9-3.3-2.5-1.9-5.9-2.9-8.6l-.2-.1-.2 1.2-.2.3-.2.8c0 2-.2 4.9-2.4 6.6.9 1.4.9 4.2 2.2 5.8-.8.1-1.7.1-2.6.3l-1.4.5-.2-.1c.3-.5 1-3 1-4.2 0-.2-.2-.9-.2-2zm-1.9 11.7c0 1.6 4.5 2.1 4.9 2.1 1.4.1 2.1.1 3.7 0 .1 0 4.8-.5 4.8-2.1 0-1.8-5.6-2.1-6.8-2.1-.4 0-6.6.2-6.6 2.1m31.1-44.7-.4.7.3 1.6.6.6 1.5.5c1.2 0 2.7-1.2 2.5-2.7 1-.8 2.7-.9 4.2-1.2l-1.3-.1-.7.2c-.2 0-.9-.2-2.3 0l-1.2.6c0 .2.1 1.6-.7 1.6-.6 0-.8-.6-.8-1.1 0-1.5 1.9-1.8 2.7-1.8l1.1.2.6-1.1c0-.7-.2-3.1-1.7-3.1l-.7.2v.3l1 2-.1.2h-.4c-1.5 0-3.3.1-4.2 2.4m5.9-6.2.2-.5-.4-.5-.5.6.4.3h.3zm39.7 29.1h-49.7v31.8c19-6.6 36-17.7 49.7-31.8m-6.8 3.5c-5.5 7.6-18.1 17.1-25.9 11-.5 8-7.8 13.6-15.3 13.6-.7-7.2 2.8-13.5 8.8-14.8-3.7-.8-9.3-4.8-10-11 8-2.5 15 1.6 16.5 7.5 6.1-10.1 22-8.7 25.9-6.3m-4.4.9c-4.9-1.1-15.5-.6-20.1 8 5.7 4.9 15.7-2.8 20.1-8m-23.4 7.4c-.9-3.8-4.2-9.2-11.9-8 2.3 5.6 8.6 8 11.9 8m-.5 2.9c-3.9.4-10.7 2.9-10.6 10.7 8.7-2 10.4-8.1 10.6-10.7m30.2-178.4-.5-.5-.6.2-1.8-.4-1.2.1-1 .5h-1.1l-.9-.5-.6.3c.5 1.2 1.4.2 1.8 1.2-1 .8-1.5 1.9-1.5 2.8s.7 2.4 2.1 2.4c2 0 2.5-2 2.5-3.3l-.8-1.7.2-.2.9-.1c.6 0 1 .5 1.2.5.4 0 1.3-.6 1.3-1.3m-4.5 3.7c0 .4-.3 1.1-.9 1.1l-1.1-1 1.4-1.5zm-3.6-4.4.8-.8c0-.2-.5-1.4-1.2-1.4l-.4.1v.4c.6.5.5 1 .8 1.7m-15.4 34.7.9-.9-1-.5-.2-.3v-1.7l-1.3-2.6-1-.2c-.6 0-.7 0-1.5.9v.3h1.2l1.3 1.4v1.9c.1.9.7 1.7 1.6 1.7m-4-1.9-2 1.2 1.1 1.2 1-.6-.2-.6.6-.3v-.6zm-2.7 4.9.5-.7c0-.6-.5-2.8-2.1-2.8-.2 0-1-.1-1 .6l.8 1.1.7-.3c.5.6.1 1.5.6 1.9zm.1 1.2-.2.3.8.4c.7 0 .7-.5 1.2-.8l-.6-.2zm1.3 1-.6.3.2.2.7-.4zm15.6-21-.5.5 1.3.6c.3 0 1.2-.5 1.3-1.1l-1.3.4zm2.3-.3-.4 4.9.7.7.4-.3 1-.1.2-.4-.6-.6.2.2-.2.2c-.8-.2-.9.1-1.1.1l-.2-.3.3-3.1zm.6 6.6-.5.6.7.2 1.5-.1.4-.2 1.4-.6c-.6 0-1.6-.2-1.8-.2zm2.1 1.1c-.5.4-1 .3-1.8.3l1.1.8c.1 0 1.1-.2 1.1-.9zm1.9-8.7-.1-.3-2.2 1.2-.9-.1c-.1.7.9 1.1 1.4 1.1zm-39.5 53.2.5-.3v-.3l-.6-.2-.6.4zm-6.7-20.1.8-1-.5-.5-1.4 1.3.2.2zm-.9-1.6 1.7-.8v-.5h-.9-.5l-.9.4-1.2 1.6.4.6.9-.4zm-5.5-7.2.5-.9-.6-.5-3.1 2.2.2.5h.3l1.2-.7c.3 0 .2 1 1.2 1l.7-.8zm-4.1 3.3c-.3-.7-1.1-1.9-1.1-2.2l1.1-1.4c.4-.7.4-1.5.4-2.4 0-.1-.1-2.2-.9-2.2l-.5.4c0 .2.3.7.2 1.8l-.4 1.8c-1.2 1.5-2.1 1.3-2.1 2.6 0 1.5 1.7 3.2 1.7 4.6l-.2.8.7.9c.8 0 1.6-1.6 1.6-2.3 0-.3-.2-1.6-.5-2.4m-2.8 8.8-.8-1c-.7 0-1.1.9-1.1 1.4l.8.6c.7.1 1.1-.1 1.1-1m-21.5-74.7-.3-.3.3-.3h4.7l5.8-7.7-11.6 7.2-.3-.1v-.3l2.6-6.2-3.4-7.1v13.7h-.3l-1.4-.5c-3.8-2-7.6-3.9-11.4-5.9l5.4 7.7h7l-10.9 7.8c2.6-.5 5.5-.3 7.6-1.8 1.8-1.2 2.3-3.7 3.5-5.3h.5v14.4c1.3-2.9 2.5-5.7 3.8-8.5l.5-1.1h.2l9.1.9c-3.7-2.2-7.6-4.4-11.4-6.6m-19.2 45 1.2-.9c-1-1.3-2.4-2.4-2.8-3.6-.4-1.3-.9-3.7-1.9-5v.8c.2 1.1.8 2.9.8 3.1 0 .7-.2.6-.7.6-.6 0-.2.1-1-.5v-1.3c0-1.1-1.3-4.9-1.5-5.3l-.1.6c0 .2.5 2.3.7 3.5l-.1 1.2v1.6c0 1.5 1.8 1.2 2.6 1.1.4.1 1.7 4.1 2.8 4.1m-7.6-8.9c.8.1 1.1-.1 1.2-.6l-1.2-.2c-.4 0-3.1.4-3.1 1.1l.1.3 1.4-.5.2.1c-.1 1 .2 1 .6 1l.9-.7zm-2.4 4.6c-.8.5-1.7-.1-1.7.7l.1.4.9.1 1.4-.9-.8-1.3-.3.2zm-2.6-4.3.6-.1-.7-.7c-.2 0-1.5.1-2.1.3l-.4.7 1.1-.2c.2 0-.2 1.4.7 1.4l.9-.8-.1-.5zm3.1 8.3-1 .6.3.5.9-.3.2-.4zm-1.5-.2.9-.4c.7-.3 1.7 0 2.2-.7l-.2-.2h-1.7l-1 .2-.7.7zm-3.5-5.4h-.5v1.1c0 .2.2 2.1.5 3l.6 1.2c.5.6 1.2 1 1.7 1.7l.8 1.5 1.6.5c.5 0 2.1-.4 2.1-1.2-.6.2-1.6.6-1.9.6l-1.2-.8-.5-1.2c-.6-.7-1.6-1.2-2-1.9-.7-1.4-.7-3-1.2-4.5m16.3 55.9-.3.6c0 .2.5 1.6.6 2.2.2.8.4 1.5.5 2.3.1 1 .2 2.1.3 3l.3 1.6c.2.7.2 1.9.2 2.1l.6 11.7v10.9l-.4 3v4.6l-.3 1.7c0 .2 0 2.7.1 4.1.2 2.2.2 4.4 2.2 6.7l.8.7 1-.8-1.2-1.4c-.3-1.1-.7-3.3-.7-3.6v-2.8l-.4-4.2.3-1.2v-11.4l-.2-14.3c-.7-4.6-.5-10.6-2.9-15.1zm8.6-26.2-.9 1c0 .2.2 1 .9 1 .2 0 1.2-.2 1.2-.9zm-59.2 13.1.6-.5-.2-.3h-.5l-.4.2-5.2-.1c-.9-.1-1.7-.3-2.9-.6v.6c.4.5 1.5.9 2.2.9h5.3zm-4.4-24.8c.3 0 .8-.1.8-.8l-.9-.9-.9 1zm-27.4 26.7 1.1-1.1c0-.4-.4-.9-1.2-.9l-1.1 1.1zm12.4-47.4-.7.2v.7l1 .3c-.5.7.5 1.2 1.1 1.2l1-.4.4-.5.3.3.2-.2c.3-1.1-2.3-1.6-3.3-1.6m1.1 6.5-.3.4.8 1.2 1.7.2 1-.8c-1.1-.7-2.3-.1-3.2-1m.9 2.1-.7.4.9.5.6-.4v-.3zm1.4-2.4.9-.4v-.3c-.6-.2-1.6-.7-1.9-.7l-.6.2c-.1.9 1.2 1.2 1.6 1.2m-9.8 142.5c13.7 14.2 30.7 25.2 49.7 31.8v-31.8zm6.8 3.5c4-2.4 19.9-3.7 25.9 6.2 1.6-6 8.5-10 16.5-7.5-.7 6.2-6.3 10.2-10 11 6 1.4 9.4 7.6 8.8 14.8-7.6 0-14.9-5.6-15.3-13.6-7.8 6.1-20.4-3.3-25.9-10.9m4.4.9c4.5 5.2 14.4 12.9 20.1 8-4.6-8.5-15.2-9.1-20.1-8m23.4 7.4c3.3 0 9.6-2.5 11.8-8-7.6-1.1-11 4.2-11.8 8m.5 2.9c.2 2.6 1.9 8.7 10.6 10.7.1-7.8-6.8-10.3-10.6-10.7" fill="#41799e"/></svg>